M48
; DRILL file {KiCad (6.0.6)} date Wed Oct  5 22:20:27 2022
; FORMAT={-:-/ absolute / inch / decimal}
; #@! TF.CreationDate,2022-10-05T22:20:27+02:00
; #@! TF.GenerationSoftware,Kicad,Pcbnew,(6.0.6)
; #@! TF.FileFunction,NonPlated,1,2,NPTH
FMAT,2
INCH
; #@! TA.AperFunction,NonPlated,NPTH,ComponentDrill
T1C0.0256
; #@! TA.AperFunction,NonPlated,NPTH,ComponentDrill
T2C0.0689
; #@! TA.AperFunction,NonPlated,NPTH,ComponentDrill
T3C0.1200
; #@! TA.AperFunction,NonPlated,NPTH,ComponentDrill
T4C0.1570
%
G90
G05
T1
X5.8673Y-2.0336
X6.0949Y-2.0336
T2
X1.6561Y-3.9508
X1.7499Y-3.2008
X1.8436Y-2.4508
X2.0561Y-3.9508
X2.1499Y-3.2008
X2.2436Y-2.4508
X2.4061Y-3.9508
X2.5936Y-3.2008
X2.5936Y-4.7008
X2.7811Y-2.4508
X2.8061Y-3.9508
X2.9936Y-3.2008
X2.9936Y-4.7008
X3.1561Y-3.9508
X3.1811Y-2.4508
X3.3436Y-3.2008
X3.4374Y-4.7008
X3.5311Y-2.4508
X3.5561Y-3.9508
X3.7436Y-3.2008
X3.8374Y-4.7008
X3.9061Y-3.9508
X3.9311Y-2.4508
X4.0936Y-3.2008
X4.2811Y-2.4508
X4.3061Y-3.9508
X4.3749Y-4.7008
X4.4936Y-3.2008
X4.6561Y-3.9508
X4.6811Y-2.4508
X4.7749Y-4.7008
X4.8436Y-3.2008
X5.0311Y-2.4508
X5.0561Y-3.9508
X5.2436Y-3.2008
X5.3124Y-4.7008
X5.4061Y-3.9508
X5.4311Y-2.4508
X5.7124Y-4.7008
X5.7811Y-2.4508
X5.7811Y-3.2008
X5.8061Y-3.9508
X6.1561Y-3.9508
X6.1811Y-2.4508
X6.1811Y-3.2008
X6.2499Y-4.7008
X6.5311Y-2.4508
X6.5561Y-3.9508
X6.6499Y-4.7008
X6.7186Y-3.2008
X6.9061Y-3.9508
X6.9311Y-2.4508
X7.1186Y-3.2008
X7.1874Y-4.7008
X7.2811Y-2.4508
X7.3061Y-3.9508
X7.4686Y-3.2008
X7.5874Y-4.7008
X7.6561Y-3.9508
X7.6811Y-2.4508
X7.8686Y-3.2008
X8.0311Y-2.4508
X8.0561Y-3.9508
X8.1249Y-4.7008
X8.2186Y-3.2008
X8.4061Y-3.9508
X8.4311Y-2.4508
X8.5249Y-4.7008
X8.6186Y-3.2008
X8.7811Y-2.4508
X8.8061Y-3.9508
X8.9686Y-3.2008
X8.9686Y-4.7008
X9.1561Y-3.9508
X9.1811Y-2.4508
X9.3686Y-3.2008
X9.3686Y-4.7008
X9.5561Y-3.9508
X9.9061Y-3.9508
X10.0124Y-2.6258
X10.0124Y-3.0258
X10.3061Y-3.9508
T3
X10.2874Y-2.3558
X10.2874Y-3.2958
T4
X1.8561Y-3.9508
X1.9499Y-3.2008
X2.0436Y-2.4508
X2.6061Y-3.9508
X2.7936Y-3.2008
X2.7936Y-4.7008
X2.9811Y-2.4508
X3.3561Y-3.9508
X3.5436Y-3.2008
X3.6374Y-4.7008
X3.7311Y-2.4508
X4.1061Y-3.9508
X4.2936Y-3.2008
X4.4811Y-2.4508
X4.5749Y-4.7008
X4.8561Y-3.9508
X5.0436Y-3.2008
X5.2311Y-2.4508
X5.5124Y-4.7008
X5.6061Y-3.9508
X5.9811Y-2.4508
X5.9811Y-3.2008
X6.3561Y-3.9508
X6.4499Y-4.7008
X6.7311Y-2.4508
X6.9186Y-3.2008
X7.1061Y-3.9508
X7.3874Y-4.7008
X7.4811Y-2.4508
X7.6686Y-3.2008
X7.8561Y-3.9508
X8.2311Y-2.4508
X8.3249Y-4.7008
X8.4186Y-3.2008
X8.6061Y-3.9508
X8.9811Y-2.4508
X9.1686Y-3.2008
X9.1686Y-4.7008
X9.3561Y-3.9508
X9.6874Y-2.3558
X9.6874Y-3.2958
X10.0124Y-2.8258
X10.1061Y-3.9508
T0
M30
