M48
; DRILL file {KiCad (6.0.6)} date Wed Oct  5 22:20:27 2022
; FORMAT={-:-/ absolute / inch / decimal}
; #@! TF.CreationDate,2022-10-05T22:20:27+02:00
; #@! TF.GenerationSoftware,Kicad,Pcbnew,(6.0.6)
; #@! TF.FileFunction,Plated,1,2,PTH
FMAT,2
INCH
; #@! TA.AperFunction,Plated,PTH,ViaDrill
T1C0.0157
; #@! TA.AperFunction,Plated,PTH,ComponentDrill
T2C0.0236
; #@! TA.AperFunction,Plated,PTH,ComponentDrill
T3C0.0394
; #@! TA.AperFunction,Plated,PTH,ComponentDrill
T4C0.0409
; #@! TA.AperFunction,Plated,PTH,ComponentDrill
T5C0.0579
%
G90
G05
T1
X2.4851Y-4.1308
X3.1137Y-4.1308
X3.9526Y-4.1352
X4.0096Y-4.2598
X4.7141Y-4.1308
X5.3217Y-3.3414
X5.3305Y-4.2362
X5.4083Y-4.1404
X5.4663Y-3.3406
X5.6159Y-2.0748
X5.6437Y-2.4615
X5.6557Y-4.356
X5.7085Y-4.0315
X5.8261Y-2.1622
X5.864Y-4.1772
X5.9014Y-2.7274
X5.9571Y-4.356
X5.9825Y-1.952
X5.9874Y-4.3811
X6.0346Y-4.9088
X6.0346Y-4.9481
X6.0503Y-2.1749
X6.0622Y-4.2103
X6.0623Y-4.8808
X6.0951Y-2.5353
X6.1272Y-4.884
X6.1407Y-2.1712
X6.1577Y-4.1598
X6.1767Y-2.1555
X6.2468Y-2.8041
X6.2937Y-2.6793
X6.2939Y-2.5006
X6.3407Y-2.8035
X6.3462Y-2.4568
X6.3864Y-2.8014
X6.4061Y-4.4091
X6.4343Y-2.6949
X6.4343Y-2.4899
X6.4368Y-3.5591
X6.6002Y-4.1909
X6.7163Y-3.2669
X6.9642Y-4.129
X7.1152Y-4.3846
X7.7142Y-4.129
X8.3893Y-3.882
X8.4091Y-4.0294
X8.4535Y-4.0913
X8.5488Y-4.1309
X8.8577Y-4.872
X8.8785Y-2.5914
X8.8928Y-4.8543
X8.9099Y-3.3413
X8.928Y-4.8366
X8.9349Y-3.2771
X9.0271Y-4.0513
X9.351Y-4.4382
X9.625Y-4.8189
X9.6571Y-4.6469
X9.673Y-4.3661
X9.8291Y-4.0673
X9.8801Y-4.9016
X9.9256Y-4.2732
X9.9392Y-5.0676
X9.9428Y-4.8663
X10.0187Y-4.8614
X10.04Y-4.4717
X10.0474Y-4.9008
X10.101Y-5.0173
X10.1047Y-4.8992
X10.1441Y-4.8987
X10.1728Y-4.9505
X10.196Y-4.6006
X10.1998Y-4.9218
X10.2127Y-4.7426
X10.2234Y-4.6289
X10.2539Y-4.9768
T3
X9.1155Y-3.526
X9.1155Y-3.626
X9.2155Y-3.526
X9.2155Y-3.626
X9.3155Y-3.526
X9.3155Y-3.626
T4
X5.5561Y-4.1508
X5.6561Y-4.1508
X5.9311Y-2.6508
X5.9311Y-3.4008
X6.0311Y-2.6508
X6.0311Y-3.4008
X6.3061Y-4.1508
X6.4061Y-4.1508
T5
X1.7061Y-3.8508
X1.7999Y-3.1008
X1.8936Y-2.3508
X1.9561Y-3.7508
X2.0499Y-3.0008
X2.1436Y-2.2508
X2.4561Y-3.8508
X2.6436Y-3.1008
X2.6436Y-4.6008
X2.7061Y-3.7508
X2.8311Y-2.3508
X2.8936Y-3.0008
X2.8936Y-4.5008
X3.0811Y-2.2508
X3.2061Y-3.8508
X3.3936Y-3.1008
X3.4561Y-3.7508
X3.4874Y-4.6008
X3.5811Y-2.3508
X3.6436Y-3.0008
X3.7374Y-4.5008
X3.8311Y-2.2508
X3.9561Y-3.8508
X4.1436Y-3.1008
X4.2061Y-3.7508
X4.3311Y-2.3508
X4.3936Y-3.0008
X4.4249Y-4.6008
X4.5811Y-2.2508
X4.6749Y-4.5008
X4.7061Y-3.8508
X4.8936Y-3.1008
X4.9561Y-3.7508
X5.0811Y-2.3508
X5.1436Y-3.0008
X5.3311Y-2.2508
X5.3624Y-4.6008
X5.4561Y-3.8508
X5.6124Y-4.5008
X5.7061Y-3.7508
X5.8311Y-2.3508
X5.8311Y-3.1008
X6.0811Y-2.2508
X6.0811Y-3.0008
X6.2061Y-3.8508
X6.2999Y-4.6008
X6.4561Y-3.7508
X6.5499Y-4.5008
X6.5811Y-2.3508
X6.7686Y-3.1008
X6.8311Y-2.2508
X6.9561Y-3.8508
X7.0186Y-3.0008
X7.2061Y-3.7508
X7.2374Y-4.6008
X7.3311Y-2.3508
X7.4874Y-4.5008
X7.5186Y-3.1008
X7.5811Y-2.2508
X7.7061Y-3.8508
X7.7686Y-3.0008
X7.9561Y-3.7508
X8.0811Y-2.3508
X8.1749Y-4.6008
X8.2686Y-3.1008
X8.3311Y-2.2508
X8.4249Y-4.5008
X8.4561Y-3.8508
X8.5186Y-3.0008
X8.7061Y-3.7508
X8.8311Y-2.3508
X9.0186Y-3.1008
X9.0186Y-4.6008
X9.0811Y-2.2508
X9.2061Y-3.8508
X9.2686Y-3.0008
X9.2686Y-4.5008
X9.4561Y-3.7508
X9.9561Y-3.8508
X10.1124Y-2.6758
X10.2061Y-3.7508
X10.2124Y-2.9258
T2
G00X5.811Y-1.8781
M15
G01X5.811Y-1.9017
M16
G05
G00X5.811Y-2.0328
M15
G01X5.811Y-2.0761
M16
G05
G00X6.1512Y-1.8781
M15
G01X6.1512Y-1.9017
M16
G05
G00X6.1512Y-2.0328
M15
G01X6.1512Y-2.0761
M16
G05
T0
M30
