%TF.GenerationSoftware,KiCad,Pcbnew,(6.0.6)*%
%TF.CreationDate,2022-10-05T22:20:27+02:00*%
%TF.ProjectId,Larva,4c617276-612e-46b6-9963-61645f706362,rev?*%
%TF.SameCoordinates,Original*%
%TF.FileFunction,Soldermask,Bot*%
%TF.FilePolarity,Negative*%
%FSLAX46Y46*%
G04 Gerber Fmt 4.6, Leading zero omitted, Abs format (unit mm)*
G04 Created by KiCad (PCBNEW (6.0.6)) date 2022-10-05 22:20:27*
%MOMM*%
%LPD*%
G01*
G04 APERTURE LIST*
G04 Aperture macros list*
%AMRoundRect*
0 Rectangle with rounded corners*
0 $1 Rounding radius*
0 $2 $3 $4 $5 $6 $7 $8 $9 X,Y pos of 4 corners*
0 Add a 4 corners polygon primitive as box body*
4,1,4,$2,$3,$4,$5,$6,$7,$8,$9,$2,$3,0*
0 Add four circle primitives for the rounded corners*
1,1,$1+$1,$2,$3*
1,1,$1+$1,$4,$5*
1,1,$1+$1,$6,$7*
1,1,$1+$1,$8,$9*
0 Add four rect primitives between the rounded corners*
20,1,$1+$1,$2,$3,$4,$5,0*
20,1,$1+$1,$4,$5,$6,$7,0*
20,1,$1+$1,$6,$7,$8,$9,0*
20,1,$1+$1,$8,$9,$2,$3,0*%
%AMRotRect*
0 Rectangle, with rotation*
0 The origin of the aperture is its center*
0 $1 length*
0 $2 width*
0 $3 Rotation angle, in degrees counterclockwise*
0 Add horizontal line*
21,1,$1,$2,0,0,$3*%
G04 Aperture macros list end*
%ADD10C,1.000000*%
%ADD11C,1.750000*%
%ADD12C,2.250000*%
%ADD13C,3.987800*%
%ADD14C,3.048000*%
%ADD15C,1.905000*%
%ADD16R,1.905000X1.905000*%
%ADD17RoundRect,0.225000X-0.335876X-0.017678X-0.017678X-0.335876X0.335876X0.017678X0.017678X0.335876X0*%
%ADD18RoundRect,0.225000X0.335876X0.017678X0.017678X0.335876X-0.335876X-0.017678X-0.017678X-0.335876X0*%
%ADD19RoundRect,0.225000X0.250000X-0.225000X0.250000X0.225000X-0.250000X0.225000X-0.250000X-0.225000X0*%
%ADD20RoundRect,0.150000X-0.150000X0.587500X-0.150000X-0.587500X0.150000X-0.587500X0.150000X0.587500X0*%
%ADD21RoundRect,0.250000X-0.625000X0.375000X-0.625000X-0.375000X0.625000X-0.375000X0.625000X0.375000X0*%
%ADD22RoundRect,0.200000X-0.335876X-0.053033X-0.053033X-0.335876X0.335876X0.053033X0.053033X0.335876X0*%
%ADD23RoundRect,0.200000X0.275000X-0.200000X0.275000X0.200000X-0.275000X0.200000X-0.275000X-0.200000X0*%
%ADD24R,1.800000X1.100000*%
%ADD25RoundRect,0.150000X0.150000X-0.512500X0.150000X0.512500X-0.150000X0.512500X-0.150000X-0.512500X0*%
%ADD26R,1.400000X1.200000*%
%ADD27RoundRect,0.200000X-0.275000X0.200000X-0.275000X-0.200000X0.275000X-0.200000X0.275000X0.200000X0*%
%ADD28RoundRect,0.200000X0.335876X0.053033X0.053033X0.335876X-0.335876X-0.053033X-0.053033X-0.335876X0*%
%ADD29R,1.700000X1.700000*%
%ADD30O,1.700000X1.700000*%
%ADD31RoundRect,0.225000X-0.250000X0.225000X-0.250000X-0.225000X0.250000X-0.225000X0.250000X0.225000X0*%
%ADD32RoundRect,0.218750X0.218750X0.256250X-0.218750X0.256250X-0.218750X-0.256250X0.218750X-0.256250X0*%
%ADD33C,0.650000*%
%ADD34R,0.600000X1.450000*%
%ADD35R,0.300000X1.450000*%
%ADD36O,1.000000X1.600000*%
%ADD37O,1.000000X2.100000*%
%ADD38RoundRect,0.062500X0.380070X-0.291682X-0.291682X0.380070X-0.380070X0.291682X0.291682X-0.380070X0*%
%ADD39RoundRect,0.062500X0.380070X0.291682X0.291682X0.380070X-0.380070X-0.291682X-0.291682X-0.380070X0*%
%ADD40RotRect,5.200000X5.200000X135.000000*%
%ADD41C,0.800000*%
G04 APERTURE END LIST*
D10*
%TO.C,H2*%
X37835000Y-54730000D02*
X37835000Y-126730000D01*
X39435000Y-53130000D02*
G75*
G03*
X37835000Y-54730000I0J-1600000D01*
G01*
X37835000Y-126730000D02*
G75*
G03*
X39435000Y-128330000I1600000J0D01*
G01*
X265835000Y-126730000D02*
X265835000Y-54730000D01*
X264235000Y-128330000D02*
G75*
G03*
X265835000Y-126730000I0J1600000D01*
G01*
X265835000Y-54730000D02*
G75*
G03*
X264235000Y-53130000I-1600000J0D01*
G01*
%TD*%
D11*
%TO.C,MX1*%
X56987500Y-62250000D03*
X46827500Y-62250000D03*
D12*
X48097500Y-59710000D03*
D13*
X51907500Y-62250000D03*
D12*
X54447500Y-57170000D03*
%TD*%
D11*
%TO.C,MX2*%
X80800000Y-62250000D03*
X70640000Y-62250000D03*
D12*
X71910000Y-59710000D03*
D13*
X75720000Y-62250000D03*
D12*
X78260000Y-57170000D03*
%TD*%
D11*
%TO.C,MX3*%
X99850000Y-62250000D03*
X89690000Y-62250000D03*
D12*
X90960000Y-59710000D03*
D13*
X94770000Y-62250000D03*
D12*
X97310000Y-57170000D03*
%TD*%
D11*
%TO.C,MX4*%
X118900000Y-62250000D03*
X108740000Y-62250000D03*
D12*
X110010000Y-59710000D03*
D13*
X113820000Y-62250000D03*
D12*
X116360000Y-57170000D03*
%TD*%
D11*
%TO.C,MX5*%
X137950000Y-62250000D03*
X127790000Y-62250000D03*
D12*
X129060000Y-59710000D03*
D13*
X132870000Y-62250000D03*
D12*
X135410000Y-57170000D03*
%TD*%
D11*
%TO.C,MX7*%
X176050000Y-62250000D03*
X165890000Y-62250000D03*
D12*
X167160000Y-59710000D03*
D13*
X170970000Y-62250000D03*
D12*
X173510000Y-57170000D03*
%TD*%
D11*
%TO.C,MX8*%
X195100000Y-62250000D03*
X184940000Y-62250000D03*
D12*
X186210000Y-59710000D03*
D13*
X190020000Y-62250000D03*
D12*
X192560000Y-57170000D03*
%TD*%
D11*
%TO.C,MX9*%
X214150000Y-62250000D03*
X203990000Y-62250000D03*
D12*
X205260000Y-59710000D03*
D13*
X209070000Y-62250000D03*
D12*
X211610000Y-57170000D03*
%TD*%
D11*
%TO.C,MX10*%
X233200000Y-62250000D03*
X223040000Y-62250000D03*
D12*
X224310000Y-59710000D03*
D13*
X228120000Y-62250000D03*
D12*
X230660000Y-57170000D03*
%TD*%
D11*
%TO.C,MX11*%
X54606250Y-81300000D03*
X44446250Y-81300000D03*
D12*
X45716250Y-78760000D03*
D13*
X49526250Y-81300000D03*
D12*
X52066250Y-76220000D03*
%TD*%
D11*
%TO.C,MX12*%
X76037500Y-81300000D03*
X65877500Y-81300000D03*
D12*
X67147500Y-78760000D03*
D13*
X70957500Y-81300000D03*
D12*
X73497500Y-76220000D03*
%TD*%
D11*
%TO.C,MX13*%
X95087500Y-81300000D03*
X84927500Y-81300000D03*
D12*
X86197500Y-78760000D03*
D13*
X90007500Y-81300000D03*
D12*
X92547500Y-76220000D03*
%TD*%
D11*
%TO.C,MX14*%
X114137500Y-81300000D03*
X103977500Y-81300000D03*
D12*
X105247500Y-78760000D03*
D13*
X109057500Y-81300000D03*
D12*
X111597500Y-76220000D03*
%TD*%
D11*
%TO.C,MX15*%
X133187500Y-81300000D03*
X123027500Y-81300000D03*
D12*
X124297500Y-78760000D03*
D13*
X128107500Y-81300000D03*
D12*
X130647500Y-76220000D03*
%TD*%
D11*
%TO.C,MX17*%
X180812500Y-81300000D03*
X170652500Y-81300000D03*
D12*
X171922500Y-78760000D03*
D13*
X175732500Y-81300000D03*
D12*
X178272500Y-76220000D03*
%TD*%
D11*
%TO.C,MX18*%
X199862500Y-81300000D03*
X189702500Y-81300000D03*
D12*
X190972500Y-78760000D03*
D13*
X194782500Y-81300000D03*
D12*
X197322500Y-76220000D03*
%TD*%
D11*
%TO.C,MX19*%
X218912500Y-81300000D03*
X208752500Y-81300000D03*
D12*
X210022500Y-78760000D03*
D13*
X213832500Y-81300000D03*
D12*
X216372500Y-76220000D03*
%TD*%
D11*
%TO.C,MX20*%
X237962500Y-81300000D03*
X227802500Y-81300000D03*
D12*
X229072500Y-78760000D03*
D13*
X232882500Y-81300000D03*
D12*
X235422500Y-76220000D03*
%TD*%
%TO.C,MX21*%
X259393750Y-74315000D03*
D13*
X254313750Y-71775000D03*
D12*
X256853750Y-67965000D03*
D11*
X254313750Y-66695000D03*
X254313750Y-76855000D03*
D14*
X261298750Y-83713000D03*
X261298750Y-59837000D03*
D13*
X246058750Y-83713000D03*
X246058750Y-59837000D03*
%TD*%
D11*
%TO.C,MX22*%
X52225000Y-100350000D03*
X42065000Y-100350000D03*
D12*
X43335000Y-97810000D03*
D13*
X47145000Y-100350000D03*
D12*
X49685000Y-95270000D03*
%TD*%
D11*
%TO.C,MX23*%
X71275000Y-100350000D03*
X61115000Y-100350000D03*
D12*
X62385000Y-97810000D03*
D13*
X66195000Y-100350000D03*
D12*
X68735000Y-95270000D03*
%TD*%
D11*
%TO.C,MX24*%
X90325000Y-100350000D03*
X80165000Y-100350000D03*
D12*
X81435000Y-97810000D03*
D13*
X85245000Y-100350000D03*
D12*
X87785000Y-95270000D03*
%TD*%
D11*
%TO.C,MX25*%
X109375000Y-100350000D03*
X99215000Y-100350000D03*
D12*
X100485000Y-97810000D03*
D13*
X104295000Y-100350000D03*
D12*
X106835000Y-95270000D03*
%TD*%
D11*
%TO.C,MX26*%
X128425000Y-100350000D03*
X118265000Y-100350000D03*
D12*
X119535000Y-97810000D03*
D13*
X123345000Y-100350000D03*
D12*
X125885000Y-95270000D03*
%TD*%
D11*
%TO.C,MX29*%
X185575000Y-100350000D03*
X175415000Y-100350000D03*
D12*
X176685000Y-97810000D03*
D13*
X180495000Y-100350000D03*
D12*
X183035000Y-95270000D03*
%TD*%
D11*
%TO.C,MX30*%
X204625000Y-100350000D03*
X194465000Y-100350000D03*
D12*
X195735000Y-97810000D03*
D13*
X199545000Y-100350000D03*
D12*
X202085000Y-95270000D03*
%TD*%
D11*
%TO.C,MX31*%
X223675000Y-100350000D03*
X213515000Y-100350000D03*
D12*
X214785000Y-97810000D03*
D13*
X218595000Y-100350000D03*
D12*
X221135000Y-95270000D03*
%TD*%
D11*
%TO.C,MX32*%
X242725000Y-100350000D03*
X232565000Y-100350000D03*
D12*
X233835000Y-97810000D03*
D13*
X237645000Y-100350000D03*
D12*
X240185000Y-95270000D03*
%TD*%
D11*
%TO.C,MX33*%
X261775000Y-100350000D03*
X251615000Y-100350000D03*
D12*
X252885000Y-97810000D03*
D13*
X256695000Y-100350000D03*
D12*
X259235000Y-95270000D03*
%TD*%
D11*
%TO.C,MX34*%
X76037500Y-119400000D03*
X65877500Y-119400000D03*
D12*
X67147500Y-116860000D03*
D13*
X70957500Y-119400000D03*
D12*
X73497500Y-114320000D03*
%TD*%
D11*
%TO.C,MX35*%
X97468750Y-119400000D03*
X87308750Y-119400000D03*
D12*
X88578750Y-116860000D03*
D13*
X92388750Y-119400000D03*
D12*
X94928750Y-114320000D03*
%TD*%
D11*
%TO.C,MX36*%
X121281250Y-119400000D03*
X111121250Y-119400000D03*
D12*
X112391250Y-116860000D03*
D13*
X116201250Y-119400000D03*
D12*
X118741250Y-114320000D03*
%TD*%
D11*
%TO.C,MX37*%
X145093750Y-119400000D03*
X134933750Y-119400000D03*
D12*
X136203750Y-116860000D03*
D13*
X140013750Y-119400000D03*
D12*
X142553750Y-114320000D03*
%TD*%
D11*
%TO.C,MX38*%
X168906250Y-119400000D03*
X158746250Y-119400000D03*
D12*
X160016250Y-116860000D03*
D13*
X163826250Y-119400000D03*
D12*
X166366250Y-114320000D03*
%TD*%
D11*
%TO.C,MX39*%
X192718750Y-119400000D03*
X182558750Y-119400000D03*
D12*
X183828750Y-116860000D03*
D13*
X187638750Y-119400000D03*
D12*
X190178750Y-114320000D03*
%TD*%
D11*
%TO.C,MX40*%
X216531250Y-119400000D03*
X206371250Y-119400000D03*
D12*
X207641250Y-116860000D03*
D13*
X211451250Y-119400000D03*
D12*
X213991250Y-114320000D03*
%TD*%
D11*
%TO.C,MX41*%
X237962500Y-119400000D03*
X227802500Y-119400000D03*
D12*
X229072500Y-116860000D03*
D13*
X232882500Y-119400000D03*
D12*
X235422500Y-114320000D03*
%TD*%
%TO.C,MX6*%
X154460000Y-57170000D03*
D13*
X151920000Y-62250000D03*
D12*
X148110000Y-59710000D03*
D15*
X150650000Y-67330000D03*
D16*
X153190000Y-67330000D03*
D11*
X146840000Y-62250000D03*
X157000000Y-62250000D03*
%TD*%
D12*
%TO.C,MX16*%
X154460000Y-76220000D03*
D13*
X151920000Y-81300000D03*
D12*
X148110000Y-78760000D03*
D15*
X150650000Y-86380000D03*
D16*
X153190000Y-86380000D03*
D11*
X146840000Y-81300000D03*
X157000000Y-81300000D03*
%TD*%
D12*
%TO.C,MX27*%
X144935000Y-95270000D03*
D13*
X142395000Y-100350000D03*
D12*
X138585000Y-97810000D03*
D15*
X141125000Y-105430000D03*
D16*
X143665000Y-105430000D03*
D11*
X137315000Y-100350000D03*
X147475000Y-100350000D03*
%TD*%
D12*
%TO.C,MX28*%
X163985000Y-95270000D03*
D13*
X161445000Y-100350000D03*
D12*
X157635000Y-97810000D03*
D15*
X160175000Y-105430000D03*
D16*
X162715000Y-105430000D03*
D11*
X156365000Y-100350000D03*
X166525000Y-100350000D03*
%TD*%
D17*
%TO.C,C1*%
X260315029Y-125231585D03*
X261411045Y-126327601D03*
%TD*%
%TO.C,C2*%
X259237400Y-126309215D03*
X260333416Y-127405231D03*
%TD*%
D18*
%TO.C,C3*%
X244495192Y-117374914D03*
X243399176Y-116278898D03*
%TD*%
D19*
%TO.C,C6*%
X158143000Y-54389000D03*
X158143000Y-52839000D03*
%TD*%
D20*
%TO.C,D1*%
X62863750Y-63884375D03*
X64763750Y-63884375D03*
X63813750Y-65759375D03*
%TD*%
%TO.C,D2*%
X103345000Y-63884375D03*
X105245000Y-63884375D03*
X104295000Y-65759375D03*
%TD*%
%TO.C,D3*%
X141445000Y-63884375D03*
X143345000Y-63884375D03*
X142395000Y-65759375D03*
%TD*%
%TO.C,D4*%
X179545000Y-63884375D03*
X181445000Y-63884375D03*
X180495000Y-65759375D03*
%TD*%
%TO.C,D5*%
X217645000Y-63884375D03*
X219545000Y-63884375D03*
X218595000Y-65759375D03*
%TD*%
%TO.C,D6*%
X59291875Y-82934375D03*
X61191875Y-82934375D03*
X60241875Y-84809375D03*
%TD*%
%TO.C,D7*%
X98582500Y-82934375D03*
X100482500Y-82934375D03*
X99532500Y-84809375D03*
%TD*%
%TO.C,D8*%
X136682500Y-82934375D03*
X138582500Y-82934375D03*
X137632500Y-84809375D03*
%TD*%
%TO.C,D9*%
X184307500Y-82934375D03*
X186207500Y-82934375D03*
X185257500Y-84809375D03*
%TD*%
%TO.C,D10*%
X222407500Y-82934375D03*
X224307500Y-82934375D03*
X223357500Y-84809375D03*
%TD*%
%TO.C,D11*%
X246220000Y-71028125D03*
X248120000Y-71028125D03*
X247170000Y-72903125D03*
%TD*%
%TO.C,D12*%
X55720000Y-101984375D03*
X57620000Y-101984375D03*
X56670000Y-103859375D03*
%TD*%
%TO.C,D13*%
X93820000Y-101984375D03*
X95720000Y-101984375D03*
X94770000Y-103859375D03*
%TD*%
%TO.C,D14*%
X131920000Y-101984375D03*
X133820000Y-101984375D03*
X132870000Y-103859375D03*
%TD*%
%TO.C,D15*%
X170020000Y-101984375D03*
X171920000Y-101984375D03*
X170970000Y-103859375D03*
%TD*%
%TO.C,D16*%
X208120000Y-101984375D03*
X210020000Y-101984375D03*
X209070000Y-103859375D03*
%TD*%
%TO.C,D19*%
X80723125Y-121034375D03*
X82623125Y-121034375D03*
X81673125Y-122909375D03*
%TD*%
%TO.C,D20*%
X127157500Y-121034375D03*
X129057500Y-121034375D03*
X128107500Y-122909375D03*
%TD*%
%TO.C,D21*%
X174782500Y-121034375D03*
X176682500Y-121034375D03*
X175732500Y-122909375D03*
%TD*%
%TO.C,D22*%
X221216875Y-121034375D03*
X223116875Y-121034375D03*
X222166875Y-122909375D03*
%TD*%
D21*
%TO.C,F1*%
X163431915Y-64421875D03*
X163431915Y-67221875D03*
%TD*%
D22*
%TO.C,R1*%
X258120000Y-127350000D03*
X259286726Y-128516726D03*
%TD*%
D23*
%TO.C,R2*%
X161050665Y-70218750D03*
X161050665Y-68568750D03*
%TD*%
%TO.C,R5*%
X159667000Y-54439000D03*
X159667000Y-52789000D03*
%TD*%
D24*
%TO.C,SW1*%
X240778100Y-92682940D03*
X246978100Y-88982940D03*
X240778100Y-88982940D03*
X246978100Y-92682940D03*
%TD*%
D20*
%TO.C,D17*%
X246220000Y-101984375D03*
X248120000Y-101984375D03*
X247170000Y-103859375D03*
%TD*%
D25*
%TO.C,U2*%
X160810040Y-66959375D03*
X159860040Y-66959375D03*
X158910040Y-66959375D03*
X158910040Y-64684375D03*
X159860040Y-64684375D03*
X160810040Y-64684375D03*
%TD*%
D23*
%TO.C,R3*%
X158669415Y-70218750D03*
X158669415Y-68568750D03*
%TD*%
D26*
%TO.C,Y1*%
X246698858Y-125546777D03*
X248898858Y-125546777D03*
X248898858Y-127246777D03*
X246698858Y-127246777D03*
%TD*%
D18*
%TO.C,C4*%
X245572822Y-116297283D03*
X244476806Y-115201267D03*
%TD*%
D27*
%TO.C,R4*%
X144173000Y-52789000D03*
X144173000Y-54439000D03*
%TD*%
%TO.C,R10*%
X145697000Y-52789000D03*
X145697000Y-54439000D03*
%TD*%
D17*
%TO.C,C5*%
X261393938Y-124147491D03*
X262489954Y-125243507D03*
%TD*%
D22*
%TO.C,R7*%
X248766407Y-110835367D03*
X249933133Y-112002093D03*
%TD*%
%TO.C,R8*%
X247688777Y-111912997D03*
X248855503Y-113079723D03*
%TD*%
D28*
%TO.C,R11*%
X251810000Y-110210000D03*
X250643274Y-109043274D03*
%TD*%
D29*
%TO.C,J1*%
X231533700Y-89560400D03*
D30*
X231533700Y-92100400D03*
X234073700Y-89560400D03*
X234073700Y-92100400D03*
X236613700Y-89560400D03*
X236613700Y-92100400D03*
%TD*%
D31*
%TO.C,C7*%
X244900000Y-125625000D03*
X244900000Y-127175000D03*
%TD*%
%TO.C,C8*%
X250690000Y-125625000D03*
X250690000Y-127175000D03*
%TD*%
D32*
%TO.C,D18*%
X143242500Y-103420000D03*
X141667500Y-103420000D03*
%TD*%
%TO.C,D23*%
X162282500Y-103470000D03*
X160707500Y-103470000D03*
%TD*%
D22*
%TO.C,R6*%
X245517394Y-114088380D03*
X246684120Y-115255106D03*
%TD*%
%TO.C,R9*%
X246606339Y-112999435D03*
X247773065Y-114166161D03*
%TD*%
D33*
%TO.C,J2*%
X154810000Y-51653125D03*
X149030000Y-51653125D03*
D34*
X148670000Y-53098125D03*
X149470000Y-53098125D03*
D35*
X150670000Y-53098125D03*
X151670000Y-53098125D03*
X152170000Y-53098125D03*
X153170000Y-53098125D03*
D34*
X154370000Y-53098125D03*
X155170000Y-53098125D03*
X155170000Y-53098125D03*
X154370000Y-53098125D03*
D35*
X153670000Y-53098125D03*
X152670000Y-53098125D03*
X151170000Y-53098125D03*
X150170000Y-53098125D03*
D34*
X149470000Y-53098125D03*
X148670000Y-53098125D03*
D36*
X147600000Y-48003125D03*
D37*
X147600000Y-52183125D03*
X156240000Y-52183125D03*
D36*
X156240000Y-48003125D03*
%TD*%
D38*
%TO.C,U1*%
X258722736Y-119392202D03*
X258369182Y-119745755D03*
X258015629Y-120099309D03*
X257662076Y-120452862D03*
X257308522Y-120806415D03*
X256954969Y-121159969D03*
X256601415Y-121513522D03*
X256247862Y-121867076D03*
X255894309Y-122220629D03*
X255540755Y-122574182D03*
X255187202Y-122927736D03*
D39*
X254002798Y-122927736D03*
X253649245Y-122574182D03*
X253295691Y-122220629D03*
X252942138Y-121867076D03*
X252588585Y-121513522D03*
X252235031Y-121159969D03*
X251881478Y-120806415D03*
X251527924Y-120452862D03*
X251174371Y-120099309D03*
X250820818Y-119745755D03*
X250467264Y-119392202D03*
D38*
X250467264Y-118207798D03*
X250820818Y-117854245D03*
X251174371Y-117500691D03*
X251527924Y-117147138D03*
X251881478Y-116793585D03*
X252235031Y-116440031D03*
X252588585Y-116086478D03*
X252942138Y-115732924D03*
X253295691Y-115379371D03*
X253649245Y-115025818D03*
X254002798Y-114672264D03*
D39*
X255187202Y-114672264D03*
X255540755Y-115025818D03*
X255894309Y-115379371D03*
X256247862Y-115732924D03*
X256601415Y-116086478D03*
X256954969Y-116440031D03*
X257308522Y-116793585D03*
X257662076Y-117147138D03*
X258015629Y-117500691D03*
X258369182Y-117854245D03*
X258722736Y-118207798D03*
D40*
X254595000Y-118800000D03*
%TD*%
D41*
X101845000Y-108200000D03*
X260450000Y-126410000D03*
X142645000Y-52700000D03*
X226946460Y-83238340D03*
X258978356Y-116855456D03*
X170595000Y-82980000D03*
X154815540Y-64396620D03*
X155630940Y-124053280D03*
X156405000Y-105660000D03*
X249659140Y-103309420D03*
X155972542Y-55149458D03*
X163495000Y-90400000D03*
X237515000Y-112730000D03*
X149895000Y-69275000D03*
X213088220Y-98602800D03*
X167645000Y-106450000D03*
X250955000Y-124500000D03*
X256565000Y-127440000D03*
X180725000Y-111370000D03*
X245695000Y-110900000D03*
X147983000Y-54921000D03*
X135395000Y-107600000D03*
X252110000Y-108540000D03*
X137370820Y-105166160D03*
X161193480Y-62402720D03*
X151955000Y-49580000D03*
X213591140Y-102346760D03*
X148945000Y-106100000D03*
X159859980Y-68054220D03*
X144995000Y-102400000D03*
X153982480Y-123972000D03*
X245290000Y-118030000D03*
X259674037Y-117573114D03*
X162215019Y-71155673D03*
X252546400Y-123602783D03*
X153979990Y-106941301D03*
X255015000Y-113580000D03*
X259402959Y-120462041D03*
X163431220Y-68450460D03*
X258389402Y-125741867D03*
X224985640Y-123749990D03*
X225514243Y-65820957D03*
X143350000Y-62523125D03*
X135172180Y-84871875D03*
X225878077Y-123298814D03*
X226310533Y-84870253D03*
X138845000Y-84850000D03*
X226772177Y-122849970D03*
X214717973Y-103919687D03*
X159864640Y-63514820D03*
X163431915Y-63244155D03*
X63121600Y-104921875D03*
X79088040Y-104921875D03*
X100396100Y-105033760D03*
X119738200Y-104921875D03*
X176890740Y-104877499D03*
X195940740Y-104877499D03*
X217138304Y-104925816D03*
X259074578Y-125014176D03*
X229287382Y-102902618D03*
X244475000Y-122400460D03*
X252455000Y-128717295D03*
X254474966Y-123480166D03*
X161053780Y-71208900D03*
X153278100Y-124682940D03*
X153278100Y-125682940D03*
X158668720Y-71224140D03*
X156889258Y-54749914D03*
X153678156Y-55242812D03*
X152079980Y-111280000D03*
X151310000Y-110641353D03*
X257658907Y-124426201D03*
X256659500Y-124440011D03*
X255205000Y-124480000D03*
X143655000Y-110641353D03*
X162715000Y-111991383D03*
M02*
