%TF.GenerationSoftware,KiCad,Pcbnew,(6.0.6)*%
%TF.CreationDate,2022-10-05T22:20:27+02:00*%
%TF.ProjectId,Larva,4c617276-612e-46b6-9963-61645f706362,rev?*%
%TF.SameCoordinates,Original*%
%TF.FileFunction,Legend,Bot*%
%TF.FilePolarity,Positive*%
%FSLAX46Y46*%
G04 Gerber Fmt 4.6, Leading zero omitted, Abs format (unit mm)*
G04 Created by KiCad (PCBNEW (6.0.6)) date 2022-10-05 22:20:27*
%MOMM*%
%LPD*%
G01*
G04 APERTURE LIST*
G04 Aperture macros list*
%AMRoundRect*
0 Rectangle with rounded corners*
0 $1 Rounding radius*
0 $2 $3 $4 $5 $6 $7 $8 $9 X,Y pos of 4 corners*
0 Add a 4 corners polygon primitive as box body*
4,1,4,$2,$3,$4,$5,$6,$7,$8,$9,$2,$3,0*
0 Add four circle primitives for the rounded corners*
1,1,$1+$1,$2,$3*
1,1,$1+$1,$4,$5*
1,1,$1+$1,$6,$7*
1,1,$1+$1,$8,$9*
0 Add four rect primitives between the rounded corners*
20,1,$1+$1,$2,$3,$4,$5,0*
20,1,$1+$1,$4,$5,$6,$7,0*
20,1,$1+$1,$6,$7,$8,$9,0*
20,1,$1+$1,$8,$9,$2,$3,0*%
%AMRotRect*
0 Rectangle, with rotation*
0 The origin of the aperture is its center*
0 $1 length*
0 $2 width*
0 $3 Rotation angle, in degrees counterclockwise*
0 Add horizontal line*
21,1,$1,$2,0,0,$3*%
G04 Aperture macros list end*
%ADD10C,0.150000*%
%ADD11C,0.300000*%
%ADD12C,0.120000*%
%ADD13C,1.000000*%
%ADD14C,1.750000*%
%ADD15C,2.250000*%
%ADD16C,3.987800*%
%ADD17C,3.048000*%
%ADD18C,1.905000*%
%ADD19R,1.905000X1.905000*%
%ADD20RoundRect,0.225000X-0.335876X-0.017678X-0.017678X-0.335876X0.335876X0.017678X0.017678X0.335876X0*%
%ADD21RoundRect,0.225000X0.335876X0.017678X0.017678X0.335876X-0.335876X-0.017678X-0.017678X-0.335876X0*%
%ADD22RoundRect,0.225000X0.250000X-0.225000X0.250000X0.225000X-0.250000X0.225000X-0.250000X-0.225000X0*%
%ADD23RoundRect,0.150000X-0.150000X0.587500X-0.150000X-0.587500X0.150000X-0.587500X0.150000X0.587500X0*%
%ADD24RoundRect,0.250000X-0.625000X0.375000X-0.625000X-0.375000X0.625000X-0.375000X0.625000X0.375000X0*%
%ADD25RoundRect,0.200000X-0.335876X-0.053033X-0.053033X-0.335876X0.335876X0.053033X0.053033X0.335876X0*%
%ADD26RoundRect,0.200000X0.275000X-0.200000X0.275000X0.200000X-0.275000X0.200000X-0.275000X-0.200000X0*%
%ADD27R,1.800000X1.100000*%
%ADD28RoundRect,0.150000X0.150000X-0.512500X0.150000X0.512500X-0.150000X0.512500X-0.150000X-0.512500X0*%
%ADD29R,1.400000X1.200000*%
%ADD30RoundRect,0.200000X-0.275000X0.200000X-0.275000X-0.200000X0.275000X-0.200000X0.275000X0.200000X0*%
%ADD31RoundRect,0.200000X0.335876X0.053033X0.053033X0.335876X-0.335876X-0.053033X-0.053033X-0.335876X0*%
%ADD32R,1.700000X1.700000*%
%ADD33O,1.700000X1.700000*%
%ADD34RoundRect,0.225000X-0.250000X0.225000X-0.250000X-0.225000X0.250000X-0.225000X0.250000X0.225000X0*%
%ADD35RoundRect,0.218750X0.218750X0.256250X-0.218750X0.256250X-0.218750X-0.256250X0.218750X-0.256250X0*%
%ADD36C,0.650000*%
%ADD37R,0.600000X1.450000*%
%ADD38R,0.300000X1.450000*%
%ADD39O,1.000000X1.600000*%
%ADD40O,1.000000X2.100000*%
%ADD41RoundRect,0.062500X0.380070X-0.291682X-0.291682X0.380070X-0.380070X0.291682X0.291682X-0.380070X0*%
%ADD42RoundRect,0.062500X0.380070X0.291682X0.291682X0.380070X-0.380070X-0.291682X-0.291682X-0.380070X0*%
%ADD43RotRect,5.200000X5.200000X135.000000*%
%ADD44C,0.800000*%
G04 APERTURE END LIST*
D10*
%TO.C,C1*%
X262652787Y-127191550D02*
X262652787Y-127124207D01*
X262585443Y-126989520D01*
X262518100Y-126922176D01*
X262383412Y-126854833D01*
X262248725Y-126854833D01*
X262147710Y-126888504D01*
X261979351Y-126989520D01*
X261878336Y-127090535D01*
X261777321Y-127258894D01*
X261743649Y-127359909D01*
X261743649Y-127494596D01*
X261810993Y-127629283D01*
X261878336Y-127696627D01*
X262013023Y-127763970D01*
X262080367Y-127763970D01*
X263393565Y-127797642D02*
X262989504Y-127393581D01*
X263191535Y-127595611D02*
X262484428Y-128302718D01*
X262518100Y-128134359D01*
X262518100Y-127999672D01*
X262484428Y-127898657D01*
%TO.C,C2*%
X261636787Y-128207550D02*
X261636787Y-128140207D01*
X261569443Y-128005520D01*
X261502100Y-127938176D01*
X261367412Y-127870833D01*
X261232725Y-127870833D01*
X261131710Y-127904504D01*
X260963351Y-128005520D01*
X260862336Y-128106535D01*
X260761321Y-128274894D01*
X260727649Y-128375909D01*
X260727649Y-128510596D01*
X260794993Y-128645283D01*
X260862336Y-128712627D01*
X260997023Y-128779970D01*
X261064367Y-128779970D01*
X261333741Y-129049344D02*
X261333741Y-129116688D01*
X261367412Y-129217703D01*
X261535771Y-129386062D01*
X261636787Y-129419733D01*
X261704130Y-129419733D01*
X261805145Y-129386062D01*
X261872489Y-129318718D01*
X261939832Y-129184031D01*
X261939832Y-128375909D01*
X262377565Y-128813642D01*
%TO.C,C3*%
X242288788Y-114765550D02*
X242288788Y-114698207D01*
X242221444Y-114563520D01*
X242154101Y-114496176D01*
X242019413Y-114428833D01*
X241884726Y-114428833D01*
X241783711Y-114462504D01*
X241615352Y-114563520D01*
X241514337Y-114664535D01*
X241413322Y-114832894D01*
X241379650Y-114933909D01*
X241379650Y-115068596D01*
X241446994Y-115203283D01*
X241514337Y-115270627D01*
X241649024Y-115337970D01*
X241716368Y-115337970D01*
X241884726Y-115641016D02*
X242322459Y-116078749D01*
X242356131Y-115573672D01*
X242457146Y-115674688D01*
X242558162Y-115708359D01*
X242625505Y-115708359D01*
X242726520Y-115674688D01*
X242894879Y-115506329D01*
X242928551Y-115405314D01*
X242928551Y-115337970D01*
X242894879Y-115236955D01*
X242692849Y-115034924D01*
X242591833Y-115001252D01*
X242524490Y-115001252D01*
%TO.C,R1*%
X260632030Y-129122267D02*
X260059610Y-129223282D01*
X260227969Y-128718206D02*
X259520862Y-129425312D01*
X259790236Y-129694687D01*
X259891251Y-129728358D01*
X259958595Y-129728358D01*
X260059610Y-129694687D01*
X260160625Y-129593671D01*
X260194297Y-129492656D01*
X260194297Y-129425312D01*
X260160625Y-129324297D01*
X259891251Y-129054923D01*
X261305465Y-129795702D02*
X260901404Y-129391641D01*
X261103435Y-129593671D02*
X260396328Y-130300778D01*
X260430000Y-130132419D01*
X260430000Y-129997732D01*
X260396328Y-129896717D01*
%TO.C,SW1*%
X245211433Y-87764761D02*
X245068576Y-87812380D01*
X244830480Y-87812380D01*
X244735242Y-87764761D01*
X244687623Y-87717142D01*
X244640004Y-87621904D01*
X244640004Y-87526666D01*
X244687623Y-87431428D01*
X244735242Y-87383809D01*
X244830480Y-87336190D01*
X245020957Y-87288571D01*
X245116195Y-87240952D01*
X245163814Y-87193333D01*
X245211433Y-87098095D01*
X245211433Y-87002857D01*
X245163814Y-86907619D01*
X245116195Y-86860000D01*
X245020957Y-86812380D01*
X244782861Y-86812380D01*
X244640004Y-86860000D01*
X244306671Y-86812380D02*
X244068576Y-87812380D01*
X243878100Y-87098095D01*
X243687623Y-87812380D01*
X243449528Y-86812380D01*
X242544766Y-87812380D02*
X243116195Y-87812380D01*
X242830480Y-87812380D02*
X242830480Y-86812380D01*
X242925719Y-86955238D01*
X243020957Y-87050476D01*
X243116195Y-87098095D01*
%TO.C,R3*%
X157970480Y-69203273D02*
X157494290Y-68869940D01*
X157970480Y-68631844D02*
X156970480Y-68631844D01*
X156970480Y-69012797D01*
X157018100Y-69108035D01*
X157065719Y-69155654D01*
X157160957Y-69203273D01*
X157303814Y-69203273D01*
X157399052Y-69155654D01*
X157446671Y-69108035D01*
X157494290Y-69012797D01*
X157494290Y-68631844D01*
X156970480Y-69536606D02*
X156970480Y-70155654D01*
X157351433Y-69822320D01*
X157351433Y-69965178D01*
X157399052Y-70060416D01*
X157446671Y-70108035D01*
X157541909Y-70155654D01*
X157780004Y-70155654D01*
X157875242Y-70108035D01*
X157922861Y-70060416D01*
X157970480Y-69965178D01*
X157970480Y-69679463D01*
X157922861Y-69584225D01*
X157875242Y-69536606D01*
%TO.C,Y1*%
X247786190Y-128613809D02*
X248262380Y-128613809D01*
X247262380Y-128280476D02*
X247786190Y-128613809D01*
X247262380Y-128947142D01*
X248262380Y-129804285D02*
X248262380Y-129232857D01*
X248262380Y-129518571D02*
X247262380Y-129518571D01*
X247405238Y-129423333D01*
X247500476Y-129328095D01*
X247548095Y-129232857D01*
%TO.C,C4*%
X243431787Y-113622550D02*
X243431787Y-113555207D01*
X243364443Y-113420520D01*
X243297100Y-113353176D01*
X243162412Y-113285833D01*
X243027725Y-113285833D01*
X242926710Y-113319504D01*
X242758351Y-113420520D01*
X242657336Y-113521535D01*
X242556321Y-113689894D01*
X242522649Y-113790909D01*
X242522649Y-113925596D01*
X242589993Y-114060283D01*
X242657336Y-114127627D01*
X242792023Y-114194970D01*
X242859367Y-114194970D01*
X243633817Y-114632703D02*
X244105222Y-114161298D01*
X243196084Y-114733718D02*
X243532802Y-114060283D01*
X243970535Y-114498016D01*
%TO.C,C5*%
X263795787Y-126048550D02*
X263795787Y-125981207D01*
X263728443Y-125846520D01*
X263661100Y-125779176D01*
X263526412Y-125711833D01*
X263391725Y-125711833D01*
X263290710Y-125745504D01*
X263122351Y-125846520D01*
X263021336Y-125947535D01*
X262920321Y-126115894D01*
X262886649Y-126216909D01*
X262886649Y-126351596D01*
X262953993Y-126486283D01*
X263021336Y-126553627D01*
X263156023Y-126620970D01*
X263223367Y-126620970D01*
X263795787Y-127328077D02*
X263459069Y-126991359D01*
X263762115Y-126620970D01*
X263762115Y-126688314D01*
X263795787Y-126789329D01*
X263964145Y-126957688D01*
X264065161Y-126991359D01*
X264132504Y-126991359D01*
X264233519Y-126957688D01*
X264401878Y-126789329D01*
X264435550Y-126688314D01*
X264435550Y-126620970D01*
X264401878Y-126519955D01*
X264233519Y-126351596D01*
X264132504Y-126317924D01*
X264065161Y-126317924D01*
%TO.C,R7*%
X247764129Y-109290207D02*
X247191709Y-109391222D01*
X247360068Y-108886146D02*
X246652961Y-109593252D01*
X246922335Y-109862627D01*
X247023350Y-109896298D01*
X247090694Y-109896298D01*
X247191709Y-109862627D01*
X247292724Y-109761611D01*
X247326396Y-109660596D01*
X247326396Y-109593252D01*
X247292724Y-109492237D01*
X247023350Y-109222863D01*
X247292724Y-110233016D02*
X247764129Y-110704420D01*
X248168190Y-109694268D01*
%TO.C,R8*%
X246748129Y-110306207D02*
X246175709Y-110407222D01*
X246344068Y-109902146D02*
X245636961Y-110609252D01*
X245906335Y-110878627D01*
X246007350Y-110912298D01*
X246074694Y-110912298D01*
X246175709Y-110878627D01*
X246276724Y-110777611D01*
X246310396Y-110676596D01*
X246310396Y-110609252D01*
X246276724Y-110508237D01*
X246007350Y-110238863D01*
X246748129Y-111114329D02*
X246647114Y-111080657D01*
X246579770Y-111080657D01*
X246478755Y-111114329D01*
X246445083Y-111148001D01*
X246411411Y-111249016D01*
X246411411Y-111316359D01*
X246445083Y-111417375D01*
X246579770Y-111552062D01*
X246680786Y-111585733D01*
X246748129Y-111585733D01*
X246849144Y-111552062D01*
X246882816Y-111518390D01*
X246916488Y-111417375D01*
X246916488Y-111350031D01*
X246882816Y-111249016D01*
X246748129Y-111114329D01*
X246714457Y-111013314D01*
X246714457Y-110945970D01*
X246748129Y-110844955D01*
X246882816Y-110710268D01*
X246983831Y-110676596D01*
X247051175Y-110676596D01*
X247152190Y-110710268D01*
X247286877Y-110844955D01*
X247320549Y-110945970D01*
X247320549Y-111013314D01*
X247286877Y-111114329D01*
X247152190Y-111249016D01*
X247051175Y-111282688D01*
X246983831Y-111282688D01*
X246882816Y-111249016D01*
%TO.C,R11*%
X249054017Y-106776659D02*
X248481598Y-106877674D01*
X248649956Y-106372598D02*
X247942850Y-107079705D01*
X248212224Y-107349079D01*
X248313239Y-107382751D01*
X248380582Y-107382751D01*
X248481598Y-107349079D01*
X248582613Y-107248064D01*
X248616285Y-107147048D01*
X248616285Y-107079705D01*
X248582613Y-106978690D01*
X248313239Y-106709316D01*
X249727453Y-107450094D02*
X249323392Y-107046033D01*
X249525422Y-107248064D02*
X248818315Y-107955171D01*
X248851987Y-107786812D01*
X248851987Y-107652125D01*
X248818315Y-107551110D01*
X250400888Y-108123529D02*
X249996827Y-107719468D01*
X250198857Y-107921499D02*
X249491750Y-108628606D01*
X249525422Y-108460247D01*
X249525422Y-108325560D01*
X249491750Y-108224545D01*
%TO.C,J1*%
X234408333Y-86842380D02*
X234408333Y-87556666D01*
X234455952Y-87699523D01*
X234551190Y-87794761D01*
X234694047Y-87842380D01*
X234789285Y-87842380D01*
X233408333Y-87842380D02*
X233979761Y-87842380D01*
X233694047Y-87842380D02*
X233694047Y-86842380D01*
X233789285Y-86985238D01*
X233884523Y-87080476D01*
X233979761Y-87128095D01*
%TO.C,C7*%
X245267142Y-128753333D02*
X245314761Y-128705714D01*
X245362380Y-128562857D01*
X245362380Y-128467619D01*
X245314761Y-128324761D01*
X245219523Y-128229523D01*
X245124285Y-128181904D01*
X244933809Y-128134285D01*
X244790952Y-128134285D01*
X244600476Y-128181904D01*
X244505238Y-128229523D01*
X244410000Y-128324761D01*
X244362380Y-128467619D01*
X244362380Y-128562857D01*
X244410000Y-128705714D01*
X244457619Y-128753333D01*
X244362380Y-129086666D02*
X244362380Y-129753333D01*
X245362380Y-129324761D01*
%TO.C,C8*%
X251047142Y-128743333D02*
X251094761Y-128695714D01*
X251142380Y-128552857D01*
X251142380Y-128457619D01*
X251094761Y-128314761D01*
X250999523Y-128219523D01*
X250904285Y-128171904D01*
X250713809Y-128124285D01*
X250570952Y-128124285D01*
X250380476Y-128171904D01*
X250285238Y-128219523D01*
X250190000Y-128314761D01*
X250142380Y-128457619D01*
X250142380Y-128552857D01*
X250190000Y-128695714D01*
X250237619Y-128743333D01*
X250570952Y-129314761D02*
X250523333Y-129219523D01*
X250475714Y-129171904D01*
X250380476Y-129124285D01*
X250332857Y-129124285D01*
X250237619Y-129171904D01*
X250190000Y-129219523D01*
X250142380Y-129314761D01*
X250142380Y-129505238D01*
X250190000Y-129600476D01*
X250237619Y-129648095D01*
X250332857Y-129695714D01*
X250380476Y-129695714D01*
X250475714Y-129648095D01*
X250523333Y-129600476D01*
X250570952Y-129505238D01*
X250570952Y-129314761D01*
X250618571Y-129219523D01*
X250666190Y-129171904D01*
X250761428Y-129124285D01*
X250951904Y-129124285D01*
X251047142Y-129171904D01*
X251094761Y-129219523D01*
X251142380Y-129314761D01*
X251142380Y-129505238D01*
X251094761Y-129600476D01*
X251047142Y-129648095D01*
X250951904Y-129695714D01*
X250761428Y-129695714D01*
X250666190Y-129648095D01*
X250618571Y-129600476D01*
X250570952Y-129505238D01*
%TO.C,R6*%
X244607030Y-112522267D02*
X244034610Y-112623282D01*
X244202969Y-112118206D02*
X243495862Y-112825312D01*
X243765236Y-113094687D01*
X243866251Y-113128358D01*
X243933595Y-113128358D01*
X244034610Y-113094687D01*
X244135625Y-112993671D01*
X244169297Y-112892656D01*
X244169297Y-112825312D01*
X244135625Y-112724297D01*
X243866251Y-112454923D01*
X244506015Y-113835465D02*
X244371328Y-113700778D01*
X244337656Y-113599763D01*
X244337656Y-113532419D01*
X244371328Y-113364061D01*
X244472343Y-113195702D01*
X244741717Y-112926328D01*
X244842732Y-112892656D01*
X244910076Y-112892656D01*
X245011091Y-112926328D01*
X245145778Y-113061015D01*
X245179450Y-113162030D01*
X245179450Y-113229374D01*
X245145778Y-113330389D01*
X244977419Y-113498748D01*
X244876404Y-113532419D01*
X244809061Y-113532419D01*
X244708045Y-113498748D01*
X244573358Y-113364061D01*
X244539687Y-113263045D01*
X244539687Y-113195702D01*
X244573358Y-113094687D01*
%TO.C,R9*%
X245667030Y-111432266D02*
X245094610Y-111533281D01*
X245262969Y-111028205D02*
X244555862Y-111735311D01*
X244825236Y-112004686D01*
X244926251Y-112038357D01*
X244993595Y-112038357D01*
X245094610Y-112004686D01*
X245195625Y-111903670D01*
X245229297Y-111802655D01*
X245229297Y-111735311D01*
X245195625Y-111634296D01*
X244926251Y-111364922D01*
X246003748Y-111768983D02*
X246138435Y-111903670D01*
X246172106Y-112004686D01*
X246172106Y-112072029D01*
X246138435Y-112240388D01*
X246037419Y-112408747D01*
X245768045Y-112678121D01*
X245667030Y-112711792D01*
X245599687Y-112711792D01*
X245498671Y-112678121D01*
X245363984Y-112543434D01*
X245330312Y-112442418D01*
X245330312Y-112375075D01*
X245363984Y-112274060D01*
X245532343Y-112105701D01*
X245633358Y-112072029D01*
X245700702Y-112072029D01*
X245801717Y-112105701D01*
X245936404Y-112240388D01*
X245970076Y-112341403D01*
X245970076Y-112408747D01*
X245936404Y-112509762D01*
D11*
%TO.C,H1*%
X137826428Y-96709895D02*
X137826428Y-95185895D01*
X137826428Y-95911609D02*
X136955571Y-95911609D01*
X136955571Y-96709895D02*
X136955571Y-95185895D01*
X135431571Y-96709895D02*
X136302428Y-96709895D01*
X135867000Y-96709895D02*
X135867000Y-95185895D01*
X136012143Y-95403609D01*
X136157286Y-95548752D01*
X136302428Y-95621324D01*
X41687198Y-126660943D02*
X42282436Y-126660943D01*
X42126186Y-125410943D01*
X41270531Y-126660943D02*
X41166364Y-125827609D01*
X41114281Y-125410943D02*
X41181245Y-125470467D01*
X41129162Y-125529990D01*
X41062198Y-125470467D01*
X41114281Y-125410943D01*
X41129162Y-125529990D01*
X40749698Y-125827609D02*
X40273507Y-125827609D01*
X40519043Y-125410943D02*
X40652972Y-126482371D01*
X40608329Y-126601419D01*
X40496722Y-126660943D01*
X40377674Y-126660943D01*
X39477376Y-126601419D02*
X39603864Y-126660943D01*
X39841960Y-126660943D01*
X39953567Y-126601419D01*
X39998210Y-126482371D01*
X39938686Y-126006181D01*
X39864281Y-125887133D01*
X39737793Y-125827609D01*
X39499698Y-125827609D01*
X39388091Y-125887133D01*
X39343448Y-126006181D01*
X39358329Y-126125228D01*
X39968448Y-126244276D01*
D10*
%TO.C,U1*%
X257077281Y-115240222D02*
X257649701Y-114667802D01*
X257750716Y-114634130D01*
X257818060Y-114634130D01*
X257919075Y-114667802D01*
X258053762Y-114802489D01*
X258087434Y-114903504D01*
X258087434Y-114970848D01*
X258053762Y-115071863D01*
X257481342Y-115644283D01*
X258895556Y-115644283D02*
X258491495Y-115240222D01*
X258693525Y-115442252D02*
X257986419Y-116149359D01*
X258020090Y-115981000D01*
X258020090Y-115846313D01*
X257986419Y-115745298D01*
D12*
%TO.C,C1*%
X261124256Y-125319563D02*
X261323067Y-125518374D01*
X260403007Y-126040812D02*
X260601818Y-126239623D01*
%TO.C,C2*%
X260046627Y-126397193D02*
X260245438Y-126596004D01*
X259325378Y-127118442D02*
X259524189Y-127317253D01*
%TO.C,C3*%
X243685965Y-117286936D02*
X243487154Y-117088125D01*
X244407214Y-116565687D02*
X244208403Y-116366876D01*
%TO.C,C6*%
X157633000Y-53754580D02*
X157633000Y-53473420D01*
X158653000Y-53754580D02*
X158653000Y-53473420D01*
%TO.C,D1*%
X62253750Y-64821875D02*
X62253750Y-65471875D01*
X65373750Y-64821875D02*
X65373750Y-65471875D01*
X62253750Y-64821875D02*
X62253750Y-63146875D01*
X65373750Y-64821875D02*
X65373750Y-64171875D01*
%TO.C,D2*%
X102735000Y-64821875D02*
X102735000Y-65471875D01*
X105855000Y-64821875D02*
X105855000Y-65471875D01*
X102735000Y-64821875D02*
X102735000Y-63146875D01*
X105855000Y-64821875D02*
X105855000Y-64171875D01*
%TO.C,D3*%
X140835000Y-64821875D02*
X140835000Y-65471875D01*
X143955000Y-64821875D02*
X143955000Y-65471875D01*
X140835000Y-64821875D02*
X140835000Y-63146875D01*
X143955000Y-64821875D02*
X143955000Y-64171875D01*
%TO.C,D4*%
X178935000Y-64821875D02*
X178935000Y-65471875D01*
X182055000Y-64821875D02*
X182055000Y-65471875D01*
X178935000Y-64821875D02*
X178935000Y-63146875D01*
X182055000Y-64821875D02*
X182055000Y-64171875D01*
%TO.C,D5*%
X217035000Y-64821875D02*
X217035000Y-65471875D01*
X220155000Y-64821875D02*
X220155000Y-65471875D01*
X217035000Y-64821875D02*
X217035000Y-63146875D01*
X220155000Y-64821875D02*
X220155000Y-64171875D01*
%TO.C,D6*%
X58681875Y-83871875D02*
X58681875Y-84521875D01*
X61801875Y-83871875D02*
X61801875Y-84521875D01*
X58681875Y-83871875D02*
X58681875Y-82196875D01*
X61801875Y-83871875D02*
X61801875Y-83221875D01*
%TO.C,D7*%
X97972500Y-83871875D02*
X97972500Y-84521875D01*
X101092500Y-83871875D02*
X101092500Y-84521875D01*
X97972500Y-83871875D02*
X97972500Y-82196875D01*
X101092500Y-83871875D02*
X101092500Y-83221875D01*
%TO.C,D8*%
X136072500Y-83871875D02*
X136072500Y-84521875D01*
X139192500Y-83871875D02*
X139192500Y-84521875D01*
X136072500Y-83871875D02*
X136072500Y-82196875D01*
X139192500Y-83871875D02*
X139192500Y-83221875D01*
%TO.C,D9*%
X183697500Y-83871875D02*
X183697500Y-84521875D01*
X186817500Y-83871875D02*
X186817500Y-84521875D01*
X183697500Y-83871875D02*
X183697500Y-82196875D01*
X186817500Y-83871875D02*
X186817500Y-83221875D01*
%TO.C,D10*%
X221797500Y-83871875D02*
X221797500Y-84521875D01*
X224917500Y-83871875D02*
X224917500Y-84521875D01*
X221797500Y-83871875D02*
X221797500Y-82196875D01*
X224917500Y-83871875D02*
X224917500Y-83221875D01*
%TO.C,D11*%
X245610000Y-71965625D02*
X245610000Y-72615625D01*
X248730000Y-71965625D02*
X248730000Y-72615625D01*
X245610000Y-71965625D02*
X245610000Y-70290625D01*
X248730000Y-71965625D02*
X248730000Y-71315625D01*
%TO.C,D12*%
X55110000Y-102921875D02*
X55110000Y-103571875D01*
X58230000Y-102921875D02*
X58230000Y-103571875D01*
X55110000Y-102921875D02*
X55110000Y-101246875D01*
X58230000Y-102921875D02*
X58230000Y-102271875D01*
%TO.C,D13*%
X93210000Y-102921875D02*
X93210000Y-103571875D01*
X96330000Y-102921875D02*
X96330000Y-103571875D01*
X93210000Y-102921875D02*
X93210000Y-101246875D01*
X96330000Y-102921875D02*
X96330000Y-102271875D01*
%TO.C,D14*%
X131310000Y-102921875D02*
X131310000Y-103571875D01*
X134430000Y-102921875D02*
X134430000Y-103571875D01*
X131310000Y-102921875D02*
X131310000Y-101246875D01*
X134430000Y-102921875D02*
X134430000Y-102271875D01*
%TO.C,D15*%
X169410000Y-102921875D02*
X169410000Y-103571875D01*
X172530000Y-102921875D02*
X172530000Y-103571875D01*
X169410000Y-102921875D02*
X169410000Y-101246875D01*
X172530000Y-102921875D02*
X172530000Y-102271875D01*
%TO.C,D16*%
X207510000Y-102921875D02*
X207510000Y-103571875D01*
X210630000Y-102921875D02*
X210630000Y-103571875D01*
X207510000Y-102921875D02*
X207510000Y-101246875D01*
X210630000Y-102921875D02*
X210630000Y-102271875D01*
%TO.C,D19*%
X80113125Y-121971875D02*
X80113125Y-122621875D01*
X83233125Y-121971875D02*
X83233125Y-122621875D01*
X80113125Y-121971875D02*
X80113125Y-120296875D01*
X83233125Y-121971875D02*
X83233125Y-121321875D01*
%TO.C,D20*%
X126547500Y-121971875D02*
X126547500Y-122621875D01*
X129667500Y-121971875D02*
X129667500Y-122621875D01*
X126547500Y-121971875D02*
X126547500Y-120296875D01*
X129667500Y-121971875D02*
X129667500Y-121321875D01*
%TO.C,D21*%
X174172500Y-121971875D02*
X174172500Y-122621875D01*
X177292500Y-121971875D02*
X177292500Y-122621875D01*
X174172500Y-121971875D02*
X174172500Y-120296875D01*
X177292500Y-121971875D02*
X177292500Y-121321875D01*
%TO.C,D22*%
X220606875Y-121971875D02*
X220606875Y-122621875D01*
X223726875Y-121971875D02*
X223726875Y-122621875D01*
X220606875Y-121971875D02*
X220606875Y-120296875D01*
X223726875Y-121971875D02*
X223726875Y-121321875D01*
%TO.C,F1*%
X164341915Y-65219811D02*
X164341915Y-66423939D01*
X162521915Y-65219811D02*
X162521915Y-66423939D01*
%TO.C,R1*%
X258905060Y-127396133D02*
X259240593Y-127731666D01*
X258166133Y-128135060D02*
X258501666Y-128470593D01*
%TO.C,R2*%
X160528165Y-69631008D02*
X160528165Y-69156492D01*
X161573165Y-69631008D02*
X161573165Y-69156492D01*
%TO.C,R5*%
X159144500Y-53851258D02*
X159144500Y-53376742D01*
X160189500Y-53851258D02*
X160189500Y-53376742D01*
D10*
%TO.C,SW1*%
X244878100Y-90832940D02*
G75*
G03*
X244878100Y-90832940I-1000000J0D01*
G01*
X246478100Y-93432940D02*
X246478100Y-88232940D01*
X241278100Y-93432940D02*
X246478100Y-93432940D01*
X241278100Y-88232940D02*
X241278100Y-93432940D01*
X246478100Y-88232940D02*
X241278100Y-88232940D01*
D12*
%TO.C,D17*%
X245610000Y-102921875D02*
X245610000Y-103571875D01*
X248730000Y-102921875D02*
X248730000Y-103571875D01*
X245610000Y-102921875D02*
X245610000Y-101246875D01*
X248730000Y-102921875D02*
X248730000Y-102271875D01*
%TO.C,U2*%
X158300040Y-65821875D02*
X158300040Y-66621875D01*
X161420040Y-65821875D02*
X161420040Y-65021875D01*
X158300040Y-65821875D02*
X158300040Y-65021875D01*
X161420040Y-65821875D02*
X161420040Y-67621875D01*
%TO.C,R3*%
X158146915Y-69631008D02*
X158146915Y-69156492D01*
X159191915Y-69631008D02*
X159191915Y-69156492D01*
%TO.C,Y1*%
X245798858Y-128046777D02*
X245798858Y-124746777D01*
X245798858Y-124746777D02*
X249798858Y-124746777D01*
%TO.C,C4*%
X244763595Y-116209305D02*
X244564784Y-116010494D01*
X245484844Y-115488056D02*
X245286033Y-115289245D01*
%TO.C,R4*%
X144695500Y-53376742D02*
X144695500Y-53851258D01*
X143650500Y-53376742D02*
X143650500Y-53851258D01*
%TO.C,R10*%
X146219500Y-53376742D02*
X146219500Y-53851258D01*
X145174500Y-53376742D02*
X145174500Y-53851258D01*
%TO.C,C5*%
X262203165Y-124235469D02*
X262401976Y-124434280D01*
X261481916Y-124956718D02*
X261680727Y-125155529D01*
%TO.C,R7*%
X249551467Y-110881500D02*
X249887000Y-111217033D01*
X248812540Y-111620427D02*
X249148073Y-111955960D01*
%TO.C,R8*%
X248473837Y-111959130D02*
X248809370Y-112294663D01*
X247734910Y-112698057D02*
X248070443Y-113033590D01*
%TO.C,R11*%
X251024940Y-110163867D02*
X250689407Y-109828334D01*
X251763867Y-109424940D02*
X251428334Y-109089407D01*
%TO.C,J1*%
X232803700Y-90830400D02*
X230203700Y-90830400D01*
X237943700Y-88230400D02*
X237943700Y-93430400D01*
X230203700Y-93430400D02*
X237943700Y-93430400D01*
X230203700Y-88230400D02*
X230203700Y-89560400D01*
X232803700Y-88230400D02*
X237943700Y-88230400D01*
X232803700Y-88230400D02*
X232803700Y-90830400D01*
X231533700Y-88230400D02*
X230203700Y-88230400D01*
X230203700Y-90830400D02*
X230203700Y-93430400D01*
%TO.C,C7*%
X245410000Y-126259420D02*
X245410000Y-126540580D01*
X244390000Y-126259420D02*
X244390000Y-126540580D01*
%TO.C,C8*%
X251200000Y-126259420D02*
X251200000Y-126540580D01*
X250180000Y-126259420D02*
X250180000Y-126540580D01*
%TO.C,D18*%
X143940000Y-104155000D02*
X141655000Y-104155000D01*
X143940000Y-102685000D02*
X143940000Y-104155000D01*
X141655000Y-102685000D02*
X143940000Y-102685000D01*
%TO.C,D23*%
X162980000Y-104205000D02*
X160695000Y-104205000D01*
X162980000Y-102735000D02*
X162980000Y-104205000D01*
X160695000Y-102735000D02*
X162980000Y-102735000D01*
%TO.C,R6*%
X246302454Y-114134513D02*
X246637987Y-114470046D01*
X245563527Y-114873440D02*
X245899060Y-115208973D01*
%TO.C,R9*%
X247391399Y-113045568D02*
X247726932Y-113381101D01*
X246652472Y-113784495D02*
X246988005Y-114120028D01*
%TO.C,J2*%
X156620000Y-50953125D02*
X156620000Y-48953125D01*
X147220000Y-47053125D02*
X147220000Y-45153125D01*
X147220000Y-50953125D02*
X147220000Y-48953125D01*
X156620000Y-47053125D02*
X156620000Y-45153125D01*
X147220000Y-45153125D02*
X156620000Y-45153125D01*
%TO.C,H1*%
G36*
X135271384Y-82700954D02*
G01*
X135260206Y-82782946D01*
X135168132Y-82804206D01*
X135149596Y-82781506D01*
X135168132Y-82597702D01*
X135214716Y-82573472D01*
X135271384Y-82700954D01*
G37*
G36*
X147816506Y-93310101D02*
G01*
X147739067Y-93387540D01*
X147661628Y-93310101D01*
X147739067Y-93232662D01*
X147816506Y-93310101D01*
G37*
G36*
X116661563Y-74647296D02*
G01*
X116639974Y-74860350D01*
X116583445Y-74840893D01*
X116562989Y-74770787D01*
X116583445Y-74453698D01*
X116637224Y-74427426D01*
X116661563Y-74647296D01*
G37*
G36*
X148590896Y-81074735D02*
G01*
X148513457Y-81152174D01*
X148436018Y-81074735D01*
X148513457Y-80997296D01*
X148590896Y-81074735D01*
G37*
G36*
X147912539Y-84307727D02*
G01*
X147971384Y-84559491D01*
X147960334Y-84738913D01*
X147912008Y-84869247D01*
X147861540Y-84809702D01*
X147771630Y-84559491D01*
X147751337Y-84373076D01*
X147831005Y-84249735D01*
X147912539Y-84307727D01*
G37*
G36*
X125978701Y-78286930D02*
G01*
X125901262Y-78364369D01*
X125823823Y-78286930D01*
X125901262Y-78209491D01*
X125978701Y-78286930D01*
G37*
G36*
X43765336Y-124421539D02*
G01*
X44042764Y-124662724D01*
X44168184Y-124926154D01*
X44167188Y-125096499D01*
X43970774Y-125137540D01*
X43863901Y-125120066D01*
X43738457Y-124982662D01*
X43712247Y-124911413D01*
X43506140Y-124827784D01*
X43397797Y-124854768D01*
X43273823Y-125060101D01*
X43300807Y-125168443D01*
X43506140Y-125292418D01*
X43614482Y-125319402D01*
X43738457Y-125524735D01*
X43711472Y-125633077D01*
X43506140Y-125757052D01*
X43370663Y-125814544D01*
X43273823Y-126066808D01*
X43316942Y-126247443D01*
X43506140Y-126376564D01*
X43613012Y-126359091D01*
X43738457Y-126221686D01*
X43764667Y-126150438D01*
X43970774Y-126066808D01*
X44150821Y-126142795D01*
X44185837Y-126373034D01*
X44017237Y-126655345D01*
X43861558Y-126757325D01*
X43506140Y-126841198D01*
X43296989Y-126810513D01*
X42995042Y-126655345D01*
X42949957Y-126601450D01*
X42828523Y-126275368D01*
X42831736Y-125915933D01*
X42964485Y-125679354D01*
X43035086Y-125584007D01*
X42959036Y-125283019D01*
X42922345Y-125202258D01*
X42906690Y-124805589D01*
X43121957Y-124491135D01*
X43506140Y-124363150D01*
X43765336Y-124421539D01*
G37*
G36*
X47234344Y-124674212D02*
G01*
X47417660Y-124843781D01*
X47550645Y-125253698D01*
X47659795Y-125834491D01*
X47839369Y-125301768D01*
X47984812Y-124977362D01*
X48169799Y-124740525D01*
X48321741Y-124688065D01*
X48384798Y-124864726D01*
X48371965Y-124971492D01*
X48283241Y-125338436D01*
X48137922Y-125806901D01*
X48041462Y-126055947D01*
X47856646Y-126397485D01*
X47701572Y-126531442D01*
X47599881Y-126457155D01*
X47425084Y-126156870D01*
X47251497Y-125704720D01*
X47163523Y-125423926D01*
X47040867Y-124998991D01*
X47010226Y-124775005D01*
X47069401Y-124687723D01*
X47216195Y-124672906D01*
X47234344Y-124674212D01*
G37*
G36*
X125514067Y-77435101D02*
G01*
X125502889Y-77517093D01*
X125410814Y-77538353D01*
X125392279Y-77515653D01*
X125410814Y-77331849D01*
X125457399Y-77307619D01*
X125514067Y-77435101D01*
G37*
G36*
X66505530Y-127150954D02*
G01*
X66396535Y-127242246D01*
X65963962Y-127424897D01*
X65500370Y-127439914D01*
X65142603Y-127274857D01*
X65002464Y-127167105D01*
X64956749Y-127274857D01*
X64956746Y-127275626D01*
X64820605Y-127406753D01*
X64492115Y-127460711D01*
X64027481Y-127460711D01*
X64027481Y-126248934D01*
X64983194Y-126248934D01*
X65120413Y-126538806D01*
X65472378Y-126659073D01*
X65679752Y-126673651D01*
X65854377Y-126601962D01*
X65859573Y-126349317D01*
X65722354Y-126059444D01*
X65370389Y-125939178D01*
X65163015Y-125924599D01*
X64988390Y-125996288D01*
X64983194Y-126248934D01*
X64027481Y-126248934D01*
X64027481Y-125982329D01*
X64031864Y-125366004D01*
X64056792Y-124873122D01*
X64117571Y-124551457D01*
X64229440Y-124326512D01*
X64407636Y-124123793D01*
X64536418Y-124011445D01*
X65081438Y-123771170D01*
X65684748Y-123787895D01*
X66252326Y-124064634D01*
X66280024Y-124086762D01*
X66549588Y-124345523D01*
X66660408Y-124534259D01*
X66608234Y-124651103D01*
X66355357Y-124795671D01*
X66012417Y-124851000D01*
X65714837Y-124781660D01*
X65689490Y-124766916D01*
X65373685Y-124700041D01*
X65083801Y-124782143D01*
X64956749Y-124977801D01*
X64962207Y-125000277D01*
X65144800Y-125097902D01*
X65505863Y-125137540D01*
X65711580Y-125153246D01*
X66227985Y-125352799D01*
X66601544Y-125724775D01*
X66796295Y-126196745D01*
X66790181Y-126349317D01*
X66776277Y-126696281D01*
X66505530Y-127150954D01*
G37*
G36*
X129883944Y-63312209D02*
G01*
X129908371Y-63573515D01*
X130060420Y-64158185D01*
X130164132Y-64392182D01*
X130427731Y-64986921D01*
X130644666Y-65295455D01*
X130838260Y-65570793D01*
X130904055Y-65664369D01*
X131178417Y-66056617D01*
X131349329Y-66477479D01*
X131401428Y-66665894D01*
X131572871Y-66857682D01*
X131934694Y-66903393D01*
X131987617Y-66902707D01*
X132386962Y-66806714D01*
X132648627Y-66497196D01*
X132676795Y-66445222D01*
X132812332Y-66249245D01*
X132996045Y-66155287D01*
X133314490Y-66140811D01*
X133854219Y-66183278D01*
X134334588Y-66245565D01*
X134793743Y-66343826D01*
X135050118Y-66447931D01*
X135083105Y-66473793D01*
X135344170Y-66546335D01*
X135517992Y-66342677D01*
X135581140Y-65887546D01*
X135608817Y-65551400D01*
X135712486Y-65376112D01*
X135867621Y-65492781D01*
X136047080Y-65900643D01*
X136227286Y-66446673D01*
X136527304Y-66065262D01*
X136531909Y-66059355D01*
X136747896Y-65720319D01*
X137023302Y-65207203D01*
X137299699Y-64628683D01*
X137320040Y-64583294D01*
X137570154Y-64032366D01*
X137783438Y-63574414D01*
X137915633Y-63304580D01*
X138033554Y-62956214D01*
X138040961Y-62577135D01*
X137916226Y-62341855D01*
X137909072Y-62336910D01*
X137779971Y-62122431D01*
X137666933Y-61751922D01*
X137624345Y-61613691D01*
X137424374Y-61174733D01*
X137114130Y-60611425D01*
X136740226Y-60011320D01*
X136548297Y-59712193D01*
X136131196Y-58991500D01*
X135792770Y-58308853D01*
X135556275Y-57719196D01*
X135444964Y-57277471D01*
X135482089Y-57038622D01*
X135546098Y-57035147D01*
X135782782Y-57197375D01*
X136139351Y-57539120D01*
X136576379Y-58013487D01*
X137054438Y-58573583D01*
X137534103Y-59172513D01*
X137975946Y-59763382D01*
X138340540Y-60299297D01*
X138588460Y-60733363D01*
X138704014Y-60950012D01*
X138938214Y-61276644D01*
X139126106Y-61405223D01*
X139147188Y-61401396D01*
X139345634Y-61237913D01*
X139631292Y-60881484D01*
X139949826Y-60398515D01*
X139983380Y-60343258D01*
X140311332Y-59826003D01*
X140602808Y-59402392D01*
X140798195Y-59159491D01*
X140894555Y-59070122D01*
X140963362Y-59043326D01*
X140984834Y-59141813D01*
X140957531Y-59410555D01*
X140880014Y-59894526D01*
X140750843Y-60638696D01*
X140654692Y-61188633D01*
X141215477Y-60873659D01*
X141363943Y-60795748D01*
X141658974Y-60684195D01*
X141776262Y-60711677D01*
X141701376Y-60992147D01*
X141488942Y-61461468D01*
X141180106Y-62035169D01*
X140816192Y-62636710D01*
X140438522Y-63189547D01*
X140345188Y-63316506D01*
X139932046Y-63902255D01*
X139670760Y-64355237D01*
X139526836Y-64768521D01*
X139465778Y-65235178D01*
X139453091Y-65848278D01*
X139472417Y-66353296D01*
X139574737Y-67181355D01*
X139748318Y-67987579D01*
X139974170Y-68714567D01*
X140233307Y-69304915D01*
X140506741Y-69701219D01*
X140775484Y-69846076D01*
X140815226Y-69840759D01*
X141091477Y-69709687D01*
X141439418Y-69457907D01*
X141441635Y-69456044D01*
X141881762Y-69194104D01*
X142232194Y-69204807D01*
X142462681Y-69487284D01*
X142529024Y-69575917D01*
X142821246Y-69642119D01*
X143253454Y-69543193D01*
X143749759Y-69290729D01*
X143873873Y-69200115D01*
X144325060Y-68663572D01*
X144671774Y-67912715D01*
X144901154Y-67013929D01*
X145000336Y-66033599D01*
X144956459Y-65038111D01*
X144756661Y-64093850D01*
X144549772Y-63386378D01*
X144389158Y-62628921D01*
X144342921Y-61975600D01*
X144398284Y-61327784D01*
X144503043Y-60630832D01*
X145289042Y-62257052D01*
X145569483Y-62851593D01*
X145856485Y-63493332D01*
X146070071Y-64008916D01*
X146177764Y-64322854D01*
X146264310Y-64567821D01*
X146395552Y-64634561D01*
X146581454Y-64465982D01*
X146840769Y-64044118D01*
X147192250Y-63351003D01*
X147342862Y-63045307D01*
X147613462Y-62548118D01*
X147800354Y-62309865D01*
X147923778Y-62310027D01*
X148003971Y-62528089D01*
X148009561Y-62559414D01*
X148018420Y-62764821D01*
X147988657Y-63073424D01*
X147912966Y-63524682D01*
X147784040Y-64158057D01*
X147594574Y-65013010D01*
X147337261Y-66129003D01*
X147270709Y-66425959D01*
X147107024Y-67276200D01*
X146983484Y-68099008D01*
X146903093Y-68848247D01*
X146868855Y-69477782D01*
X146883772Y-69941477D01*
X146950850Y-70193198D01*
X147073091Y-70186808D01*
X147165931Y-70111527D01*
X147402388Y-70013250D01*
X147579281Y-70025519D01*
X147584548Y-70155250D01*
X147500482Y-70325006D01*
X147446030Y-70898967D01*
X147677752Y-71581342D01*
X147809178Y-71833696D01*
X147964896Y-72060413D01*
X148104482Y-72074375D01*
X148231446Y-71973748D01*
X150998707Y-71973748D01*
X151200561Y-72014369D01*
X151471971Y-71910526D01*
X151748083Y-71632623D01*
X151766826Y-71601361D01*
X152462847Y-71601361D01*
X152464906Y-71694818D01*
X152515884Y-72032639D01*
X152613853Y-72169247D01*
X152623546Y-72168312D01*
X152695685Y-72015564D01*
X152669045Y-71665893D01*
X152602823Y-71352004D01*
X152525823Y-71127648D01*
X152523465Y-71131808D01*
X152478782Y-71210648D01*
X152462847Y-71601361D01*
X151766826Y-71601361D01*
X151941293Y-71310357D01*
X151979752Y-71131808D01*
X151843335Y-71085101D01*
X151773638Y-71109589D01*
X151688457Y-71312557D01*
X151659324Y-71420690D01*
X151468018Y-71455423D01*
X151293604Y-71469426D01*
X151075373Y-71692601D01*
X151023418Y-71795481D01*
X150998707Y-71973748D01*
X148231446Y-71973748D01*
X148303986Y-71916255D01*
X148482544Y-71706590D01*
X148553935Y-71414162D01*
X148512285Y-70945864D01*
X148409046Y-70257413D01*
X148848446Y-70536876D01*
X149237321Y-70807727D01*
X149607585Y-71105598D01*
X149622619Y-71119133D01*
X149959071Y-71353317D01*
X150235371Y-71331277D01*
X150557959Y-71046381D01*
X150757699Y-70810361D01*
X151045532Y-70338285D01*
X151222290Y-69772357D01*
X151328447Y-69005359D01*
X151421258Y-68011475D01*
X150566680Y-66791901D01*
X150467238Y-66648663D01*
X149989999Y-65924830D01*
X149562196Y-65220062D01*
X149216354Y-64592699D01*
X148984998Y-64101079D01*
X148900652Y-63803541D01*
X148953612Y-63774442D01*
X149192587Y-63865981D01*
X149558884Y-64090148D01*
X149790040Y-64260653D01*
X150410397Y-64831161D01*
X150939720Y-65475849D01*
X151337419Y-66131635D01*
X151562900Y-66735438D01*
X151575571Y-67224174D01*
X151555362Y-67469016D01*
X151703690Y-67488252D01*
X151806188Y-67419276D01*
X151899263Y-67157761D01*
X151903933Y-67029430D01*
X151990632Y-66903393D01*
X152023864Y-66885255D01*
X152155922Y-66670568D01*
X152305447Y-66291524D01*
X152329442Y-66224251D01*
X152607613Y-65695224D01*
X152969788Y-65246097D01*
X153432194Y-64812540D01*
X153326031Y-66129003D01*
X153310628Y-66336347D01*
X153264439Y-67181859D01*
X153232262Y-68120080D01*
X153220302Y-68983473D01*
X153220569Y-69123735D01*
X153233928Y-69818973D01*
X153273190Y-70269234D01*
X153346325Y-70529839D01*
X153461303Y-70656108D01*
X153581286Y-70752964D01*
X153701871Y-71012223D01*
X153708518Y-71079601D01*
X153795485Y-71418900D01*
X153951005Y-71856357D01*
X154025629Y-72015564D01*
X154118528Y-72213758D01*
X154326639Y-72425731D01*
X154623952Y-72479003D01*
X154959539Y-72408510D01*
X155320146Y-72178026D01*
X155612009Y-71954947D01*
X156042390Y-71778242D01*
X156498405Y-71551202D01*
X156585100Y-71402144D01*
X161136018Y-71402144D01*
X161136164Y-71413518D01*
X161217591Y-71547522D01*
X161423749Y-71437617D01*
X161718097Y-71102607D01*
X161919271Y-70772569D01*
X161924376Y-70540170D01*
X161677138Y-70465589D01*
X161579384Y-70511355D01*
X161381625Y-70752874D01*
X161209558Y-71091823D01*
X161136018Y-71402144D01*
X156585100Y-71402144D01*
X156750628Y-71117544D01*
X156779641Y-70503646D01*
X156735694Y-70334639D01*
X162253881Y-70334639D01*
X162327688Y-70447998D01*
X162496235Y-70540170D01*
X162599311Y-70596538D01*
X162760215Y-70595539D01*
X162776667Y-70540198D01*
X162986810Y-70540198D01*
X163121966Y-71149970D01*
X163546997Y-71804820D01*
X163711855Y-71997144D01*
X164126879Y-72359366D01*
X164511448Y-72450368D01*
X164926513Y-72270664D01*
X165433025Y-71820771D01*
X165975757Y-71168183D01*
X166413008Y-70295610D01*
X166423013Y-70231601D01*
X184507762Y-70231601D01*
X185041306Y-70697070D01*
X185170342Y-70809272D01*
X185567208Y-71150580D01*
X185868546Y-71404653D01*
X185989059Y-71502643D01*
X186321823Y-71741580D01*
X186489694Y-71781122D01*
X186536018Y-71636314D01*
X186521936Y-71521411D01*
X186419859Y-71394668D01*
X186290237Y-71338250D01*
X186028880Y-71150593D01*
X185743210Y-70906847D01*
X185524888Y-70686367D01*
X185465574Y-70568506D01*
X185479873Y-70559806D01*
X185699047Y-70474044D01*
X186071384Y-70352797D01*
X186613457Y-70187455D01*
X186135916Y-70171644D01*
X185757508Y-70133554D01*
X185575724Y-70016547D01*
X185663454Y-69791948D01*
X186015727Y-69429038D01*
X186170895Y-69283531D01*
X186450947Y-68984477D01*
X186501803Y-68858453D01*
X186342442Y-68903153D01*
X185991846Y-69116269D01*
X185633684Y-69376043D01*
X185468992Y-69495494D01*
X184507762Y-70231601D01*
X166423013Y-70231601D01*
X166556749Y-69376043D01*
X166529653Y-69022896D01*
X166415651Y-68696364D01*
X166169980Y-68324807D01*
X165779147Y-67859485D01*
X185916506Y-67859485D01*
X185916537Y-67860988D01*
X186054796Y-67950418D01*
X186381140Y-67987540D01*
X186845774Y-67987540D01*
X186845774Y-70138051D01*
X186846120Y-70187455D01*
X186849915Y-70730097D01*
X186883553Y-71691399D01*
X186952233Y-72372505D01*
X187057434Y-72791953D01*
X187269094Y-73295344D01*
X187387156Y-72771015D01*
X187396532Y-72723804D01*
X187440413Y-72365558D01*
X200165842Y-72365558D01*
X200250147Y-72708295D01*
X200491523Y-73035792D01*
X200545909Y-73088787D01*
X200841491Y-73461097D01*
X201114183Y-73911625D01*
X201170899Y-74014297D01*
X201446454Y-74351515D01*
X201723838Y-74503258D01*
X201937982Y-74450689D01*
X202023823Y-74174970D01*
X202004280Y-73987271D01*
X201832983Y-73490600D01*
X201533029Y-72964884D01*
X201162901Y-72490213D01*
X200781085Y-72146678D01*
X200446066Y-72014369D01*
X200242860Y-72103093D01*
X200165842Y-72365558D01*
X187440413Y-72365558D01*
X187445657Y-72322745D01*
X187494580Y-71702594D01*
X187538090Y-70938876D01*
X187563892Y-70286256D01*
X187852481Y-70286256D01*
X188355835Y-70298483D01*
X188393045Y-70299584D01*
X188723484Y-70330395D01*
X188859188Y-70382810D01*
X188843436Y-70417511D01*
X188679372Y-70623623D01*
X188394554Y-70930223D01*
X188280310Y-71051696D01*
X188029821Y-71360506D01*
X187929920Y-71555075D01*
X187931137Y-71601771D01*
X187964267Y-71680980D01*
X188076528Y-71629294D01*
X188312789Y-71415610D01*
X188717916Y-71008827D01*
X189056504Y-70686495D01*
X189391657Y-70416177D01*
X189594859Y-70311876D01*
X189666057Y-70300535D01*
X189788457Y-70155832D01*
X189764955Y-70087067D01*
X189563836Y-70000954D01*
X189458952Y-69982478D01*
X189215360Y-69798863D01*
X189158517Y-69730842D01*
X188874124Y-69500348D01*
X188471993Y-69244258D01*
X187852481Y-68891745D01*
X188384858Y-69365700D01*
X188699566Y-69656189D01*
X188818741Y-69847253D01*
X188693523Y-69977352D01*
X188317115Y-70122402D01*
X187852481Y-70286256D01*
X187563892Y-70286256D01*
X187570974Y-70107114D01*
X187579539Y-69831080D01*
X187606827Y-69061847D01*
X187637542Y-68541105D01*
X187680797Y-68221434D01*
X187745704Y-68055419D01*
X187841375Y-67995642D01*
X187976923Y-67994685D01*
X188202683Y-68010282D01*
X188547283Y-68004856D01*
X188646762Y-67923847D01*
X188543985Y-67748659D01*
X188389290Y-67617144D01*
X188184289Y-67671220D01*
X188072036Y-67748876D01*
X187744067Y-67832662D01*
X187633930Y-67816025D01*
X187495055Y-67651241D01*
X187443308Y-67251869D01*
X187421330Y-66671076D01*
X187297469Y-67290589D01*
X187252831Y-67497884D01*
X187216501Y-67584689D01*
X187213950Y-67393916D01*
X187242972Y-66910174D01*
X187252965Y-66731002D01*
X187241436Y-66253388D01*
X187172897Y-66058636D01*
X187072851Y-66135954D01*
X186966803Y-66474552D01*
X186880257Y-67063637D01*
X186835247Y-67469783D01*
X186762422Y-67732129D01*
X186620980Y-67817153D01*
X186360043Y-67796529D01*
X186048284Y-67787960D01*
X185916506Y-67859485D01*
X165779147Y-67859485D01*
X165747905Y-67822288D01*
X165646592Y-67707999D01*
X165270358Y-67298518D01*
X164985482Y-67011555D01*
X164847137Y-66903393D01*
X164765263Y-66999711D01*
X164598782Y-67314301D01*
X164395314Y-67771713D01*
X164237914Y-68115627D01*
X163881001Y-68769357D01*
X163514985Y-69321833D01*
X163317525Y-69637554D01*
X163140814Y-69920098D01*
X163011282Y-70441660D01*
X162986810Y-70540198D01*
X162776667Y-70540198D01*
X162805960Y-70441660D01*
X162732153Y-70328301D01*
X162460530Y-70179761D01*
X162299626Y-70180760D01*
X162253881Y-70334639D01*
X156735694Y-70334639D01*
X156579264Y-69733052D01*
X156572867Y-69715970D01*
X156416877Y-69260169D01*
X156222393Y-68641080D01*
X156154662Y-68411051D01*
X157585297Y-68411051D01*
X157696581Y-68677380D01*
X157966601Y-69113173D01*
X158224340Y-69469773D01*
X158431787Y-69685563D01*
X158503091Y-69637554D01*
X158502621Y-69627991D01*
X158412799Y-69386437D01*
X158217782Y-69027275D01*
X157990260Y-68673850D01*
X157802926Y-68449507D01*
X157640128Y-68344101D01*
X157585297Y-68411051D01*
X156154662Y-68411051D01*
X156029961Y-67987540D01*
X155825895Y-67312980D01*
X155563337Y-66521113D01*
X155317968Y-65847857D01*
X155211482Y-65564793D01*
X155049900Y-65022562D01*
X155048994Y-64744243D01*
X155208952Y-64729064D01*
X155529962Y-64976256D01*
X155819174Y-65208018D01*
X156318613Y-65543194D01*
X156869789Y-65865123D01*
X157352890Y-66156724D01*
X157936487Y-66650658D01*
X158494191Y-67329029D01*
X158899200Y-67853567D01*
X159246381Y-68204992D01*
X159465194Y-68280411D01*
X159559919Y-68080971D01*
X159534837Y-67607820D01*
X159448794Y-67248438D01*
X159167826Y-66563791D01*
X158739395Y-65792009D01*
X158468869Y-65338078D01*
X158150907Y-64709398D01*
X158025513Y-64301175D01*
X158085424Y-64122810D01*
X158323377Y-64183703D01*
X158732107Y-64493254D01*
X159304351Y-65060865D01*
X159513768Y-65280349D01*
X159973797Y-65701479D01*
X160284783Y-65869140D01*
X160460945Y-65788048D01*
X160516506Y-65462921D01*
X160517168Y-65430445D01*
X160547806Y-65078602D01*
X160615055Y-64540471D01*
X160706304Y-63918649D01*
X160777275Y-63500060D01*
X160884906Y-63036280D01*
X160997387Y-62804424D01*
X161132219Y-62756753D01*
X161295362Y-62905375D01*
X161478658Y-63321644D01*
X161652849Y-63955058D01*
X161806995Y-64756908D01*
X161930155Y-65678483D01*
X162011391Y-66671076D01*
X162048893Y-67249258D01*
X162102853Y-67877530D01*
X162158121Y-68340625D01*
X162207244Y-68566403D01*
X162239930Y-68590055D01*
X162450925Y-68489959D01*
X162829390Y-68154095D01*
X163363412Y-67592498D01*
X163587226Y-67343095D01*
X163999328Y-66857350D01*
X164237397Y-66514627D01*
X164334417Y-66261776D01*
X164323372Y-66045647D01*
X164322553Y-66042375D01*
X164302345Y-65749383D01*
X164462945Y-65664369D01*
X164580257Y-65657285D01*
X164679482Y-65582153D01*
X164600516Y-65379962D01*
X164332656Y-64995804D01*
X163970543Y-64464941D01*
X163607763Y-63854214D01*
X163291725Y-63249398D01*
X163053123Y-62713827D01*
X162922654Y-62310838D01*
X162931013Y-62103764D01*
X163024995Y-62078807D01*
X163272761Y-62200597D01*
X163672219Y-62525975D01*
X164246696Y-63072110D01*
X164783531Y-63616006D01*
X165440472Y-64312344D01*
X166063624Y-65002598D01*
X166606429Y-65633781D01*
X167022329Y-66152904D01*
X167264766Y-66506980D01*
X167349836Y-66646873D01*
X167563040Y-66832291D01*
X167774175Y-66727998D01*
X168013393Y-66326733D01*
X168291136Y-65744301D01*
X168579036Y-66285127D01*
X168623078Y-66370895D01*
X168798848Y-66787828D01*
X168873428Y-67096991D01*
X168896288Y-67239658D01*
X169008877Y-67368028D01*
X169096573Y-67316572D01*
X169335430Y-67083832D01*
X169640742Y-66736548D01*
X169942439Y-66355863D01*
X170170450Y-66022920D01*
X170189962Y-65981181D01*
X170207992Y-65612965D01*
X170094194Y-65047910D01*
X169871254Y-64344427D01*
X169561858Y-63560927D01*
X169188690Y-62755822D01*
X168774438Y-61987525D01*
X168341788Y-61314446D01*
X168020137Y-60832304D01*
X167767989Y-60357933D01*
X167685788Y-60046082D01*
X167788415Y-59933881D01*
X167922743Y-59954471D01*
X168353130Y-60162135D01*
X168882943Y-60553411D01*
X169456158Y-61078856D01*
X170016749Y-61689030D01*
X170508692Y-62334491D01*
X170665335Y-62550978D01*
X170818324Y-62710986D01*
X170841199Y-62644247D01*
X170754379Y-62315816D01*
X170646216Y-61869857D01*
X170602749Y-61712837D01*
X170424816Y-61224940D01*
X170194285Y-60708271D01*
X169901884Y-60085549D01*
X169737058Y-59636361D01*
X169721937Y-59389678D01*
X169848804Y-59314369D01*
X169940910Y-59341484D01*
X170230257Y-59571719D01*
X170601095Y-59988165D01*
X171007686Y-60531739D01*
X171404289Y-61143358D01*
X171745164Y-61763937D01*
X171748784Y-61771290D01*
X171994252Y-62244619D01*
X172193506Y-62583542D01*
X172303716Y-62715120D01*
X172308889Y-62713905D01*
X172369504Y-62548778D01*
X172437731Y-62159430D01*
X172499768Y-61622773D01*
X172574105Y-61026966D01*
X172671146Y-60519059D01*
X172769750Y-60210230D01*
X172831073Y-60103614D01*
X172937673Y-60022915D01*
X173074009Y-60145594D01*
X173300568Y-60505272D01*
X173488229Y-60855072D01*
X173849243Y-61707915D01*
X174173633Y-62688031D01*
X174423927Y-63675334D01*
X174562653Y-64549743D01*
X174580796Y-64734403D01*
X174675010Y-65314399D01*
X174834102Y-65729607D01*
X175098129Y-66095673D01*
X175539676Y-66604416D01*
X175539676Y-66211831D01*
X175596366Y-65926887D01*
X175819831Y-65819247D01*
X175947794Y-65830285D01*
X176248850Y-65962019D01*
X176584347Y-66278812D01*
X177007727Y-66825954D01*
X177159997Y-67038158D01*
X177390367Y-67357265D01*
X177503879Y-67511635D01*
X177513046Y-67519643D01*
X177658081Y-67455213D01*
X177877220Y-67225287D01*
X178095804Y-66919597D01*
X178239175Y-66627877D01*
X178238883Y-66415275D01*
X178073442Y-65916453D01*
X177718625Y-65193323D01*
X177178825Y-64254570D01*
X176458440Y-63108881D01*
X176370895Y-62972620D01*
X175907780Y-62191381D01*
X175578652Y-61525208D01*
X175395879Y-61007732D01*
X175371824Y-60672583D01*
X175518853Y-60553393D01*
X175558097Y-60570441D01*
X175785469Y-60755890D01*
X176161517Y-61110154D01*
X176644002Y-61589144D01*
X177190684Y-62148772D01*
X177759322Y-62744951D01*
X178307678Y-63333591D01*
X178793511Y-63870605D01*
X179174581Y-64311904D01*
X179408649Y-64613401D01*
X179423930Y-64635910D01*
X179807151Y-65097133D01*
X180161484Y-65265535D01*
X180540839Y-65145449D01*
X180999127Y-64741206D01*
X181097890Y-64636069D01*
X181367017Y-64315841D01*
X181511180Y-64022023D01*
X181569206Y-63642598D01*
X181579920Y-63065550D01*
X181506612Y-62037430D01*
X181229881Y-60860013D01*
X180725612Y-59592169D01*
X180463311Y-58940269D01*
X180344890Y-58386751D01*
X180413136Y-58040297D01*
X180668716Y-57920467D01*
X180740477Y-57918497D01*
X180921251Y-57836726D01*
X180892961Y-57571991D01*
X180884319Y-57542011D01*
X180788266Y-57130234D01*
X180699626Y-56642723D01*
X180696848Y-56624417D01*
X180679546Y-56207061D01*
X180781321Y-56058064D01*
X180984779Y-56168294D01*
X181272531Y-56528616D01*
X181627183Y-57129896D01*
X181954897Y-57747803D01*
X182267584Y-58347496D01*
X182493496Y-58802166D01*
X182666426Y-59183342D01*
X182820168Y-59562551D01*
X182988514Y-60011320D01*
X183285710Y-60793563D01*
X183631323Y-61613307D01*
X183928856Y-62190960D01*
X184195927Y-62559560D01*
X184450152Y-62752139D01*
X184463411Y-62758134D01*
X184776985Y-62856672D01*
X185005135Y-62807561D01*
X185160081Y-62578571D01*
X185254044Y-62137471D01*
X185299245Y-61452031D01*
X185307906Y-60490021D01*
X185307361Y-60334876D01*
X185317654Y-59448602D01*
X185355914Y-58809927D01*
X185427172Y-58365387D01*
X185536461Y-58061518D01*
X185561563Y-58014697D01*
X185754990Y-57746706D01*
X185903292Y-57679983D01*
X185953791Y-57764326D01*
X186071638Y-58100474D01*
X186220114Y-58626126D01*
X186378700Y-59272547D01*
X186547381Y-59983355D01*
X186717825Y-60617374D01*
X186843611Y-60958860D01*
X186929032Y-61014951D01*
X186978378Y-60792790D01*
X186995942Y-60299515D01*
X187014490Y-59825076D01*
X187108181Y-59329658D01*
X187299888Y-58983051D01*
X187599124Y-58617418D01*
X187822547Y-59159491D01*
X187909390Y-59392915D01*
X188085107Y-59958064D01*
X188238503Y-60553393D01*
X188290673Y-60772378D01*
X188492457Y-61464650D01*
X188713050Y-62034539D01*
X188926342Y-62421510D01*
X189106221Y-62565031D01*
X189143908Y-62562524D01*
X189437922Y-62377297D01*
X189752806Y-61919937D01*
X190067028Y-61220573D01*
X190190511Y-60921022D01*
X190450628Y-60393092D01*
X190693234Y-60007278D01*
X191015059Y-59598144D01*
X191099293Y-59959610D01*
X191121386Y-60077893D01*
X191179554Y-60505816D01*
X191246291Y-61107573D01*
X191311110Y-61792418D01*
X191438693Y-63263759D01*
X191955914Y-62134520D01*
X192134779Y-61760424D01*
X192430343Y-61253582D01*
X192663783Y-61047449D01*
X192847861Y-61143242D01*
X192995336Y-61542180D01*
X193118967Y-62245480D01*
X193162482Y-62538821D01*
X193292548Y-63116678D01*
X193457793Y-63415582D01*
X193676770Y-63457824D01*
X193968027Y-63265693D01*
X194067621Y-63187632D01*
X194445013Y-63084324D01*
X194789733Y-63260261D01*
X195045849Y-63693254D01*
X195162174Y-63943738D01*
X195445227Y-64369189D01*
X195791562Y-64775471D01*
X196127891Y-65079886D01*
X196380924Y-65199735D01*
X196540322Y-65253331D01*
X196889650Y-65473395D01*
X197314063Y-65801339D01*
X197732906Y-66169384D01*
X198065524Y-66509752D01*
X198231262Y-66754666D01*
X198399844Y-66976710D01*
X198742987Y-67142392D01*
X198975974Y-67193141D01*
X199700575Y-67384360D01*
X200430133Y-67618168D01*
X201103688Y-67870510D01*
X201223965Y-67923847D01*
X201660275Y-68117329D01*
X202038934Y-68334567D01*
X202178701Y-68498170D01*
X202186734Y-68517487D01*
X202337581Y-68472192D01*
X202619123Y-68272344D01*
X202737481Y-68175657D01*
X202755244Y-68161382D01*
X205276262Y-68161382D01*
X205279407Y-68198685D01*
X205414932Y-68288015D01*
X205722019Y-68157362D01*
X205813881Y-68065331D01*
X205824389Y-67842457D01*
X205709643Y-67742328D01*
X205494790Y-67844105D01*
X205381938Y-67957423D01*
X205276262Y-68161382D01*
X202755244Y-68161382D01*
X203186881Y-67814496D01*
X203653908Y-67445467D01*
X203849549Y-67289764D01*
X204325032Y-66901862D01*
X204902635Y-66422858D01*
X205497937Y-65922475D01*
X205783781Y-65686603D01*
X206494145Y-65138130D01*
X207212609Y-64625402D01*
X207820476Y-64234675D01*
X208153752Y-64021829D01*
X208812845Y-63540146D01*
X209517497Y-62967444D01*
X210162864Y-62386447D01*
X210511386Y-62059912D01*
X211049589Y-61596757D01*
X211440377Y-61320315D01*
X211654430Y-61252869D01*
X211884956Y-61264676D01*
X212328493Y-61211763D01*
X212874237Y-61102903D01*
X212985609Y-61077357D01*
X213722041Y-60947302D01*
X214487581Y-60888383D01*
X215326444Y-60904798D01*
X216282845Y-61000743D01*
X217400999Y-61180416D01*
X218725124Y-61448014D01*
X220299432Y-61807734D01*
X220499028Y-61855195D01*
X221780909Y-62163311D01*
X222805920Y-62417461D01*
X223614108Y-62628994D01*
X224245518Y-62809263D01*
X224740196Y-62969617D01*
X225138187Y-63121406D01*
X225479537Y-63275981D01*
X225776684Y-63406907D01*
X226306027Y-63582897D01*
X226718561Y-63652558D01*
X226988911Y-63672008D01*
X227522310Y-63737735D01*
X228207283Y-63838818D01*
X228960743Y-63963729D01*
X229525641Y-64058104D01*
X230395378Y-64189468D01*
X231202433Y-64296744D01*
X231825987Y-64363092D01*
X231931414Y-64372785D01*
X232554426Y-64461092D01*
X233247698Y-64599323D01*
X233948741Y-64769849D01*
X234595064Y-64955042D01*
X235124176Y-65137272D01*
X235473589Y-65298912D01*
X235580812Y-65422332D01*
X235509647Y-65501477D01*
X235252274Y-65537852D01*
X235108744Y-65537121D01*
X235083884Y-65654011D01*
X235110186Y-65723848D01*
X235007177Y-65819247D01*
X235003018Y-65819321D01*
X234755689Y-65906923D01*
X234417243Y-66110261D01*
X234375511Y-66138510D01*
X233996174Y-66355005D01*
X233451465Y-66627736D01*
X232844554Y-66904593D01*
X232553678Y-67027409D01*
X232001514Y-67228386D01*
X231471500Y-67356348D01*
X230853012Y-67434135D01*
X230035425Y-67484587D01*
X229467190Y-67506857D01*
X228810090Y-67507684D01*
X228271051Y-67459141D01*
X227736469Y-67348874D01*
X227092742Y-67164527D01*
X226939521Y-67117852D01*
X226238396Y-66909777D01*
X225583968Y-66723218D01*
X225100652Y-66593820D01*
X225085434Y-66590003D01*
X224574381Y-66450868D01*
X223913617Y-66257099D01*
X223242115Y-66049404D01*
X223230477Y-66045697D01*
X222542193Y-65839397D01*
X221851463Y-65652905D01*
X221306140Y-65526180D01*
X221294060Y-65523785D01*
X220762469Y-65405804D01*
X220056743Y-65232603D01*
X219256093Y-65025489D01*
X218439728Y-64805769D01*
X217686856Y-64594750D01*
X217076689Y-64413739D01*
X216688435Y-64284043D01*
X216491339Y-64227112D01*
X215980450Y-64147029D01*
X215411081Y-64115589D01*
X215388650Y-64115594D01*
X214984224Y-64126009D01*
X214683321Y-64185497D01*
X214405878Y-64337116D01*
X214071830Y-64623924D01*
X213601113Y-65088979D01*
X213524004Y-65165872D01*
X212934827Y-65725775D01*
X212312962Y-66279193D01*
X211780907Y-66716589D01*
X211344963Y-67055895D01*
X210679025Y-67584735D01*
X210361315Y-67842457D01*
X210077481Y-68072699D01*
X209612942Y-68434359D01*
X209021894Y-68851765D01*
X208520785Y-69163304D01*
X208119836Y-69438588D01*
X207595906Y-69902002D01*
X207363889Y-70155832D01*
X207129381Y-70412387D01*
X206745075Y-70855194D01*
X206235010Y-71366293D01*
X205782114Y-71747256D01*
X205533154Y-71934626D01*
X205236915Y-72189363D01*
X205121384Y-72337540D01*
X205133112Y-72441524D01*
X205276816Y-72868892D01*
X205550050Y-73437023D01*
X205909734Y-74068321D01*
X205979417Y-74174970D01*
X206312787Y-74685189D01*
X206462203Y-74879613D01*
X206714075Y-75207355D01*
X206716130Y-75210029D01*
X206825025Y-75387332D01*
X207023619Y-75836473D01*
X207117830Y-76092824D01*
X207248759Y-76449083D01*
X207296817Y-76600717D01*
X207469635Y-77146004D01*
X207634496Y-77725977D01*
X207786895Y-78352700D01*
X207862870Y-78867439D01*
X207871341Y-79190385D01*
X207876196Y-79375492D01*
X207849230Y-79835711D01*
X207844692Y-79913150D01*
X207840649Y-79982156D01*
X207811120Y-80300991D01*
X207706161Y-80974798D01*
X207526084Y-81595769D01*
X207236771Y-82266141D01*
X206967145Y-82778393D01*
X206804103Y-83088150D01*
X206715770Y-83249001D01*
X206486054Y-83678154D01*
X206333397Y-83978698D01*
X206228854Y-84183597D01*
X206015087Y-84556783D01*
X205940445Y-84723551D01*
X205968592Y-84921295D01*
X206153008Y-85190713D01*
X206528250Y-85602210D01*
X206560506Y-85636147D01*
X207171152Y-86316257D01*
X207646255Y-86918607D01*
X207954374Y-87399909D01*
X208064067Y-87716870D01*
X208054197Y-87853051D01*
X207919215Y-88273048D01*
X207680863Y-88605806D01*
X207409512Y-88741198D01*
X207224798Y-88725449D01*
X206844023Y-88585331D01*
X206399299Y-88269217D01*
X205831703Y-87739707D01*
X205529678Y-87454755D01*
X205000204Y-87008578D01*
X204531213Y-86668867D01*
X204337588Y-86542607D01*
X203996248Y-86296816D01*
X203822649Y-86136958D01*
X203813207Y-86125067D01*
X203605827Y-85979700D01*
X203204785Y-85754726D01*
X202686764Y-85493581D01*
X202399201Y-85354693D01*
X201471285Y-84891303D01*
X200759128Y-84502337D01*
X200206847Y-84153260D01*
X199758558Y-83809534D01*
X199358380Y-83436625D01*
X199040445Y-83124358D01*
X198778365Y-82908366D01*
X198650331Y-82887298D01*
X198616506Y-83039846D01*
X198610604Y-83082188D01*
X198491693Y-83363253D01*
X198268030Y-83733605D01*
X197917563Y-84133498D01*
X197437144Y-84418739D01*
X196746216Y-84620523D01*
X196508329Y-84713370D01*
X196325189Y-84950014D01*
X196186794Y-85408012D01*
X196026318Y-86109291D01*
X196104772Y-86185711D01*
X196396271Y-86469654D01*
X196933052Y-86992522D01*
X197046328Y-87102127D01*
X197390712Y-87424735D01*
X197491026Y-87518706D01*
X197856685Y-87840895D01*
X198073268Y-88006415D01*
X198187518Y-88094249D01*
X198307049Y-88322980D01*
X198308365Y-88336977D01*
X198457321Y-88538120D01*
X198858772Y-88861674D01*
X199520667Y-89313485D01*
X200450955Y-89899396D01*
X200543058Y-89960274D01*
X200696578Y-90061747D01*
X200963342Y-90282611D01*
X201026168Y-90409991D01*
X201032558Y-90443526D01*
X201228342Y-90561117D01*
X201606922Y-90719117D01*
X202089091Y-90890367D01*
X202595639Y-91047704D01*
X203047358Y-91163968D01*
X203365039Y-91211998D01*
X203485347Y-91227061D01*
X203894276Y-91320729D01*
X204467711Y-91480549D01*
X205121384Y-91683881D01*
X205461301Y-91791397D01*
X206100235Y-91974721D01*
X206624095Y-92101298D01*
X206944171Y-92148515D01*
X207340639Y-92186096D01*
X207820753Y-92290761D01*
X208223073Y-92398647D01*
X209215854Y-92604598D01*
X210506769Y-92812299D01*
X212088233Y-93020454D01*
X212163381Y-93029611D01*
X212895225Y-93129008D01*
X213503800Y-93229417D01*
X213927520Y-93319603D01*
X214104799Y-93388331D01*
X214236203Y-93529570D01*
X214463126Y-93647748D01*
X214814893Y-93744046D01*
X215322323Y-93822078D01*
X216016234Y-93885457D01*
X216927445Y-93937796D01*
X218086775Y-93982707D01*
X219525042Y-94023806D01*
X221429984Y-94078202D01*
X223762135Y-94164006D01*
X225828312Y-94263924D01*
X227621248Y-94377410D01*
X229133679Y-94503918D01*
X230358339Y-94642900D01*
X231287963Y-94793810D01*
X231915286Y-94956102D01*
X231933786Y-94962656D01*
X232439145Y-95143147D01*
X232810912Y-95278578D01*
X232969786Y-95340073D01*
X232972830Y-95466837D01*
X232842249Y-95778867D01*
X232610845Y-96194789D01*
X232322378Y-96636820D01*
X232020612Y-97027174D01*
X231482994Y-97646686D01*
X229104933Y-97731048D01*
X228856352Y-97739540D01*
X227845779Y-97764007D01*
X226952162Y-97762694D01*
X226090886Y-97731305D01*
X225177331Y-97665544D01*
X224126882Y-97561115D01*
X222854920Y-97413721D01*
X221525984Y-97311259D01*
X219989676Y-97354761D01*
X219337868Y-97404077D01*
X218464797Y-97448477D01*
X217507863Y-97480979D01*
X216582359Y-97496779D01*
X216539528Y-97497091D01*
X215663144Y-97513051D01*
X214809070Y-97544546D01*
X214073119Y-97587159D01*
X213551104Y-97636476D01*
X213191468Y-97675341D01*
X212471883Y-97665659D01*
X211728172Y-97505586D01*
X211564936Y-97460543D01*
X210887044Y-97298566D01*
X209976568Y-97106419D01*
X208889134Y-96894692D01*
X207680373Y-96673974D01*
X206405913Y-96454854D01*
X205121384Y-96247923D01*
X204618832Y-96166435D01*
X203967843Y-96049982D01*
X203463357Y-95946788D01*
X203185408Y-95872377D01*
X202845180Y-95735825D01*
X202411018Y-95559735D01*
X202332568Y-95528300D01*
X201805321Y-95335489D01*
X201201257Y-95136726D01*
X200612387Y-94959883D01*
X200130720Y-94832831D01*
X199848267Y-94783440D01*
X199806973Y-94776987D01*
X199516667Y-94654909D01*
X199070772Y-94410057D01*
X198547560Y-94084491D01*
X198394001Y-93984624D01*
X197904863Y-93680286D01*
X197529893Y-93467570D01*
X197340227Y-93387540D01*
X197335719Y-93387404D01*
X197115982Y-93293491D01*
X196800231Y-93077784D01*
X196709216Y-93012394D01*
X196244022Y-92825078D01*
X195583053Y-92768028D01*
X195412363Y-92764726D01*
X194399939Y-92644443D01*
X193329654Y-92378415D01*
X192358782Y-92003913D01*
X191822258Y-91753224D01*
X191329059Y-91555243D01*
X190969660Y-91475830D01*
X190666147Y-91499861D01*
X190340604Y-91612214D01*
X190155637Y-91680359D01*
X189329689Y-91825724D01*
X188464225Y-91774592D01*
X187702196Y-91531345D01*
X187534199Y-91449562D01*
X187197356Y-91313492D01*
X187032711Y-91290440D01*
X187011718Y-91294530D01*
X186841659Y-91175531D01*
X186582464Y-90900903D01*
X186231400Y-90549164D01*
X185967377Y-90453374D01*
X185812305Y-90646538D01*
X185761628Y-91129925D01*
X185715960Y-91558610D01*
X185464462Y-92165824D01*
X185207693Y-92425643D01*
X185035669Y-92599711D01*
X184478004Y-92797373D01*
X184299453Y-92821775D01*
X184033659Y-92948574D01*
X183938164Y-93232662D01*
X183926724Y-93329280D01*
X183884572Y-93535702D01*
X183762493Y-94133536D01*
X183505643Y-94807532D01*
X183189084Y-95262099D01*
X182968943Y-95515205D01*
X182842326Y-95912978D01*
X182887665Y-96054273D01*
X182983997Y-96354486D01*
X183388505Y-96869940D01*
X183399737Y-96884253D01*
X183516444Y-97010549D01*
X184026940Y-97615466D01*
X184491411Y-98241763D01*
X184852928Y-98808572D01*
X185054564Y-99235022D01*
X185057776Y-99245046D01*
X185238071Y-99613818D01*
X185511700Y-100009412D01*
X185517174Y-100016128D01*
X185823103Y-100473855D01*
X186072998Y-100976564D01*
X186106345Y-101059151D01*
X186271068Y-101412658D01*
X186393468Y-101596076D01*
X186400582Y-101602260D01*
X186533021Y-101794623D01*
X186756591Y-102179170D01*
X187027066Y-102680223D01*
X187208627Y-103012318D01*
X187551858Y-103517923D01*
X187965614Y-103926193D01*
X188554725Y-104351836D01*
X189558059Y-104998192D01*
X190721483Y-105715142D01*
X191900402Y-106414491D01*
X192963457Y-107016831D01*
X193440483Y-107296394D01*
X193821555Y-107553871D01*
X194010753Y-107725932D01*
X194210339Y-107924129D01*
X194552826Y-108142682D01*
X194648980Y-108192700D01*
X195101334Y-108437041D01*
X195586952Y-108708970D01*
X195797908Y-108823548D01*
X196387852Y-109110917D01*
X196980855Y-109366004D01*
X197248193Y-109480071D01*
X197277286Y-109494857D01*
X197734391Y-109727174D01*
X197812928Y-109767089D01*
X198257696Y-110049150D01*
X198356225Y-110121938D01*
X198424575Y-110165995D01*
X198690531Y-110337424D01*
X198724529Y-110351547D01*
X198899245Y-110424125D01*
X198923253Y-110430694D01*
X199132163Y-110584571D01*
X199471716Y-110901007D01*
X199548802Y-110980698D01*
X199684592Y-111121076D01*
X199881310Y-111324442D01*
X200396269Y-111818338D01*
X200415873Y-111833731D01*
X201281780Y-112513637D01*
X202225681Y-113135779D01*
X202337321Y-113209363D01*
X202845445Y-113521686D01*
X202978306Y-113603350D01*
X203566702Y-113974585D01*
X204018706Y-114269997D01*
X204269554Y-114448070D01*
X204380733Y-114529630D01*
X204759342Y-114774380D01*
X205290385Y-115095538D01*
X205895774Y-115445223D01*
X206222199Y-115634079D01*
X206780084Y-115979184D01*
X207212019Y-116275174D01*
X207444554Y-116473293D01*
X207608550Y-116610720D01*
X208012865Y-116870170D01*
X208574656Y-117189002D01*
X209225652Y-117526834D01*
X209721804Y-117779506D01*
X210388155Y-118138195D01*
X210945272Y-118459767D01*
X211307876Y-118696325D01*
X211441457Y-118792791D01*
X211793471Y-119010421D01*
X212019457Y-119097296D01*
X212041494Y-119099472D01*
X212291504Y-119217502D01*
X212619934Y-119460201D01*
X212620807Y-119460951D01*
X212975560Y-119714027D01*
X213498465Y-120028344D01*
X214076646Y-120336038D01*
X214669145Y-120649512D01*
X215338090Y-121046453D01*
X215901918Y-121425166D01*
X216272603Y-121729780D01*
X216273070Y-121730249D01*
X216435540Y-121850523D01*
X216782878Y-122087546D01*
X217240591Y-122390475D01*
X217250472Y-122396941D01*
X217694482Y-122707435D01*
X218010663Y-122966004D01*
X218131140Y-123117256D01*
X218121375Y-123158471D01*
X217933046Y-123346089D01*
X217490545Y-123613582D01*
X216775011Y-123972848D01*
X216514548Y-124071356D01*
X215957872Y-124213277D01*
X215356536Y-124308769D01*
X214992591Y-124340264D01*
X214662998Y-124336233D01*
X214332635Y-124273336D01*
X213932356Y-124131809D01*
X213393015Y-123891884D01*
X212645467Y-123533797D01*
X211905737Y-123160578D01*
X210387012Y-122309124D01*
X208939049Y-121389885D01*
X207676871Y-120473703D01*
X207507344Y-120347071D01*
X206943385Y-119984232D01*
X206406547Y-119705013D01*
X206266285Y-119639137D01*
X205770987Y-119366930D01*
X205164729Y-118996057D01*
X204548010Y-118586973D01*
X204249975Y-118382748D01*
X203101797Y-117653399D01*
X202033387Y-117082097D01*
X200940561Y-116611800D01*
X200625766Y-116478339D01*
X199962457Y-116142095D01*
X199391781Y-115790870D01*
X198634749Y-115304376D01*
X197986329Y-115009377D01*
X197443503Y-114915589D01*
X197143646Y-114827245D01*
X196659065Y-114543771D01*
X196066759Y-114096758D01*
X195852259Y-113921844D01*
X195441689Y-113604215D01*
X195023050Y-113312498D01*
X194542406Y-113014088D01*
X193945819Y-112676379D01*
X193923189Y-112664285D01*
X198495153Y-112664285D01*
X198732664Y-112720930D01*
X198871287Y-112713606D01*
X199244839Y-112722756D01*
X199443634Y-112841459D01*
X199632034Y-113144257D01*
X199715970Y-113345897D01*
X199849481Y-113448129D01*
X199861863Y-113441134D01*
X200663010Y-113441134D01*
X200681546Y-113624938D01*
X200728131Y-113649168D01*
X200784798Y-113521686D01*
X200773621Y-113439694D01*
X200681546Y-113418434D01*
X200663010Y-113441134D01*
X199861863Y-113441134D01*
X200076760Y-113319728D01*
X200118191Y-113288810D01*
X200275394Y-113135779D01*
X200239049Y-112980888D01*
X199994594Y-112717402D01*
X199914346Y-112641223D01*
X199450949Y-112328938D01*
X199005344Y-112209111D01*
X198663284Y-112308107D01*
X198509266Y-112475786D01*
X198495153Y-112664285D01*
X193923189Y-112664285D01*
X193179352Y-112266765D01*
X193068706Y-112209321D01*
X198181783Y-112209321D01*
X198251537Y-112207959D01*
X198374231Y-112018305D01*
X198385257Y-111988922D01*
X198417753Y-111833731D01*
X198287531Y-111931605D01*
X198199155Y-112045482D01*
X198181783Y-112209321D01*
X193068706Y-112209321D01*
X192189067Y-111752640D01*
X191805007Y-111547844D01*
X191072421Y-111128545D01*
X190771568Y-110944427D01*
X196689365Y-110944427D01*
X196783596Y-111062753D01*
X196890537Y-111125007D01*
X197141658Y-111178115D01*
X197165045Y-111121076D01*
X197996993Y-111121076D01*
X198074432Y-111198515D01*
X198151871Y-111121076D01*
X198074432Y-111043637D01*
X197996993Y-111121076D01*
X197165045Y-111121076D01*
X197222603Y-110980698D01*
X197168499Y-110853614D01*
X196899754Y-110847307D01*
X196880577Y-110852418D01*
X196689365Y-110944427D01*
X190771568Y-110944427D01*
X190327292Y-110672536D01*
X189971394Y-110440695D01*
X196293335Y-110440695D01*
X196319418Y-110504176D01*
X196525652Y-110579003D01*
X196633887Y-110552639D01*
X196757969Y-110351547D01*
X196725460Y-110237036D01*
X196525652Y-110213239D01*
X196416589Y-110271385D01*
X196293335Y-110440695D01*
X189971394Y-110440695D01*
X189641050Y-110225501D01*
X189622744Y-110212580D01*
X195856097Y-110212580D01*
X195983579Y-110269247D01*
X196065571Y-110258070D01*
X196086831Y-110165995D01*
X196064131Y-110147459D01*
X195880327Y-110165995D01*
X195856097Y-110212580D01*
X189622744Y-110212580D01*
X189085127Y-109833121D01*
X188956640Y-109727174D01*
X194899432Y-109727174D01*
X194976871Y-109804613D01*
X195054310Y-109727174D01*
X194976871Y-109649735D01*
X194899432Y-109727174D01*
X188956640Y-109727174D01*
X188730953Y-109541078D01*
X188580185Y-109414305D01*
X194313010Y-109414305D01*
X194331546Y-109598109D01*
X194378131Y-109622339D01*
X194434798Y-109494857D01*
X194423621Y-109412865D01*
X194331546Y-109391605D01*
X194313010Y-109414305D01*
X188580185Y-109414305D01*
X188559052Y-109396535D01*
X188208198Y-109168254D01*
X188119214Y-109117570D01*
X187659945Y-108809824D01*
X187039845Y-108345748D01*
X186312623Y-107766578D01*
X185531988Y-107113550D01*
X185479609Y-107068691D01*
X184976937Y-106638861D01*
X184524817Y-106253311D01*
X184215524Y-105990744D01*
X183934609Y-105750596D01*
X183492827Y-105368544D01*
X183014925Y-104952024D01*
X182788431Y-104765001D01*
X182097738Y-104304823D01*
X181448905Y-104018120D01*
X181196497Y-103939871D01*
X180720052Y-103775173D01*
X180401095Y-103642332D01*
X180265804Y-103572514D01*
X179866504Y-103367336D01*
X179392066Y-103124251D01*
X179145278Y-102977302D01*
X178600241Y-102545993D01*
X178145966Y-102060710D01*
X177907190Y-101765398D01*
X177404808Y-101304837D01*
X176826766Y-101033604D01*
X176059067Y-100887617D01*
X175275370Y-100748759D01*
X174177416Y-100403923D01*
X173186401Y-99923426D01*
X172401518Y-99348992D01*
X172020027Y-99024578D01*
X171575629Y-98716773D01*
X171239933Y-98560217D01*
X171110497Y-98524708D01*
X170648446Y-98358046D01*
X170147352Y-98137939D01*
X169478808Y-97813797D01*
X168822994Y-98528068D01*
X168349408Y-98975312D01*
X167505000Y-99528339D01*
X166602663Y-99871976D01*
X165708683Y-99984072D01*
X164889347Y-99842480D01*
X164681246Y-99808671D01*
X164451697Y-99893727D01*
X164143811Y-100137526D01*
X163695804Y-100578150D01*
X163331601Y-100930039D01*
X162839416Y-101311210D01*
X162490219Y-101441198D01*
X162238279Y-101475644D01*
X161955631Y-101612805D01*
X161890074Y-101653131D01*
X161555835Y-101714118D01*
X161082812Y-101711988D01*
X160589405Y-101651742D01*
X160194013Y-101538382D01*
X160075870Y-101522111D01*
X159966007Y-101645994D01*
X159866242Y-101973799D01*
X159754157Y-102557465D01*
X159730926Y-102684928D01*
X159580521Y-103362538D01*
X159373032Y-104152708D01*
X159133581Y-104972513D01*
X158887295Y-105739022D01*
X158659297Y-106369309D01*
X158474713Y-106780446D01*
X158425042Y-106896767D01*
X158301627Y-107305104D01*
X158157978Y-107888387D01*
X158016005Y-108561544D01*
X157862362Y-109602992D01*
X157756845Y-111064783D01*
X157738145Y-112662615D01*
X157804570Y-114308617D01*
X157811477Y-114382656D01*
X157954430Y-115914915D01*
X158186032Y-117393637D01*
X158208147Y-117511160D01*
X158300620Y-118061207D01*
X158407210Y-118759739D01*
X158509028Y-119484491D01*
X158531904Y-119650471D01*
X158654813Y-120435452D01*
X158794803Y-121202887D01*
X158883400Y-121611796D01*
X158925838Y-121807662D01*
X158929605Y-121823001D01*
X159054897Y-122593932D01*
X159061678Y-122691244D01*
X159129460Y-123664029D01*
X159132155Y-123821076D01*
X159152847Y-125026967D01*
X159152668Y-125197227D01*
X159152197Y-125646291D01*
X159162324Y-126362723D01*
X159203629Y-126930298D01*
X159296276Y-127418793D01*
X159460434Y-127897982D01*
X159716268Y-128437642D01*
X160083945Y-129107549D01*
X160583631Y-129977479D01*
X160751918Y-130283038D01*
X160899347Y-130593050D01*
X160921609Y-130713150D01*
X160913290Y-130738139D01*
X161006429Y-130939517D01*
X161218124Y-131276835D01*
X161312951Y-131423109D01*
X161518645Y-131799699D01*
X161600652Y-132049412D01*
X161636002Y-132245478D01*
X161790483Y-132706763D01*
X162039277Y-133322172D01*
X162351237Y-134022574D01*
X162695217Y-134738841D01*
X163040072Y-135401843D01*
X163354655Y-135942451D01*
X163720529Y-136585264D01*
X164096457Y-137364964D01*
X164375217Y-138069857D01*
X164588810Y-138668193D01*
X164859520Y-139346271D01*
X165103789Y-139884525D01*
X165211008Y-140097110D01*
X165392668Y-140477554D01*
X165446758Y-140679037D01*
X165380612Y-140772363D01*
X165201567Y-140828339D01*
X164936204Y-140865044D01*
X164455643Y-140897853D01*
X163877412Y-140917135D01*
X163289507Y-140901071D01*
X162534613Y-140749372D01*
X161932780Y-140408258D01*
X161423380Y-139838065D01*
X160945786Y-138999125D01*
X160773269Y-138645909D01*
X160100855Y-137267714D01*
X159549241Y-136133312D01*
X159105576Y-135214867D01*
X158757011Y-134484542D01*
X158490697Y-133914500D01*
X158293785Y-133476905D01*
X158153424Y-133143919D01*
X158056766Y-132887705D01*
X157990961Y-132680427D01*
X157943160Y-132494247D01*
X157942123Y-132489854D01*
X157811367Y-132116912D01*
X157576264Y-131590429D01*
X157286984Y-131022906D01*
X156993719Y-130471676D01*
X156615158Y-129734105D01*
X156296381Y-129086930D01*
X156069059Y-128617654D01*
X155849723Y-128180922D01*
X155711796Y-127925345D01*
X155531992Y-127615537D01*
X155170758Y-126808492D01*
X154962099Y-125945324D01*
X154872440Y-124905223D01*
X154861219Y-124656145D01*
X154841211Y-124401840D01*
X156854765Y-124401840D01*
X156860301Y-124608134D01*
X156899981Y-124732186D01*
X156954310Y-125072768D01*
X156955817Y-125093662D01*
X157101057Y-125249816D01*
X157373648Y-125294111D01*
X157617388Y-125197227D01*
X157615481Y-125027819D01*
X157470510Y-124732593D01*
X157247950Y-124489023D01*
X157011619Y-124367773D01*
X156854765Y-124401840D01*
X154841211Y-124401840D01*
X154808645Y-123987936D01*
X154748926Y-123539194D01*
X156804186Y-123539194D01*
X156830433Y-123885728D01*
X156959650Y-124026694D01*
X157264067Y-124053393D01*
X157590174Y-124005514D01*
X157728701Y-123821076D01*
X157709575Y-123713980D01*
X157559929Y-123588759D01*
X157363344Y-123492412D01*
X157100447Y-123240284D01*
X156809738Y-122891808D01*
X156804585Y-123472601D01*
X156804186Y-123539194D01*
X154748926Y-123539194D01*
X154734035Y-123427300D01*
X154649693Y-123075323D01*
X154634899Y-123035930D01*
X154522381Y-122559614D01*
X154506458Y-122377809D01*
X156531708Y-122377809D01*
X156663387Y-122538923D01*
X157030284Y-122542800D01*
X157114564Y-122528221D01*
X157334766Y-122540809D01*
X157333178Y-122702782D01*
X157310314Y-122829634D01*
X157408386Y-123040161D01*
X157432577Y-123052677D01*
X157546675Y-122985400D01*
X157562590Y-122691244D01*
X157475352Y-122230312D01*
X157458547Y-122171256D01*
X157346083Y-121981101D01*
X157167710Y-122055679D01*
X157006582Y-122151304D01*
X156954310Y-122025755D01*
X156954220Y-122015890D01*
X156896685Y-121919720D01*
X156703668Y-122069367D01*
X156667935Y-122106844D01*
X156531708Y-122377809D01*
X154506458Y-122377809D01*
X154476262Y-122033030D01*
X154475739Y-121989808D01*
X154406508Y-121406033D01*
X154256244Y-120842808D01*
X154146031Y-120493248D01*
X153997679Y-119887692D01*
X153876745Y-119252174D01*
X153805787Y-118804056D01*
X153676168Y-117984821D01*
X153558231Y-117238759D01*
X153555353Y-117220436D01*
X153454341Y-116437365D01*
X153363306Y-115475902D01*
X153319494Y-114874162D01*
X155405530Y-114874162D01*
X155423296Y-115135431D01*
X155479742Y-115630524D01*
X155564047Y-116265541D01*
X155665053Y-116965947D01*
X155771600Y-117657209D01*
X155872528Y-118264793D01*
X155956678Y-118714166D01*
X156012892Y-118930794D01*
X156070619Y-119100759D01*
X156160604Y-119526573D01*
X156236400Y-120055841D01*
X156284497Y-120415031D01*
X156383662Y-120955205D01*
X156486086Y-121333584D01*
X156641352Y-121587256D01*
X156953428Y-121730223D01*
X157079637Y-121721557D01*
X157206424Y-121611796D01*
X157171002Y-121304308D01*
X157046311Y-120977678D01*
X156828694Y-120684796D01*
X156709496Y-120560845D01*
X156769831Y-120491198D01*
X156835732Y-120480650D01*
X156947764Y-120327343D01*
X156900689Y-120096182D01*
X156709007Y-119922711D01*
X156569080Y-119837906D01*
X156647559Y-119714951D01*
X156740912Y-119605274D01*
X156684860Y-119310590D01*
X156616500Y-119044096D01*
X156643194Y-118632662D01*
X156668613Y-118342528D01*
X156468576Y-117840789D01*
X156455319Y-117821296D01*
X156299970Y-117515461D01*
X156296169Y-117329014D01*
X156317419Y-117244613D01*
X156175435Y-117063669D01*
X156040946Y-116932194D01*
X156141201Y-116826867D01*
X156147034Y-116824276D01*
X156276132Y-116621615D01*
X156322571Y-116257865D01*
X156320525Y-116200461D01*
X156286569Y-115959384D01*
X156230071Y-115967480D01*
X156095996Y-116085788D01*
X155924307Y-115983076D01*
X155777495Y-115721522D01*
X155715286Y-115370399D01*
X155673875Y-115048458D01*
X155560408Y-114838150D01*
X155502330Y-114811921D01*
X155405530Y-114874162D01*
X153319494Y-114874162D01*
X153284743Y-114396883D01*
X153278586Y-114286936D01*
X155250652Y-114286936D01*
X155256560Y-114330388D01*
X155405530Y-114528393D01*
X155485324Y-114542963D01*
X155560408Y-114382656D01*
X155541453Y-114267263D01*
X155405530Y-114141198D01*
X155368784Y-114145370D01*
X155250652Y-114286936D01*
X153278586Y-114286936D01*
X153221144Y-113261148D01*
X153175002Y-112129532D01*
X153148812Y-111062873D01*
X153145066Y-110122010D01*
X153166258Y-109367779D01*
X153214881Y-108861017D01*
X153258275Y-108598048D01*
X153376975Y-107461557D01*
X153343447Y-106567266D01*
X153157963Y-105929112D01*
X152824022Y-105194985D01*
X152475368Y-104230169D01*
X152189943Y-103230131D01*
X151996447Y-102297075D01*
X151923577Y-101533202D01*
X151923415Y-101505733D01*
X151900423Y-101172625D01*
X151793917Y-100945484D01*
X151538543Y-100744534D01*
X151068945Y-100490000D01*
X150435075Y-100121605D01*
X149904240Y-99661127D01*
X149563091Y-99106587D01*
X149348250Y-98380281D01*
X149165051Y-97491808D01*
X147290473Y-97541822D01*
X146764654Y-97552042D01*
X145627598Y-97532944D01*
X144725323Y-97436146D01*
X144007557Y-97244964D01*
X143424033Y-96942715D01*
X142924482Y-96512718D01*
X142458634Y-95938289D01*
X142225392Y-95650677D01*
X142029515Y-95576118D01*
X141761683Y-95682490D01*
X141619554Y-95758129D01*
X141182589Y-95990537D01*
X140692115Y-96251281D01*
X140415968Y-96376606D01*
X139834395Y-96548441D01*
X139245953Y-96632247D01*
X138748185Y-96617525D01*
X138438640Y-96493779D01*
X138435943Y-96491233D01*
X138209496Y-96394302D01*
X137771258Y-96281189D01*
X137213553Y-96175855D01*
X136924525Y-96126031D01*
X135796150Y-95832661D01*
X135221381Y-95555869D01*
X153306649Y-95555869D01*
X153466779Y-96067374D01*
X153592774Y-96322475D01*
X153790529Y-96583171D01*
X153947617Y-96650775D01*
X154011628Y-96485101D01*
X154037838Y-96413852D01*
X154243945Y-96330223D01*
X154352258Y-96357040D01*
X154476262Y-96561236D01*
X154544521Y-96674977D01*
X154812557Y-96747340D01*
X155178896Y-96716897D01*
X155529787Y-96581465D01*
X155643071Y-96552737D01*
X155810389Y-96707601D01*
X155932744Y-96894519D01*
X156100061Y-96928954D01*
X156146711Y-96812714D01*
X162220164Y-96812714D01*
X162240846Y-96961675D01*
X162375042Y-97182052D01*
X162459127Y-97192159D01*
X162529920Y-97018251D01*
X162573538Y-96864052D01*
X162800957Y-96835352D01*
X163341786Y-96962378D01*
X163762177Y-96967645D01*
X163789243Y-96949735D01*
X164233579Y-96949735D01*
X164237750Y-96986481D01*
X164379316Y-97104613D01*
X164422769Y-97098705D01*
X164620774Y-96949735D01*
X164635344Y-96869940D01*
X164475036Y-96794857D01*
X164359644Y-96813812D01*
X164233579Y-96949735D01*
X163789243Y-96949735D01*
X164009288Y-96804127D01*
X164138716Y-96456061D01*
X164141887Y-96439699D01*
X164161729Y-96054273D01*
X164080637Y-95805573D01*
X163976573Y-95746634D01*
X163923823Y-95912052D01*
X163901450Y-96047944D01*
X163768945Y-96175345D01*
X163702501Y-96154152D01*
X163614067Y-95957527D01*
X163550642Y-95824645D01*
X163265591Y-95824028D01*
X163084228Y-95885875D01*
X162670416Y-96143433D01*
X162349283Y-96483694D01*
X162252637Y-96729966D01*
X162220164Y-96812714D01*
X156146711Y-96812714D01*
X156179920Y-96729966D01*
X156178483Y-96716310D01*
X156041255Y-96502264D01*
X155724119Y-96175802D01*
X155289371Y-95801848D01*
X154777764Y-95425728D01*
X154296437Y-95170542D01*
X153890608Y-95092349D01*
X153638593Y-95109462D01*
X153358836Y-95248261D01*
X153306649Y-95555869D01*
X135221381Y-95555869D01*
X134920509Y-95410978D01*
X134552765Y-95091198D01*
X145261018Y-95091198D01*
X145292806Y-95137548D01*
X145425036Y-95246076D01*
X145440493Y-95242050D01*
X145458933Y-95189409D01*
X145675609Y-95189409D01*
X145803091Y-95246076D01*
X145885083Y-95234899D01*
X145906343Y-95142824D01*
X145883643Y-95124288D01*
X145699839Y-95142824D01*
X145675609Y-95189409D01*
X145458933Y-95189409D01*
X145493335Y-95091198D01*
X145487032Y-95048748D01*
X145329316Y-94936320D01*
X145273297Y-94948481D01*
X145261018Y-95091198D01*
X134552765Y-95091198D01*
X134285603Y-94858881D01*
X146577481Y-94858881D01*
X146654920Y-94936320D01*
X146732359Y-94858881D01*
X146654920Y-94781442D01*
X146577481Y-94858881D01*
X134285603Y-94858881D01*
X134265914Y-94841760D01*
X133800674Y-94105787D01*
X133654559Y-93814414D01*
X133463316Y-93492160D01*
X143906024Y-93492160D01*
X143909267Y-93812880D01*
X143997322Y-94140051D01*
X144139180Y-94432967D01*
X144221879Y-94509592D01*
X144492768Y-94613254D01*
X144755733Y-94599410D01*
X144873823Y-94462546D01*
X144893199Y-94400399D01*
X145052196Y-94408768D01*
X145210705Y-94414159D01*
X145439972Y-94232635D01*
X145447310Y-94222667D01*
X145647075Y-94044157D01*
X145834647Y-94131535D01*
X145925202Y-94275878D01*
X145747487Y-94316808D01*
X145611437Y-94344136D01*
X145572335Y-94474212D01*
X145614878Y-94523089D01*
X145813793Y-94542511D01*
X145866477Y-94521989D01*
X145957969Y-94626564D01*
X145972178Y-94688670D01*
X146119147Y-94700110D01*
X146193195Y-94597267D01*
X146190286Y-94316808D01*
X146167571Y-94143064D01*
X146261425Y-93933507D01*
X146326884Y-93907270D01*
X146422603Y-93997912D01*
X146430627Y-94047401D01*
X146594051Y-94161930D01*
X146669537Y-94128520D01*
X146676351Y-93929613D01*
X146670217Y-93772331D01*
X146892098Y-93697296D01*
X147123517Y-93779943D01*
X147196993Y-94084491D01*
X147235446Y-94339145D01*
X147351871Y-94471686D01*
X147438625Y-94522339D01*
X147506749Y-94764872D01*
X147527729Y-94858881D01*
X147545047Y-94936480D01*
X147693378Y-95091198D01*
X147742873Y-95142824D01*
X147751734Y-95152067D01*
X147775635Y-95161288D01*
X147962269Y-95223810D01*
X148111266Y-95201966D01*
X148312220Y-95055142D01*
X148654723Y-94742723D01*
X148818257Y-94576780D01*
X149086055Y-94213709D01*
X149184737Y-93929613D01*
X149192043Y-93740681D01*
X149283238Y-93350126D01*
X149289887Y-93331746D01*
X169499432Y-93331746D01*
X169553919Y-93432517D01*
X169770469Y-93636577D01*
X169979343Y-93783293D01*
X170181103Y-93826248D01*
X170428701Y-93694924D01*
X170459693Y-93674266D01*
X170583147Y-93535702D01*
X170428701Y-93389911D01*
X170250437Y-93309353D01*
X169920155Y-93243481D01*
X169651870Y-93247812D01*
X169626349Y-93248224D01*
X169499432Y-93331746D01*
X149289887Y-93331746D01*
X149320249Y-93247812D01*
X149316301Y-93132741D01*
X149207622Y-93049003D01*
X148953247Y-92988109D01*
X148512209Y-92941572D01*
X147843545Y-92900904D01*
X146906289Y-92857617D01*
X146285019Y-92832187D01*
X145610183Y-92815047D01*
X145139565Y-92825654D01*
X144811208Y-92869287D01*
X144563155Y-92951221D01*
X144333450Y-93076733D01*
X144083295Y-93250091D01*
X143906024Y-93492160D01*
X133463316Y-93492160D01*
X133320922Y-93252219D01*
X132997223Y-92810843D01*
X132561018Y-92311586D01*
X131012237Y-92480805D01*
X130234258Y-92551602D01*
X129489409Y-92571269D01*
X128740651Y-92523959D01*
X127839541Y-92406180D01*
X127317717Y-92319728D01*
X126735296Y-92200338D01*
X126514307Y-92139733D01*
X135271384Y-92139733D01*
X135323425Y-92454453D01*
X135615601Y-92836684D01*
X135648635Y-92859786D01*
X135937065Y-93035321D01*
X136140986Y-93030743D01*
X136413273Y-92848276D01*
X136437641Y-92828240D01*
X136620199Y-92540864D01*
X136717051Y-92144680D01*
X136721374Y-91925640D01*
X139443878Y-91925640D01*
X139596055Y-91993637D01*
X139731130Y-92054774D01*
X140014004Y-92281820D01*
X140329596Y-92591126D01*
X140586201Y-92890986D01*
X140692115Y-93089697D01*
X140725034Y-93205779D01*
X140882313Y-93237192D01*
X141080155Y-93105726D01*
X141217652Y-92856215D01*
X141242452Y-92729629D01*
X169342414Y-92729629D01*
X169594231Y-92871882D01*
X170109804Y-92922906D01*
X170373694Y-92932035D01*
X170772292Y-92987921D01*
X170970774Y-93077784D01*
X171106325Y-93213918D01*
X171299760Y-93164040D01*
X171449247Y-92845467D01*
X171557516Y-92589518D01*
X171723235Y-92455900D01*
X171782439Y-92425643D01*
X171667725Y-92299690D01*
X171654535Y-92291607D01*
X171335520Y-92207491D01*
X170844600Y-92173302D01*
X170301548Y-92186498D01*
X169826141Y-92244538D01*
X169538152Y-92344880D01*
X169370398Y-92512368D01*
X169345381Y-92706597D01*
X169342414Y-92729629D01*
X141242452Y-92729629D01*
X141246964Y-92706597D01*
X141196074Y-92166741D01*
X140910731Y-91769994D01*
X140441836Y-91563049D01*
X139840286Y-91592603D01*
X139727129Y-91629853D01*
X139559671Y-91740318D01*
X139504364Y-91776802D01*
X139443878Y-91925640D01*
X136721374Y-91925640D01*
X136725032Y-91740318D01*
X136640972Y-91428412D01*
X136461705Y-91309593D01*
X136239938Y-91320869D01*
X135757684Y-91352342D01*
X135519796Y-91389383D01*
X135477279Y-91444201D01*
X135581140Y-91529003D01*
X135665801Y-91597787D01*
X135651115Y-91699838D01*
X135387542Y-91702222D01*
X135387177Y-91702167D01*
X135305385Y-91823629D01*
X135271384Y-92139733D01*
X126514307Y-92139733D01*
X126327929Y-92088620D01*
X126161695Y-92000548D01*
X126143143Y-91958699D01*
X125972942Y-91838759D01*
X125911655Y-91826822D01*
X125618810Y-91641505D01*
X125242826Y-91296686D01*
X178482359Y-91296686D01*
X178559798Y-91374125D01*
X178637237Y-91296686D01*
X178559798Y-91219247D01*
X178482359Y-91296686D01*
X125242826Y-91296686D01*
X125223333Y-91278809D01*
X124779103Y-90799459D01*
X124472788Y-90426054D01*
X178291685Y-90426054D01*
X178395985Y-90755990D01*
X178692788Y-90999636D01*
X178991261Y-91139884D01*
X179208242Y-91296686D01*
X179357962Y-91404882D01*
X179464357Y-91497543D01*
X179680318Y-91610594D01*
X179822596Y-91503240D01*
X179926751Y-91377117D01*
X180233696Y-91144701D01*
X180568220Y-90992156D01*
X180804059Y-90986021D01*
X180931438Y-90969684D01*
X181112964Y-90758951D01*
X181140843Y-90705300D01*
X181197268Y-90497286D01*
X181043296Y-90444857D01*
X180924455Y-90411113D01*
X180805530Y-90194476D01*
X180861500Y-90035425D01*
X181115286Y-90025098D01*
X181301842Y-90044273D01*
X181425042Y-89960274D01*
X181375887Y-89774209D01*
X181186379Y-89453162D01*
X180939931Y-89171697D01*
X180729242Y-89050954D01*
X180595172Y-89014973D01*
X180340896Y-88818637D01*
X180230647Y-88720263D01*
X179945891Y-88603637D01*
X179682405Y-88606405D01*
X179566506Y-88741198D01*
X179540295Y-88812447D01*
X179334188Y-88896076D01*
X179226461Y-88919393D01*
X179135335Y-89050954D01*
X179101871Y-89099267D01*
X179099637Y-89121405D01*
X178957540Y-89356150D01*
X178662049Y-89627633D01*
X178496309Y-89761189D01*
X178297247Y-90047759D01*
X178291685Y-90426054D01*
X124472788Y-90426054D01*
X124339999Y-90264182D01*
X123959900Y-89733702D01*
X123692685Y-89268746D01*
X123641533Y-89159865D01*
X123548456Y-88974002D01*
X125619913Y-88974002D01*
X125691649Y-89130075D01*
X125945343Y-89149028D01*
X126287214Y-89021070D01*
X126646232Y-88663759D01*
X126681241Y-88614222D01*
X126743554Y-88533798D01*
X130369652Y-88533798D01*
X130501346Y-88768565D01*
X130708136Y-89020118D01*
X131070455Y-89334937D01*
X131257074Y-89449191D01*
X131413848Y-89455642D01*
X131503080Y-89230132D01*
X131582383Y-89025527D01*
X131712752Y-88896076D01*
X131769852Y-88958519D01*
X131754064Y-89205832D01*
X131716872Y-89371099D01*
X131746330Y-89502366D01*
X131941506Y-89397058D01*
X132003791Y-89328907D01*
X132075529Y-89050954D01*
X132067116Y-88957577D01*
X132036810Y-88625040D01*
X132008031Y-88542353D01*
X131799534Y-88431442D01*
X131707233Y-88446712D01*
X131489778Y-88625040D01*
X131410800Y-88738938D01*
X131309087Y-88625040D01*
X131109150Y-88489044D01*
X130748123Y-88431442D01*
X130448856Y-88444946D01*
X130369652Y-88533798D01*
X126743554Y-88533798D01*
X126939862Y-88280434D01*
X127132824Y-88080023D01*
X127167712Y-87950208D01*
X127018620Y-87752152D01*
X126749711Y-87577381D01*
X126450988Y-87502174D01*
X126370451Y-87514146D01*
X126080723Y-87726866D01*
X125825038Y-88143843D01*
X125657545Y-88684394D01*
X125619913Y-88974002D01*
X123548456Y-88974002D01*
X123414322Y-88706155D01*
X123246388Y-88474424D01*
X123083754Y-88411813D01*
X122872445Y-88465460D01*
X122738593Y-88511931D01*
X122008865Y-88703087D01*
X121074508Y-88876341D01*
X120020483Y-89017727D01*
X118931749Y-89113277D01*
X117382969Y-89210962D01*
X116802176Y-88490086D01*
X116547146Y-88158226D01*
X116312075Y-87812070D01*
X116221384Y-87619330D01*
X116215337Y-87585800D01*
X116083393Y-87340981D01*
X115833101Y-87008002D01*
X115757376Y-86909533D01*
X115544624Y-86533877D01*
X136908668Y-86533877D01*
X137024643Y-86637365D01*
X137399382Y-86818744D01*
X137598501Y-86918116D01*
X137927113Y-87138716D01*
X138057613Y-87317717D01*
X138072977Y-87397495D01*
X138203362Y-87431350D01*
X138233920Y-87421973D01*
X138463620Y-87503074D01*
X138774073Y-87737547D01*
X138842204Y-87797220D01*
X139084635Y-87950208D01*
X139174031Y-88006622D01*
X139423920Y-88047156D01*
X139535182Y-88024072D01*
X139821197Y-88101100D01*
X139936459Y-88153031D01*
X140227481Y-88112997D01*
X140453878Y-88017108D01*
X140850075Y-87904587D01*
X141184987Y-87776880D01*
X141572547Y-87514431D01*
X141882048Y-87290007D01*
X142294825Y-87107040D01*
X142562786Y-86982681D01*
X142591460Y-86765614D01*
X142561594Y-86625572D01*
X142680596Y-86634935D01*
X142845319Y-86681225D01*
X143184675Y-86645739D01*
X143204871Y-86639115D01*
X143421688Y-86480672D01*
X143417510Y-86337476D01*
X143667888Y-86337476D01*
X143686424Y-86521280D01*
X143733009Y-86545510D01*
X143789676Y-86418028D01*
X143778499Y-86336036D01*
X143686424Y-86314776D01*
X143667888Y-86337476D01*
X143417510Y-86337476D01*
X143416300Y-86296007D01*
X144565259Y-86296007D01*
X144570444Y-86366208D01*
X144598283Y-86418028D01*
X144739796Y-86681446D01*
X145176736Y-86998820D01*
X145344575Y-87089874D01*
X145752079Y-87274039D01*
X146027373Y-87347296D01*
X146141256Y-87361216D01*
X146268933Y-87463454D01*
X146353255Y-87599292D01*
X146625619Y-87748573D01*
X146947302Y-87823772D01*
X147172354Y-87774618D01*
X147185199Y-87762363D01*
X147414461Y-87696078D01*
X147589674Y-87848935D01*
X147612181Y-88139165D01*
X147586817Y-88306003D01*
X147637408Y-88414194D01*
X147724266Y-88398739D01*
X148262144Y-88282011D01*
X148874933Y-88123429D01*
X149487399Y-87945772D01*
X150024307Y-87771820D01*
X150410421Y-87624350D01*
X150570508Y-87526141D01*
X150605644Y-87463571D01*
X150782176Y-87438942D01*
X150942914Y-87440530D01*
X150969525Y-87424735D01*
X151378701Y-87424735D01*
X151456140Y-87502174D01*
X151533579Y-87424735D01*
X151456140Y-87347296D01*
X151378701Y-87424735D01*
X150969525Y-87424735D01*
X151211184Y-87281295D01*
X151409337Y-87153326D01*
X151782217Y-87140243D01*
X151885985Y-87177186D01*
X151991516Y-87174752D01*
X151863090Y-86989099D01*
X151754416Y-86815901D01*
X151824371Y-86727784D01*
X151904575Y-86701411D01*
X151988769Y-86516238D01*
X152180487Y-86516238D01*
X152307969Y-86572906D01*
X152389961Y-86561728D01*
X152411221Y-86469654D01*
X152388521Y-86451118D01*
X152204717Y-86469654D01*
X152180487Y-86516238D01*
X151988769Y-86516238D01*
X151998213Y-86495467D01*
X152015338Y-86388639D01*
X152150140Y-86263150D01*
X152245930Y-86185711D01*
X152772603Y-86185711D01*
X152850042Y-86263150D01*
X152927481Y-86185711D01*
X152850042Y-86108271D01*
X152772603Y-86185711D01*
X152245930Y-86185711D01*
X152277768Y-86159972D01*
X152402093Y-85864615D01*
X152407340Y-85844140D01*
X152520700Y-85594977D01*
X152668337Y-85632298D01*
X152859328Y-85771137D01*
X153026013Y-85763761D01*
X153023264Y-85558154D01*
X152994488Y-85425415D01*
X153105570Y-85425665D01*
X153150668Y-85445387D01*
X153218397Y-85346722D01*
X153176909Y-84983424D01*
X153145198Y-84552729D01*
X153263833Y-84369935D01*
X153333596Y-84302055D01*
X153425787Y-83955654D01*
X153461757Y-83349113D01*
X153474956Y-82968694D01*
X153502855Y-82778393D01*
X153701871Y-82778393D01*
X153779310Y-82855832D01*
X153856749Y-82778393D01*
X153779310Y-82700954D01*
X153701871Y-82778393D01*
X153502855Y-82778393D01*
X153537735Y-82540480D01*
X153646842Y-82391433D01*
X153673287Y-82388414D01*
X153753305Y-82236691D01*
X153698564Y-81834462D01*
X153637466Y-81503396D01*
X153670393Y-81342373D01*
X153831033Y-81344009D01*
X153849040Y-81348285D01*
X154000988Y-81321788D01*
X154081352Y-81114310D01*
X154117013Y-80661721D01*
X154144960Y-79913150D01*
X153574940Y-79936355D01*
X153288604Y-79953151D01*
X153276194Y-79957545D01*
X153211512Y-79980448D01*
X153417727Y-80022817D01*
X153432507Y-80025274D01*
X153704062Y-80133173D01*
X153907654Y-80304408D01*
X153978518Y-80462922D01*
X153851889Y-80532662D01*
X153820166Y-80530031D01*
X153701762Y-80416503D01*
X153611960Y-80336208D01*
X153325988Y-80278720D01*
X153088580Y-80307129D01*
X152990957Y-80433598D01*
X153001792Y-80494821D01*
X152966630Y-80493942D01*
X152817488Y-80386970D01*
X152554534Y-80419076D01*
X152363220Y-80612073D01*
X152342580Y-80760133D01*
X152453041Y-81062919D01*
X152541681Y-81208376D01*
X152469274Y-81380519D01*
X152353274Y-81386503D01*
X152194967Y-81200710D01*
X152141961Y-81086952D01*
X152071244Y-81088083D01*
X152002464Y-81369899D01*
X152000463Y-81375351D01*
X151889088Y-81678796D01*
X151778173Y-81758780D01*
X151635546Y-81861632D01*
X151579964Y-81870503D01*
X151303956Y-81956841D01*
X151302974Y-82004003D01*
X151302170Y-82042579D01*
X151585205Y-82081442D01*
X151863768Y-82127656D01*
X151998213Y-82322900D01*
X151996421Y-82331204D01*
X151974422Y-82433173D01*
X151834532Y-82463197D01*
X151774464Y-82434056D01*
X151419407Y-82426591D01*
X151055773Y-82587380D01*
X150836513Y-82856192D01*
X150737339Y-83036612D01*
X150516435Y-83165589D01*
X150417953Y-83188529D01*
X150383723Y-83243028D01*
X150294554Y-83384999D01*
X150278730Y-83478061D01*
X150100957Y-83682964D01*
X149991862Y-83766158D01*
X150117492Y-83908828D01*
X150155276Y-83939746D01*
X150202028Y-84108064D01*
X150060503Y-84215881D01*
X149829920Y-84172296D01*
X149733252Y-84184765D01*
X149675042Y-84404613D01*
X149640948Y-84588287D01*
X149520164Y-84636930D01*
X149461240Y-84611550D01*
X149365286Y-84687165D01*
X149309334Y-84785914D01*
X149061224Y-84912634D01*
X148877762Y-84921656D01*
X148628928Y-84821448D01*
X148498737Y-84651916D01*
X148576611Y-84490880D01*
X148639183Y-84419549D01*
X148645342Y-84168225D01*
X148586920Y-84066990D01*
X148436018Y-84017418D01*
X148362899Y-84024058D01*
X148224790Y-83861650D01*
X148207446Y-83731428D01*
X148368300Y-83630223D01*
X148506314Y-83588643D01*
X148696737Y-83359186D01*
X148752848Y-83243028D01*
X148900652Y-83243028D01*
X148978091Y-83320467D01*
X149055530Y-83243028D01*
X148978091Y-83165589D01*
X148900652Y-83243028D01*
X148752848Y-83243028D01*
X148804264Y-83136591D01*
X149040352Y-82790490D01*
X149157386Y-82616390D01*
X149094249Y-82606033D01*
X149003268Y-82644379D01*
X148898537Y-82593936D01*
X148876348Y-82422636D01*
X148870019Y-82391198D01*
X149675042Y-82391198D01*
X149676818Y-82426249D01*
X149743341Y-82546076D01*
X149768185Y-82538949D01*
X149907359Y-82391198D01*
X149931559Y-82331204D01*
X149839061Y-82236320D01*
X149794105Y-82242272D01*
X149675042Y-82391198D01*
X148870019Y-82391198D01*
X148807663Y-82081442D01*
X148805019Y-82069215D01*
X149563744Y-82069215D01*
X149563940Y-82069144D01*
X149703025Y-82004003D01*
X150139676Y-82004003D01*
X150217115Y-82081442D01*
X150294554Y-82004003D01*
X150217115Y-81926564D01*
X150139676Y-82004003D01*
X149703025Y-82004003D01*
X149891504Y-81915728D01*
X149984798Y-81758780D01*
X149930966Y-81633229D01*
X149769861Y-81653582D01*
X149619034Y-81849125D01*
X149579254Y-81962899D01*
X149563744Y-82069215D01*
X148805019Y-82069215D01*
X148786028Y-81981398D01*
X148777476Y-81819351D01*
X148878796Y-81922079D01*
X149006267Y-82056457D01*
X149135963Y-82048363D01*
X149163288Y-81852387D01*
X149055530Y-81539369D01*
X149021872Y-81471070D01*
X151378701Y-81471070D01*
X151383134Y-81505648D01*
X151533579Y-81616808D01*
X151607595Y-81587257D01*
X151688457Y-81375351D01*
X151666170Y-81264724D01*
X151533579Y-81229613D01*
X151491281Y-81261313D01*
X151425169Y-81384491D01*
X151378701Y-81471070D01*
X149021872Y-81471070D01*
X148998749Y-81424150D01*
X148988331Y-81384491D01*
X151068945Y-81384491D01*
X151146384Y-81461930D01*
X151223823Y-81384491D01*
X151146384Y-81307052D01*
X151068945Y-81384491D01*
X148988331Y-81384491D01*
X148923395Y-81137289D01*
X149014933Y-81052547D01*
X149248390Y-81212281D01*
X149447905Y-81349270D01*
X149654023Y-81266120D01*
X149684786Y-81233968D01*
X149820204Y-81014908D01*
X149785333Y-80908335D01*
X149597603Y-80997296D01*
X149565874Y-81023098D01*
X149402613Y-81095637D01*
X149360360Y-80900101D01*
X149313957Y-80639440D01*
X149055072Y-80255953D01*
X148650576Y-80022911D01*
X148194134Y-79983032D01*
X147779411Y-80179037D01*
X147598898Y-80306509D01*
X147501824Y-80285629D01*
X147436791Y-80272606D01*
X147263391Y-80454468D01*
X147201133Y-80533578D01*
X147030536Y-80664167D01*
X146896311Y-80547344D01*
X146781591Y-80485516D01*
X146606890Y-80654008D01*
X146408052Y-81051309D01*
X146199769Y-81635209D01*
X145996732Y-82363499D01*
X145956478Y-82546076D01*
X145813634Y-83193969D01*
X145750339Y-83573578D01*
X145665165Y-84084411D01*
X145458752Y-85566198D01*
X145394028Y-86030832D01*
X144979047Y-85986251D01*
X144843593Y-85976360D01*
X144619047Y-86040779D01*
X144565259Y-86296007D01*
X143416300Y-86296007D01*
X143412655Y-86171108D01*
X143377272Y-85966423D01*
X143466127Y-85827840D01*
X143786726Y-85798515D01*
X144114585Y-85749326D01*
X144254310Y-85582769D01*
X144258303Y-85566198D01*
X144873823Y-85566198D01*
X144951262Y-85643637D01*
X145028701Y-85566198D01*
X144951262Y-85488759D01*
X144873823Y-85566198D01*
X144258303Y-85566198D01*
X144280791Y-85472878D01*
X144486628Y-85277873D01*
X144618022Y-85171923D01*
X144718945Y-84874108D01*
X144745817Y-84689543D01*
X144859323Y-84559491D01*
X144929523Y-84640492D01*
X144915692Y-84907967D01*
X144889747Y-85126163D01*
X144987634Y-85101564D01*
X144996519Y-85092435D01*
X145147698Y-84834983D01*
X145245476Y-84503352D01*
X145266278Y-84216868D01*
X145186529Y-84094857D01*
X145146961Y-84089897D01*
X145028701Y-83939979D01*
X145054911Y-83868730D01*
X145261018Y-83785101D01*
X145343321Y-83771018D01*
X145476310Y-83573578D01*
X145439562Y-83178870D01*
X145234142Y-82632565D01*
X145186747Y-82546076D01*
X145415896Y-82546076D01*
X145447684Y-82592426D01*
X145579914Y-82700954D01*
X145595371Y-82696928D01*
X145648213Y-82546076D01*
X145641910Y-82503626D01*
X145484194Y-82391198D01*
X145428175Y-82403359D01*
X145415896Y-82546076D01*
X145186747Y-82546076D01*
X145070063Y-82333147D01*
X144864531Y-82160734D01*
X144575910Y-82163602D01*
X144351799Y-82189523D01*
X144370469Y-82146901D01*
X144377029Y-82143778D01*
X144560896Y-81989984D01*
X144479638Y-81885550D01*
X144176871Y-81888658D01*
X143922456Y-81992637D01*
X143789676Y-82186077D01*
X143770207Y-82282150D01*
X143634798Y-82313759D01*
X143529084Y-82350867D01*
X143479920Y-82614375D01*
X143450584Y-82879657D01*
X143363762Y-83021382D01*
X142955038Y-83069846D01*
X142462066Y-83190130D01*
X142162900Y-83376337D01*
X142009508Y-83547927D01*
X142008025Y-83552784D01*
X141960730Y-83707662D01*
X141954068Y-83729480D01*
X142163457Y-83785101D01*
X142270195Y-83801527D01*
X142395774Y-83931086D01*
X142334622Y-84006137D01*
X142086018Y-84017418D01*
X141901374Y-84014406D01*
X141776262Y-84121805D01*
X141687364Y-84211680D01*
X141410241Y-84215876D01*
X141297493Y-84197618D01*
X141111876Y-84236624D01*
X141121661Y-84468857D01*
X141121874Y-84469747D01*
X141112032Y-84597317D01*
X140956883Y-84502329D01*
X140635974Y-84172296D01*
X140421047Y-83921124D01*
X140266389Y-83707662D01*
X141156749Y-83707662D01*
X141234188Y-83785101D01*
X141311628Y-83707662D01*
X141234188Y-83630223D01*
X141156749Y-83707662D01*
X140266389Y-83707662D01*
X140170432Y-83575220D01*
X140160285Y-83552784D01*
X140537237Y-83552784D01*
X140614676Y-83630223D01*
X140692115Y-83552784D01*
X140614676Y-83475345D01*
X140537237Y-83552784D01*
X140160285Y-83552784D01*
X140072724Y-83359186D01*
X140060871Y-83287649D01*
X139906662Y-83165589D01*
X139863732Y-83097852D01*
X140004844Y-82901466D01*
X140150165Y-82738883D01*
X140133982Y-82613952D01*
X139854564Y-82499210D01*
X139714928Y-82447989D01*
X139545509Y-82318679D01*
X139622041Y-82141925D01*
X139658356Y-82091594D01*
X139785826Y-81788029D01*
X139858003Y-81426596D01*
X139859347Y-81124086D01*
X139774322Y-80997296D01*
X139707309Y-80915867D01*
X139726766Y-80648820D01*
X139757868Y-80517169D01*
X139743627Y-80390348D01*
X139570413Y-80502096D01*
X139512957Y-80547202D01*
X139336312Y-80602762D01*
X139223362Y-80385938D01*
X139111730Y-80154607D01*
X139298213Y-80154607D01*
X139299720Y-80176259D01*
X139389374Y-80210366D01*
X139545319Y-80044098D01*
X139583003Y-79957545D01*
X139477021Y-79975799D01*
X139408220Y-80023609D01*
X139298213Y-80154607D01*
X139111730Y-80154607D01*
X139110990Y-80153074D01*
X138931943Y-80094180D01*
X138756086Y-80339064D01*
X138712279Y-80440436D01*
X138628765Y-80511491D01*
X138526464Y-80300345D01*
X138468872Y-80192801D01*
X138371294Y-80199479D01*
X138225853Y-80423344D01*
X138001014Y-80900409D01*
X137953117Y-81008416D01*
X137773024Y-81451072D01*
X137706043Y-81615708D01*
X137609347Y-81986085D01*
X137659696Y-82147306D01*
X137853760Y-82127132D01*
X137957362Y-82092477D01*
X137996471Y-82130359D01*
X137815040Y-82339742D01*
X137583759Y-82539258D01*
X137417186Y-82599837D01*
X137344680Y-82615985D01*
X137214725Y-82815048D01*
X137185693Y-82972237D01*
X137276900Y-83137143D01*
X137327469Y-83164747D01*
X137349869Y-83340479D01*
X137327073Y-83443330D01*
X137429015Y-83694816D01*
X137499836Y-83822836D01*
X137509229Y-84136999D01*
X137486477Y-84265260D01*
X137586522Y-84477088D01*
X137647274Y-84538884D01*
X137641507Y-84763697D01*
X137578123Y-84991004D01*
X137573214Y-85372508D01*
X137578488Y-85430563D01*
X137541443Y-85718122D01*
X137342934Y-85798515D01*
X137164853Y-85835536D01*
X137253823Y-85984369D01*
X137392934Y-86153659D01*
X137389907Y-86346998D01*
X137091201Y-86459496D01*
X137021663Y-86473551D01*
X136908668Y-86533877D01*
X115544624Y-86533877D01*
X115473518Y-86408325D01*
X115272641Y-85862779D01*
X115228438Y-85698103D01*
X115070491Y-85292823D01*
X114918637Y-85194005D01*
X114774581Y-85403222D01*
X114589358Y-85624373D01*
X114254657Y-85850005D01*
X114064199Y-85932113D01*
X113503695Y-86107119D01*
X112787752Y-86279581D01*
X112018279Y-86428619D01*
X111297182Y-86533354D01*
X110726372Y-86572906D01*
X110461444Y-86563675D01*
X110127312Y-86484379D01*
X109818193Y-86275430D01*
X109426475Y-85879415D01*
X109140029Y-85551095D01*
X108885342Y-85215103D01*
X108787237Y-85021314D01*
X108778353Y-84972659D01*
X108646831Y-84696997D01*
X108611233Y-84640301D01*
X116338999Y-84640301D01*
X116468825Y-84950508D01*
X116712636Y-85079561D01*
X116998381Y-84984775D01*
X117264409Y-84689849D01*
X120903614Y-84689849D01*
X120951879Y-84801762D01*
X121162456Y-84902126D01*
X121599017Y-84906300D01*
X121748877Y-84901220D01*
X122136231Y-84933636D01*
X122338037Y-85022459D01*
X122440736Y-85138792D01*
X122642241Y-85135394D01*
X122808649Y-84853657D01*
X122836528Y-84628037D01*
X122741647Y-84358047D01*
X122625785Y-84270441D01*
X122571384Y-84373637D01*
X122543935Y-84454901D01*
X122345923Y-84549753D01*
X122085956Y-84527448D01*
X121919595Y-84385222D01*
X121851291Y-84304480D01*
X121591335Y-84265476D01*
X121264044Y-84341497D01*
X120993457Y-84495352D01*
X120903614Y-84689849D01*
X117264409Y-84689849D01*
X117264716Y-84689509D01*
X117450298Y-84217122D01*
X117489732Y-84000501D01*
X127861571Y-84000501D01*
X127898543Y-84207789D01*
X127951413Y-84205390D01*
X127979888Y-84004511D01*
X127955087Y-83852274D01*
X127886316Y-83910939D01*
X127881207Y-83929430D01*
X127861571Y-84000501D01*
X117489732Y-84000501D01*
X117502670Y-83929430D01*
X117465797Y-83740639D01*
X117281734Y-83696599D01*
X117124459Y-83721077D01*
X116995774Y-83844102D01*
X116992175Y-83881607D01*
X116905245Y-83901076D01*
X116732420Y-83882018D01*
X116528383Y-84059445D01*
X116372777Y-84344146D01*
X116338999Y-84640301D01*
X108611233Y-84640301D01*
X108415523Y-84328594D01*
X108158800Y-83979481D01*
X107951034Y-83761688D01*
X107872495Y-83749367D01*
X107576227Y-83835884D01*
X107176644Y-84037934D01*
X106771715Y-84271589D01*
X105994054Y-84688766D01*
X105230494Y-85063344D01*
X104544155Y-85366539D01*
X103998160Y-85569565D01*
X103655627Y-85643637D01*
X103542943Y-85632291D01*
X103208690Y-85493283D01*
X102767667Y-85172456D01*
X102176093Y-84640115D01*
X101931145Y-84411502D01*
X101459209Y-83995039D01*
X101076675Y-83688304D01*
X100849002Y-83545298D01*
X100806916Y-83535470D01*
X100463406Y-83618616D01*
X100000605Y-83929309D01*
X99808039Y-84082287D01*
X99480508Y-84313562D01*
X99293455Y-84404613D01*
X99156426Y-84469778D01*
X98841912Y-84688659D01*
X98438194Y-85008382D01*
X98018146Y-85313415D01*
X97306338Y-85651122D01*
X96631449Y-85765313D01*
X96060113Y-85638338D01*
X95944977Y-85569321D01*
X95574613Y-85280438D01*
X95187401Y-84910975D01*
X95141612Y-84862749D01*
X94801549Y-84552316D01*
X94512976Y-84432759D01*
X94157191Y-84451088D01*
X93603775Y-84646353D01*
X93002064Y-85120269D01*
X92522338Y-85806710D01*
X92055497Y-86498197D01*
X91364355Y-87150181D01*
X90591187Y-87587035D01*
X89949852Y-87831963D01*
X88720679Y-87204402D01*
X88480546Y-87084143D01*
X87925126Y-86824169D01*
X87485432Y-86643253D01*
X87240194Y-86574873D01*
X87170240Y-86590160D01*
X86881782Y-86774062D01*
X86512145Y-87106146D01*
X86134452Y-87510376D01*
X85821826Y-87910716D01*
X85647389Y-88231130D01*
X85524937Y-88417276D01*
X85155240Y-88718624D01*
X84633735Y-89019860D01*
X84046785Y-89273167D01*
X83480753Y-89430728D01*
X83416555Y-89443102D01*
X82911240Y-89590826D01*
X82503158Y-89783279D01*
X82489081Y-89792769D01*
X82150270Y-90148198D01*
X81775390Y-90746635D01*
X81395452Y-91531573D01*
X81041472Y-92446506D01*
X80935706Y-92742217D01*
X80617576Y-93452268D01*
X80245527Y-93942585D01*
X79756023Y-94260021D01*
X79085526Y-94451433D01*
X78170500Y-94563673D01*
X77581890Y-94606936D01*
X77146634Y-94603134D01*
X76778638Y-94525620D01*
X76364566Y-94350021D01*
X75791085Y-94051964D01*
X74950111Y-93589475D01*
X74111875Y-93092282D01*
X73434671Y-92649301D01*
X72958143Y-92286643D01*
X72721934Y-92030421D01*
X72635885Y-91786276D01*
X72521577Y-91318763D01*
X72414732Y-90754613D01*
X72340242Y-90304160D01*
X72202561Y-89486028D01*
X72074783Y-88741198D01*
X72009676Y-88252695D01*
X71967220Y-87554514D01*
X71985554Y-86977931D01*
X71993150Y-86917453D01*
X72184651Y-86133688D01*
X72529635Y-85262555D01*
X72971378Y-84428569D01*
X73453160Y-83756247D01*
X73626872Y-83547287D01*
X73783579Y-83334314D01*
X127914086Y-83334314D01*
X127919324Y-83482865D01*
X128008350Y-83557273D01*
X128240131Y-83462316D01*
X128370514Y-83296727D01*
X128284817Y-83067601D01*
X128262203Y-83039483D01*
X128215961Y-82893412D01*
X128437785Y-82855832D01*
X128635998Y-82824300D01*
X128766506Y-82700954D01*
X128766577Y-82690326D01*
X128824179Y-82522166D01*
X128963518Y-82597183D01*
X129146823Y-82874732D01*
X129336324Y-83314165D01*
X129431598Y-83560902D01*
X129667212Y-83972233D01*
X129720565Y-84004511D01*
X129923486Y-84127275D01*
X130118922Y-84206903D01*
X130228138Y-84496680D01*
X130228083Y-84498556D01*
X130252556Y-84628037D01*
X130267213Y-84705587D01*
X130453962Y-84802367D01*
X130868841Y-84830896D01*
X130955939Y-84829989D01*
X131505057Y-84747869D01*
X131962697Y-84571441D01*
X131983323Y-84559027D01*
X132827318Y-84189411D01*
X133722603Y-84016829D01*
X133969728Y-83955188D01*
X134071079Y-83811753D01*
X134081071Y-83724869D01*
X134264676Y-83630223D01*
X134372313Y-83608657D01*
X134509572Y-83436625D01*
X134513406Y-83414155D01*
X134591793Y-83450060D01*
X134734904Y-83707662D01*
X134773227Y-83788300D01*
X134904251Y-83987102D01*
X134954642Y-83901259D01*
X135002962Y-83749108D01*
X135252420Y-83630223D01*
X135438309Y-83592942D01*
X135743035Y-83389450D01*
X135895244Y-83236842D01*
X136241289Y-82988962D01*
X136341092Y-82938339D01*
X136479468Y-82926792D01*
X136437188Y-83152296D01*
X136405877Y-83353716D01*
X136483181Y-83475345D01*
X136582870Y-83430367D01*
X136702851Y-83156187D01*
X136738368Y-82698609D01*
X136678317Y-82133972D01*
X136629859Y-81828580D01*
X136638909Y-81590013D01*
X136750381Y-81563738D01*
X136952257Y-81590756D01*
X137035649Y-81451072D01*
X136939882Y-81175626D01*
X136671366Y-80824399D01*
X136544463Y-80687932D01*
X136298394Y-80395360D01*
X136200652Y-80232894D01*
X136143085Y-80171277D01*
X135890896Y-80110612D01*
X135709447Y-80128106D01*
X135610144Y-80222906D01*
X135581140Y-80250595D01*
X135525605Y-80331456D01*
X135288154Y-80337293D01*
X135260727Y-80332381D01*
X134965177Y-80406294D01*
X134610367Y-80620424D01*
X134365710Y-80842418D01*
X134312364Y-80890823D01*
X134187237Y-81133543D01*
X134185708Y-81143112D01*
X134026239Y-81214490D01*
X133684413Y-81227341D01*
X133285357Y-81267379D01*
X133021577Y-81416255D01*
X132822085Y-81527169D01*
X132452754Y-81484854D01*
X132026651Y-81277334D01*
X131631749Y-80935067D01*
X131612131Y-80919857D01*
X131864067Y-80919857D01*
X131941506Y-80997296D01*
X132018945Y-80919857D01*
X131941506Y-80842418D01*
X133180530Y-80842418D01*
X133235739Y-80902905D01*
X133283095Y-80919857D01*
X133499426Y-80997296D01*
X133597821Y-80981331D01*
X133722603Y-80842418D01*
X133660300Y-80750729D01*
X133403707Y-80687540D01*
X133227951Y-80720515D01*
X133180530Y-80842418D01*
X131941506Y-80842418D01*
X131864067Y-80919857D01*
X131612131Y-80919857D01*
X131331724Y-80702450D01*
X130973518Y-80608631D01*
X130756139Y-80605647D01*
X130627414Y-80545498D01*
X130631187Y-80508765D01*
X130769801Y-80284212D01*
X133764549Y-80284212D01*
X133766948Y-80337081D01*
X133967827Y-80365556D01*
X134120064Y-80340755D01*
X134061399Y-80271984D01*
X133971837Y-80247239D01*
X133764549Y-80284212D01*
X130769801Y-80284212D01*
X130802600Y-80231078D01*
X130815652Y-80222906D01*
X134496993Y-80222906D01*
X134503296Y-80265356D01*
X134609067Y-80340755D01*
X134661012Y-80377784D01*
X134717031Y-80365623D01*
X134729310Y-80222906D01*
X134697522Y-80176556D01*
X134565292Y-80068028D01*
X134549835Y-80072054D01*
X134496993Y-80222906D01*
X130815652Y-80222906D01*
X131145839Y-80016178D01*
X131166475Y-80008394D01*
X131342625Y-79881003D01*
X131320295Y-79835711D01*
X135426262Y-79835711D01*
X135503701Y-79913150D01*
X135581140Y-79835711D01*
X135503701Y-79758271D01*
X135426262Y-79835711D01*
X131320295Y-79835711D01*
X131243033Y-79679000D01*
X131095734Y-79530090D01*
X130874494Y-79475125D01*
X130731804Y-79719552D01*
X130716068Y-79777687D01*
X130667455Y-79874246D01*
X130643008Y-79673089D01*
X130663695Y-79470395D01*
X130775538Y-79236970D01*
X131426828Y-79236970D01*
X131554310Y-79293637D01*
X131636302Y-79282460D01*
X131657562Y-79190385D01*
X131634862Y-79171849D01*
X131451058Y-79190385D01*
X131426828Y-79236970D01*
X130775538Y-79236970D01*
X130818640Y-79147014D01*
X130826226Y-79138823D01*
X130934766Y-79001298D01*
X130818640Y-79047739D01*
X130783609Y-79066890D01*
X130661966Y-79102464D01*
X130652924Y-78996054D01*
X130766381Y-78703276D01*
X131012237Y-78179746D01*
X131090466Y-78015863D01*
X131309106Y-77507291D01*
X131376880Y-77194240D01*
X131296505Y-77018192D01*
X131070698Y-76920628D01*
X130933101Y-76871414D01*
X130800938Y-76698223D01*
X130802403Y-76660710D01*
X131089676Y-76660710D01*
X131091452Y-76695761D01*
X131157975Y-76815589D01*
X131182819Y-76808462D01*
X131321993Y-76660710D01*
X131346193Y-76600717D01*
X131253695Y-76505832D01*
X131208739Y-76511784D01*
X131089676Y-76660710D01*
X130802403Y-76660710D01*
X130815066Y-76336582D01*
X130838825Y-76139409D01*
X131271950Y-76139409D01*
X131399432Y-76196076D01*
X131481424Y-76184899D01*
X131502684Y-76092824D01*
X131479984Y-76074288D01*
X131296180Y-76092824D01*
X131271950Y-76139409D01*
X130838825Y-76139409D01*
X130846260Y-76077705D01*
X130820410Y-75966579D01*
X130700812Y-76094728D01*
X130577225Y-76226801D01*
X130228347Y-76339849D01*
X129864220Y-76157357D01*
X129791264Y-76093002D01*
X129719226Y-76095942D01*
X129778146Y-76349740D01*
X129825108Y-76517565D01*
X129818022Y-76642157D01*
X129661224Y-76541428D01*
X129547445Y-76463299D01*
X129389801Y-76453943D01*
X129229955Y-76618557D01*
X129090806Y-76889225D01*
X129035440Y-76996920D01*
X128773794Y-77628812D01*
X128620447Y-78041550D01*
X128512248Y-78497119D01*
X128536862Y-78886164D01*
X128688065Y-79332357D01*
X128725485Y-79491026D01*
X128628198Y-79603393D01*
X128550833Y-79578763D01*
X128456749Y-79375937D01*
X128423913Y-79260850D01*
X128223269Y-79238076D01*
X128071349Y-79429499D01*
X128068852Y-79448515D01*
X128023979Y-79790241D01*
X128067816Y-80068028D01*
X128087191Y-80190806D01*
X128257570Y-80505005D01*
X128372201Y-80599352D01*
X128457704Y-80582444D01*
X128459122Y-80571399D01*
X128534813Y-80634673D01*
X128690021Y-80898841D01*
X128812477Y-81140654D01*
X128895677Y-81414949D01*
X128781591Y-81584120D01*
X128438958Y-81754735D01*
X128298139Y-81819604D01*
X128257706Y-81848073D01*
X128073864Y-81977518D01*
X128002633Y-82214691D01*
X128032738Y-82644372D01*
X128034012Y-82660071D01*
X128048495Y-82838598D01*
X128035701Y-83183771D01*
X127963950Y-83320467D01*
X127914086Y-83334314D01*
X73783579Y-83334314D01*
X74008171Y-83029081D01*
X74171869Y-82778878D01*
X93144554Y-82778878D01*
X93167052Y-82927796D01*
X93334978Y-83083284D01*
X93584395Y-82973552D01*
X93707636Y-82831454D01*
X93725301Y-82660071D01*
X93454310Y-82588661D01*
X93272125Y-82615679D01*
X93144554Y-82778878D01*
X74171869Y-82778878D01*
X74384117Y-82454468D01*
X74522353Y-82218257D01*
X100423823Y-82218257D01*
X100486672Y-82316036D01*
X100742430Y-82438389D01*
X100813419Y-82455958D01*
X100969097Y-82456409D01*
X100878344Y-82301574D01*
X100727715Y-82159851D01*
X100516055Y-82087465D01*
X100423823Y-82218257D01*
X74522353Y-82218257D01*
X74709108Y-81899141D01*
X74819557Y-81676562D01*
X94461364Y-81676562D01*
X94546304Y-81933959D01*
X94642375Y-82052133D01*
X94690963Y-81965284D01*
X94754812Y-81850558D01*
X95012231Y-81771686D01*
X95187987Y-81738711D01*
X95205284Y-81694247D01*
X95622603Y-81694247D01*
X95700042Y-81771686D01*
X95777481Y-81694247D01*
X95700042Y-81616808D01*
X95622603Y-81694247D01*
X95205284Y-81694247D01*
X95235408Y-81616808D01*
X95234230Y-81614932D01*
X95010993Y-81487142D01*
X94697941Y-81474763D01*
X94480377Y-81585483D01*
X94461364Y-81676562D01*
X74819557Y-81676562D01*
X74937544Y-81438794D01*
X74999848Y-81229613D01*
X95157969Y-81229613D01*
X95235408Y-81307052D01*
X95312847Y-81229613D01*
X95235408Y-81152174D01*
X95157969Y-81229613D01*
X74999848Y-81229613D01*
X75023823Y-81149119D01*
X75072256Y-80955795D01*
X75119307Y-80862155D01*
X95442601Y-80862155D01*
X95548725Y-81000251D01*
X95670635Y-81128927D01*
X95693564Y-81229613D01*
X95704341Y-81276940D01*
X95709017Y-81312070D01*
X95865515Y-81468990D01*
X96138406Y-81673455D01*
X96171774Y-81694247D01*
X96423096Y-81850851D01*
X96614990Y-81926564D01*
X96668084Y-81854741D01*
X96758286Y-81591338D01*
X96785848Y-81495106D01*
X96893446Y-81348242D01*
X97093437Y-81461508D01*
X97098496Y-81465721D01*
X97250625Y-81652477D01*
X97139995Y-81794363D01*
X97038374Y-81890826D01*
X97199666Y-81924193D01*
X97379446Y-81857434D01*
X97438760Y-81774008D01*
X100774493Y-81774008D01*
X100929715Y-81989948D01*
X101092265Y-82138314D01*
X101225870Y-82219844D01*
X101641469Y-82061770D01*
X101809648Y-81974882D01*
X112349432Y-81974882D01*
X112383349Y-82078323D01*
X112561972Y-82316107D01*
X112634555Y-82368696D01*
X112928020Y-82456409D01*
X113017595Y-82483182D01*
X113579541Y-82522410D01*
X113889321Y-82513627D01*
X114212861Y-82482431D01*
X114306158Y-82437761D01*
X114284674Y-82317347D01*
X114352965Y-82026798D01*
X114396616Y-81848073D01*
X114372856Y-81454039D01*
X114226559Y-81131137D01*
X113998346Y-80997296D01*
X113955686Y-81000088D01*
X113628606Y-81100400D01*
X113210252Y-81303877D01*
X112794812Y-81554678D01*
X112476475Y-81796960D01*
X112349432Y-81974882D01*
X101809648Y-81974882D01*
X101992333Y-81880500D01*
X102127481Y-81741788D01*
X102147002Y-81689721D01*
X102340907Y-81616808D01*
X102523584Y-81545012D01*
X102766822Y-81298826D01*
X102793909Y-81258664D01*
X102950470Y-81083885D01*
X103140209Y-81078920D01*
X103482664Y-81232731D01*
X103551890Y-81268892D01*
X103860604Y-81476503D01*
X103986018Y-81644722D01*
X104031091Y-81718692D01*
X104257054Y-81684674D01*
X104517051Y-81603923D01*
X104939693Y-81538601D01*
X104964548Y-81536661D01*
X105379285Y-81405917D01*
X105709698Y-81148297D01*
X105844554Y-80848620D01*
X105871181Y-80759102D01*
X106075982Y-80589011D01*
X106180671Y-80526095D01*
X106223698Y-80364756D01*
X106209420Y-80209618D01*
X106312774Y-79906450D01*
X106406340Y-79635446D01*
X106302215Y-79362673D01*
X106172594Y-79258724D01*
X105921515Y-79218425D01*
X105537246Y-79297915D01*
X104974197Y-79507893D01*
X104186777Y-79859056D01*
X104053247Y-79920668D01*
X103528725Y-80153198D01*
X103127648Y-80316281D01*
X102927997Y-80377784D01*
X102826617Y-80410260D01*
X102601488Y-80598807D01*
X102414080Y-80713484D01*
X102383709Y-80732068D01*
X101893490Y-80734705D01*
X101537257Y-80733059D01*
X101173689Y-80857026D01*
X100959945Y-81070800D01*
X100975863Y-81323180D01*
X101002626Y-81418985D01*
X100883181Y-81620069D01*
X100868023Y-81629711D01*
X100774493Y-81774008D01*
X97438760Y-81774008D01*
X97565074Y-81596344D01*
X97665614Y-81396792D01*
X97785969Y-81453959D01*
X97801042Y-81474744D01*
X97905956Y-81443835D01*
X98003729Y-81133433D01*
X98004737Y-81128372D01*
X98030021Y-80713484D01*
X97885114Y-80501793D01*
X97775417Y-80383416D01*
X97741354Y-80085872D01*
X97768508Y-79894380D01*
X97651231Y-79696406D01*
X97312844Y-79713706D01*
X96752886Y-79946359D01*
X95970897Y-80394445D01*
X95810284Y-80496134D01*
X95516493Y-80713194D01*
X95442601Y-80862155D01*
X75119307Y-80862155D01*
X75284411Y-80533572D01*
X75622544Y-80002621D01*
X76039745Y-79434873D01*
X76489104Y-78902259D01*
X76643412Y-78723281D01*
X76961225Y-78190249D01*
X77082327Y-77679518D01*
X117333817Y-77679518D01*
X117442495Y-77882250D01*
X117660327Y-78175506D01*
X117947069Y-78502464D01*
X118262479Y-78806302D01*
X118443018Y-78976440D01*
X118829962Y-79431803D01*
X118952355Y-79635446D01*
X119085607Y-79857157D01*
X119105339Y-79903238D01*
X119321818Y-80320488D01*
X119534564Y-80615528D01*
X119677364Y-80744556D01*
X119811236Y-80820429D01*
X119811713Y-80820232D01*
X119983327Y-80794300D01*
X120377706Y-80748111D01*
X120910698Y-80691532D01*
X120953518Y-80687051D01*
X121825584Y-80523935D01*
X122409165Y-80252822D01*
X122501536Y-80186791D01*
X122796066Y-80037272D01*
X122935193Y-80110683D01*
X123015639Y-80213834D01*
X123160098Y-80089640D01*
X123169202Y-80077536D01*
X123189808Y-80068028D01*
X125668945Y-80068028D01*
X125673445Y-80105047D01*
X125823823Y-80222906D01*
X125860842Y-80218405D01*
X125978701Y-80068028D01*
X125974200Y-80031008D01*
X125823823Y-79913150D01*
X125786803Y-79917650D01*
X125668945Y-80068028D01*
X123189808Y-80068028D01*
X123460818Y-79942981D01*
X124023356Y-79935849D01*
X124246003Y-79945756D01*
X124625397Y-79918141D01*
X124804962Y-79836798D01*
X124862692Y-79782165D01*
X125018282Y-79890965D01*
X125144745Y-80014125D01*
X125282232Y-79912369D01*
X125312607Y-79800283D01*
X125185433Y-79588449D01*
X125068222Y-79493046D01*
X125165591Y-79450887D01*
X125236866Y-79438431D01*
X125359188Y-79284497D01*
X125347028Y-79228478D01*
X125204310Y-79216198D01*
X125145298Y-79241485D01*
X125049432Y-79164470D01*
X125076682Y-79084934D01*
X125281749Y-78927873D01*
X125460506Y-78946301D01*
X125514067Y-79221059D01*
X125568032Y-79491760D01*
X125792847Y-79603393D01*
X125946730Y-79625582D01*
X126257481Y-79789247D01*
X126397620Y-79896999D01*
X126443335Y-79789247D01*
X126433715Y-79724922D01*
X126288457Y-79603393D01*
X126264647Y-79596749D01*
X126190916Y-79448515D01*
X126598213Y-79448515D01*
X126602713Y-79485535D01*
X126753091Y-79603393D01*
X126790111Y-79598893D01*
X126907969Y-79448515D01*
X126903468Y-79411496D01*
X126753091Y-79293637D01*
X126716071Y-79298138D01*
X126598213Y-79448515D01*
X126190916Y-79448515D01*
X126171368Y-79409214D01*
X126133579Y-79044162D01*
X126133579Y-78484931D01*
X126418252Y-78836488D01*
X126665219Y-79050966D01*
X126882886Y-79076822D01*
X127040445Y-78919861D01*
X127025477Y-78774948D01*
X126815194Y-78778880D01*
X126708345Y-78814549D01*
X126648470Y-78773069D01*
X126776475Y-78536491D01*
X126841061Y-78436406D01*
X126969879Y-78312264D01*
X127037134Y-78445168D01*
X127080138Y-78566820D01*
X127228266Y-78637769D01*
X127402450Y-78476559D01*
X127542805Y-78121517D01*
X127692670Y-77415477D01*
X127756685Y-76889225D01*
X127714282Y-76605723D01*
X127565824Y-76539822D01*
X127350198Y-76476122D01*
X127124872Y-76215288D01*
X127059729Y-76112680D01*
X126776833Y-75834049D01*
X126416453Y-75598282D01*
X126078446Y-75463066D01*
X125862670Y-75486091D01*
X125840923Y-75566422D01*
X125983186Y-75737492D01*
X126002128Y-75749573D01*
X126117659Y-75857425D01*
X125939981Y-75883949D01*
X125796779Y-75910329D01*
X125668945Y-76051635D01*
X125610864Y-76132424D01*
X125368621Y-76121631D01*
X125128585Y-76114361D01*
X124891661Y-76356361D01*
X124806696Y-76503314D01*
X124662429Y-76596105D01*
X124443745Y-76440905D01*
X124251428Y-76303611D01*
X124089061Y-76278805D01*
X124074223Y-76320599D01*
X124104967Y-76577829D01*
X124208198Y-76948550D01*
X124345549Y-77309011D01*
X124478654Y-77535461D01*
X124520854Y-77584686D01*
X124575442Y-77797569D01*
X124429920Y-77899735D01*
X124366335Y-77881117D01*
X124275042Y-77689814D01*
X124195406Y-77576646D01*
X123860370Y-77466387D01*
X123240766Y-77383311D01*
X122715092Y-77317932D01*
X122306641Y-77235734D01*
X122117900Y-77156020D01*
X122029049Y-77071664D01*
X121748457Y-76921544D01*
X121602823Y-76834379D01*
X121558117Y-76671323D01*
X121558004Y-76552732D01*
X121374336Y-76362949D01*
X121254928Y-76287733D01*
X121211287Y-76190676D01*
X121448518Y-76103049D01*
X121500935Y-76086812D01*
X121746808Y-75942448D01*
X121776349Y-75797459D01*
X121564676Y-75731442D01*
X121439858Y-75690053D01*
X121320509Y-75460406D01*
X121311054Y-75326261D01*
X121539865Y-75326261D01*
X121623834Y-75421686D01*
X121669263Y-75415904D01*
X121874432Y-75266808D01*
X121899244Y-75207355D01*
X121815274Y-75111930D01*
X121769845Y-75117712D01*
X121564676Y-75266808D01*
X121539865Y-75326261D01*
X121311054Y-75326261D01*
X121310719Y-75321513D01*
X121256774Y-74918332D01*
X121258328Y-74879613D01*
X121796993Y-74879613D01*
X121874432Y-74957052D01*
X121951871Y-74879613D01*
X121874432Y-74802174D01*
X121796993Y-74879613D01*
X121258328Y-74879613D01*
X121262953Y-74764374D01*
X121442466Y-74647296D01*
X121585249Y-74612467D01*
X121516031Y-74449673D01*
X121430559Y-74292145D01*
X121402347Y-74027656D01*
X121445729Y-73601213D01*
X121562858Y-72943637D01*
X121588075Y-72803187D01*
X121601181Y-72567084D01*
X121517209Y-72615625D01*
X121483471Y-72660253D01*
X121362639Y-72708343D01*
X121254920Y-72479003D01*
X121250518Y-72465295D01*
X121138771Y-72252367D01*
X121020001Y-72328336D01*
X120977147Y-72426102D01*
X120976421Y-72633881D01*
X120976064Y-72735995D01*
X120984533Y-72844687D01*
X120814123Y-72943637D01*
X120771165Y-72950816D01*
X120542069Y-73130397D01*
X120512777Y-73175954D01*
X120319941Y-73475870D01*
X120276587Y-73563475D01*
X120270166Y-73572290D01*
X120045742Y-73880380D01*
X119809321Y-73925894D01*
X119759035Y-73910180D01*
X119638129Y-73892398D01*
X119783579Y-74016007D01*
X119841785Y-74061090D01*
X119923680Y-74202277D01*
X119736271Y-74352876D01*
X119556866Y-74518175D01*
X119627633Y-74723449D01*
X119710034Y-74858725D01*
X119636221Y-75029843D01*
X119389723Y-75073368D01*
X119256513Y-74868830D01*
X119270755Y-74462331D01*
X119300113Y-74260708D01*
X119269612Y-74072140D01*
X119182569Y-74105223D01*
X119159587Y-74113958D01*
X119010024Y-74356237D01*
X118860909Y-74769051D01*
X118755263Y-75182278D01*
X118720755Y-75447756D01*
X118709295Y-75535918D01*
X118785307Y-75679796D01*
X118989989Y-75660097D01*
X119229755Y-75663773D01*
X119369481Y-75920697D01*
X119415337Y-76114491D01*
X119394507Y-76173831D01*
X119230983Y-75969021D01*
X119227257Y-75964035D01*
X119082140Y-75789753D01*
X119048677Y-75847307D01*
X119105021Y-76171884D01*
X119132952Y-76528662D01*
X119082710Y-76728456D01*
X118996343Y-77071908D01*
X118858119Y-77284448D01*
X118631031Y-77404007D01*
X118239459Y-77376789D01*
X118115501Y-77358525D01*
X117869817Y-77350844D01*
X117920702Y-77431159D01*
X117943914Y-77445830D01*
X118061371Y-77569977D01*
X117889399Y-77672810D01*
X117738153Y-77707505D01*
X117452373Y-77662452D01*
X117374533Y-77624131D01*
X117333817Y-77679518D01*
X77082327Y-77679518D01*
X77116756Y-77534316D01*
X77184001Y-77195625D01*
X77396216Y-76532266D01*
X77674376Y-75921462D01*
X77705664Y-75864845D01*
X77913997Y-75446509D01*
X77975393Y-75169311D01*
X77858677Y-75018064D01*
X77532673Y-74977577D01*
X76966203Y-75032664D01*
X76128092Y-75168134D01*
X75747930Y-75232334D01*
X75113648Y-75331684D01*
X74617013Y-75399617D01*
X74341587Y-75424158D01*
X74163570Y-75413349D01*
X74141899Y-75333043D01*
X74333288Y-75104840D01*
X74415974Y-75029699D01*
X74776909Y-74784105D01*
X75303420Y-74482553D01*
X75765176Y-74248595D01*
X107655175Y-74248595D01*
X107846737Y-74466306D01*
X108274156Y-74875227D01*
X108666213Y-75202483D01*
X109073475Y-75468474D01*
X109358890Y-75572178D01*
X109656013Y-75632453D01*
X109823011Y-75831874D01*
X109722456Y-76111468D01*
X109689360Y-76155297D01*
X109665565Y-76349667D01*
X109898462Y-76569318D01*
X110193024Y-76729931D01*
X110518070Y-76815589D01*
X110776687Y-76856900D01*
X111138032Y-76980154D01*
X111445243Y-77134167D01*
X111575042Y-77266363D01*
X111633138Y-77326770D01*
X111894916Y-77355318D01*
X112262832Y-77312368D01*
X112620469Y-77204777D01*
X112844462Y-77079589D01*
X112968945Y-76937574D01*
X113068818Y-76898240D01*
X113345908Y-76966577D01*
X113568005Y-77020268D01*
X113886174Y-76959039D01*
X114000267Y-76893028D01*
X116066506Y-76893028D01*
X116143945Y-76970467D01*
X116221384Y-76893028D01*
X116143945Y-76815589D01*
X116066506Y-76893028D01*
X114000267Y-76893028D01*
X114313896Y-76711572D01*
X114486718Y-76590713D01*
X114707833Y-76416385D01*
X115224261Y-76416385D01*
X115244255Y-76553692D01*
X115326148Y-76578868D01*
X115587082Y-76514973D01*
X115669725Y-76440402D01*
X115649731Y-76303094D01*
X115567838Y-76277918D01*
X115306905Y-76341814D01*
X115224261Y-76416385D01*
X114707833Y-76416385D01*
X114806530Y-76338572D01*
X114957138Y-76175447D01*
X115046631Y-76062725D01*
X115311842Y-75875763D01*
X115444626Y-75821609D01*
X115740095Y-75837195D01*
X116150173Y-76045048D01*
X116369136Y-76166734D01*
X116629507Y-76247857D01*
X116685896Y-76161364D01*
X116502745Y-75919877D01*
X116423397Y-75812770D01*
X116418627Y-75637451D01*
X116469246Y-75603390D01*
X116689623Y-75605954D01*
X116885478Y-75726444D01*
X116914818Y-75892011D01*
X116909788Y-75900893D01*
X116926786Y-76137821D01*
X117098108Y-76389042D01*
X117197664Y-76440402D01*
X117324494Y-76505832D01*
X117404889Y-76443645D01*
X117451256Y-76229253D01*
X118557181Y-76229253D01*
X118642172Y-76621991D01*
X118731195Y-76840548D01*
X118788223Y-76893028D01*
X118872374Y-76970467D01*
X118952757Y-76936658D01*
X119007895Y-76728456D01*
X118944020Y-76439053D01*
X118776871Y-76196076D01*
X118762476Y-76184262D01*
X118593958Y-76093856D01*
X118557181Y-76229253D01*
X117451256Y-76229253D01*
X117460408Y-76186936D01*
X117427433Y-76011181D01*
X117305530Y-75963759D01*
X117244559Y-75986775D01*
X117150652Y-75878890D01*
X117177214Y-75802105D01*
X117364096Y-75780208D01*
X117496744Y-75814570D01*
X117725406Y-75731837D01*
X117783914Y-75447756D01*
X117652341Y-75015214D01*
X117609765Y-74929127D01*
X117423768Y-74618163D01*
X117291344Y-74492418D01*
X117241539Y-74447649D01*
X117249239Y-74221381D01*
X117239316Y-74105223D01*
X117770164Y-74105223D01*
X117847603Y-74182662D01*
X117925042Y-74105223D01*
X117847603Y-74027784D01*
X117770164Y-74105223D01*
X117239316Y-74105223D01*
X117231700Y-74016066D01*
X116993182Y-73749664D01*
X116813632Y-73644884D01*
X116740113Y-73657838D01*
X116855792Y-73900739D01*
X116968327Y-74126444D01*
X116927060Y-74164673D01*
X116671434Y-74005497D01*
X116404639Y-73730976D01*
X116217424Y-73317790D01*
X117235611Y-73317790D01*
X117246435Y-73477666D01*
X117296427Y-73590248D01*
X117410637Y-73713012D01*
X117460408Y-73572290D01*
X117454904Y-73530223D01*
X117307304Y-73331929D01*
X117235611Y-73317790D01*
X116217424Y-73317790D01*
X116214959Y-73312349D01*
X116185154Y-73175954D01*
X116686018Y-73175954D01*
X116763457Y-73253393D01*
X116840896Y-73175954D01*
X116763457Y-73098515D01*
X116686018Y-73175954D01*
X116185154Y-73175954D01*
X116151061Y-73019940D01*
X116079112Y-72984965D01*
X115941560Y-73208906D01*
X115775650Y-73412128D01*
X115511764Y-73459418D01*
X115496187Y-73454226D01*
X115214530Y-73526903D01*
X115086935Y-73645449D01*
X114855895Y-73860103D01*
X114772509Y-73957812D01*
X114512560Y-74210032D01*
X114279623Y-74268939D01*
X113947350Y-74178864D01*
X113542363Y-74099759D01*
X112947859Y-74060574D01*
X112287861Y-74070096D01*
X112159464Y-74076514D01*
X111645637Y-74083960D01*
X111303836Y-74058463D01*
X111202438Y-74004176D01*
X111226876Y-73955576D01*
X111184377Y-73872959D01*
X111011738Y-73925492D01*
X110813152Y-74090161D01*
X110713581Y-74265424D01*
X110832907Y-74387690D01*
X110880620Y-74443157D01*
X110693634Y-74480191D01*
X110374595Y-74430523D01*
X110257696Y-74244320D01*
X110423096Y-73962831D01*
X110549867Y-73805394D01*
X110542802Y-73734256D01*
X111352755Y-73734256D01*
X111435869Y-73827354D01*
X111632682Y-73849882D01*
X111729920Y-73645449D01*
X111697662Y-73531385D01*
X111498493Y-73506800D01*
X111393988Y-73570229D01*
X111352755Y-73734256D01*
X110542802Y-73734256D01*
X110540678Y-73712875D01*
X110533454Y-73711966D01*
X110562990Y-73613522D01*
X110778065Y-73403949D01*
X110781686Y-73400942D01*
X111077444Y-73213562D01*
X111279645Y-73184829D01*
X111338950Y-73194219D01*
X111328134Y-73038900D01*
X111255641Y-72936114D01*
X111020151Y-72892548D01*
X110853718Y-72863823D01*
X110800652Y-72573012D01*
X110798156Y-72553329D01*
X120281303Y-72553329D01*
X120299839Y-72737133D01*
X120346423Y-72761363D01*
X120403091Y-72633881D01*
X120391914Y-72551889D01*
X120299839Y-72530629D01*
X120281303Y-72553329D01*
X110798156Y-72553329D01*
X110766336Y-72302397D01*
X110668390Y-72169247D01*
X110450298Y-72274985D01*
X110156924Y-72529746D01*
X109897447Y-72826905D01*
X109778457Y-73059796D01*
X109761326Y-73325199D01*
X109750570Y-73526121D01*
X109739737Y-73728464D01*
X109730109Y-73849866D01*
X109656346Y-74066905D01*
X109471087Y-74125529D01*
X109121541Y-74027858D01*
X108554920Y-73776009D01*
X108090286Y-73555862D01*
X108593640Y-74031990D01*
X108898034Y-74354058D01*
X109079759Y-74661797D01*
X109012298Y-74801629D01*
X108713872Y-74752121D01*
X108202701Y-74491839D01*
X107973756Y-74355370D01*
X107698002Y-74214236D01*
X107655175Y-74248595D01*
X75765176Y-74248595D01*
X75912781Y-74173808D01*
X76278416Y-73998718D01*
X76778049Y-73733257D01*
X77021204Y-73517609D01*
X77021774Y-73469577D01*
X107590159Y-73469577D01*
X107592557Y-73522447D01*
X107793436Y-73550922D01*
X107945673Y-73526121D01*
X107887009Y-73457350D01*
X107797446Y-73432605D01*
X107590159Y-73469577D01*
X77021774Y-73469577D01*
X77023807Y-73298289D01*
X76801782Y-73021814D01*
X76371055Y-72634698D01*
X76165112Y-72438740D01*
X75944065Y-72157400D01*
X75914393Y-71991116D01*
X76074073Y-71969146D01*
X76453688Y-72034065D01*
X76960696Y-72171519D01*
X77510214Y-72355317D01*
X78017361Y-72559270D01*
X78397254Y-72757187D01*
X78491513Y-72813471D01*
X78771807Y-72902639D01*
X78869620Y-72804074D01*
X78734607Y-72548865D01*
X78531929Y-72356748D01*
X77993633Y-72033096D01*
X77355637Y-71796395D01*
X76753939Y-71704613D01*
X76651450Y-71707130D01*
X76147611Y-71749000D01*
X75488901Y-71831733D01*
X74790488Y-71941438D01*
X74504597Y-71989390D01*
X73940451Y-72071444D01*
X73534316Y-72112844D01*
X73359382Y-72105213D01*
X73355315Y-72094480D01*
X73474979Y-71958543D01*
X73787072Y-71724666D01*
X74224291Y-71435760D01*
X74719336Y-71134733D01*
X75204903Y-70864495D01*
X75613690Y-70667954D01*
X76175219Y-70433333D01*
X75718451Y-70100985D01*
X75285829Y-69768947D01*
X74871717Y-69425056D01*
X74481749Y-69081475D01*
X75220371Y-69076580D01*
X75551397Y-69070854D01*
X75821778Y-69030107D01*
X75900444Y-68910621D01*
X75857513Y-68667361D01*
X75813168Y-68454399D01*
X75867147Y-68324736D01*
X76125599Y-68372663D01*
X76239827Y-68412342D01*
X76707600Y-68651311D01*
X77346793Y-69072410D01*
X78183130Y-69692136D01*
X78393888Y-69838762D01*
X78959827Y-70092053D01*
X79618086Y-70184267D01*
X80410417Y-70113324D01*
X81378572Y-69877140D01*
X82564302Y-69473634D01*
X83014360Y-69305452D01*
X83932650Y-68956914D01*
X84614727Y-68684016D01*
X85099838Y-68465895D01*
X85427228Y-68281686D01*
X85636143Y-68110523D01*
X85765829Y-67931544D01*
X85855531Y-67723882D01*
X86095327Y-67285915D01*
X86439333Y-66905914D01*
X86476390Y-66876320D01*
X86715484Y-66655074D01*
X86779479Y-66535008D01*
X86585929Y-66405433D01*
X86010472Y-66191283D01*
X85233844Y-66048107D01*
X85025383Y-66018858D01*
X84405551Y-65896502D01*
X83710188Y-65722753D01*
X83015038Y-65520575D01*
X82395846Y-65312935D01*
X81928357Y-65122796D01*
X81688315Y-64973125D01*
X81681581Y-64963572D01*
X81762279Y-64861198D01*
X82090456Y-64771244D01*
X82609005Y-64698328D01*
X83260817Y-64647068D01*
X83988784Y-64622081D01*
X84735798Y-64627984D01*
X85444751Y-64669395D01*
X85989425Y-64709663D01*
X86408455Y-64703003D01*
X86691547Y-64627988D01*
X86929932Y-64472524D01*
X87164959Y-64252681D01*
X87205670Y-64046545D01*
X87064174Y-63719148D01*
X86909819Y-63347165D01*
X86735557Y-62776126D01*
X86593489Y-62166172D01*
X86508635Y-61627141D01*
X86506015Y-61268868D01*
X86509273Y-61253898D01*
X86585456Y-61156169D01*
X86745876Y-61274507D01*
X87026871Y-61634414D01*
X87190990Y-61859589D01*
X87470092Y-62233369D01*
X87649127Y-62460918D01*
X87711859Y-62550847D01*
X87896935Y-62891817D01*
X88104452Y-63341198D01*
X88334111Y-63849148D01*
X88577325Y-64263857D01*
X88782171Y-64410962D01*
X88886147Y-64355538D01*
X114520274Y-64355538D01*
X114571888Y-64526486D01*
X114748031Y-64733432D01*
X114961961Y-64831901D01*
X115405945Y-64817246D01*
X115415828Y-64814788D01*
X115676686Y-64775146D01*
X115719056Y-64824420D01*
X115692832Y-64863336D01*
X115725561Y-65065949D01*
X115892980Y-65245091D01*
X116084054Y-65266328D01*
X116155588Y-65229248D01*
X116218610Y-65272643D01*
X116103145Y-65495114D01*
X115826809Y-65856262D01*
X115756977Y-65943969D01*
X115541803Y-66299204D01*
X115478334Y-66562736D01*
X115594944Y-66795257D01*
X115848257Y-66839027D01*
X116168885Y-66618664D01*
X116419722Y-66414858D01*
X116763457Y-66260293D01*
X116936162Y-66179303D01*
X117109050Y-65903026D01*
X117115724Y-65570793D01*
X116931323Y-65321623D01*
X116907927Y-65308094D01*
X116766873Y-65137851D01*
X116777806Y-65104015D01*
X117150652Y-65104015D01*
X117164579Y-65208628D01*
X117305530Y-65432052D01*
X117382947Y-65448585D01*
X117460408Y-65295455D01*
X117446481Y-65190842D01*
X117305530Y-64967418D01*
X117228113Y-64950885D01*
X117150652Y-65104015D01*
X116777806Y-65104015D01*
X116856209Y-64861365D01*
X116918972Y-64695682D01*
X116883844Y-64492787D01*
X116689888Y-64225488D01*
X116299778Y-63824208D01*
X116167831Y-63696176D01*
X116009877Y-63555587D01*
X128209884Y-63555587D01*
X128270841Y-63812930D01*
X128636204Y-64108685D01*
X128721211Y-64158572D01*
X129109313Y-64343627D01*
X129386018Y-64412538D01*
X129507401Y-64392182D01*
X129424737Y-64322772D01*
X129302327Y-64188511D01*
X129231140Y-63870365D01*
X129155327Y-63549900D01*
X128921384Y-63186320D01*
X128771395Y-63015540D01*
X128620691Y-62639011D01*
X128772688Y-62312821D01*
X128822622Y-62109399D01*
X128710980Y-61924368D01*
X129246142Y-61924368D01*
X129291841Y-62295580D01*
X129463457Y-62411930D01*
X129584432Y-62389356D01*
X129692716Y-62229845D01*
X129555637Y-62033846D01*
X129522519Y-61991234D01*
X129468542Y-61713054D01*
X129475645Y-61289035D01*
X129476883Y-61275429D01*
X129501266Y-60913609D01*
X129477419Y-60835390D01*
X129398902Y-61018028D01*
X129301750Y-61416012D01*
X129246578Y-61908576D01*
X129246142Y-61924368D01*
X128710980Y-61924368D01*
X128622963Y-61778491D01*
X128312177Y-61405223D01*
X128311279Y-61571757D01*
X128307024Y-62360543D01*
X128295336Y-62805827D01*
X128260025Y-63278204D01*
X128210289Y-63554524D01*
X128209884Y-63555587D01*
X116009877Y-63555587D01*
X115833267Y-63398393D01*
X115674365Y-63318611D01*
X115670187Y-63444191D01*
X115676082Y-63737853D01*
X115428012Y-64018525D01*
X115165788Y-64157891D01*
X114957119Y-64177428D01*
X114910671Y-64160278D01*
X114827481Y-64270467D01*
X114815091Y-64330487D01*
X114672603Y-64347906D01*
X114612167Y-64317593D01*
X114520274Y-64355538D01*
X88886147Y-64355538D01*
X88977256Y-64306973D01*
X89191187Y-63968402D01*
X89287168Y-63771842D01*
X89395095Y-63434428D01*
X89382736Y-63095141D01*
X89238997Y-62664936D01*
X88952785Y-62054768D01*
X88688056Y-61547506D01*
X88299980Y-60947099D01*
X87865405Y-60496681D01*
X87319358Y-60147359D01*
X86596870Y-59850240D01*
X85632969Y-59556428D01*
X85017696Y-59362659D01*
X84272329Y-59095200D01*
X83569134Y-58815197D01*
X83018572Y-58570686D01*
X82708177Y-58398810D01*
X82615354Y-58278612D01*
X82702877Y-58182918D01*
X82703077Y-58182806D01*
X83014286Y-58115048D01*
X83549259Y-58100422D01*
X84227791Y-58132935D01*
X84969680Y-58206594D01*
X85694724Y-58315408D01*
X86322718Y-58453383D01*
X86683082Y-58542444D01*
X87065494Y-58610768D01*
X87244897Y-58605896D01*
X87242311Y-58539819D01*
X87140516Y-58245522D01*
X86938757Y-57777470D01*
X86663504Y-57199688D01*
X86493953Y-56851049D01*
X86256186Y-56332731D01*
X86105608Y-55963377D01*
X86069243Y-55806347D01*
X86071001Y-55804982D01*
X86220427Y-55867312D01*
X86525758Y-56071258D01*
X86911532Y-56358607D01*
X87302286Y-56671153D01*
X87622557Y-56950684D01*
X87796883Y-57138992D01*
X87873915Y-57242459D01*
X88036892Y-57290918D01*
X88147624Y-57065564D01*
X88188457Y-56591097D01*
X88191136Y-56429084D01*
X88245544Y-56036475D01*
X88370640Y-55941967D01*
X88402051Y-55961477D01*
X88568246Y-56194670D01*
X88783115Y-56616104D01*
X89011521Y-57141028D01*
X89218331Y-57684689D01*
X89368410Y-58162337D01*
X89426623Y-58489219D01*
X89535649Y-58877151D01*
X89866220Y-59397834D01*
X90368508Y-59973269D01*
X90991978Y-60552052D01*
X91686091Y-61082776D01*
X92400311Y-61514035D01*
X93476198Y-62037412D01*
X94545139Y-62495215D01*
X95491001Y-62835705D01*
X96246102Y-63032165D01*
X96688746Y-63116790D01*
X97140611Y-63213705D01*
X97394718Y-63281743D01*
X97441427Y-63285639D01*
X97689570Y-63164113D01*
X98020415Y-62895507D01*
X98354928Y-62557365D01*
X98614075Y-62227227D01*
X98718821Y-61982638D01*
X98718346Y-61975671D01*
X98582991Y-61791615D01*
X98253468Y-61510085D01*
X97797148Y-61189089D01*
X97746912Y-61156416D01*
X97318130Y-60858229D01*
X97035317Y-60626554D01*
X96957478Y-60509169D01*
X96927373Y-60437346D01*
X96698702Y-60247125D01*
X96313690Y-59999695D01*
X96264532Y-59970396D01*
X95762535Y-59639387D01*
X95160548Y-59202817D01*
X94578179Y-58747017D01*
X94450248Y-58641711D01*
X94023815Y-58276382D01*
X93813439Y-58056617D01*
X93793398Y-57949228D01*
X93937971Y-57921028D01*
X94001535Y-57925764D01*
X94380175Y-58009933D01*
X94924770Y-58174192D01*
X95542566Y-58385645D01*
X96140808Y-58611397D01*
X96626740Y-58818551D01*
X96907609Y-58974212D01*
X97126941Y-59102312D01*
X97561482Y-59301719D01*
X98100140Y-59522063D01*
X98646482Y-59725861D01*
X99104074Y-59875629D01*
X99376482Y-59933881D01*
X99382723Y-59933623D01*
X99537618Y-59776229D01*
X99688948Y-59365092D01*
X99824684Y-58753897D01*
X99932793Y-57996330D01*
X100001243Y-57146076D01*
X100036627Y-56449125D01*
X100406128Y-57223515D01*
X100614008Y-57755358D01*
X100766658Y-58453969D01*
X100850987Y-59353089D01*
X100887020Y-59833815D01*
X100969837Y-60400194D01*
X101068790Y-60673717D01*
X101170129Y-60663501D01*
X101260106Y-60378661D01*
X101324972Y-59828314D01*
X101350976Y-59021577D01*
X101348219Y-58805883D01*
X101256781Y-58021427D01*
X101015882Y-57356638D01*
X100896263Y-57128396D01*
X100701634Y-56807447D01*
X100583515Y-56681442D01*
X100514073Y-56647412D01*
X100265201Y-56454549D01*
X99922899Y-56148086D01*
X99617103Y-55894092D01*
X99047746Y-55502769D01*
X98458010Y-55167543D01*
X98032545Y-54942143D01*
X97403367Y-54568237D01*
X96766152Y-54151043D01*
X96154151Y-53717408D01*
X95600614Y-53294176D01*
X95138791Y-52908191D01*
X94801932Y-52586300D01*
X94623287Y-52355347D01*
X94636106Y-52242178D01*
X94873640Y-52273637D01*
X95121018Y-52380002D01*
X95343145Y-52554844D01*
X95393863Y-52614175D01*
X95543843Y-52630121D01*
X95549909Y-52626278D01*
X95750167Y-52653540D01*
X96163826Y-52779288D01*
X96727822Y-52978810D01*
X97379092Y-53227390D01*
X98054572Y-53500315D01*
X98691200Y-53772869D01*
X99225911Y-54020339D01*
X99595643Y-54218009D01*
X99719068Y-54290212D01*
X100048474Y-54439008D01*
X100227492Y-54451350D01*
X100234101Y-54440781D01*
X100237845Y-54216712D01*
X100176928Y-53786856D01*
X100062483Y-53233378D01*
X99894617Y-52431587D01*
X99805242Y-51768854D01*
X99817220Y-51362513D01*
X99928004Y-51222477D01*
X100135045Y-51358657D01*
X100435797Y-51780963D01*
X100732421Y-52267418D01*
X100733000Y-51673719D01*
X100734320Y-51579404D01*
X100788817Y-51220110D01*
X100927176Y-51143325D01*
X101017295Y-51223076D01*
X101203447Y-51539302D01*
X101410544Y-52008469D01*
X101603699Y-52540116D01*
X101748027Y-53043781D01*
X101808641Y-53429003D01*
X101808770Y-53433088D01*
X101877409Y-53736042D01*
X102042202Y-54204873D01*
X102263684Y-54747852D01*
X102502392Y-55273250D01*
X102718861Y-55689337D01*
X102873625Y-55904384D01*
X102948418Y-56000949D01*
X103134704Y-56314581D01*
X103366506Y-56752775D01*
X103570211Y-57114512D01*
X103976706Y-57728701D01*
X104405893Y-58285223D01*
X104654623Y-58550169D01*
X105234137Y-59083110D01*
X105973281Y-59697035D01*
X106807686Y-60341190D01*
X107672983Y-60964821D01*
X108504803Y-61517173D01*
X108730987Y-61660982D01*
X109152381Y-61935818D01*
X109434785Y-62129153D01*
X109569766Y-62196185D01*
X109764435Y-62165370D01*
X110044564Y-61974685D01*
X110473576Y-61591289D01*
X110895562Y-61225365D01*
X111256990Y-60963179D01*
X111477777Y-60863150D01*
X111485093Y-60863418D01*
X111716244Y-61002539D01*
X112044430Y-61357583D01*
X112427010Y-61871485D01*
X112821343Y-62487180D01*
X113184787Y-63147601D01*
X113269669Y-63312944D01*
X113508857Y-63733210D01*
X113667132Y-63940177D01*
X113724185Y-63913155D01*
X113659706Y-63631452D01*
X113656298Y-63620420D01*
X113667281Y-63297442D01*
X113936858Y-62973221D01*
X114019816Y-62895441D01*
X114245525Y-62620021D01*
X114415413Y-62333396D01*
X114501240Y-62103300D01*
X114474765Y-61997467D01*
X114307748Y-62083633D01*
X114149589Y-62189782D01*
X114053091Y-62179613D01*
X114008042Y-62148940D01*
X113820706Y-62257108D01*
X113697839Y-62337816D01*
X113579646Y-62279885D01*
X113490946Y-61963093D01*
X113397364Y-61620075D01*
X113342147Y-61531004D01*
X114308320Y-61531004D01*
X114383618Y-61727816D01*
X114391376Y-61731821D01*
X114480870Y-61639536D01*
X114517725Y-61336924D01*
X114515162Y-61183546D01*
X114479133Y-60906908D01*
X114411020Y-60928491D01*
X114324234Y-61254041D01*
X114308320Y-61531004D01*
X113342147Y-61531004D01*
X113269392Y-61413643D01*
X113163844Y-61476566D01*
X113115699Y-61821997D01*
X113107575Y-62334491D01*
X112844662Y-61947296D01*
X112526303Y-61542978D01*
X112102662Y-61124810D01*
X111695620Y-60823796D01*
X111385648Y-60708271D01*
X111238502Y-60684615D01*
X111110408Y-60556583D01*
X111041440Y-60426520D01*
X110795648Y-60138480D01*
X110433097Y-59780572D01*
X110359749Y-59710659D01*
X109990929Y-59312501D01*
X109578130Y-58811528D01*
X109170870Y-58274993D01*
X108818665Y-57770145D01*
X108571030Y-57364236D01*
X108477481Y-57124517D01*
X108507047Y-57098083D01*
X108730804Y-57163773D01*
X109131362Y-57366936D01*
X109657452Y-57680169D01*
X110257805Y-58076070D01*
X110319268Y-58119781D01*
X110757180Y-58471557D01*
X111286921Y-58944177D01*
X111807359Y-59448093D01*
X111916129Y-59557435D01*
X112463195Y-60053960D01*
X112891358Y-60320443D01*
X113248690Y-60378594D01*
X113583262Y-60250125D01*
X113705129Y-60196502D01*
X113994835Y-60259558D01*
X114119146Y-60288471D01*
X114128627Y-60276988D01*
X116066506Y-60276988D01*
X116135354Y-60431901D01*
X116404249Y-60573022D01*
X116761291Y-60600788D01*
X117081460Y-60489076D01*
X117141372Y-60431305D01*
X117229244Y-60166108D01*
X117163997Y-59900078D01*
X116968767Y-59779003D01*
X116898624Y-59714421D01*
X116918335Y-59469247D01*
X116946178Y-59280068D01*
X116851333Y-59159491D01*
X116734768Y-59026210D01*
X116686018Y-58703997D01*
X116671846Y-58417821D01*
X116600048Y-58190612D01*
X116488155Y-58233536D01*
X116359439Y-58528306D01*
X116237175Y-59056638D01*
X116158416Y-59536198D01*
X116092021Y-60004470D01*
X116066506Y-60276988D01*
X114128627Y-60276988D01*
X114274485Y-60100337D01*
X114404864Y-59697454D01*
X114414839Y-59640703D01*
X115021852Y-59640703D01*
X115038587Y-59779003D01*
X115124323Y-59667031D01*
X115269624Y-59348638D01*
X115434521Y-58920775D01*
X115583701Y-58481468D01*
X115681851Y-58128742D01*
X115693655Y-57960625D01*
X115659975Y-57934477D01*
X115472780Y-57970011D01*
X115278019Y-58221291D01*
X115118654Y-58615121D01*
X115037646Y-59078304D01*
X115027280Y-59290547D01*
X115021852Y-59640703D01*
X114414839Y-59640703D01*
X114503769Y-59134760D01*
X114564684Y-58467195D01*
X114581095Y-57749697D01*
X114546486Y-57037206D01*
X114454343Y-56384660D01*
X114426118Y-56242767D01*
X114377119Y-55899673D01*
X114421157Y-55773495D01*
X114571252Y-55799006D01*
X114604297Y-55810734D01*
X114779482Y-55786506D01*
X114827481Y-55514996D01*
X114789564Y-55265053D01*
X114672603Y-55132662D01*
X114601768Y-55106920D01*
X114517725Y-54901657D01*
X114452051Y-54718828D01*
X114207969Y-54477207D01*
X114014521Y-54329042D01*
X113898213Y-54159662D01*
X113804666Y-53973715D01*
X113574659Y-53693564D01*
X113557074Y-53674566D01*
X113301195Y-53356876D01*
X112956173Y-52881873D01*
X112591481Y-52344857D01*
X112555437Y-52290171D01*
X112186166Y-51760836D01*
X111838267Y-51309499D01*
X111582715Y-51028759D01*
X111448765Y-50896960D01*
X111173624Y-50545035D01*
X110954605Y-50168280D01*
X110822461Y-49836078D01*
X110807947Y-49617812D01*
X110941817Y-49582865D01*
X111056149Y-49670679D01*
X111363534Y-49945583D01*
X111820456Y-50371469D01*
X112388257Y-50912226D01*
X113028278Y-51531747D01*
X113573643Y-52058814D01*
X114151756Y-52605852D01*
X114624105Y-53039861D01*
X114952549Y-53325893D01*
X115098948Y-53429003D01*
X115139256Y-53353354D01*
X115193395Y-53027082D01*
X115238837Y-52502356D01*
X115268641Y-51843988D01*
X115284632Y-51366226D01*
X115312689Y-50781279D01*
X115343110Y-50369959D01*
X115371630Y-50200301D01*
X115457114Y-50193674D01*
X115616504Y-50402437D01*
X115800828Y-50820396D01*
X115993235Y-51390420D01*
X116176873Y-52055376D01*
X116334893Y-52758132D01*
X116450441Y-53441556D01*
X116506668Y-54048515D01*
X116526389Y-54378054D01*
X116636041Y-55324475D01*
X116817125Y-56392573D01*
X117050417Y-57496260D01*
X117167822Y-57960625D01*
X117316693Y-58549444D01*
X117596730Y-59466038D01*
X117871306Y-60159949D01*
X117874235Y-60166108D01*
X117920549Y-60263499D01*
X118158724Y-60789551D01*
X118326326Y-61201759D01*
X118365857Y-61336924D01*
X118389676Y-61418368D01*
X118422866Y-61481427D01*
X118656587Y-61704719D01*
X119065014Y-62021355D01*
X119589981Y-62384516D01*
X119837427Y-62547821D01*
X120388899Y-62915791D01*
X120839305Y-63221651D01*
X121109448Y-63411855D01*
X121177663Y-63461116D01*
X121387251Y-63555368D01*
X121611158Y-63493094D01*
X121961277Y-63253492D01*
X122397805Y-62997636D01*
X122919859Y-62917485D01*
X123213442Y-62945126D01*
X123345774Y-62927538D01*
X123293146Y-62831619D01*
X123103207Y-62544015D01*
X122822457Y-62141252D01*
X122607902Y-61822591D01*
X122338094Y-61367146D01*
X122186352Y-61037352D01*
X122182764Y-61025611D01*
X122136293Y-60833525D01*
X122174845Y-60762171D01*
X122339520Y-60827285D01*
X122671420Y-61044601D01*
X123211646Y-61429853D01*
X123522248Y-61648239D01*
X123851059Y-61863861D01*
X124011237Y-61947296D01*
X124149788Y-62012903D01*
X124478257Y-62208774D01*
X124916224Y-62489369D01*
X125321359Y-62742057D01*
X125705733Y-62951153D01*
X125924143Y-63031442D01*
X126072226Y-62908033D01*
X126559468Y-62908033D01*
X126711280Y-63101122D01*
X126871469Y-63154584D01*
X127160626Y-63150049D01*
X127322891Y-62915284D01*
X127329757Y-62895949D01*
X127458650Y-62552704D01*
X127627786Y-62121979D01*
X127734942Y-61848217D01*
X127821216Y-61571757D01*
X127778508Y-61514940D01*
X127604920Y-61637540D01*
X127447504Y-61738348D01*
X127372603Y-61656504D01*
X127365519Y-61603119D01*
X127226618Y-61482662D01*
X127152167Y-61540513D01*
X127138904Y-61785242D01*
X127131943Y-61976030D01*
X126914792Y-62177447D01*
X126722616Y-62310590D01*
X126572697Y-62601635D01*
X126559468Y-62908033D01*
X126072226Y-62908033D01*
X126083760Y-62898421D01*
X126208667Y-62577510D01*
X126335652Y-62220320D01*
X126530729Y-61939034D01*
X126643914Y-61815191D01*
X126753091Y-61541137D01*
X126767408Y-61451803D01*
X126907969Y-61327784D01*
X126930116Y-61322127D01*
X127024528Y-61138651D01*
X127062847Y-60776855D01*
X127063084Y-60742025D01*
X127100599Y-60267104D01*
X127187382Y-59764538D01*
X127302194Y-59318160D01*
X127423793Y-59011807D01*
X127530939Y-58929311D01*
X127589186Y-58909487D01*
X127572413Y-58695071D01*
X127561994Y-58478260D01*
X127744685Y-58385101D01*
X127839818Y-58366166D01*
X127924095Y-58198573D01*
X127851271Y-57840015D01*
X127720249Y-57522861D01*
X128044128Y-57522861D01*
X128111924Y-57641026D01*
X128313581Y-57765589D01*
X128393511Y-57727122D01*
X128395881Y-57520604D01*
X128354213Y-57393965D01*
X128301871Y-57102434D01*
X128275030Y-57010787D01*
X128126428Y-57104690D01*
X128054237Y-57217613D01*
X128044128Y-57522861D01*
X127720249Y-57522861D01*
X127615360Y-57268966D01*
X127210375Y-56463898D01*
X126782384Y-55505849D01*
X126421922Y-54350809D01*
X126206254Y-53204340D01*
X126163199Y-52180241D01*
X126211018Y-51338150D01*
X126813557Y-52732052D01*
X126923530Y-52987111D01*
X127248209Y-53746105D01*
X127558267Y-54478344D01*
X127799144Y-55055223D01*
X127999566Y-55508123D01*
X128234714Y-55969455D01*
X128415693Y-56249759D01*
X128536683Y-56460704D01*
X128552470Y-56767089D01*
X128517823Y-56908926D01*
X128552627Y-57175911D01*
X128567436Y-57186977D01*
X128697116Y-57076956D01*
X128905940Y-56753013D01*
X129156372Y-56271386D01*
X129338494Y-55896862D01*
X129680004Y-55251912D01*
X129941510Y-54861872D01*
X130141613Y-54701927D01*
X130298913Y-54747264D01*
X130339344Y-54925732D01*
X130306890Y-55331110D01*
X130208538Y-55869955D01*
X130063028Y-56457305D01*
X129889102Y-57008194D01*
X129705498Y-57437662D01*
X129680110Y-57520604D01*
X129600830Y-57779608D01*
X129607760Y-58286728D01*
X129619868Y-58360856D01*
X129661493Y-58772772D01*
X129704940Y-59400453D01*
X129745732Y-60172628D01*
X129779390Y-61018028D01*
X129789820Y-61319385D01*
X129821393Y-62120259D01*
X129826580Y-62229845D01*
X129853860Y-62806162D01*
X129883944Y-63312209D01*
G37*
G36*
X110026262Y-73950345D02*
G01*
X109948823Y-74027784D01*
X109871384Y-73950345D01*
X109948823Y-73872906D01*
X110026262Y-73950345D01*
G37*
G36*
X103868159Y-80227406D02*
G01*
X103986018Y-80377784D01*
X103981517Y-80414803D01*
X103831140Y-80532662D01*
X103794120Y-80528161D01*
X103676262Y-80377784D01*
X103680762Y-80340764D01*
X103831140Y-80222906D01*
X103868159Y-80227406D01*
G37*
G36*
X56903091Y-127150954D02*
G01*
X56794096Y-127242246D01*
X56361523Y-127424897D01*
X55897931Y-127439914D01*
X55540164Y-127274857D01*
X55400025Y-127167105D01*
X55354310Y-127274857D01*
X55354307Y-127275626D01*
X55218166Y-127406753D01*
X54889676Y-127460711D01*
X54425042Y-127460711D01*
X54425042Y-126248934D01*
X55380755Y-126248934D01*
X55517974Y-126538806D01*
X55869939Y-126659073D01*
X56077313Y-126673651D01*
X56251938Y-126601962D01*
X56257134Y-126349317D01*
X56119915Y-126059444D01*
X55767950Y-125939178D01*
X55560576Y-125924599D01*
X55385951Y-125996288D01*
X55380755Y-126248934D01*
X54425042Y-126248934D01*
X54425042Y-125982329D01*
X54429425Y-125366004D01*
X54454352Y-124873122D01*
X54515132Y-124551457D01*
X54627001Y-124326512D01*
X54805197Y-124123793D01*
X54933979Y-124011445D01*
X55478999Y-123771170D01*
X56082309Y-123787895D01*
X56649887Y-124064634D01*
X56677585Y-124086762D01*
X56947149Y-124345523D01*
X57057969Y-124534259D01*
X57005795Y-124651103D01*
X56752918Y-124795671D01*
X56409978Y-124851000D01*
X56112398Y-124781660D01*
X56087051Y-124766916D01*
X55771246Y-124700041D01*
X55481362Y-124782143D01*
X55354310Y-124977801D01*
X55359768Y-125000277D01*
X55542361Y-125097902D01*
X55903424Y-125137540D01*
X56109141Y-125153246D01*
X56625546Y-125352799D01*
X56999105Y-125724775D01*
X57193856Y-126196745D01*
X57187742Y-126349317D01*
X57173838Y-126696281D01*
X56903091Y-127150954D01*
G37*
G36*
X187341709Y-68166447D02*
G01*
X187404285Y-68425312D01*
X187440809Y-68934631D01*
X187447475Y-69652479D01*
X187441883Y-70032805D01*
X187426036Y-70543278D01*
X187400083Y-70781863D01*
X187359939Y-70773475D01*
X187301523Y-70543028D01*
X187260376Y-70313637D01*
X187196219Y-69746298D01*
X187169441Y-69165144D01*
X187179745Y-68650538D01*
X187226833Y-68282841D01*
X187310408Y-68142418D01*
X187341709Y-68166447D01*
G37*
G36*
X153584013Y-80692040D02*
G01*
X153701871Y-80842418D01*
X153697371Y-80879438D01*
X153546993Y-80997296D01*
X153509974Y-80992795D01*
X153392115Y-80842418D01*
X153396616Y-80805398D01*
X153546993Y-80687540D01*
X153584013Y-80692040D01*
G37*
G36*
X148436018Y-84327174D02*
G01*
X148358579Y-84404613D01*
X148281140Y-84327174D01*
X148358579Y-84249735D01*
X148436018Y-84327174D01*
G37*
G36*
X146342273Y-85427802D02*
G01*
X146380271Y-85640290D01*
X146343503Y-85822829D01*
X146234766Y-85953393D01*
X146233017Y-85953378D01*
X146125319Y-85837152D01*
X146136170Y-85603691D01*
X146258352Y-85417113D01*
X146342273Y-85427802D01*
G37*
G36*
X139025477Y-85183504D02*
G01*
X139143335Y-85333881D01*
X139138834Y-85370901D01*
X138988457Y-85488759D01*
X138951437Y-85484259D01*
X138833579Y-85333881D01*
X138838079Y-85296861D01*
X138988457Y-85179003D01*
X139025477Y-85183504D01*
G37*
G36*
X116840896Y-75344247D02*
G01*
X116763457Y-75421686D01*
X116686018Y-75344247D01*
X116763457Y-75266808D01*
X116840896Y-75344247D01*
G37*
G36*
X134496993Y-82468637D02*
G01*
X134419554Y-82546076D01*
X134342115Y-82468637D01*
X134419554Y-82391198D01*
X134496993Y-82468637D01*
G37*
G36*
X128456749Y-80145467D02*
G01*
X128379310Y-80222906D01*
X128301871Y-80145467D01*
X128379310Y-80068028D01*
X128456749Y-80145467D01*
G37*
G36*
X128611628Y-82468637D02*
G01*
X128534188Y-82546076D01*
X128456749Y-82468637D01*
X128534188Y-82391198D01*
X128611628Y-82468637D01*
G37*
G36*
X96964880Y-80739166D02*
G01*
X96989110Y-80785750D01*
X96861627Y-80842418D01*
X96779636Y-80831241D01*
X96758375Y-80739166D01*
X96781076Y-80720630D01*
X96964880Y-80739166D01*
G37*
G36*
X139453091Y-83243028D02*
G01*
X139375652Y-83320467D01*
X139298213Y-83243028D01*
X139375652Y-83165589D01*
X139453091Y-83243028D01*
G37*
G36*
X47847483Y-123744895D02*
G01*
X49125895Y-123755504D01*
X50139892Y-123776574D01*
X50878171Y-123807702D01*
X51329428Y-123848483D01*
X51482359Y-123898515D01*
X51447142Y-123923576D01*
X51150099Y-123969234D01*
X50560136Y-124005448D01*
X49688559Y-124031815D01*
X48546670Y-124047932D01*
X47145774Y-124053393D01*
X46444065Y-124052136D01*
X45165653Y-124041527D01*
X44151655Y-124020457D01*
X43413376Y-123989329D01*
X42962119Y-123948547D01*
X42809188Y-123898515D01*
X42844406Y-123873454D01*
X43141449Y-123827797D01*
X43731411Y-123791583D01*
X44602989Y-123765215D01*
X45744878Y-123749099D01*
X47145774Y-123743637D01*
X47847483Y-123744895D01*
G37*
G36*
X145183579Y-83243028D02*
G01*
X145106140Y-83320467D01*
X145028701Y-83243028D01*
X145106140Y-83165589D01*
X145183579Y-83243028D01*
G37*
G36*
X120278848Y-77931142D02*
G01*
X120329832Y-78047849D01*
X120260152Y-78107066D01*
X120010936Y-78108718D01*
X119840914Y-78026567D01*
X119823413Y-77934129D01*
X120102475Y-77899735D01*
X120278848Y-77931142D01*
G37*
G36*
X131244554Y-77512540D02*
G01*
X131167115Y-77589979D01*
X131089676Y-77512540D01*
X131167115Y-77435101D01*
X131244554Y-77512540D01*
G37*
G36*
X110063271Y-55609821D02*
G01*
X110447556Y-55731025D01*
X110945465Y-55963408D01*
X111477402Y-56260164D01*
X111963772Y-56574491D01*
X112324977Y-56859583D01*
X112481421Y-57068637D01*
X112556466Y-57295243D01*
X112776621Y-57649430D01*
X112878400Y-57769117D01*
X112921366Y-57893944D01*
X112721912Y-57913028D01*
X112619440Y-57903078D01*
X112125838Y-57729484D01*
X111452085Y-57335752D01*
X110586403Y-56715276D01*
X110482869Y-56634987D01*
X110006097Y-56212006D01*
X109756514Y-55883816D01*
X109746276Y-55673012D01*
X109987542Y-55602192D01*
X110063271Y-55609821D01*
G37*
G36*
X138678701Y-85024125D02*
G01*
X138667523Y-85106117D01*
X138575449Y-85127377D01*
X138556913Y-85104677D01*
X138575449Y-84920873D01*
X138622033Y-84896643D01*
X138678701Y-85024125D01*
G37*
G36*
X117150652Y-75111930D02*
G01*
X117139475Y-75193922D01*
X117047400Y-75215182D01*
X117028864Y-75192482D01*
X117047400Y-75008678D01*
X117093984Y-74984448D01*
X117150652Y-75111930D01*
G37*
G36*
X68518945Y-124544552D02*
G01*
X68517953Y-125016421D01*
X68507427Y-125822720D01*
X68481469Y-126392284D01*
X68435240Y-126774804D01*
X68363904Y-127019972D01*
X68262623Y-127177479D01*
X67984607Y-127363774D01*
X67565672Y-127460711D01*
X67343555Y-127447220D01*
X67164223Y-127325829D01*
X67125042Y-126996076D01*
X67172921Y-126669969D01*
X67357359Y-126531442D01*
X67394169Y-126526575D01*
X67477232Y-126446937D01*
X67533558Y-126235155D01*
X67567905Y-125846849D01*
X67585026Y-125237640D01*
X67589676Y-124363150D01*
X67589676Y-122194857D01*
X68518945Y-122194857D01*
X68518945Y-124544552D01*
G37*
G36*
X47847483Y-127152212D02*
G01*
X49125895Y-127162821D01*
X50139892Y-127183891D01*
X50878171Y-127215019D01*
X51329428Y-127255800D01*
X51482359Y-127305832D01*
X51447142Y-127330893D01*
X51150099Y-127376551D01*
X50560136Y-127412765D01*
X49688559Y-127439132D01*
X48546670Y-127455249D01*
X47145774Y-127460711D01*
X46444065Y-127459453D01*
X45165653Y-127448844D01*
X44151655Y-127427774D01*
X43413376Y-127396646D01*
X42962119Y-127355864D01*
X42809188Y-127305832D01*
X42844406Y-127280771D01*
X43141449Y-127235114D01*
X43731411Y-127198900D01*
X44602989Y-127172533D01*
X45744878Y-127156416D01*
X47145774Y-127150954D01*
X47847483Y-127152212D01*
G37*
G36*
X121177481Y-75808881D02*
G01*
X121100042Y-75886320D01*
X121022603Y-75808881D01*
X121100042Y-75731442D01*
X121177481Y-75808881D01*
G37*
G36*
X146158927Y-93581846D02*
G01*
X146190286Y-93697296D01*
X146187381Y-93701675D01*
X145971965Y-93804818D01*
X145600353Y-93841288D01*
X145345557Y-93829396D01*
X145250682Y-93788026D01*
X145415896Y-93697296D01*
X145572632Y-93638093D01*
X145923024Y-93562111D01*
X146158927Y-93581846D01*
G37*
G36*
X155353904Y-96226971D02*
G01*
X155378134Y-96273555D01*
X155250652Y-96330223D01*
X155168660Y-96319045D01*
X155147400Y-96226971D01*
X155170100Y-96208435D01*
X155353904Y-96226971D01*
G37*
G36*
X116066506Y-74492418D02*
G01*
X116055328Y-74574410D01*
X115963254Y-74595670D01*
X115944718Y-74572970D01*
X115963254Y-74389166D01*
X116009838Y-74364936D01*
X116066506Y-74492418D01*
G37*
G36*
X138214067Y-84714369D02*
G01*
X138202889Y-84796361D01*
X138110814Y-84817621D01*
X138092279Y-84794921D01*
X138110814Y-84611117D01*
X138157399Y-84586887D01*
X138214067Y-84714369D01*
G37*
G36*
X151688457Y-82855832D02*
G01*
X151677280Y-82937824D01*
X151585205Y-82959084D01*
X151566669Y-82936384D01*
X151585205Y-82752580D01*
X151631789Y-82728350D01*
X151688457Y-82855832D01*
G37*
G36*
X125049432Y-77589979D02*
G01*
X125038255Y-77671971D01*
X124946180Y-77693231D01*
X124927644Y-77670531D01*
X124946180Y-77486727D01*
X124992765Y-77462497D01*
X125049432Y-77589979D01*
G37*
G36*
X122924421Y-57338829D02*
G01*
X123199445Y-57608074D01*
X123318191Y-58141148D01*
X123399504Y-58515217D01*
X123603617Y-58915539D01*
X123618146Y-58934059D01*
X123627860Y-58973707D01*
X123457227Y-58823086D01*
X123138476Y-58510275D01*
X122710110Y-58034750D01*
X122461733Y-57635590D01*
X122459279Y-57386739D01*
X122707298Y-57300954D01*
X122924421Y-57338829D01*
G37*
G36*
X138007562Y-85230629D02*
G01*
X138031793Y-85277214D01*
X137904310Y-85333881D01*
X137822318Y-85322704D01*
X137801058Y-85230629D01*
X137823758Y-85212093D01*
X138007562Y-85230629D01*
G37*
G36*
X148436018Y-81849125D02*
G01*
X148358579Y-81926564D01*
X148281140Y-81849125D01*
X148358579Y-81771686D01*
X148436018Y-81849125D01*
G37*
G36*
X46557165Y-126093793D02*
G01*
X46681140Y-126299125D01*
X46654155Y-126407467D01*
X46448823Y-126531442D01*
X46340480Y-126504458D01*
X46216506Y-126299125D01*
X46243490Y-126190783D01*
X46448823Y-126066808D01*
X46557165Y-126093793D01*
G37*
G36*
X113974091Y-81614282D02*
G01*
X113989431Y-81695485D01*
X113829914Y-81771686D01*
X113751718Y-81768657D01*
X113595302Y-81695496D01*
X113732633Y-81545983D01*
X113788478Y-81524937D01*
X113974091Y-81614282D01*
G37*
G36*
X144099432Y-85256442D02*
G01*
X144021993Y-85333881D01*
X143944554Y-85256442D01*
X144021993Y-85179003D01*
X144099432Y-85256442D01*
G37*
G36*
X110026262Y-73485710D02*
G01*
X109948823Y-73563150D01*
X109871384Y-73485710D01*
X109948823Y-73408271D01*
X110026262Y-73485710D01*
G37*
G36*
X120083518Y-77215690D02*
G01*
X120070668Y-77417542D01*
X119990083Y-77641605D01*
X119871256Y-77714115D01*
X119831351Y-77589111D01*
X119925312Y-77263989D01*
X120004274Y-77075212D01*
X120065112Y-77009856D01*
X120083518Y-77215690D01*
G37*
G36*
X149829920Y-84946686D02*
G01*
X149752481Y-85024125D01*
X149675042Y-84946686D01*
X149752481Y-84869247D01*
X149829920Y-84946686D01*
G37*
G36*
X63098213Y-127460711D02*
G01*
X62168945Y-127460711D01*
X62168945Y-126366382D01*
X62168389Y-126243736D01*
X62126270Y-125498949D01*
X62005865Y-125014459D01*
X61791261Y-124751900D01*
X61466544Y-124672906D01*
X61217020Y-124644612D01*
X61082683Y-124556747D01*
X61061978Y-124413588D01*
X60987181Y-124092113D01*
X60977799Y-124055503D01*
X60978628Y-123808832D01*
X61187151Y-123743637D01*
X61455577Y-123799993D01*
X61824727Y-123984737D01*
X62002135Y-124102887D01*
X62140948Y-124139256D01*
X62168945Y-123984737D01*
X62270510Y-123808900D01*
X62633579Y-123743637D01*
X63098213Y-123743637D01*
X63098213Y-127460711D01*
G37*
G36*
X152307969Y-81694247D02*
G01*
X152230530Y-81771686D01*
X152153091Y-81694247D01*
X152230530Y-81616808D01*
X152307969Y-81694247D01*
G37*
G36*
X51482359Y-125611882D02*
G01*
X51476980Y-126009660D01*
X51439793Y-126346973D01*
X51346323Y-126497184D01*
X51172603Y-126531442D01*
X51150351Y-126531176D01*
X50967271Y-126475984D01*
X50883114Y-126270030D01*
X50862847Y-125834491D01*
X50857681Y-125616102D01*
X50793535Y-125251063D01*
X50647100Y-125137540D01*
X50548663Y-125117540D01*
X50349148Y-124923317D01*
X50336829Y-124840529D01*
X50476185Y-124736117D01*
X50874651Y-124700708D01*
X51482359Y-124692321D01*
X51482359Y-125611882D01*
G37*
G36*
X50087606Y-125656406D02*
G01*
X50027800Y-126074001D01*
X49902603Y-126345589D01*
X49599836Y-126501630D01*
X49191155Y-126502385D01*
X48869740Y-126323594D01*
X48767446Y-126104668D01*
X48901211Y-125980276D01*
X49259620Y-126008979D01*
X49497668Y-126032411D01*
X49623823Y-125928720D01*
X49623784Y-125926497D01*
X49485345Y-125806748D01*
X49159188Y-125757052D01*
X48983011Y-125750110D01*
X48751681Y-125657127D01*
X48694554Y-125400832D01*
X48708511Y-125292418D01*
X49159188Y-125292418D01*
X49185399Y-125363666D01*
X49391506Y-125447296D01*
X49498378Y-125429822D01*
X49623823Y-125292418D01*
X49597612Y-125221169D01*
X49391506Y-125137540D01*
X49284633Y-125155013D01*
X49159188Y-125292418D01*
X48708511Y-125292418D01*
X48726237Y-125154724D01*
X48962598Y-124801322D01*
X49391506Y-124672906D01*
X49734997Y-124745490D01*
X50001405Y-125050103D01*
X50039614Y-125292418D01*
X50088457Y-125602174D01*
X50087606Y-125656406D01*
G37*
G36*
X114827481Y-74569857D02*
G01*
X114750042Y-74647296D01*
X114672603Y-74569857D01*
X114750042Y-74492418D01*
X114827481Y-74569857D01*
G37*
G36*
X138896662Y-85606327D02*
G01*
X139167455Y-85675718D01*
X139232408Y-85779691D01*
X139168409Y-85809616D01*
X138868536Y-85834694D01*
X138421103Y-85816434D01*
X138228747Y-85799090D01*
X137920461Y-85757172D01*
X137880832Y-85708868D01*
X138080283Y-85638759D01*
X138150098Y-85621752D01*
X138523164Y-85584133D01*
X138896662Y-85606327D01*
G37*
G36*
X135053856Y-80973366D02*
G01*
X135006046Y-81042167D01*
X134875048Y-81152174D01*
X134853396Y-81150666D01*
X134819289Y-81061013D01*
X134985557Y-80905067D01*
X135072110Y-80867384D01*
X135053856Y-80973366D01*
G37*
G36*
X156025042Y-116455229D02*
G01*
X156019090Y-116500184D01*
X155870164Y-116619247D01*
X155835114Y-116617471D01*
X155715286Y-116550948D01*
X155722413Y-116526105D01*
X155870164Y-116386930D01*
X155930158Y-116362730D01*
X156025042Y-116455229D01*
G37*
G36*
X116376262Y-75344247D02*
G01*
X116298823Y-75421686D01*
X116221384Y-75344247D01*
X116298823Y-75266808D01*
X116376262Y-75344247D01*
G37*
G36*
X58021346Y-123773167D02*
G01*
X58177243Y-123793182D01*
X58374332Y-123867017D01*
X58518081Y-124046568D01*
X58651188Y-124396796D01*
X58816354Y-124982662D01*
X59129320Y-126144247D01*
X59427459Y-124943942D01*
X59542866Y-124489474D01*
X59670361Y-124070781D01*
X59793744Y-123847972D01*
X59951800Y-123759456D01*
X60183318Y-123743637D01*
X60237328Y-123743012D01*
X60408687Y-123740417D01*
X60517054Y-123770611D01*
X60557888Y-123877514D01*
X60526645Y-124105047D01*
X60418782Y-124497134D01*
X60229755Y-125097694D01*
X59955021Y-125950650D01*
X59785604Y-126466464D01*
X59597052Y-126978882D01*
X59443667Y-127280980D01*
X59297229Y-127424382D01*
X59129516Y-127460711D01*
X59078384Y-127457986D01*
X58931842Y-127399805D01*
X58791089Y-127230542D01*
X58632178Y-126903869D01*
X58431162Y-126373459D01*
X58164094Y-125592984D01*
X57539303Y-123725257D01*
X58021346Y-123773167D01*
G37*
G36*
X151056717Y-83539877D02*
G01*
X151045766Y-83696964D01*
X150975372Y-83743155D01*
X150944682Y-83688361D01*
X150963145Y-83446305D01*
X151018893Y-83374617D01*
X151056717Y-83539877D01*
G37*
G36*
X103676262Y-80919857D02*
G01*
X103598823Y-80997296D01*
X103521384Y-80919857D01*
X103598823Y-80842418D01*
X103676262Y-80919857D01*
G37*
G36*
X120545742Y-76570365D02*
G01*
X120534791Y-76727452D01*
X120464397Y-76773642D01*
X120433706Y-76718849D01*
X120452170Y-76476793D01*
X120507917Y-76405105D01*
X120545742Y-76570365D01*
G37*
G36*
X45746422Y-126541624D02*
G01*
X45733062Y-126564886D01*
X45440736Y-126789809D01*
X45047394Y-126825232D01*
X44698701Y-126655345D01*
X44625178Y-126510660D01*
X44544290Y-126114838D01*
X44512847Y-125602174D01*
X44513310Y-125589267D01*
X44977481Y-125589267D01*
X45009953Y-126034401D01*
X45104530Y-126326214D01*
X45236403Y-126379585D01*
X45380450Y-126158991D01*
X45434610Y-125833595D01*
X45407345Y-125415756D01*
X45312589Y-125050363D01*
X45171079Y-124865524D01*
X45086030Y-124877852D01*
X45003170Y-125096838D01*
X44977481Y-125589267D01*
X44513310Y-125589267D01*
X44527446Y-125195401D01*
X44632105Y-124703642D01*
X44859494Y-124440923D01*
X45235325Y-124363150D01*
X45246762Y-124363244D01*
X45611561Y-124507424D01*
X45832487Y-124922117D01*
X45906749Y-125602174D01*
X45904376Y-125716287D01*
X45891073Y-125833595D01*
X45850032Y-126195488D01*
X45746422Y-126541624D01*
G37*
G36*
X121022603Y-75421686D02*
G01*
X121011426Y-75503678D01*
X120919351Y-75524938D01*
X120900815Y-75502238D01*
X120919351Y-75318434D01*
X120965936Y-75294204D01*
X121022603Y-75421686D01*
G37*
G36*
X126907969Y-77977174D02*
G01*
X126830530Y-78054613D01*
X126753091Y-77977174D01*
X126830530Y-77899735D01*
X126907969Y-77977174D01*
G37*
G36*
X149365286Y-85411320D02*
G01*
X149287847Y-85488759D01*
X149210408Y-85411320D01*
X149287847Y-85333881D01*
X149365286Y-85411320D01*
G37*
%TO.C,U1*%
X259187659Y-118287348D02*
X259700311Y-118800000D01*
X254595000Y-123905311D02*
X255107652Y-123392659D01*
X250002341Y-119312652D02*
X249489689Y-118800000D01*
X255107652Y-114207341D02*
X254595000Y-113694689D01*
X254082348Y-123392659D02*
X254595000Y-123905311D01*
X249489689Y-118800000D02*
X250002341Y-118287348D01*
X254595000Y-113694689D02*
X254082348Y-114207341D01*
%TD*%
%LPC*%
D13*
%TO.C,H2*%
X37835000Y-54730000D02*
X37835000Y-126730000D01*
X39435000Y-53130000D02*
G75*
G03*
X37835000Y-54730000I0J-1600000D01*
G01*
X37835000Y-126730000D02*
G75*
G03*
X39435000Y-128330000I1600000J0D01*
G01*
X265835000Y-126730000D02*
X265835000Y-54730000D01*
X264235000Y-128330000D02*
G75*
G03*
X265835000Y-126730000I0J1600000D01*
G01*
X265835000Y-54730000D02*
G75*
G03*
X264235000Y-53130000I-1600000J0D01*
G01*
%TD*%
D14*
%TO.C,MX1*%
X56987500Y-62250000D03*
X46827500Y-62250000D03*
D15*
X48097500Y-59710000D03*
D16*
X51907500Y-62250000D03*
D15*
X54447500Y-57170000D03*
%TD*%
D14*
%TO.C,MX2*%
X80800000Y-62250000D03*
X70640000Y-62250000D03*
D15*
X71910000Y-59710000D03*
D16*
X75720000Y-62250000D03*
D15*
X78260000Y-57170000D03*
%TD*%
D14*
%TO.C,MX3*%
X99850000Y-62250000D03*
X89690000Y-62250000D03*
D15*
X90960000Y-59710000D03*
D16*
X94770000Y-62250000D03*
D15*
X97310000Y-57170000D03*
%TD*%
D14*
%TO.C,MX4*%
X118900000Y-62250000D03*
X108740000Y-62250000D03*
D15*
X110010000Y-59710000D03*
D16*
X113820000Y-62250000D03*
D15*
X116360000Y-57170000D03*
%TD*%
D14*
%TO.C,MX5*%
X137950000Y-62250000D03*
X127790000Y-62250000D03*
D15*
X129060000Y-59710000D03*
D16*
X132870000Y-62250000D03*
D15*
X135410000Y-57170000D03*
%TD*%
D14*
%TO.C,MX7*%
X176050000Y-62250000D03*
X165890000Y-62250000D03*
D15*
X167160000Y-59710000D03*
D16*
X170970000Y-62250000D03*
D15*
X173510000Y-57170000D03*
%TD*%
D14*
%TO.C,MX8*%
X195100000Y-62250000D03*
X184940000Y-62250000D03*
D15*
X186210000Y-59710000D03*
D16*
X190020000Y-62250000D03*
D15*
X192560000Y-57170000D03*
%TD*%
D14*
%TO.C,MX9*%
X214150000Y-62250000D03*
X203990000Y-62250000D03*
D15*
X205260000Y-59710000D03*
D16*
X209070000Y-62250000D03*
D15*
X211610000Y-57170000D03*
%TD*%
D14*
%TO.C,MX10*%
X233200000Y-62250000D03*
X223040000Y-62250000D03*
D15*
X224310000Y-59710000D03*
D16*
X228120000Y-62250000D03*
D15*
X230660000Y-57170000D03*
%TD*%
D14*
%TO.C,MX11*%
X54606250Y-81300000D03*
X44446250Y-81300000D03*
D15*
X45716250Y-78760000D03*
D16*
X49526250Y-81300000D03*
D15*
X52066250Y-76220000D03*
%TD*%
D14*
%TO.C,MX12*%
X76037500Y-81300000D03*
X65877500Y-81300000D03*
D15*
X67147500Y-78760000D03*
D16*
X70957500Y-81300000D03*
D15*
X73497500Y-76220000D03*
%TD*%
D14*
%TO.C,MX13*%
X95087500Y-81300000D03*
X84927500Y-81300000D03*
D15*
X86197500Y-78760000D03*
D16*
X90007500Y-81300000D03*
D15*
X92547500Y-76220000D03*
%TD*%
D14*
%TO.C,MX14*%
X114137500Y-81300000D03*
X103977500Y-81300000D03*
D15*
X105247500Y-78760000D03*
D16*
X109057500Y-81300000D03*
D15*
X111597500Y-76220000D03*
%TD*%
D14*
%TO.C,MX15*%
X133187500Y-81300000D03*
X123027500Y-81300000D03*
D15*
X124297500Y-78760000D03*
D16*
X128107500Y-81300000D03*
D15*
X130647500Y-76220000D03*
%TD*%
D14*
%TO.C,MX17*%
X180812500Y-81300000D03*
X170652500Y-81300000D03*
D15*
X171922500Y-78760000D03*
D16*
X175732500Y-81300000D03*
D15*
X178272500Y-76220000D03*
%TD*%
D14*
%TO.C,MX18*%
X199862500Y-81300000D03*
X189702500Y-81300000D03*
D15*
X190972500Y-78760000D03*
D16*
X194782500Y-81300000D03*
D15*
X197322500Y-76220000D03*
%TD*%
D14*
%TO.C,MX19*%
X218912500Y-81300000D03*
X208752500Y-81300000D03*
D15*
X210022500Y-78760000D03*
D16*
X213832500Y-81300000D03*
D15*
X216372500Y-76220000D03*
%TD*%
D14*
%TO.C,MX20*%
X237962500Y-81300000D03*
X227802500Y-81300000D03*
D15*
X229072500Y-78760000D03*
D16*
X232882500Y-81300000D03*
D15*
X235422500Y-76220000D03*
%TD*%
%TO.C,MX21*%
X259393750Y-74315000D03*
D16*
X254313750Y-71775000D03*
D15*
X256853750Y-67965000D03*
D14*
X254313750Y-66695000D03*
X254313750Y-76855000D03*
D17*
X261298750Y-83713000D03*
X261298750Y-59837000D03*
D16*
X246058750Y-83713000D03*
X246058750Y-59837000D03*
%TD*%
D14*
%TO.C,MX22*%
X52225000Y-100350000D03*
X42065000Y-100350000D03*
D15*
X43335000Y-97810000D03*
D16*
X47145000Y-100350000D03*
D15*
X49685000Y-95270000D03*
%TD*%
D14*
%TO.C,MX23*%
X71275000Y-100350000D03*
X61115000Y-100350000D03*
D15*
X62385000Y-97810000D03*
D16*
X66195000Y-100350000D03*
D15*
X68735000Y-95270000D03*
%TD*%
D14*
%TO.C,MX24*%
X90325000Y-100350000D03*
X80165000Y-100350000D03*
D15*
X81435000Y-97810000D03*
D16*
X85245000Y-100350000D03*
D15*
X87785000Y-95270000D03*
%TD*%
D14*
%TO.C,MX25*%
X109375000Y-100350000D03*
X99215000Y-100350000D03*
D15*
X100485000Y-97810000D03*
D16*
X104295000Y-100350000D03*
D15*
X106835000Y-95270000D03*
%TD*%
D14*
%TO.C,MX26*%
X128425000Y-100350000D03*
X118265000Y-100350000D03*
D15*
X119535000Y-97810000D03*
D16*
X123345000Y-100350000D03*
D15*
X125885000Y-95270000D03*
%TD*%
D14*
%TO.C,MX29*%
X185575000Y-100350000D03*
X175415000Y-100350000D03*
D15*
X176685000Y-97810000D03*
D16*
X180495000Y-100350000D03*
D15*
X183035000Y-95270000D03*
%TD*%
D14*
%TO.C,MX30*%
X204625000Y-100350000D03*
X194465000Y-100350000D03*
D15*
X195735000Y-97810000D03*
D16*
X199545000Y-100350000D03*
D15*
X202085000Y-95270000D03*
%TD*%
D14*
%TO.C,MX31*%
X223675000Y-100350000D03*
X213515000Y-100350000D03*
D15*
X214785000Y-97810000D03*
D16*
X218595000Y-100350000D03*
D15*
X221135000Y-95270000D03*
%TD*%
D14*
%TO.C,MX32*%
X242725000Y-100350000D03*
X232565000Y-100350000D03*
D15*
X233835000Y-97810000D03*
D16*
X237645000Y-100350000D03*
D15*
X240185000Y-95270000D03*
%TD*%
D14*
%TO.C,MX33*%
X261775000Y-100350000D03*
X251615000Y-100350000D03*
D15*
X252885000Y-97810000D03*
D16*
X256695000Y-100350000D03*
D15*
X259235000Y-95270000D03*
%TD*%
D14*
%TO.C,MX34*%
X76037500Y-119400000D03*
X65877500Y-119400000D03*
D15*
X67147500Y-116860000D03*
D16*
X70957500Y-119400000D03*
D15*
X73497500Y-114320000D03*
%TD*%
D14*
%TO.C,MX35*%
X97468750Y-119400000D03*
X87308750Y-119400000D03*
D15*
X88578750Y-116860000D03*
D16*
X92388750Y-119400000D03*
D15*
X94928750Y-114320000D03*
%TD*%
D14*
%TO.C,MX36*%
X121281250Y-119400000D03*
X111121250Y-119400000D03*
D15*
X112391250Y-116860000D03*
D16*
X116201250Y-119400000D03*
D15*
X118741250Y-114320000D03*
%TD*%
D14*
%TO.C,MX37*%
X145093750Y-119400000D03*
X134933750Y-119400000D03*
D15*
X136203750Y-116860000D03*
D16*
X140013750Y-119400000D03*
D15*
X142553750Y-114320000D03*
%TD*%
D14*
%TO.C,MX38*%
X168906250Y-119400000D03*
X158746250Y-119400000D03*
D15*
X160016250Y-116860000D03*
D16*
X163826250Y-119400000D03*
D15*
X166366250Y-114320000D03*
%TD*%
D14*
%TO.C,MX39*%
X192718750Y-119400000D03*
X182558750Y-119400000D03*
D15*
X183828750Y-116860000D03*
D16*
X187638750Y-119400000D03*
D15*
X190178750Y-114320000D03*
%TD*%
D14*
%TO.C,MX40*%
X216531250Y-119400000D03*
X206371250Y-119400000D03*
D15*
X207641250Y-116860000D03*
D16*
X211451250Y-119400000D03*
D15*
X213991250Y-114320000D03*
%TD*%
D14*
%TO.C,MX41*%
X237962500Y-119400000D03*
X227802500Y-119400000D03*
D15*
X229072500Y-116860000D03*
D16*
X232882500Y-119400000D03*
D15*
X235422500Y-114320000D03*
%TD*%
%TO.C,MX6*%
X154460000Y-57170000D03*
D16*
X151920000Y-62250000D03*
D15*
X148110000Y-59710000D03*
D18*
X150650000Y-67330000D03*
D19*
X153190000Y-67330000D03*
D14*
X146840000Y-62250000D03*
X157000000Y-62250000D03*
%TD*%
D15*
%TO.C,MX16*%
X154460000Y-76220000D03*
D16*
X151920000Y-81300000D03*
D15*
X148110000Y-78760000D03*
D18*
X150650000Y-86380000D03*
D19*
X153190000Y-86380000D03*
D14*
X146840000Y-81300000D03*
X157000000Y-81300000D03*
%TD*%
D15*
%TO.C,MX27*%
X144935000Y-95270000D03*
D16*
X142395000Y-100350000D03*
D15*
X138585000Y-97810000D03*
D18*
X141125000Y-105430000D03*
D19*
X143665000Y-105430000D03*
D14*
X137315000Y-100350000D03*
X147475000Y-100350000D03*
%TD*%
D15*
%TO.C,MX28*%
X163985000Y-95270000D03*
D16*
X161445000Y-100350000D03*
D15*
X157635000Y-97810000D03*
D18*
X160175000Y-105430000D03*
D19*
X162715000Y-105430000D03*
D14*
X156365000Y-100350000D03*
X166525000Y-100350000D03*
%TD*%
D20*
%TO.C,C1*%
X260315029Y-125231585D03*
X261411045Y-126327601D03*
%TD*%
%TO.C,C2*%
X259237400Y-126309215D03*
X260333416Y-127405231D03*
%TD*%
D21*
%TO.C,C3*%
X244495192Y-117374914D03*
X243399176Y-116278898D03*
%TD*%
D22*
%TO.C,C6*%
X158143000Y-54389000D03*
X158143000Y-52839000D03*
%TD*%
D23*
%TO.C,D1*%
X62863750Y-63884375D03*
X64763750Y-63884375D03*
X63813750Y-65759375D03*
%TD*%
%TO.C,D2*%
X103345000Y-63884375D03*
X105245000Y-63884375D03*
X104295000Y-65759375D03*
%TD*%
%TO.C,D3*%
X141445000Y-63884375D03*
X143345000Y-63884375D03*
X142395000Y-65759375D03*
%TD*%
%TO.C,D4*%
X179545000Y-63884375D03*
X181445000Y-63884375D03*
X180495000Y-65759375D03*
%TD*%
%TO.C,D5*%
X217645000Y-63884375D03*
X219545000Y-63884375D03*
X218595000Y-65759375D03*
%TD*%
%TO.C,D6*%
X59291875Y-82934375D03*
X61191875Y-82934375D03*
X60241875Y-84809375D03*
%TD*%
%TO.C,D7*%
X98582500Y-82934375D03*
X100482500Y-82934375D03*
X99532500Y-84809375D03*
%TD*%
%TO.C,D8*%
X136682500Y-82934375D03*
X138582500Y-82934375D03*
X137632500Y-84809375D03*
%TD*%
%TO.C,D9*%
X184307500Y-82934375D03*
X186207500Y-82934375D03*
X185257500Y-84809375D03*
%TD*%
%TO.C,D10*%
X222407500Y-82934375D03*
X224307500Y-82934375D03*
X223357500Y-84809375D03*
%TD*%
%TO.C,D11*%
X246220000Y-71028125D03*
X248120000Y-71028125D03*
X247170000Y-72903125D03*
%TD*%
%TO.C,D12*%
X55720000Y-101984375D03*
X57620000Y-101984375D03*
X56670000Y-103859375D03*
%TD*%
%TO.C,D13*%
X93820000Y-101984375D03*
X95720000Y-101984375D03*
X94770000Y-103859375D03*
%TD*%
%TO.C,D14*%
X131920000Y-101984375D03*
X133820000Y-101984375D03*
X132870000Y-103859375D03*
%TD*%
%TO.C,D15*%
X170020000Y-101984375D03*
X171920000Y-101984375D03*
X170970000Y-103859375D03*
%TD*%
%TO.C,D16*%
X208120000Y-101984375D03*
X210020000Y-101984375D03*
X209070000Y-103859375D03*
%TD*%
%TO.C,D19*%
X80723125Y-121034375D03*
X82623125Y-121034375D03*
X81673125Y-122909375D03*
%TD*%
%TO.C,D20*%
X127157500Y-121034375D03*
X129057500Y-121034375D03*
X128107500Y-122909375D03*
%TD*%
%TO.C,D21*%
X174782500Y-121034375D03*
X176682500Y-121034375D03*
X175732500Y-122909375D03*
%TD*%
%TO.C,D22*%
X221216875Y-121034375D03*
X223116875Y-121034375D03*
X222166875Y-122909375D03*
%TD*%
D24*
%TO.C,F1*%
X163431915Y-64421875D03*
X163431915Y-67221875D03*
%TD*%
D25*
%TO.C,R1*%
X258120000Y-127350000D03*
X259286726Y-128516726D03*
%TD*%
D26*
%TO.C,R2*%
X161050665Y-70218750D03*
X161050665Y-68568750D03*
%TD*%
%TO.C,R5*%
X159667000Y-54439000D03*
X159667000Y-52789000D03*
%TD*%
D27*
%TO.C,SW1*%
X240778100Y-92682940D03*
X246978100Y-88982940D03*
X240778100Y-88982940D03*
X246978100Y-92682940D03*
%TD*%
D23*
%TO.C,D17*%
X246220000Y-101984375D03*
X248120000Y-101984375D03*
X247170000Y-103859375D03*
%TD*%
D28*
%TO.C,U2*%
X160810040Y-66959375D03*
X159860040Y-66959375D03*
X158910040Y-66959375D03*
X158910040Y-64684375D03*
X159860040Y-64684375D03*
X160810040Y-64684375D03*
%TD*%
D26*
%TO.C,R3*%
X158669415Y-70218750D03*
X158669415Y-68568750D03*
%TD*%
D29*
%TO.C,Y1*%
X246698858Y-125546777D03*
X248898858Y-125546777D03*
X248898858Y-127246777D03*
X246698858Y-127246777D03*
%TD*%
D21*
%TO.C,C4*%
X245572822Y-116297283D03*
X244476806Y-115201267D03*
%TD*%
D30*
%TO.C,R4*%
X144173000Y-52789000D03*
X144173000Y-54439000D03*
%TD*%
%TO.C,R10*%
X145697000Y-52789000D03*
X145697000Y-54439000D03*
%TD*%
D20*
%TO.C,C5*%
X261393938Y-124147491D03*
X262489954Y-125243507D03*
%TD*%
D25*
%TO.C,R7*%
X248766407Y-110835367D03*
X249933133Y-112002093D03*
%TD*%
%TO.C,R8*%
X247688777Y-111912997D03*
X248855503Y-113079723D03*
%TD*%
D31*
%TO.C,R11*%
X251810000Y-110210000D03*
X250643274Y-109043274D03*
%TD*%
D32*
%TO.C,J1*%
X231533700Y-89560400D03*
D33*
X231533700Y-92100400D03*
X234073700Y-89560400D03*
X234073700Y-92100400D03*
X236613700Y-89560400D03*
X236613700Y-92100400D03*
%TD*%
D34*
%TO.C,C7*%
X244900000Y-125625000D03*
X244900000Y-127175000D03*
%TD*%
%TO.C,C8*%
X250690000Y-125625000D03*
X250690000Y-127175000D03*
%TD*%
D35*
%TO.C,D18*%
X143242500Y-103420000D03*
X141667500Y-103420000D03*
%TD*%
%TO.C,D23*%
X162282500Y-103470000D03*
X160707500Y-103470000D03*
%TD*%
D25*
%TO.C,R6*%
X245517394Y-114088380D03*
X246684120Y-115255106D03*
%TD*%
%TO.C,R9*%
X246606339Y-112999435D03*
X247773065Y-114166161D03*
%TD*%
D36*
%TO.C,J2*%
X154810000Y-51653125D03*
X149030000Y-51653125D03*
D37*
X148670000Y-53098125D03*
X149470000Y-53098125D03*
D38*
X150670000Y-53098125D03*
X151670000Y-53098125D03*
X152170000Y-53098125D03*
X153170000Y-53098125D03*
D37*
X154370000Y-53098125D03*
X155170000Y-53098125D03*
X155170000Y-53098125D03*
X154370000Y-53098125D03*
D38*
X153670000Y-53098125D03*
X152670000Y-53098125D03*
X151170000Y-53098125D03*
X150170000Y-53098125D03*
D37*
X149470000Y-53098125D03*
X148670000Y-53098125D03*
D39*
X147600000Y-48003125D03*
D40*
X147600000Y-52183125D03*
X156240000Y-52183125D03*
D39*
X156240000Y-48003125D03*
%TD*%
D41*
%TO.C,U1*%
X258722736Y-119392202D03*
X258369182Y-119745755D03*
X258015629Y-120099309D03*
X257662076Y-120452862D03*
X257308522Y-120806415D03*
X256954969Y-121159969D03*
X256601415Y-121513522D03*
X256247862Y-121867076D03*
X255894309Y-122220629D03*
X255540755Y-122574182D03*
X255187202Y-122927736D03*
D42*
X254002798Y-122927736D03*
X253649245Y-122574182D03*
X253295691Y-122220629D03*
X252942138Y-121867076D03*
X252588585Y-121513522D03*
X252235031Y-121159969D03*
X251881478Y-120806415D03*
X251527924Y-120452862D03*
X251174371Y-120099309D03*
X250820818Y-119745755D03*
X250467264Y-119392202D03*
D41*
X250467264Y-118207798D03*
X250820818Y-117854245D03*
X251174371Y-117500691D03*
X251527924Y-117147138D03*
X251881478Y-116793585D03*
X252235031Y-116440031D03*
X252588585Y-116086478D03*
X252942138Y-115732924D03*
X253295691Y-115379371D03*
X253649245Y-115025818D03*
X254002798Y-114672264D03*
D42*
X255187202Y-114672264D03*
X255540755Y-115025818D03*
X255894309Y-115379371D03*
X256247862Y-115732924D03*
X256601415Y-116086478D03*
X256954969Y-116440031D03*
X257308522Y-116793585D03*
X257662076Y-117147138D03*
X258015629Y-117500691D03*
X258369182Y-117854245D03*
X258722736Y-118207798D03*
D43*
X254595000Y-118800000D03*
%TD*%
D44*
X101845000Y-108200000D03*
X260450000Y-126410000D03*
X142645000Y-52700000D03*
X226946460Y-83238340D03*
X258978356Y-116855456D03*
X170595000Y-82980000D03*
X154815540Y-64396620D03*
X155630940Y-124053280D03*
X156405000Y-105660000D03*
X249659140Y-103309420D03*
X155972542Y-55149458D03*
X163495000Y-90400000D03*
X237515000Y-112730000D03*
X149895000Y-69275000D03*
X213088220Y-98602800D03*
X167645000Y-106450000D03*
X250955000Y-124500000D03*
X256565000Y-127440000D03*
X180725000Y-111370000D03*
X245695000Y-110900000D03*
X147983000Y-54921000D03*
X135395000Y-107600000D03*
X252110000Y-108540000D03*
X137370820Y-105166160D03*
X161193480Y-62402720D03*
X151955000Y-49580000D03*
X213591140Y-102346760D03*
X148945000Y-106100000D03*
X159859980Y-68054220D03*
X144995000Y-102400000D03*
X153982480Y-123972000D03*
X245290000Y-118030000D03*
X259674037Y-117573114D03*
X162215019Y-71155673D03*
X252546400Y-123602783D03*
X153979990Y-106941301D03*
X255015000Y-113580000D03*
X259402959Y-120462041D03*
X163431220Y-68450460D03*
X258389402Y-125741867D03*
X224985640Y-123749990D03*
X225514243Y-65820957D03*
X143350000Y-62523125D03*
X135172180Y-84871875D03*
X225878077Y-123298814D03*
X226310533Y-84870253D03*
X138845000Y-84850000D03*
X226772177Y-122849970D03*
X214717973Y-103919687D03*
X159864640Y-63514820D03*
X163431915Y-63244155D03*
X63121600Y-104921875D03*
X79088040Y-104921875D03*
X100396100Y-105033760D03*
X119738200Y-104921875D03*
X176890740Y-104877499D03*
X195940740Y-104877499D03*
X217138304Y-104925816D03*
X259074578Y-125014176D03*
X229287382Y-102902618D03*
X244475000Y-122400460D03*
X252455000Y-128717295D03*
X254474966Y-123480166D03*
X161053780Y-71208900D03*
X153278100Y-124682940D03*
X153278100Y-125682940D03*
X158668720Y-71224140D03*
X156889258Y-54749914D03*
X153678156Y-55242812D03*
X152079980Y-111280000D03*
X151310000Y-110641353D03*
X257658907Y-124426201D03*
X256659500Y-124440011D03*
X255205000Y-124480000D03*
X143655000Y-110641353D03*
X162715000Y-111991383D03*
M02*
