999
dxflib 3.17.0.0
  0
SECTION
  2
HEADER
  9
$ACADVER
  1
AC1015
  9
$HANDSEED
  5
FFFF
  9
$DIMADEC
 70
0
  9
$DIMASZ
 40
0.18
  9
$DIMAUNIT
 70
0
  9
$DIMAZIN
 70
0
  9
$DIMDEC
 70
4
  9
$DIMDLI
 40
0.36
  9
$DIMDSEP
 70
46
  9
$DIMEXE
 40
0.18
  9
$DIMEXO
 40
0.0625
  9
$DIMGAP
 40
0.09
  9
$DIMLUNIT
 70
2
  9
$DIMSCALE
 40
1.0
  9
$DIMTSZ
 40
0.0
  9
$DIMTXT
 40
0.18
  9
$DIMZIN
 70
0
  9
$DWGCODEPAGE
  3
ANSI_1252
  9
$INSUNITS
 70
4
  9
$LTSCALE
 40
1.0
  9
$MAXACTVP
 70
64
  9
$MEASUREMENT
 70
1
  9
$PDMODE
 70
0
  9
$PDSIZE
 40
0.0
  0
ENDSEC
  0
SECTION
  2
TABLES
  0
TABLE
  2
VPORT
  5
8
100
AcDbSymbolTable
 70
1
  0
VPORT
  5
30
100
AcDbSymbolTableRecord
100
AcDbViewportTableRecord
  2
*Active
 70
0
 10
0.0
 20
0.0
 11
1.0
 21
1.0
 12
286.3055555555554861
 22
148.5
 13
0.0
 23
0.0
 14
10.0
 24
10.0
 15
10.0
 25
10.0
 16
0.0
 26
0.0
 36
1.0
 17
0.0
 27
0.0
 37
0.0
 40
297.0
 41
1.92798353909465
 42
50.0
 43
0.0
 44
0.0
 50
0.0
 51
0.0
 71
0
 72
100
 73
1
 74
3
 75
1
 76
1
 77
0
 78
0
281
0
 65
1
110
0.0
120
0.0
130
0.0
111
1.0
121
0.0
131
0.0
112
0.0
122
1.0
132
0.0
 79
0
146
0.0
  0
ENDTAB
  0
TABLE
  2
LTYPE
  5
5
100
AcDbSymbolTable
 70
41
  0
LTYPE
  5
16
100
AcDbSymbolTableRecord
100
AcDbLinetypeTableRecord
  2
Continuous
 70
0
  3
Solid line
 72
65
 73
0
 40
0.0
  0
LTYPE
  5
31
100
AcDbSymbolTableRecord
100
AcDbLinetypeTableRecord
  2
BORDERX2
 70
0
  3
Border (2x) ____  ____  .  ____  ____  .  ___
 72
65
 73
6
 40
88.8999999999999773
 49
25.3999999999999986
 74
0
 49
-12.6999999999999993
 74
0
 49
25.3999999999999986
 74
0
 49
-12.6499999999999986
 74
0
 49
0.1
 74
0
 49
-12.6499999999999986
 74
0
  0
LTYPE
  5
32
100
AcDbSymbolTableRecord
100
AcDbLinetypeTableRecord
  2
DIVIDE2
 70
0
  3
Divide (.5x) __..__..__..__..__..__..__..__.._
 72
65
 73
6
 40
15.8749999999999982
 49
6.3499999999999996
 74
0
 49
-3.125
 74
0
 49
0.1
 74
0
 49
-3.0750000000000002
 74
0
 49
0.1
 74
0
 49
-3.125
 74
0
  0
LTYPE
  5
33
100
AcDbSymbolTableRecord
100
AcDbLinetypeTableRecord
  2
DASHED
 70
0
  3
Dashed __ __ __ __ __ __ __ __ __ __ __ __ __ _
 72
65
 73
2
 40
19.0499999999999972
 49
12.6999999999999993
 74
0
 49
-6.3499999999999996
 74
0
  0
LTYPE
  5
34
100
AcDbSymbolTableRecord
100
AcDbLinetypeTableRecord
  2
DASHED2
 70
0
  3
Dashed (.5x) _ _ _ _ _ _ _ _ _ _ _ _ _ _ _ _ _ 
 72
65
 73
2
 40
9.5249999999999986
 49
6.3499999999999996
 74
0
 49
-3.1749999999999998
 74
0
  0
LTYPE
  5
35
100
AcDbSymbolTableRecord
100
AcDbLinetypeTableRecord
  2
DOT
 70
0
  3
Dot . . . . . . . . . . . . . . . . . . . . . . . .
 72
65
 73
2
 40
6.3499999999999996
 49
0.1
 74
0
 49
-6.25
 74
0
  0
LTYPE
  5
36
100
AcDbSymbolTableRecord
100
AcDbLinetypeTableRecord
  2
HIDDEN2
 70
0
  3
Hidden (.5x) _ _ _ _ _ _ _ _ _ _ _ _ _ _ _ _ _ 
 72
65
 73
2
 40
4.7624999999999993
 49
3.1749999999999998
 74
0
 49
-1.5874999999999999
 74
0
  0
LTYPE
  5
37
100
AcDbSymbolTableRecord
100
AcDbLinetypeTableRecord
  2
PHANTOM2
 70
0
  3
Phantom (.5x) ___ _ _ ___ _ _ ___ _ _ ___ _ _
 72
65
 73
6
 40
31.7500000000000036
 49
15.875
 74
0
 49
-3.1749999999999998
 74
0
 49
3.1749999999999998
 74
0
 49
-3.1749999999999998
 74
0
 49
3.1749999999999998
 74
0
 49
-3.1749999999999998
 74
0
  0
LTYPE
  5
38
100
AcDbSymbolTableRecord
100
AcDbLinetypeTableRecord
  2
ACAD_ISO12W100
 70
0
  3
ISO dash double-dot __ . . __ . . __ . . __ . . 
 72
65
 73
6
 40
21.0
 49
12.0
 74
0
 49
-2.9500000000000002
 74
0
 49
0.1
 74
0
 49
-2.9000000000000004
 74
0
 49
0.1
 74
0
 49
-2.9500000000000002
 74
0
  0
LTYPE
  5
39
100
AcDbSymbolTableRecord
100
AcDbLinetypeTableRecord
  2
DASHDOTX2
 70
0
  3
Dash dot (2x) ____  .  ____  .  ____  .  ___
 72
65
 73
4
 40
50.7999999999999972
 49
25.3999999999999986
 74
0
 49
-12.6499999999999986
 74
0
 49
0.1
 74
0
 49
-12.6499999999999986
 74
0
  0
LTYPE
  5
3A
100
AcDbSymbolTableRecord
100
AcDbLinetypeTableRecord
  2
ACAD_ISO14W100
 70
0
  3
ISO dash triple-dot __ . . . __ . . . __ . . . _
 72
65
 73
8
 40
24.0000000000000036
 49
12.0
 74
0
 49
-2.9500000000000002
 74
0
 49
0.1
 74
0
 49
-2.9000000000000004
 74
0
 49
0.1
 74
0
 49
-2.9000000000000004
 74
0
 49
0.1
 74
0
 49
-2.9500000000000002
 74
0
  0
LTYPE
  5
3B
100
AcDbSymbolTableRecord
100
AcDbLinetypeTableRecord
  2
DASHDOT2
 70
0
  3
Dash dot (.5x) _._._._._._._._._._._._._._._.
 72
65
 73
4
 40
12.6999999999999993
 49
6.3499999999999996
 74
0
 49
-3.125
 74
0
 49
0.1
 74
0
 49
-3.125
 74
0
  0
LTYPE
  5
3C
100
AcDbSymbolTableRecord
100
AcDbLinetypeTableRecord
  2
HIDDENX2
 70
0
  3
Hidden (2x) ____ ____ ____ ____ ____ ____ ____ 
 72
65
 73
2
 40
19.0499999999999972
 49
12.6999999999999993
 74
0
 49
-6.3499999999999996
 74
0
  0
LTYPE
  5
3D
100
AcDbSymbolTableRecord
100
AcDbLinetypeTableRecord
  2
HIDDEN
 70
0
  3
Hidden __ __ __ __ __ __ __ __ __ __ __ __ __ __
 72
65
 73
2
 40
9.5249999999999986
 49
6.3499999999999996
 74
0
 49
-3.1749999999999998
 74
0
  0
LTYPE
  5
3E
100
AcDbSymbolTableRecord
100
AcDbLinetypeTableRecord
  2
ACAD_ISO09W100
 70
0
  3
ISO long-dash double-short-dash ____ __ __ ____
 72
65
 73
6
 40
45.0
 49
24.0
 74
0
 49
-3.0
 74
0
 49
6.0
 74
0
 49
-3.0
 74
0
 49
6.0
 74
0
 49
-3.0
 74
0
  0
LTYPE
  5
3F
100
AcDbSymbolTableRecord
100
AcDbLinetypeTableRecord
  2
ACAD_ISO06W100
 70
0
  3
ISO long-dash triple-dot ____ ... ____ ... ____
 72
65
 73
8
 40
36.0000000000000071
 49
24.0
 74
0
 49
-2.9500000000000002
 74
0
 49
0.1
 74
0
 49
-2.9000000000000004
 74
0
 49
0.1
 74
0
 49
-2.9000000000000004
 74
0
 49
0.1
 74
0
 49
-2.9500000000000002
 74
0
  0
LTYPE
  5
40
100
AcDbSymbolTableRecord
100
AcDbLinetypeTableRecord
  2
ACAD_ISO15W100
 70
0
  3
ISO double-dash triple-dot __ __ . . . __ __ . .
 72
65
 73
10
 40
39.0000000000000071
 49
12.0
 74
0
 49
-3.0
 74
0
 49
12.0
 74
0
 49
-2.9500000000000002
 74
0
 49
0.1
 74
0
 49
-2.9000000000000004
 74
0
 49
0.1
 74
0
 49
-2.9000000000000004
 74
0
 49
0.1
 74
0
 49
-2.9500000000000002
 74
0
  0
LTYPE
  5
41
100
AcDbSymbolTableRecord
100
AcDbLinetypeTableRecord
  2
DIVIDE
 70
0
  3
Divide ____ . . ____ . . ____ . . ____ . . ____
 72
65
 73
6
 40
31.7500000000000036
 49
12.6999999999999993
 74
0
 49
-6.2999999999999998
 74
0
 49
0.1
 74
0
 49
-6.25
 74
0
 49
0.1
 74
0
 49
-6.2999999999999998
 74
0
  0
LTYPE
  5
42
100
AcDbSymbolTableRecord
100
AcDbLinetypeTableRecord
  2
CENTER
 70
0
  3
Center ____ _ ____ _ ____ _ ____ _ ____ _ ____
 72
65
 73
4
 40
50.8000000000000043
 49
31.75
 74
0
 49
-6.3499999999999996
 74
0
 49
6.3499999999999996
 74
0
 49
-6.3499999999999996
 74
0
  0
LTYPE
  5
43
100
AcDbSymbolTableRecord
100
AcDbLinetypeTableRecord
  2
DASHEDX2
 70
0
  3
Dashed (2x) ____  ____  ____  ____  ____  ___
 72
65
 73
2
 40
38.0999999999999943
 49
25.3999999999999986
 74
0
 49
-12.6999999999999993
 74
0
  0
LTYPE
  5
44
100
AcDbSymbolTableRecord
100
AcDbLinetypeTableRecord
  2
ACAD_ISO02W100
 70
0
  3
ISO dash __ __ __ __ __ __ __ __ __ __ __ __ __
 72
65
 73
2
 40
15.0
 49
12.0
 74
0
 49
-3.0
 74
0
  0
LTYPE
  5
45
100
AcDbSymbolTableRecord
100
AcDbLinetypeTableRecord
  2
DASHDOT
 70
0
  3
Dash dot __ . __ . __ . __ . __ . __ . __ . __
 72
65
 73
4
 40
25.4000000000000021
 49
12.6999999999999993
 74
0
 49
-6.2999999999999998
 74
0
 49
0.1
 74
0
 49
-6.2999999999999998
 74
0
  0
LTYPE
  5
46
100
AcDbSymbolTableRecord
100
AcDbLinetypeTableRecord
  2
BORDER2
 70
0
  3
Border (.5x) __.__.__.__.__.__.__.__.__.__.__.
 72
65
 73
6
 40
22.2250000000000014
 49
6.3499999999999996
 74
0
 49
-3.1749999999999998
 74
0
 49
6.3499999999999996
 74
0
 49
-3.125
 74
0
 49
0.1
 74
0
 49
-3.125
 74
0
  0
LTYPE
  5
47
100
AcDbSymbolTableRecord
100
AcDbLinetypeTableRecord
  2
DOT2
 70
0
  3
Dot (.5x) ........................................
 72
65
 73
2
 40
3.1749999999999998
 49
0.1
 74
0
 49
-3.0749999999999997
 74
0
  0
LTYPE
  5
48
100
AcDbSymbolTableRecord
100
AcDbLinetypeTableRecord
  2
ACAD_ISO10W100
 70
0
  3
ISO dash dot __ . __ . __ . __ . __ . __ . __ . 
 72
65
 73
4
 40
18.0
 49
12.0
 74
0
 49
-2.9500000000000002
 74
0
 49
0.1
 74
0
 49
-2.9500000000000002
 74
0
  0
LTYPE
  5
49
100
AcDbSymbolTableRecord
100
AcDbLinetypeTableRecord
  2
DIVIDEX2
 70
0
  3
Divide (2x) ________  .  .  ________  .  .  _
 72
65
 73
6
 40
63.5
 49
25.3999999999999986
 74
0
 49
-12.6499999999999986
 74
0
 49
0.1
 74
0
 49
-12.5999999999999979
 74
0
 49
0.1
 74
0
 49
-12.6499999999999986
 74
0
  0
LTYPE
  5
4A
100
AcDbSymbolTableRecord
100
AcDbLinetypeTableRecord
  2
ACAD_ISO04W100
 70
0
  3
ISO long-dash dot ____ . ____ . ____ . ____ . _
 72
65
 73
4
 40
30.0
 49
24.0
 74
0
 49
-2.9500000000000002
 74
0
 49
0.1
 74
0
 49
-2.9500000000000002
 74
0
  0
LTYPE
  5
4B
100
AcDbSymbolTableRecord
100
AcDbLinetypeTableRecord
  2
PHANTOM
 70
0
  3
Phantom ______  __  __  ______  __  __  ______ 
 72
65
 73
6
 40
63.5000000000000071
 49
31.75
 74
0
 49
-6.3499999999999996
 74
0
 49
6.3499999999999996
 74
0
 49
-6.3499999999999996
 74
0
 49
6.3499999999999996
 74
0
 49
-6.3499999999999996
 74
0
  0
LTYPE
  5
4C
100
AcDbSymbolTableRecord
100
AcDbLinetypeTableRecord
  2
CENTER2
 70
0
  3
Center (.5x) ___ _ ___ _ ___ _ ___ _ ___ _ ___
 72
65
 73
4
 40
28.5750000000000028
 49
19.0500000000000007
 74
0
 49
-3.1749999999999998
 74
0
 49
3.1749999999999998
 74
0
 49
-3.1749999999999998
 74
0
  0
LTYPE
  5
4D
100
AcDbSymbolTableRecord
100
AcDbLinetypeTableRecord
  2
ACAD_ISO11W100
 70
0
  3
ISO double-dash dot __ __ . __ __ . __ __ . __ _
 72
65
 73
6
 40
33.0
 49
12.0
 74
0
 49
-3.0
 74
0
 49
12.0
 74
0
 49
-2.9500000000000002
 74
0
 49
0.1
 74
0
 49
-2.9500000000000002
 74
0
  0
LTYPE
  5
4E
100
AcDbSymbolTableRecord
100
AcDbLinetypeTableRecord
  2
BORDER
 70
0
  3
Border __ __ . __ __ . __ __ . __ __ . __ __ .
 72
65
 73
6
 40
44.4499999999999957
 49
12.6999999999999993
 74
0
 49
-6.3499999999999996
 74
0
 49
12.6999999999999993
 74
0
 49
-6.2999999999999998
 74
0
 49
0.1
 74
0
 49
-6.2999999999999998
 74
0
  0
LTYPE
  5
4F
100
AcDbSymbolTableRecord
100
AcDbLinetypeTableRecord
  2
ACAD_ISO07W100
 70
0
  3
ISO dot . . . . . . . . . . . . . . . . . . . . 
 72
65
 73
2
 40
3.0
 49
0.1
 74
0
 49
-2.8999999999999999
 74
0
  0
LTYPE
  5
50
100
AcDbSymbolTableRecord
100
AcDbLinetypeTableRecord
  2
ACAD_ISO08W100
 70
0
  3
ISO long-dash short-dash ____ __ ____ __ ____ _
 72
65
 73
4
 40
36.0
 49
24.0
 74
0
 49
-3.0
 74
0
 49
6.0
 74
0
 49
-3.0
 74
0
  0
LTYPE
  5
51
100
AcDbSymbolTableRecord
100
AcDbLinetypeTableRecord
  2
ACAD_ISO03W100
 70
0
  3
ISO dash space __    __    __    __    __    __
 72
65
 73
2
 40
30.0
 49
12.0
 74
0
 49
-18.0
 74
0
  0
LTYPE
  5
52
100
AcDbSymbolTableRecord
100
AcDbLinetypeTableRecord
  2
CENTERX2
 70
0
  3
Center (2x) ________  __  ________  __  _____
 72
65
 73
4
 40
101.6000000000000085
 49
63.5
 74
0
 49
-12.6999999999999993
 74
0
 49
12.6999999999999993
 74
0
 49
-12.6999999999999993
 74
0
  0
LTYPE
  5
15
100
AcDbSymbolTableRecord
100
AcDbLinetypeTableRecord
  2
BYLAYER
 70
0
  3

 72
65
 73
0
 40
0.0
  0
LTYPE
  5
53
100
AcDbSymbolTableRecord
100
AcDbLinetypeTableRecord
  2
ACAD_ISO05W100
 70
0
  3
ISO long-dash double-dot ____ .. ____ .. ____ . 
 72
65
 73
6
 40
33.0000000000000071
 49
24.0
 74
0
 49
-2.9500000000000002
 74
0
 49
0.1
 74
0
 49
-2.9000000000000004
 74
0
 49
0.1
 74
0
 49
-2.9500000000000002
 74
0
  0
LTYPE
  5
54
100
AcDbSymbolTableRecord
100
AcDbLinetypeTableRecord
  2
PHANTOMX2
 70
0
  3
Phantom (2x) ____________    ____    ____   _
 72
65
 73
6
 40
127.0000000000000142
 49
63.5
 74
0
 49
-12.6999999999999993
 74
0
 49
12.6999999999999993
 74
0
 49
-12.6999999999999993
 74
0
 49
12.6999999999999993
 74
0
 49
-12.6999999999999993
 74
0
  0
LTYPE
  5
55
100
AcDbSymbolTableRecord
100
AcDbLinetypeTableRecord
  2
ACAD_ISO13W100
 70
0
  3
ISO double-dash double-dot __ __ . . __ __ . . _
 72
65
 73
8
 40
36.0000000000000071
 49
12.0
 74
0
 49
-3.0
 74
0
 49
12.0
 74
0
 49
-2.9500000000000002
 74
0
 49
0.1
 74
0
 49
-2.9000000000000004
 74
0
 49
0.1
 74
0
 49
-2.9500000000000002
 74
0
  0
LTYPE
  5
14
100
AcDbSymbolTableRecord
100
AcDbLinetypeTableRecord
  2
BYBLOCK
 70
0
  3

 72
65
 73
0
 40
0.0
  0
LTYPE
  5
56
100
AcDbSymbolTableRecord
100
AcDbLinetypeTableRecord
  2
DOTX2
 70
0
  3
Dot (2x) .  .  .  .  .  .  .  .  .  .  .  .  .  .
 72
65
 73
2
 40
12.6999999999999993
 49
0.1
 74
0
 49
-12.5999999999999996
 74
0
  0
ENDTAB
  0
TABLE
  2
LAYER
  5
2
100
AcDbSymbolTable
 70
1
  0
LAYER
  5
10
100
AcDbSymbolTableRecord
100
AcDbLayerTableRecord
  2
0
 70
0
 62
7
420
16777215
  6
Continuous
370
0
390
F
  0
ENDTAB
  0
TABLE
  2
STYLE
  5
3
100
AcDbSymbolTable
 70
1
  0
STYLE
  5
57
100
AcDbSymbolTableRecord
100
AcDbTextStyleTableRecord
  2
Standard
 70
0
 40
0.0
 41
1.0
 50
0.0
 71
0
 42
2.5
  3

  4

1001
ACAD
1000
txt
1071
0
  0
ENDTAB
  0
TABLE
  2
VIEW
  5
6
100
AcDbSymbolTable
 70
0
  0
ENDTAB
  0
TABLE
  2
UCS
  5
7
100
AcDbSymbolTable
 70
0
  0
ENDTAB
  0
TABLE
  2
APPID
  5
9
100
AcDbSymbolTable
 70
1
  0
APPID
  5
12
100
AcDbSymbolTableRecord
100
AcDbRegAppTableRecord
  2
ACAD
 70
0
  0
APPID
  5
58
100
AcDbSymbolTableRecord
100
AcDbRegAppTableRecord
  2
QCAD
 70
0
  0
ENDTAB
  0
TABLE
  2
DIMSTYLE
  5
A
100
AcDbSymbolTable
 70
1
100
AcDbDimStyleTable
 71
0
  0
DIMSTYLE
105
27
100
AcDbSymbolTableRecord
100
AcDbDimStyleTableRecord
  2
Standard
 41
0.18
 42
0.0625
 43
3.75
 44
0.18
 70
0
 73
0
 74
0
 77
1
 78
8
140
0.18
141
2.5
143
0.03937007874016
147
0.09
171
3
172
1
271
2
272
2
274
3
278
44
283
0
284
8
340
57
  0
ENDTAB
  0
TABLE
  2
BLOCK_RECORD
  5
1
100
AcDbSymbolTable
 70
1
  0
BLOCK_RECORD
  5
1F
100
AcDbSymbolTableRecord
100
AcDbBlockTableRecord
  2
*Model_Space
340
22
  0
BLOCK_RECORD
  5
1B
100
AcDbSymbolTableRecord
100
AcDbBlockTableRecord
  2
*Paper_Space
340
1E
  0
BLOCK_RECORD
  5
23
100
AcDbSymbolTableRecord
100
AcDbBlockTableRecord
  2
*Paper_Space0
340
26
  0
BLOCK_RECORD
  5
59
100
AcDbSymbolTableRecord
100
AcDbBlockTableRecord
  2
\U+0431\U+043b\U+043e\U+043a 1
340
0
  0
ENDTAB
  0
ENDSEC
  0
SECTION
  2
BLOCKS
  0
BLOCK
  5
20
100
AcDbEntity
  8
0
100
AcDbBlockBegin
  2
*Model_Space
 70
0
 10
0.0
 20
0.0
 30
0.0
  3
*Model_Space
  1

  0
ENDBLK
  5
21
100
AcDbEntity
  8
0
100
AcDbBlockEnd
  0
BLOCK
  5
1C
100
AcDbEntity
 67
1
  8
0
100
AcDbBlockBegin
  2
*Paper_Space
 70
0
 10
0.0
 20
0.0
 30
0.0
  3
*Paper_Space
  1

  0
ENDBLK
  5
1D
100
AcDbEntity
 67
1
  8
0
100
AcDbBlockEnd
  0
BLOCK
  5
24
100
AcDbEntity
  8
0
100
AcDbBlockBegin
  2
*Paper_Space0
 70
0
 10
0.0
 20
0.0
 30
0.0
  3
*Paper_Space0
  1

  0
ENDBLK
  5
25
100
AcDbEntity
  8
0
100
AcDbBlockEnd
  0
BLOCK
  5
5A
100
AcDbEntity
  8
0
100
AcDbBlockBegin
  2
\U+0431\U+043b\U+043e\U+043a 1
 70
0
 10
0.0
 20
0.0
 30
0.0
  3
\U+0431\U+043b\U+043e\U+043a 1
  1

  0
LINE
  5
5B
100
AcDbEntity
  8
0
 62
256
370
-1
 48
1.0
  6
BYLAYER
100
AcDbLine
 10
13.9380000000000166
 20
12.0
 30
0.0
 11
-1.9380000000000166
 21
12.0000000000000071
 31
0.0
  0
ARC
  5
5C
100
AcDbEntity
  8
0
 62
256
370
-1
 48
1.0
  6
BYLAYER
100
AcDbCircle
 10
-1.9379999999999313
 20
11.4999999999999503
 30
0.0
 40
0.500000000000056
100
AcDbArc
 50
90.0000000000097771
 51
180.0
  0
LINE
  5
5D
100
AcDbEntity
  8
0
 62
256
370
-1
 48
1.0
  6
BYLAYER
100
AcDbLine
 10
-2.4379999999999882
 20
11.5
 30
0.0
 11
-2.438000000000045
 21
10.5
 31
0.0
  0
ARC
  5
5E
100
AcDbEntity
  8
0
 62
256
370
-1
 48
1.0
  6
BYLAYER
100
AcDbCircle
 10
-2.9380000000001019
 20
10.5000000000000249
 30
0.0
 40
0.5000000000000271
100
AcDbArc
 50
270.0000000000097771
 51
360.0
  0
LINE
  5
5F
100
AcDbEntity
  8
0
 62
256
370
-1
 48
1.0
  6
BYLAYER
100
AcDbLine
 10
-2.9380000000000166
 20
10.0
 30
0.0
 11
-8.9379999999999882
 21
9.9999999999999964
 31
0.0
  0
ARC
  5
60
100
AcDbEntity
  8
0
 62
256
370
-1
 48
1.0
  6
BYLAYER
100
AcDbCircle
 10
-8.938000000000045
 20
10.4999999999999503
 30
0.0
 40
0.4999999999999716
100
AcDbArc
 50
180.0
 51
270.0000000000048885
  0
LINE
  5
61
100
AcDbEntity
  8
0
 62
256
370
-1
 48
1.0
  6
BYLAYER
100
AcDbLine
 10
-9.4380000000000166
 20
10.5
 30
0.0
 11
-9.4380000000000166
 21
11.4999999999999964
 31
0.0
  0
ARC
  5
62
100
AcDbEntity
  8
0
 62
256
370
-1
 48
1.0
  6
BYLAYER
100
AcDbCircle
 10
-9.9380000000000166
 20
11.4999999999999645
 30
0.0
 40
0.5000000000000071
100
AcDbArc
 50
0.0
 51
90.0
  0
LINE
  5
63
100
AcDbEntity
  8
0
 62
256
370
-1
 48
1.0
  6
BYLAYER
100
AcDbLine
 10
-9.9380000000000166
 20
11.9999999999999716
 30
0.0
 11
-10.0250000000000341
 21
12.0000000000000142
 31
0.0
  0
ARC
  5
64
100
AcDbEntity
  8
0
 62
256
370
-1
 48
1.0
  6
BYLAYER
100
AcDbCircle
 10
-10.0250000000000625
 20
12.4999999999999787
 30
0.0
 40
0.4999999999999716
100
AcDbArc
 50
180.0
 51
270.0000000000032401
  0
LINE
  5
65
100
AcDbEntity
  8
0
 62
256
370
-1
 48
1.0
  6
BYLAYER
100
AcDbLine
 10
-10.5250000000000341
 20
12.5
 30
0.0
 11
-10.5250000000000341
 21
25.5
 31
0.0
  0
ARC
  5
66
100
AcDbEntity
  8
0
 62
256
370
-1
 48
1.0
  6
BYLAYER
100
AcDbCircle
 10
-10.0249999999999488
 20
25.4999999999999289
 30
0.0
 40
0.5000000000000737
100
AcDbArc
 50
90.0000000000097771
 51
180.0
  0
LINE
  5
67
100
AcDbEntity
  8
0
 62
256
370
-1
 48
1.0
  6
BYLAYER
100
AcDbLine
 10
-10.0250000000000341
 20
26.0
 30
0.0
 11
22.0249999999999773
 21
26.0000000000000213
 31
0.0
  0
ARC
  5
68
100
AcDbEntity
  8
0
 62
256
370
-1
 48
1.0
  6
BYLAYER
100
AcDbCircle
 10
22.0250000000000341
 20
25.5000000000000497
 30
0.0
 40
0.4999999999999716
100
AcDbArc
 50
0.0
 51
90.0000000000049027
  0
LINE
  5
69
100
AcDbEntity
  8
0
 62
256
370
-1
 48
1.0
  6
BYLAYER
100
AcDbLine
 10
22.5250000000000057
 20
25.5
 30
0.0
 11
22.5250000000000057
 21
12.5000000000000071
 31
0.0
  0
ARC
  5
6A
100
AcDbEntity
  8
0
 62
256
370
-1
 48
1.0
  6
BYLAYER
100
AcDbCircle
 10
22.0249999999999773
 20
12.5000000000000426
 30
0.0
 40
0.5000000000000338
100
AcDbArc
 50
270.0
 51
360.0
  0
LINE
  5
6B
100
AcDbEntity
  8
0
 62
256
370
-1
 48
1.0
  6
BYLAYER
100
AcDbLine
 10
22.0249999999999773
 20
12.0000000000000071
 30
0.0
 11
21.9379999999999882
 21
12.0000000000000071
 31
0.0
  0
ARC
  5
6C
100
AcDbEntity
  8
0
 62
256
370
-1
 48
1.0
  6
BYLAYER
100
AcDbCircle
 10
21.938000000000045
 20
11.4999999999999574
 30
0.0
 40
0.5000000000000515
100
AcDbArc
 50
90.0000000000065086
 51
180.0
  0
LINE
  5
6D
100
AcDbEntity
  8
0
 62
256
370
-1
 48
1.0
  6
BYLAYER
100
AcDbLine
 10
21.4380000000000166
 20
11.5000000000000036
 30
0.0
 11
21.4380000000000166
 21
10.5000000000000036
 31
0.0
  0
ARC
  5
6E
100
AcDbEntity
  8
0
 62
256
370
-1
 48
1.0
  6
BYLAYER
100
AcDbCircle
 10
20.9379999999999882
 20
10.5000000000000391
 30
0.0
 40
0.5000000000000338
100
AcDbArc
 50
270.0
 51
360.0
  0
LINE
  5
6F
100
AcDbEntity
  8
0
 62
256
370
-1
 48
1.0
  6
BYLAYER
100
AcDbLine
 10
20.9379999999999882
 20
10.0000000000000036
 30
0.0
 11
14.9379999999999882
 21
10.0
 31
0.0
  0
ARC
  5
70
100
AcDbEntity
  8
0
 62
256
370
-1
 48
1.0
  6
BYLAYER
100
AcDbCircle
 10
14.9379999999999598
 20
10.4999999999999574
 30
0.0
 40
0.4999999999999716
100
AcDbArc
 50
180.0
 51
270.0000000000032401
  0
LINE
  5
71
100
AcDbEntity
  8
0
 62
256
370
-1
 48
1.0
  6
BYLAYER
100
AcDbLine
 10
14.4379999999999882
 20
10.5000000000000036
 30
0.0
 11
14.4379999999999882
 21
11.5
 31
0.0
  0
ARC
  5
72
100
AcDbEntity
  8
0
 62
256
370
-1
 48
1.0
  6
BYLAYER
100
AcDbCircle
 10
13.9379999999999313
 20
11.4999999999999574
 30
0.0
 40
0.5000000000000426
100
AcDbArc
 50
0.0
 51
89.9999999999902371
  0
LINE
  5
73
100
AcDbEntity
  8
0
 62
256
370
-1
 48
1.0
  6
BYLAYER
100
AcDbLine
 10
6.0
 20
12.0000000000000036
 30
0.0
 11
6.0
 21
19.0000000000000036
 31
0.0
  0
ENDBLK
  5
74
100
AcDbEntity
  8
0
100
AcDbBlockEnd
  0
ENDSEC
  0
SECTION
  2
ENTITIES
  0
LINE
  5
75
100
AcDbEntity
  8
0
 62
256
370
-1
 48
1.0
  6
BYLAYER
100
AcDbLine
 10
62.9500000000000028
 20
39.7999999999999972
 30
0.0
 11
113.0
 21
39.7999999999999972
 31
0.0
  0
LINE
  5
76
100
AcDbEntity
  8
0
 62
256
370
-1
 48
1.0
  6
BYLAYER
100
AcDbLine
 10
-113.0
 20
39.7999999999999972
 30
0.0
 11
-62.9499999999999957
 21
39.7999999999999972
 31
0.0
  0
LINE
  5
77
100
AcDbEntity
  8
0
 62
256
370
-1
 48
1.0
  6
BYLAYER
100
AcDbLine
 10
62.9500000000000099
 20
-39.7999999999999972
 30
0.0
 11
113.0
 21
-39.7999999999999972
 31
0.0
  0
LINE
  5
78
100
AcDbEntity
  8
0
 62
256
370
-1
 48
1.0
  6
BYLAYER
100
AcDbLine
 10
-112.9999999999999858
 20
-39.7999999999999972
 30
0.0
 11
-62.9500000000000171
 21
-39.7999999999999972
 31
0.0
  0
LINE
  5
79
100
AcDbEntity
  8
0
 62
256
370
-1
 48
1.0
  6
BYLAYER
100
AcDbLine
 10
116.0
 20
-36.7999999999999972
 30
0.0
 11
116.0
 21
36.7999999999999972
 31
0.0
  0
LINE
  5
7A
100
AcDbEntity
  8
0
 62
256
370
-1
 48
1.0
  6
BYLAYER
100
AcDbLine
 10
-116.0
 20
-36.7999999999999972
 30
0.0
 11
-116.0
 21
36.7999999999999972
 31
0.0
  0
LINE
  5
7B
100
AcDbEntity
  8
0
 62
256
370
-1
 48
1.0
  6
BYLAYER
100
AcDbLine
 10
-60.7999999999999972
 20
43.7999999999999972
 30
0.0
 11
-53.2000000000000028
 21
43.7999999999999972
 31
0.0
  0
LINE
  5
7C
100
AcDbEntity
  8
0
 62
256
370
-1
 48
1.0
  6
BYLAYER
100
AcDbLine
 10
-60.7999999999999972
 20
-43.7999999999999972
 30
0.0
 11
-53.2000000000000028
 21
-43.7999999999999972
 31
0.0
  0
LINE
  5
7D
100
AcDbEntity
  8
0
 62
256
370
-1
 48
1.0
  6
BYLAYER
100
AcDbLine
 10
53.2000000000000028
 20
-43.7999999999999972
 30
0.0
 11
60.7999999999999972
 21
-43.7999999999999972
 31
0.0
  0
LINE
  5
7E
100
AcDbEntity
  8
0
 62
256
370
-1
 48
1.0
  6
BYLAYER
100
AcDbLine
 10
53.2000000000000028
 20
43.7999999999999972
 30
0.0
 11
60.7999999999999972
 21
43.7999999999999972
 31
0.0
  0
LINE
  5
7F
100
AcDbEntity
  8
0
 62
256
370
-1
 48
1.0
  6
BYLAYER
100
AcDbLine
 10
51.2000000000000028
 20
-41.7999999999999972
 30
0.0
 11
51.2000000000000028
 21
-39.7999999999999972
 31
0.0
  0
LINE
  5
80
100
AcDbEntity
  8
0
 62
256
370
-1
 48
1.0
  6
BYLAYER
100
AcDbLine
 10
62.7999999999999972
 20
-41.7999999999999972
 30
0.0
 11
62.7999999999999972
 21
-39.7999999999999972
 31
0.0
  0
LINE
  5
81
100
AcDbEntity
  8
0
 62
256
370
-1
 48
1.0
  6
BYLAYER
100
AcDbLine
 10
-51.2000000000000028
 20
-41.7999999999999972
 30
0.0
 11
-51.2000000000000028
 21
-39.7999999999999972
 31
0.0
  0
LINE
  5
82
100
AcDbEntity
  8
0
 62
256
370
-1
 48
1.0
  6
BYLAYER
100
AcDbLine
 10
-62.7999999999999972
 20
-41.7999999999999972
 30
0.0
 11
-62.7999999999999972
 21
-39.7999999999999972
 31
0.0
  0
LINE
  5
83
100
AcDbEntity
  8
0
 62
256
370
-1
 48
1.0
  6
BYLAYER
100
AcDbLine
 10
-62.7999999999999972
 20
39.7999999999999972
 30
0.0
 11
-62.7999999999999972
 21
41.7999999999999972
 31
0.0
  0
LINE
  5
84
100
AcDbEntity
  8
0
 62
256
370
-1
 48
1.0
  6
BYLAYER
100
AcDbLine
 10
-51.2000000000000028
 20
39.7999999999999972
 30
0.0
 11
-51.2000000000000028
 21
41.7999999999999972
 31
0.0
  0
LINE
  5
85
100
AcDbEntity
  8
0
 62
256
370
-1
 48
1.0
  6
BYLAYER
100
AcDbLine
 10
62.7999999999999972
 20
39.7999999999999972
 30
0.0
 11
62.7999999999999972
 21
41.7999999999999972
 31
0.0
  0
LINE
  5
86
100
AcDbEntity
  8
0
 62
256
370
-1
 48
1.0
  6
BYLAYER
100
AcDbLine
 10
51.2000000000000028
 20
39.7999999999999972
 30
0.0
 11
51.2000000000000028
 21
41.7999999999999972
 31
0.0
  0
ARC
  5
87
100
AcDbEntity
  8
0
 62
256
370
-1
 48
1.0
  6
BYLAYER
100
AcDbCircle
 10
53.2000000000000028
 20
-41.7999999999999972
 30
0.0
 40
2.0
100
AcDbArc
 50
180.0
 51
270.0
  0
ARC
  5
88
100
AcDbEntity
  8
0
 62
256
370
-1
 48
1.0
  6
BYLAYER
100
AcDbCircle
 10
60.7999999999999972
 20
-41.7999999999999972
 30
0.0
 40
2.0
100
AcDbArc
 50
270.0
 51
0.0
  0
ARC
  5
89
100
AcDbEntity
  8
0
 62
256
370
-1
 48
1.0
  6
BYLAYER
100
AcDbCircle
 10
53.2000000000000028
 20
41.7999999999999972
 30
0.0
 40
2.0
100
AcDbArc
 50
90.0
 51
180.0
  0
ARC
  5
8A
100
AcDbEntity
  8
0
 62
256
370
-1
 48
1.0
  6
BYLAYER
100
AcDbCircle
 10
60.7999999999999972
 20
41.7999999999999972
 30
0.0
 40
2.0
100
AcDbArc
 50
0.0
 51
90.0
  0
ARC
  5
8B
100
AcDbEntity
  8
0
 62
256
370
-1
 48
1.0
  6
BYLAYER
100
AcDbCircle
 10
-60.7999999999999972
 20
41.7999999999999972
 30
0.0
 40
2.0
100
AcDbArc
 50
90.0
 51
180.0
  0
ARC
  5
8C
100
AcDbEntity
  8
0
 62
256
370
-1
 48
1.0
  6
BYLAYER
100
AcDbCircle
 10
-53.2000000000000028
 20
41.7999999999999972
 30
0.0
 40
2.0
100
AcDbArc
 50
0.0
 51
90.0
  0
ARC
  5
8D
100
AcDbEntity
  8
0
 62
256
370
-1
 48
1.0
  6
BYLAYER
100
AcDbCircle
 10
-60.7999999999999972
 20
-41.7999999999999972
 30
0.0
 40
2.0
100
AcDbArc
 50
180.0
 51
270.0
  0
ARC
  5
8E
100
AcDbEntity
  8
0
 62
256
370
-1
 48
1.0
  6
BYLAYER
100
AcDbCircle
 10
-53.2000000000000028
 20
-41.7999999999999972
 30
0.0
 40
2.0
100
AcDbArc
 50
270.0
 51
0.0
  0
ARC
  5
8F
100
AcDbEntity
  8
0
 62
256
370
-1
 48
1.0
  6
BYLAYER
100
AcDbCircle
 10
-112.9999999999999858
 20
-36.7999999999999972
 30
0.0
 40
3.0
100
AcDbArc
 50
180.0
 51
270.0
  0
ARC
  5
90
100
AcDbEntity
  8
0
 62
256
370
-1
 48
1.0
  6
BYLAYER
100
AcDbCircle
 10
-113.0
 20
36.7999999999999972
 30
0.0
 40
3.0
100
AcDbArc
 50
90.0
 51
180.0
  0
ARC
  5
91
100
AcDbEntity
  8
0
 62
256
370
-1
 48
1.0
  6
BYLAYER
100
AcDbCircle
 10
113.0
 20
36.7999999999999972
 30
0.0
 40
3.0
100
AcDbArc
 50
0.0
 51
90.0
  0
ARC
  5
92
100
AcDbEntity
  8
0
 62
256
370
-1
 48
1.0
  6
BYLAYER
100
AcDbCircle
 10
113.0
 20
-36.7999999999999972
 30
0.0
 40
3.0
100
AcDbArc
 50
270.0
 51
0.0
  0
LINE
  5
93
100
AcDbEntity
  8
0
 62
256
370
-1
 48
1.0
  6
BYLAYER
100
AcDbLine
 10
-51.2000000000000028
 20
39.7999999999999901
 30
0.0
 11
51.2000000000000171
 21
39.7999999999999901
 31
0.0
  0
LINE
  5
94
100
AcDbEntity
  8
0
 62
256
370
-1
 48
1.0
  6
BYLAYER
100
AcDbLine
 10
-51.2000000000000099
 20
-39.7999999999999901
 30
0.0
 11
51.2000000000000099
 21
-39.7999999999999901
 31
0.0
  0
LWPOLYLINE
  5
95
100
AcDbEntity
  8
0
 62
256
370
-1
 48
1.0
  6
BYLAYER
100
AcDbPolyline
 90
25
 70
129
 10
-102.3949798843739387
 20
-29.5935350756533708
 10
-101.3571531993670618
 20
-28.2193947730398911
 42
0.0696093212755977
 10
-101.2323251388443595
 20
-28.0017193947730405
 42
0.0941748699773136
 10
-101.18796475369993
 20
-27.7922971114167829
 10
-101.18796475369993
 20
-27.7881705639614864
 42
0.2209890920451927
 10
-101.2797804345802604
 20
-27.5550206327372749
 42
0.1877866773836255
 10
-101.5407845611277082
 20
-27.4724896836313626
 42
0.206387063010067
 10
-101.8017886876751703
 20
-27.5725584594222823
 42
0.1694445795020479
 10
-101.9245534744702155
 20
-27.8562585969738663
 10
-101.9245534744702155
 20
-27.8583218707015128
 10
-102.4321188114715966
 20
-27.8583218707015128
 10
-102.4321188114715966
 20
-27.8562585969738663
 42
-0.1098354079160308
 10
-102.287689650536251
 20
-27.3940852819807432
 42
-0.138173480721678
 10
-101.9823251388443595
 20
-27.1011004126547448
 42
-0.1243654329250204
 10
-101.5449111085830083
 20
-27.0
 42
-0.1105738648861457
 10
-101.0755163355431279
 20
-27.0918156808803303
 42
-0.1566728204018058
 10
-100.7794365556256508
 20
-27.3590096286107283
 42
-0.1327314932859832
 10
-100.6783361429709061
 20
-27.7819807427785435
 10
-100.6783361429709061
 20
-27.7840440165061899
 42
-0.0881776767540104
 10
-100.746424175983293
 20
-28.1523383768913362
 42
-0.0755274249828287
 10
-100.9383086326545396
 20
-28.50206327372765
 10
-101.7409221127095549
 20
-29.5584594222833559
 10
-100.66182995314972
 20
-29.5584594222833559
 10
-100.66182995314972
 20
-30.0309491059147184
 10
-102.3949798843739387
 20
-30.0309491059147184
  0
LWPOLYLINE
  5
96
100
AcDbEntity
  8
0
 62
256
370
-1
 48
1.0
  6
BYLAYER
100
AcDbPolyline
 90
4
 70
129
 10
-100.2192654952374085
 20
-29.5275103163686374
 10
-99.7158267056913274
 20
-29.5275103163686374
 10
-99.7158267056913274
 20
-30.0309491059147184
 10
-100.2192654952374085
 20
-30.0309491059147184
  0
LWPOLYLINE
  5
97
100
AcDbEntity
  8
0
 62
256
370
-1
 48
1.0
  6
BYLAYER
100
AcDbPolyline
 90
7
 70
129
 10
-98.4387533482950801
 20
-30.0309491059147184
 10
-98.931875769202918
 20
-30.0309491059147184
 10
-98.931875769202918
 20
-27.5921595598349398
 10
-99.3280243249113113
 20
-27.7922971114167829
 10
-99.3280243249113113
 20
-27.2744154057771659
 10
-98.8906102946499743
 20
-27.0309491059147184
 10
-98.4387533482950801
 20
-27.0309491059147184
  0
LINE
  5
98
100
AcDbEntity
  8
0
 62
256
370
-1
 48
1.0
  6
BYLAYER
100
AcDbLine
 10
-105.3995873452544743
 20
-27.8892709766162312
 30
0.0
 11
-104.3184319119669823
 21
-27.8892709766162312
 31
0.0
  0
LINE
  5
99
100
AcDbEntity
  8
0
 62
256
370
-1
 48
1.0
  6
BYLAYER
100
AcDbLine
 10
-104.5928473177441589
 20
-27.8892709766162312
 30
0.0
 11
-104.0997248968363067
 21
-27.8892709766162312
 31
0.0
  0
LINE
  5
9A
100
AcDbEntity
  8
0
 62
256
370
-1
 48
1.0
  6
BYLAYER
100
AcDbLine
 10
-104.0997248968363067
 20
-27.8892709766162312
 30
0.0
 11
-104.0997248968363067
 21
-30.0309491059147184
 31
0.0
  0
LINE
  5
9B
100
AcDbEntity
  8
0
 62
256
370
-1
 48
1.0
  6
BYLAYER
100
AcDbLine
 10
-104.0997248968363067
 20
-30.0309491059147184
 30
0.0
 11
-104.5928473177441589
 21
-30.0309491059147184
 31
0.0
  0
ARC
  5
9C
100
AcDbEntity
  8
0
 62
256
370
-1
 48
1.0
  6
BYLAYER
100
AcDbCircle
 10
-105.9895908900341084
 20
-29.3071294181994197
 30
0.0
 40
0.2701001151401887
100
AcDbArc
 50
267.7913900780865788
 51
325.94288009976799
  0
ARC
  5
9D
100
AcDbEntity
  8
0
 62
256
370
-1
 48
1.0
  6
BYLAYER
100
AcDbCircle
 10
-106.2535296348832361
 20
-29.1589983450825478
 30
0.0
 40
0.5722743814353339
100
AcDbArc
 50
328.4553970406871599
 51
3.3886553251595672
  0
LINE
  5
9E
100
AcDbEntity
  8
0
 62
256
370
-1
 48
1.0
  6
BYLAYER
100
AcDbLine
 10
-105.6822558459422225
 20
-29.1251719394773048
 30
0.0
 11
-105.6822558459422225
 21
-27.8892709766162312
 31
0.0
  0
LINE
  5
9F
100
AcDbEntity
  8
0
 62
256
370
-1
 48
1.0
  6
BYLAYER
100
AcDbLine
 10
-105.6822558459422225
 20
-27.8892709766162312
 30
0.0
 11
-105.2077028885832135
 21
-27.8892709766162312
 31
0.0
  0
ARC
  5
A0
100
AcDbEntity
  8
0
 62
256
370
-1
 48
1.0
  6
BYLAYER
100
AcDbCircle
 10
-106.3391491646067095
 20
-29.2134993012534814
 30
0.0
 40
1.1318587925051231
100
AcDbArc
 50
337.2442232821214247
 51
1.5469466965738752
  0
ARC
  5
A1
100
AcDbEntity
  8
0
 62
256
370
-1
 48
1.0
  6
BYLAYER
100
AcDbCircle
 10
-105.8888436072662245
 20
-29.3959034727309891
 30
0.0
 40
0.6460770952378271
100
AcDbArc
 50
301.3960121140219712
 51
336.7144462943608119
  0
ARC
  5
A2
100
AcDbEntity
  8
0
 62
256
370
-1
 48
1.0
  6
BYLAYER
100
AcDbCircle
 10
-105.9365966636265881
 20
-29.2777326200676207
 30
0.0
 40
0.7721033846648745
100
AcDbArc
 50
268.3569818105224272
 51
299.8523308024270477
  0
LINE
  5
A3
100
AcDbEntity
  8
0
 62
256
370
-1
 48
1.0
  6
BYLAYER
100
AcDbLine
 10
-105.9587345254470421
 20
-30.0495185694635509
 30
0.0
 11
-106.0
 21
-30.0495185694635509
 31
0.0
  0
LINE
  5
A4
100
AcDbEntity
  8
0
 62
256
370
-1
 48
1.0
  6
BYLAYER
100
AcDbLine
 10
-106.0
 20
-30.0495185694635509
 30
0.0
 11
-106.0
 21
-29.5770288858322061
 31
0.0
  0
LINE
  5
A5
100
AcDbEntity
  8
0
 62
256
370
-1
 48
1.0
  6
BYLAYER
100
AcDbLine
 10
-104.5928473177441589
 20
-30.0309491059147184
 30
0.0
 11
-104.5928473177441589
 21
-28.3617606602475973
 31
0.0
  0
LINE
  5
A6
100
AcDbEntity
  8
0
 62
256
370
-1
 48
1.0
  6
BYLAYER
100
AcDbLine
 10
-105.2077028885832135
 20
-28.3617606602475938
 30
0.0
 11
-105.2077028885832135
 21
-29.1829436038514451
 31
0.0
  0
LINE
  5
A7
100
AcDbEntity
  8
0
 62
256
370
-1
 48
1.0
  6
BYLAYER
100
AcDbLine
 10
-104.5928473177441447
 20
-28.3617606602475938
 30
0.0
 11
-105.2077028885832277
 21
-28.3617606602475938
 31
0.0
  0
LINE
  5
A8
100
AcDbEntity
  8
0
 62
256
370
-1
 48
1.0
  6
BYLAYER
100
AcDbLine
 10
62.8000000000000114
 20
-39.7999999999999972
 30
0.0
 11
62.9500000000000099
 21
-39.7999999999999972
 31
0.0
  0
LINE
  5
A9
100
AcDbEntity
  8
0
 62
256
370
-1
 48
1.0
  6
BYLAYER
100
AcDbLine
 10
62.8000000000000043
 20
39.7999999999999972
 30
0.0
 11
62.9500000000000028
 21
39.7999999999999972
 31
0.0
  0
LINE
  5
AA
100
AcDbEntity
  8
0
 62
256
370
-1
 48
1.0
  6
BYLAYER
100
AcDbLine
 10
-62.9499999999999957
 20
39.7999999999999972
 30
0.0
 11
-62.7999999999999972
 21
39.7999999999999972
 31
0.0
  0
LINE
  5
AB
100
AcDbEntity
  8
0
 62
256
370
-1
 48
1.0
  6
BYLAYER
100
AcDbLine
 10
-62.9499999999999957
 20
-39.7999999999999972
 30
0.0
 11
-62.7999999999999972
 21
-39.7999999999999972
 31
0.0
  0
LINE
  5
AC
100
AcDbEntity
  8
0
 62
256
370
-1
 48
1.0
  6
BYLAYER
100
AcDbLine
 10
95.3937499999999972
 20
11.1119999999999877
 30
0.0
 11
95.3937500000000114
 21
26.988000000000028
 31
0.0
  0
ARC
  5
AD
100
AcDbEntity
  8
0
 62
256
370
-1
 48
1.0
  6
BYLAYER
100
AcDbCircle
 10
94.8937499999999545
 20
26.9879999999999356
 30
0.0
 40
0.500000000000056
100
AcDbArc
 50
0.0000000000097707
 51
90.0
  0
LINE
  5
AE
100
AcDbEntity
  8
0
 62
256
370
-1
 48
1.0
  6
BYLAYER
100
AcDbLine
 10
94.8937499999999972
 20
27.4879999999999924
 30
0.0
 11
93.8937499999999972
 21
27.4880000000000528
 31
0.0
  0
CIRCLE
  5
AF
100
AcDbEntity
  8
0
 62
256
370
-1
 48
1.0
  6
BYLAYER
100
AcDbCircle
 10
-57.0
 20
41.0
 30
0.0
 40
1.6000000000000014
  0
ARC
  5
B0
100
AcDbEntity
  8
0
 62
256
370
-1
 48
1.0
  6
BYLAYER
100
AcDbCircle
 10
93.8937500000000256
 20
27.9880000000001061
 30
0.0
 40
0.5000000000000271
100
AcDbArc
 50
180.0000000000097486
 51
270.0
  0
CIRCLE
  5
B1
100
AcDbEntity
  8
0
 62
256
370
-1
 48
1.0
  6
BYLAYER
100
AcDbCircle
 10
-57.0
 20
-41.0
 30
0.0
 40
1.6000000000000014
  0
LINE
  5
B2
100
AcDbEntity
  8
0
 62
256
370
-1
 48
1.0
  6
BYLAYER
100
AcDbLine
 10
93.3937499999999972
 20
27.988000000000028
 30
0.0
 11
93.3937499999999972
 21
33.9879999999999995
 31
0.0
  0
CIRCLE
  5
B3
100
AcDbEntity
  8
0
 62
256
370
-1
 48
1.0
  6
BYLAYER
100
AcDbCircle
 10
57.0
 20
-41.0
 30
0.0
 40
1.6000000000000014
  0
ARC
  5
B4
100
AcDbEntity
  8
0
 62
256
370
-1
 48
1.0
  6
BYLAYER
100
AcDbCircle
 10
93.8937499999999545
 20
33.9880000000000564
 30
0.0
 40
0.4999999999999716
100
AcDbArc
 50
90.0
 51
180.0000000000048885
  0
CIRCLE
  5
B5
100
AcDbEntity
  8
0
 62
256
370
-1
 48
1.0
  6
BYLAYER
100
AcDbCircle
 10
57.0
 20
41.0
 30
0.0
 40
1.6000000000000014
  0
LINE
  5
B6
100
AcDbEntity
  8
0
 62
256
370
-1
 48
1.0
  6
BYLAYER
100
AcDbLine
 10
93.8937500000000114
 20
34.4880000000000138
 30
0.0
 11
94.8937499999999972
 21
34.4880000000000209
 31
0.0
  0
ARC
  5
B7
100
AcDbEntity
  8
0
 62
256
370
-1
 48
1.0
  6
BYLAYER
100
AcDbCircle
 10
94.8937499999999545
 20
34.9880000000000209
 30
0.0
 40
0.5000000000000071
100
AcDbArc
 50
270.0
 51
0.0
  0
LINE
  5
B8
100
AcDbEntity
  8
0
 62
256
370
-1
 48
1.0
  6
BYLAYER
100
AcDbLine
 10
95.3937499999999687
 20
34.988000000000028
 30
0.0
 11
95.3937500000000114
 21
35.0750000000000384
 31
0.0
  0
ARC
  5
B9
100
AcDbEntity
  8
0
 62
256
370
-1
 48
1.0
  6
BYLAYER
100
AcDbCircle
 10
95.8937499999999829
 20
35.0750000000000668
 30
0.0
 40
0.4999999999999716
100
AcDbArc
 50
90.0
 51
180.0000000000032401
  0
LINE
  5
BA
100
AcDbEntity
  8
0
 62
256
370
-1
 48
1.0
  6
BYLAYER
100
AcDbLine
 10
95.8937499999999972
 20
35.5750000000000384
 30
0.0
 11
108.8937499999999972
 21
35.5750000000000313
 31
0.0
  0
ARC
  5
BB
100
AcDbEntity
  8
0
 62
256
370
-1
 48
1.0
  6
BYLAYER
100
AcDbCircle
 10
108.8937499999999261
 20
35.0749999999999531
 30
0.0
 40
0.5000000000000737
100
AcDbArc
 50
0.0000000000097707
 51
90.0
  0
LINE
  5
BC
100
AcDbEntity
  8
0
 62
256
370
-1
 48
1.0
  6
BYLAYER
100
AcDbLine
 10
109.3937499999999972
 20
35.0750000000000455
 30
0.0
 11
109.3937500000000114
 21
3.0250000000000199
 31
0.0
  0
ARC
  5
BD
100
AcDbEntity
  8
0
 62
256
370
-1
 48
1.0
  6
BYLAYER
100
AcDbCircle
 10
108.8937500000000398
 20
3.0249999999999737
 30
0.0
 40
0.4999999999999716
100
AcDbArc
 50
270.0
 51
0.0000000000048853
  0
LINE
  5
BE
100
AcDbEntity
  8
0
 62
256
370
-1
 48
1.0
  6
BYLAYER
100
AcDbLine
 10
108.8937499999999829
 20
2.524999999999995
 30
0.0
 11
95.8937500000000114
 21
2.5250000000000021
 31
0.0
  0
ARC
  5
BF
100
AcDbEntity
  8
0
 62
256
370
-1
 48
1.0
  6
BYLAYER
100
AcDbCircle
 10
95.8937500000000256
 20
3.025000000000027
 30
0.0
 40
0.5000000000000338
100
AcDbArc
 50
180.0
 51
270.0
  0
LINE
  5
C0
100
AcDbEntity
  8
0
 62
256
370
-1
 48
1.0
  6
BYLAYER
100
AcDbLine
 10
95.3937499999999829
 20
3.0250000000000234
 30
0.0
 11
95.3937499999999972
 21
3.1120000000000125
 31
0.0
  0
ARC
  5
C1
100
AcDbEntity
  8
0
 62
256
370
-1
 48
1.0
  6
BYLAYER
100
AcDbCircle
 10
94.8937499999999545
 20
3.1119999999999628
 30
0.0
 40
0.5000000000000515
100
AcDbArc
 50
0.0000000000065138
 51
90.0
  0
LINE
  5
C2
100
AcDbEntity
  8
0
 62
256
370
-1
 48
1.0
  6
BYLAYER
100
AcDbLine
 10
94.8937499999999972
 20
3.6119999999999877
 30
0.0
 11
93.8937499999999972
 21
3.6119999999999948
 31
0.0
  0
ARC
  5
C3
100
AcDbEntity
  8
0
 62
256
370
-1
 48
1.0
  6
BYLAYER
100
AcDbCircle
 10
93.8937500000000398
 20
4.1120000000000161
 30
0.0
 40
0.5000000000000338
100
AcDbArc
 50
180.0
 51
270.0
  0
LINE
  5
C4
100
AcDbEntity
  8
0
 62
256
370
-1
 48
1.0
  6
BYLAYER
100
AcDbLine
 10
93.3937500000000114
 20
4.1120000000000232
 30
0.0
 11
93.3937499999999972
 21
10.1120000000000196
 31
0.0
  0
ARC
  5
C5
100
AcDbEntity
  8
0
 62
256
370
-1
 48
1.0
  6
BYLAYER
100
AcDbCircle
 10
93.8937499999999545
 20
10.1120000000000463
 30
0.0
 40
0.4999999999999716
100
AcDbArc
 50
90.0
 51
180.0000000000032401
  0
LINE
  5
C6
100
AcDbEntity
  8
0
 62
256
370
-1
 48
1.0
  6
BYLAYER
100
AcDbLine
 10
93.8937499999999972
 20
10.6120000000000143
 30
0.0
 11
94.8937499999999972
 21
10.6120000000000214
 31
0.0
  0
ARC
  5
C7
100
AcDbEntity
  8
0
 62
256
370
-1
 48
1.0
  6
BYLAYER
100
AcDbCircle
 10
94.8937499999999545
 20
11.1120000000000712
 30
0.0
 40
0.5000000000000426
100
AcDbArc
 50
270.0
 51
0.0
  0
LINE
  5
C8
100
AcDbEntity
  8
0
 62
256
370
-1
 48
1.0
  6
BYLAYER
100
AcDbLine
 10
-6.9999999999999982
 20
21.5750000000000064
 30
0.0
 11
7.0000000000000018
 21
21.5750000000000064
 31
0.0
  0
LINE
  5
C9
100
AcDbEntity
  8
0
 62
256
370
-1
 48
1.0
  6
BYLAYER
100
AcDbLine
 10
7.0000000000000018
 20
21.5750000000000064
 30
0.0
 11
7.0000000000000018
 21
35.5750000000000028
 31
0.0
  0
LINE
  5
CA
100
AcDbEntity
  8
0
 62
256
370
-1
 48
1.0
  6
BYLAYER
100
AcDbLine
 10
7.0000000000000018
 20
35.5750000000000028
 30
0.0
 11
-6.9999999999999982
 21
35.5750000000000028
 31
0.0
  0
LINE
  5
CB
100
AcDbEntity
  8
0
 62
256
370
-1
 48
1.0
  6
BYLAYER
100
AcDbLine
 10
-6.9999999999999982
 20
35.5750000000000028
 30
0.0
 11
-6.9999999999999982
 21
21.5750000000000064
 31
0.0
  0
LINE
  5
CC
100
AcDbEntity
  8
0
 62
256
370
-1
 48
1.0
  6
BYLAYER
100
AcDbLine
 10
-6.9999999999999991
 20
2.5250000000000004
 30
0.0
 11
7.0000000000000009
 21
2.5250000000000004
 31
0.0
  0
LINE
  5
CD
100
AcDbEntity
  8
0
 62
256
370
-1
 48
1.0
  6
BYLAYER
100
AcDbLine
 10
7.0000000000000009
 20
2.5250000000000004
 30
0.0
 11
7.0000000000000009
 21
16.5249999999999986
 31
0.0
  0
LINE
  5
CE
100
AcDbEntity
  8
0
 62
256
370
-1
 48
1.0
  6
BYLAYER
100
AcDbLine
 10
7.0000000000000009
 20
16.5249999999999986
 30
0.0
 11
-6.9999999999999991
 21
16.5249999999999986
 31
0.0
  0
LINE
  5
CF
100
AcDbEntity
  8
0
 62
256
370
-1
 48
1.0
  6
BYLAYER
100
AcDbLine
 10
-6.9999999999999991
 20
16.5249999999999986
 30
0.0
 11
-6.9999999999999991
 21
2.5250000000000004
 31
0.0
  0
LINE
  5
D0
100
AcDbEntity
  8
0
 62
256
370
-1
 48
1.0
  6
BYLAYER
100
AcDbLine
 10
2.5250000000000004
 20
-16.5249999999999986
 30
0.0
 11
16.5249999999999986
 21
-16.5249999999999986
 31
0.0
  0
LINE
  5
D1
100
AcDbEntity
  8
0
 62
256
370
-1
 48
1.0
  6
BYLAYER
100
AcDbLine
 10
16.5249999999999986
 20
-16.5249999999999986
 30
0.0
 11
16.5249999999999986
 21
-2.5250000000000004
 31
0.0
  0
LINE
  5
D2
100
AcDbEntity
  8
0
 62
256
370
-1
 48
1.0
  6
BYLAYER
100
AcDbLine
 10
16.5249999999999986
 20
-2.5250000000000004
 30
0.0
 11
2.5250000000000004
 21
-2.5250000000000004
 31
0.0
  0
LINE
  5
D3
100
AcDbEntity
  8
0
 62
256
370
-1
 48
1.0
  6
BYLAYER
100
AcDbLine
 10
2.5250000000000004
 20
-2.5250000000000004
 30
0.0
 11
2.5250000000000004
 21
-16.5249999999999986
 31
0.0
  0
LINE
  5
D4
100
AcDbEntity
  8
0
 62
256
370
-1
 48
1.0
  6
BYLAYER
100
AcDbLine
 10
-16.5249999999999986
 20
-16.5249999999999986
 30
0.0
 11
-2.5250000000000004
 21
-16.5249999999999986
 31
0.0
  0
LINE
  5
D5
100
AcDbEntity
  8
0
 62
256
370
-1
 48
1.0
  6
BYLAYER
100
AcDbLine
 10
-2.5250000000000004
 20
-16.5249999999999986
 30
0.0
 11
-2.5250000000000004
 21
-2.5250000000000004
 31
0.0
  0
LINE
  5
D6
100
AcDbEntity
  8
0
 62
256
370
-1
 48
1.0
  6
BYLAYER
100
AcDbLine
 10
-2.5250000000000004
 20
-2.5250000000000004
 30
0.0
 11
-16.5249999999999986
 21
-2.5250000000000004
 31
0.0
  0
LINE
  5
D7
100
AcDbEntity
  8
0
 62
256
370
-1
 48
1.0
  6
BYLAYER
100
AcDbLine
 10
-16.5249999999999986
 20
-2.5250000000000004
 30
0.0
 11
-16.5249999999999986
 21
-16.5249999999999986
 31
0.0
  0
LINE
  5
D8
100
AcDbEntity
  8
0
 62
256
370
-1
 48
1.0
  6
BYLAYER
100
AcDbLine
 10
4.9062499999999982
 20
-35.5750000000000028
 30
0.0
 11
18.90625
 21
-35.5750000000000028
 31
0.0
  0
LINE
  5
D9
100
AcDbEntity
  8
0
 62
256
370
-1
 48
1.0
  6
BYLAYER
100
AcDbLine
 10
18.90625
 20
-35.5750000000000028
 30
0.0
 11
18.90625
 21
-21.5750000000000028
 31
0.0
  0
LINE
  5
DA
100
AcDbEntity
  8
0
 62
256
370
-1
 48
1.0
  6
BYLAYER
100
AcDbLine
 10
18.90625
 20
-21.5750000000000028
 30
0.0
 11
4.9062499999999982
 21
-21.5750000000000028
 31
0.0
  0
LINE
  5
DB
100
AcDbEntity
  8
0
 62
256
370
-1
 48
1.0
  6
BYLAYER
100
AcDbLine
 10
4.9062499999999982
 20
-21.5750000000000028
 30
0.0
 11
4.9062499999999982
 21
-35.5750000000000028
 31
0.0
  0
LINE
  5
DC
100
AcDbEntity
  8
0
 62
256
370
-1
 48
1.0
  6
BYLAYER
100
AcDbLine
 10
-18.90625
 20
-35.5750000000000028
 30
0.0
 11
-4.9062500000000018
 21
-35.5750000000000028
 31
0.0
  0
LINE
  5
DD
100
AcDbEntity
  8
0
 62
256
370
-1
 48
1.0
  6
BYLAYER
100
AcDbLine
 10
-4.9062500000000018
 20
-35.5750000000000028
 30
0.0
 11
-4.9062500000000018
 21
-21.5750000000000028
 31
0.0
  0
LINE
  5
DE
100
AcDbEntity
  8
0
 62
256
370
-1
 48
1.0
  6
BYLAYER
100
AcDbLine
 10
-4.9062500000000018
 20
-21.5750000000000028
 30
0.0
 11
-18.90625
 21
-21.5750000000000028
 31
0.0
  0
LINE
  5
DF
100
AcDbEntity
  8
0
 62
256
370
-1
 48
1.0
  6
BYLAYER
100
AcDbLine
 10
-18.90625
 20
-21.5750000000000028
 30
0.0
 11
-18.90625
 21
-35.5750000000000028
 31
0.0
  0
LINE
  5
E0
100
AcDbEntity
  8
0
 62
256
370
-1
 48
1.0
  6
BYLAYER
100
AcDbLine
 10
28.71875
 20
-35.5750000000000028
 30
0.0
 11
42.71875
 21
-35.5750000000000028
 31
0.0
  0
LINE
  5
E1
100
AcDbEntity
  8
0
 62
256
370
-1
 48
1.0
  6
BYLAYER
100
AcDbLine
 10
42.71875
 20
-35.5750000000000028
 30
0.0
 11
42.71875
 21
-21.5750000000000028
 31
0.0
  0
LINE
  5
E2
100
AcDbEntity
  8
0
 62
256
370
-1
 48
1.0
  6
BYLAYER
100
AcDbLine
 10
42.71875
 20
-21.5750000000000028
 30
0.0
 11
28.71875
 21
-21.5750000000000028
 31
0.0
  0
LINE
  5
E3
100
AcDbEntity
  8
0
 62
256
370
-1
 48
1.0
  6
BYLAYER
100
AcDbLine
 10
28.71875
 20
-21.5750000000000028
 30
0.0
 11
28.71875
 21
-35.5750000000000028
 31
0.0
  0
LINE
  5
E4
100
AcDbEntity
  8
0
 62
256
370
-1
 48
1.0
  6
BYLAYER
100
AcDbLine
 10
21.5750000000000028
 20
-16.5249999999999986
 30
0.0
 11
35.5750000000000028
 21
-16.5249999999999986
 31
0.0
  0
LINE
  5
E5
100
AcDbEntity
  8
0
 62
256
370
-1
 48
1.0
  6
BYLAYER
100
AcDbLine
 10
35.5750000000000028
 20
-16.5249999999999986
 30
0.0
 11
35.5750000000000028
 21
-2.5250000000000004
 31
0.0
  0
LINE
  5
E6
100
AcDbEntity
  8
0
 62
256
370
-1
 48
1.0
  6
BYLAYER
100
AcDbLine
 10
35.5750000000000028
 20
-2.5250000000000004
 30
0.0
 11
21.5750000000000028
 21
-2.5250000000000004
 31
0.0
  0
LINE
  5
E7
100
AcDbEntity
  8
0
 62
256
370
-1
 48
1.0
  6
BYLAYER
100
AcDbLine
 10
21.5750000000000028
 20
-2.5250000000000004
 30
0.0
 11
21.5750000000000028
 21
-16.5249999999999986
 31
0.0
  0
LINE
  5
E8
100
AcDbEntity
  8
0
 62
256
370
-1
 48
1.0
  6
BYLAYER
100
AcDbLine
 10
16.8125
 20
2.5250000000000004
 30
0.0
 11
30.8125
 21
2.5250000000000004
 31
0.0
  0
LINE
  5
E9
100
AcDbEntity
  8
0
 62
256
370
-1
 48
1.0
  6
BYLAYER
100
AcDbLine
 10
30.8125
 20
2.5250000000000004
 30
0.0
 11
30.8125
 21
16.5249999999999986
 31
0.0
  0
LINE
  5
EA
100
AcDbEntity
  8
0
 62
256
370
-1
 48
1.0
  6
BYLAYER
100
AcDbLine
 10
30.8125
 20
16.5249999999999986
 30
0.0
 11
16.8125
 21
16.5249999999999986
 31
0.0
  0
LINE
  5
EB
100
AcDbEntity
  8
0
 62
256
370
-1
 48
1.0
  6
BYLAYER
100
AcDbLine
 10
16.8125
 20
16.5249999999999986
 30
0.0
 11
16.8125
 21
2.5250000000000004
 31
0.0
  0
LINE
  5
EC
100
AcDbEntity
  8
0
 62
256
370
-1
 48
1.0
  6
BYLAYER
100
AcDbLine
 10
12.0500000000000007
 20
21.5750000000000028
 30
0.0
 11
26.0500000000000007
 21
21.5750000000000028
 31
0.0
  0
LINE
  5
ED
100
AcDbEntity
  8
0
 62
256
370
-1
 48
1.0
  6
BYLAYER
100
AcDbLine
 10
26.0500000000000007
 20
21.5750000000000028
 30
0.0
 11
26.0500000000000007
 21
35.5750000000000028
 31
0.0
  0
LINE
  5
EE
100
AcDbEntity
  8
0
 62
256
370
-1
 48
1.0
  6
BYLAYER
100
AcDbLine
 10
26.0500000000000007
 20
35.5750000000000028
 30
0.0
 11
12.0500000000000007
 21
35.5750000000000028
 31
0.0
  0
LINE
  5
EF
100
AcDbEntity
  8
0
 62
256
370
-1
 48
1.0
  6
BYLAYER
100
AcDbLine
 10
12.0500000000000007
 20
35.5750000000000028
 30
0.0
 11
12.0500000000000007
 21
21.5750000000000028
 31
0.0
  0
LINE
  5
F0
100
AcDbEntity
  8
0
 62
256
370
-1
 48
1.0
  6
BYLAYER
100
AcDbLine
 10
31.1000000000000014
 20
21.5750000000000028
 30
0.0
 11
45.1000000000000014
 21
21.5750000000000028
 31
0.0
  0
LINE
  5
F1
100
AcDbEntity
  8
0
 62
256
370
-1
 48
1.0
  6
BYLAYER
100
AcDbLine
 10
45.1000000000000014
 20
21.5750000000000028
 30
0.0
 11
45.1000000000000014
 21
35.5750000000000028
 31
0.0
  0
LINE
  5
F2
100
AcDbEntity
  8
0
 62
256
370
-1
 48
1.0
  6
BYLAYER
100
AcDbLine
 10
45.1000000000000014
 20
35.5750000000000028
 30
0.0
 11
31.1000000000000014
 21
35.5750000000000028
 31
0.0
  0
LINE
  5
F3
100
AcDbEntity
  8
0
 62
256
370
-1
 48
1.0
  6
BYLAYER
100
AcDbLine
 10
31.1000000000000014
 20
35.5750000000000028
 30
0.0
 11
31.1000000000000014
 21
21.5750000000000028
 31
0.0
  0
LINE
  5
F4
100
AcDbEntity
  8
0
 62
256
370
-1
 48
1.0
  6
BYLAYER
100
AcDbLine
 10
40.625
 20
-16.5249999999999986
 30
0.0
 11
54.625
 21
-16.5249999999999986
 31
0.0
  0
LINE
  5
F5
100
AcDbEntity
  8
0
 62
256
370
-1
 48
1.0
  6
BYLAYER
100
AcDbLine
 10
54.625
 20
-16.5249999999999986
 30
0.0
 11
54.625
 21
-2.5250000000000004
 31
0.0
  0
LINE
  5
F6
100
AcDbEntity
  8
0
 62
256
370
-1
 48
1.0
  6
BYLAYER
100
AcDbLine
 10
54.625
 20
-2.5250000000000004
 30
0.0
 11
40.625
 21
-2.5250000000000004
 31
0.0
  0
LINE
  5
F7
100
AcDbEntity
  8
0
 62
256
370
-1
 48
1.0
  6
BYLAYER
100
AcDbLine
 10
40.625
 20
-2.5250000000000004
 30
0.0
 11
40.625
 21
-16.5249999999999986
 31
0.0
  0
LINE
  5
F8
100
AcDbEntity
  8
0
 62
256
370
-1
 48
1.0
  6
BYLAYER
100
AcDbLine
 10
35.8624999999999972
 20
2.5250000000000004
 30
0.0
 11
49.8624999999999972
 21
2.5250000000000004
 31
0.0
  0
LINE
  5
F9
100
AcDbEntity
  8
0
 62
256
370
-1
 48
1.0
  6
BYLAYER
100
AcDbLine
 10
49.8624999999999972
 20
2.5250000000000004
 30
0.0
 11
49.8624999999999972
 21
16.5249999999999986
 31
0.0
  0
LINE
  5
FA
100
AcDbEntity
  8
0
 62
256
370
-1
 48
1.0
  6
BYLAYER
100
AcDbLine
 10
49.8624999999999972
 20
16.5249999999999986
 30
0.0
 11
35.8624999999999972
 21
16.5249999999999986
 31
0.0
  0
LINE
  5
FB
100
AcDbEntity
  8
0
 62
256
370
-1
 48
1.0
  6
BYLAYER
100
AcDbLine
 10
35.8624999999999972
 20
16.5249999999999986
 30
0.0
 11
35.8624999999999972
 21
2.5250000000000004
 31
0.0
  0
LINE
  5
FC
100
AcDbEntity
  8
0
 62
256
370
-1
 48
1.0
  6
BYLAYER
100
AcDbLine
 10
50.1500000000000057
 20
21.5750000000000028
 30
0.0
 11
64.1500000000000057
 21
21.5750000000000028
 31
0.0
  0
LINE
  5
FD
100
AcDbEntity
  8
0
 62
256
370
-1
 48
1.0
  6
BYLAYER
100
AcDbLine
 10
64.1500000000000057
 20
21.5750000000000028
 30
0.0
 11
64.1500000000000057
 21
35.5750000000000028
 31
0.0
  0
LINE
  5
FE
100
AcDbEntity
  8
0
 62
256
370
-1
 48
1.0
  6
BYLAYER
100
AcDbLine
 10
64.1500000000000057
 20
35.5750000000000028
 30
0.0
 11
50.1500000000000057
 21
35.5750000000000028
 31
0.0
  0
LINE
  5
FF
100
AcDbEntity
  8
0
 62
256
370
-1
 48
1.0
  6
BYLAYER
100
AcDbLine
 10
50.1500000000000057
 20
35.5750000000000028
 30
0.0
 11
50.1500000000000057
 21
21.5750000000000028
 31
0.0
  0
LINE
  5
100
100
AcDbEntity
  8
0
 62
256
370
-1
 48
1.0
  6
BYLAYER
100
AcDbLine
 10
54.9124999999999943
 20
2.5250000000000004
 30
0.0
 11
68.9124999999999943
 21
2.5250000000000004
 31
0.0
  0
LINE
  5
101
100
AcDbEntity
  8
0
 62
256
370
-1
 48
1.0
  6
BYLAYER
100
AcDbLine
 10
68.9124999999999943
 20
2.5250000000000004
 30
0.0
 11
68.9124999999999943
 21
16.5249999999999986
 31
0.0
  0
LINE
  5
102
100
AcDbEntity
  8
0
 62
256
370
-1
 48
1.0
  6
BYLAYER
100
AcDbLine
 10
68.9124999999999943
 20
16.5249999999999986
 30
0.0
 11
54.9124999999999943
 21
16.5249999999999986
 31
0.0
  0
LINE
  5
103
100
AcDbEntity
  8
0
 62
256
370
-1
 48
1.0
  6
BYLAYER
100
AcDbLine
 10
54.9124999999999943
 20
16.5249999999999986
 30
0.0
 11
54.9124999999999943
 21
2.5250000000000004
 31
0.0
  0
LINE
  5
104
100
AcDbEntity
  8
0
 62
256
370
-1
 48
1.0
  6
BYLAYER
100
AcDbLine
 10
69.2000000000000028
 20
21.5750000000000028
 30
0.0
 11
83.2000000000000028
 21
21.5750000000000028
 31
0.0
  0
LINE
  5
105
100
AcDbEntity
  8
0
 62
256
370
-1
 48
1.0
  6
BYLAYER
100
AcDbLine
 10
83.2000000000000028
 20
21.5750000000000028
 30
0.0
 11
83.2000000000000028
 21
35.5750000000000028
 31
0.0
  0
LINE
  5
106
100
AcDbEntity
  8
0
 62
256
370
-1
 48
1.0
  6
BYLAYER
100
AcDbLine
 10
83.2000000000000028
 20
35.5750000000000028
 30
0.0
 11
69.2000000000000028
 21
35.5750000000000028
 31
0.0
  0
LINE
  5
107
100
AcDbEntity
  8
0
 62
256
370
-1
 48
1.0
  6
BYLAYER
100
AcDbLine
 10
69.2000000000000028
 20
35.5750000000000028
 30
0.0
 11
69.2000000000000028
 21
21.5750000000000028
 31
0.0
  0
LINE
  5
108
100
AcDbEntity
  8
0
 62
256
370
-1
 48
1.0
  6
BYLAYER
100
AcDbLine
 10
73.9624999999999915
 20
2.5250000000000004
 30
0.0
 11
87.9624999999999915
 21
2.5250000000000004
 31
0.0
  0
LINE
  5
109
100
AcDbEntity
  8
0
 62
256
370
-1
 48
1.0
  6
BYLAYER
100
AcDbLine
 10
87.9624999999999915
 20
2.5250000000000004
 30
0.0
 11
87.9624999999999915
 21
16.5249999999999986
 31
0.0
  0
LINE
  5
10A
100
AcDbEntity
  8
0
 62
256
370
-1
 48
1.0
  6
BYLAYER
100
AcDbLine
 10
87.9624999999999915
 20
16.5249999999999986
 30
0.0
 11
73.9624999999999915
 21
16.5249999999999986
 31
0.0
  0
LINE
  5
10B
100
AcDbEntity
  8
0
 62
256
370
-1
 48
1.0
  6
BYLAYER
100
AcDbLine
 10
73.9624999999999915
 20
16.5249999999999986
 30
0.0
 11
73.9624999999999915
 21
2.5250000000000004
 31
0.0
  0
LINE
  5
10C
100
AcDbEntity
  8
0
 62
256
370
-1
 48
1.0
  6
BYLAYER
100
AcDbLine
 10
59.6749999999999972
 20
-16.5249999999999986
 30
0.0
 11
73.6749999999999972
 21
-16.5249999999999986
 31
0.0
  0
LINE
  5
10D
100
AcDbEntity
  8
0
 62
256
370
-1
 48
1.0
  6
BYLAYER
100
AcDbLine
 10
73.6749999999999972
 20
-16.5249999999999986
 30
0.0
 11
73.6749999999999972
 21
-2.5250000000000004
 31
0.0
  0
LINE
  5
10E
100
AcDbEntity
  8
0
 62
256
370
-1
 48
1.0
  6
BYLAYER
100
AcDbLine
 10
73.6749999999999972
 20
-2.5250000000000004
 30
0.0
 11
59.6749999999999972
 21
-2.5250000000000004
 31
0.0
  0
LINE
  5
10F
100
AcDbEntity
  8
0
 62
256
370
-1
 48
1.0
  6
BYLAYER
100
AcDbLine
 10
59.6749999999999972
 20
-2.5250000000000004
 30
0.0
 11
59.6749999999999972
 21
-16.5249999999999986
 31
0.0
  0
LINE
  5
110
100
AcDbEntity
  8
0
 62
256
370
-1
 48
1.0
  6
BYLAYER
100
AcDbLine
 10
52.53125
 20
-35.5750000000000028
 30
0.0
 11
66.53125
 21
-35.5750000000000028
 31
0.0
  0
LINE
  5
111
100
AcDbEntity
  8
0
 62
256
370
-1
 48
1.0
  6
BYLAYER
100
AcDbLine
 10
66.53125
 20
-35.5750000000000028
 30
0.0
 11
66.53125
 21
-21.5750000000000028
 31
0.0
  0
LINE
  5
112
100
AcDbEntity
  8
0
 62
256
370
-1
 48
1.0
  6
BYLAYER
100
AcDbLine
 10
66.53125
 20
-21.5750000000000028
 30
0.0
 11
52.53125
 21
-21.5750000000000028
 31
0.0
  0
LINE
  5
113
100
AcDbEntity
  8
0
 62
256
370
-1
 48
1.0
  6
BYLAYER
100
AcDbLine
 10
52.53125
 20
-21.5750000000000028
 30
0.0
 11
52.53125
 21
-35.5750000000000028
 31
0.0
  0
LINE
  5
114
100
AcDbEntity
  8
0
 62
256
370
-1
 48
1.0
  6
BYLAYER
100
AcDbLine
 10
73.9625000000000057
 20
-35.5750000000000028
 30
0.0
 11
87.9625000000000057
 21
-35.5750000000000028
 31
0.0
  0
LINE
  5
115
100
AcDbEntity
  8
0
 62
256
370
-1
 48
1.0
  6
BYLAYER
100
AcDbLine
 10
87.9625000000000057
 20
-35.5750000000000028
 30
0.0
 11
87.9625000000000057
 21
-21.5750000000000028
 31
0.0
  0
LINE
  5
116
100
AcDbEntity
  8
0
 62
256
370
-1
 48
1.0
  6
BYLAYER
100
AcDbLine
 10
87.9625000000000057
 20
-21.5750000000000028
 30
0.0
 11
73.9625000000000057
 21
-21.5750000000000028
 31
0.0
  0
LINE
  5
117
100
AcDbEntity
  8
0
 62
256
370
-1
 48
1.0
  6
BYLAYER
100
AcDbLine
 10
73.9625000000000057
 20
-21.5750000000000028
 30
0.0
 11
73.9625000000000057
 21
-35.5750000000000028
 31
0.0
  0
LINE
  5
118
100
AcDbEntity
  8
0
 62
256
370
-1
 48
1.0
  6
BYLAYER
100
AcDbLine
 10
78.7249999999999943
 20
-16.5249999999999986
 30
0.0
 11
92.7249999999999943
 21
-16.5249999999999986
 31
0.0
  0
LINE
  5
119
100
AcDbEntity
  8
0
 62
256
370
-1
 48
1.0
  6
BYLAYER
100
AcDbLine
 10
92.7249999999999943
 20
-16.5249999999999986
 30
0.0
 11
92.7249999999999943
 21
-2.5250000000000004
 31
0.0
  0
LINE
  5
11A
100
AcDbEntity
  8
0
 62
256
370
-1
 48
1.0
  6
BYLAYER
100
AcDbLine
 10
92.7249999999999943
 20
-2.5250000000000004
 30
0.0
 11
78.7249999999999943
 21
-2.5250000000000004
 31
0.0
  0
LINE
  5
11B
100
AcDbEntity
  8
0
 62
256
370
-1
 48
1.0
  6
BYLAYER
100
AcDbLine
 10
78.7249999999999943
 20
-2.5250000000000004
 30
0.0
 11
78.7249999999999943
 21
-16.5249999999999986
 31
0.0
  0
LINE
  5
11C
100
AcDbEntity
  8
0
 62
256
370
-1
 48
1.0
  6
BYLAYER
100
AcDbLine
 10
97.7749999999999915
 20
-16.5249999999999986
 30
0.0
 11
111.7749999999999915
 21
-16.5249999999999986
 31
0.0
  0
LINE
  5
11D
100
AcDbEntity
  8
0
 62
256
370
-1
 48
1.0
  6
BYLAYER
100
AcDbLine
 10
111.7749999999999915
 20
-16.5249999999999986
 30
0.0
 11
111.7749999999999915
 21
-2.5250000000000004
 31
0.0
  0
LINE
  5
11E
100
AcDbEntity
  8
0
 62
256
370
-1
 48
1.0
  6
BYLAYER
100
AcDbLine
 10
111.7749999999999915
 20
-2.5250000000000004
 30
0.0
 11
97.7749999999999915
 21
-2.5250000000000004
 31
0.0
  0
LINE
  5
11F
100
AcDbEntity
  8
0
 62
256
370
-1
 48
1.0
  6
BYLAYER
100
AcDbLine
 10
97.7749999999999915
 20
-2.5250000000000004
 30
0.0
 11
97.7749999999999915
 21
-16.5249999999999986
 31
0.0
  0
LINE
  5
120
100
AcDbEntity
  8
0
 62
256
370
-1
 48
1.0
  6
BYLAYER
100
AcDbLine
 10
-42.71875
 20
-35.5750000000000028
 30
0.0
 11
-28.71875
 21
-35.5750000000000028
 31
0.0
  0
LINE
  5
121
100
AcDbEntity
  8
0
 62
256
370
-1
 48
1.0
  6
BYLAYER
100
AcDbLine
 10
-28.71875
 20
-35.5750000000000028
 30
0.0
 11
-28.71875
 21
-21.5750000000000028
 31
0.0
  0
LINE
  5
122
100
AcDbEntity
  8
0
 62
256
370
-1
 48
1.0
  6
BYLAYER
100
AcDbLine
 10
-28.71875
 20
-21.5750000000000028
 30
0.0
 11
-42.71875
 21
-21.5750000000000028
 31
0.0
  0
LINE
  5
123
100
AcDbEntity
  8
0
 62
256
370
-1
 48
1.0
  6
BYLAYER
100
AcDbLine
 10
-42.71875
 20
-21.5750000000000028
 30
0.0
 11
-42.71875
 21
-35.5750000000000028
 31
0.0
  0
LINE
  5
124
100
AcDbEntity
  8
0
 62
256
370
-1
 48
1.0
  6
BYLAYER
100
AcDbLine
 10
-35.5750000000000028
 20
-16.5249999999999986
 30
0.0
 11
-21.5750000000000028
 21
-16.5249999999999986
 31
0.0
  0
LINE
  5
125
100
AcDbEntity
  8
0
 62
256
370
-1
 48
1.0
  6
BYLAYER
100
AcDbLine
 10
-21.5750000000000028
 20
-16.5249999999999986
 30
0.0
 11
-21.5750000000000028
 21
-2.5250000000000004
 31
0.0
  0
LINE
  5
126
100
AcDbEntity
  8
0
 62
256
370
-1
 48
1.0
  6
BYLAYER
100
AcDbLine
 10
-21.5750000000000028
 20
-2.5250000000000004
 30
0.0
 11
-35.5750000000000028
 21
-2.5250000000000004
 31
0.0
  0
LINE
  5
127
100
AcDbEntity
  8
0
 62
256
370
-1
 48
1.0
  6
BYLAYER
100
AcDbLine
 10
-35.5750000000000028
 20
-2.5250000000000004
 30
0.0
 11
-35.5750000000000028
 21
-16.5249999999999986
 31
0.0
  0
LINE
  5
128
100
AcDbEntity
  8
0
 62
256
370
-1
 48
1.0
  6
BYLAYER
100
AcDbLine
 10
-54.625
 20
-16.5249999999999986
 30
0.0
 11
-40.625
 21
-16.5249999999999986
 31
0.0
  0
LINE
  5
129
100
AcDbEntity
  8
0
 62
256
370
-1
 48
1.0
  6
BYLAYER
100
AcDbLine
 10
-40.625
 20
-16.5249999999999986
 30
0.0
 11
-40.625
 21
-2.5250000000000004
 31
0.0
  0
LINE
  5
12A
100
AcDbEntity
  8
0
 62
256
370
-1
 48
1.0
  6
BYLAYER
100
AcDbLine
 10
-40.625
 20
-2.5250000000000004
 30
0.0
 11
-54.625
 21
-2.5250000000000004
 31
0.0
  0
LINE
  5
12B
100
AcDbEntity
  8
0
 62
256
370
-1
 48
1.0
  6
BYLAYER
100
AcDbLine
 10
-54.625
 20
-2.5250000000000004
 30
0.0
 11
-54.625
 21
-16.5249999999999986
 31
0.0
  0
LINE
  5
12C
100
AcDbEntity
  8
0
 62
256
370
-1
 48
1.0
  6
BYLAYER
100
AcDbLine
 10
-30.8125
 20
2.5250000000000004
 30
0.0
 11
-16.8125
 21
2.5250000000000004
 31
0.0
  0
LINE
  5
12D
100
AcDbEntity
  8
0
 62
256
370
-1
 48
1.0
  6
BYLAYER
100
AcDbLine
 10
-16.8125
 20
2.5250000000000004
 30
0.0
 11
-16.8125
 21
16.5249999999999986
 31
0.0
  0
LINE
  5
12E
100
AcDbEntity
  8
0
 62
256
370
-1
 48
1.0
  6
BYLAYER
100
AcDbLine
 10
-16.8125
 20
16.5249999999999986
 30
0.0
 11
-30.8125
 21
16.5249999999999986
 31
0.0
  0
LINE
  5
12F
100
AcDbEntity
  8
0
 62
256
370
-1
 48
1.0
  6
BYLAYER
100
AcDbLine
 10
-30.8125
 20
16.5249999999999986
 30
0.0
 11
-30.8125
 21
2.5250000000000004
 31
0.0
  0
LINE
  5
130
100
AcDbEntity
  8
0
 62
256
370
-1
 48
1.0
  6
BYLAYER
100
AcDbLine
 10
-26.0500000000000007
 20
21.5750000000000064
 30
0.0
 11
-12.0500000000000007
 21
21.5750000000000064
 31
0.0
  0
LINE
  5
131
100
AcDbEntity
  8
0
 62
256
370
-1
 48
1.0
  6
BYLAYER
100
AcDbLine
 10
-12.0500000000000007
 20
21.5750000000000064
 30
0.0
 11
-12.0500000000000007
 21
35.5750000000000028
 31
0.0
  0
LINE
  5
132
100
AcDbEntity
  8
0
 62
256
370
-1
 48
1.0
  6
BYLAYER
100
AcDbLine
 10
-12.0500000000000007
 20
35.5750000000000028
 30
0.0
 11
-26.0500000000000007
 21
35.5750000000000028
 31
0.0
  0
LINE
  5
133
100
AcDbEntity
  8
0
 62
256
370
-1
 48
1.0
  6
BYLAYER
100
AcDbLine
 10
-26.0500000000000007
 20
35.5750000000000028
 30
0.0
 11
-26.0500000000000007
 21
21.5750000000000064
 31
0.0
  0
LINE
  5
134
100
AcDbEntity
  8
0
 62
256
370
-1
 48
1.0
  6
BYLAYER
100
AcDbLine
 10
-45.1000000000000014
 20
21.5750000000000064
 30
0.0
 11
-31.1000000000000014
 21
21.5750000000000064
 31
0.0
  0
LINE
  5
135
100
AcDbEntity
  8
0
 62
256
370
-1
 48
1.0
  6
BYLAYER
100
AcDbLine
 10
-31.1000000000000014
 20
21.5750000000000064
 30
0.0
 11
-31.1000000000000014
 21
35.5750000000000028
 31
0.0
  0
LINE
  5
136
100
AcDbEntity
  8
0
 62
256
370
-1
 48
1.0
  6
BYLAYER
100
AcDbLine
 10
-31.1000000000000014
 20
35.5750000000000028
 30
0.0
 11
-45.1000000000000014
 21
35.5750000000000028
 31
0.0
  0
LINE
  5
137
100
AcDbEntity
  8
0
 62
256
370
-1
 48
1.0
  6
BYLAYER
100
AcDbLine
 10
-45.1000000000000014
 20
35.5750000000000028
 30
0.0
 11
-45.1000000000000014
 21
21.5750000000000064
 31
0.0
  0
LINE
  5
138
100
AcDbEntity
  8
0
 62
256
370
-1
 48
1.0
  6
BYLAYER
100
AcDbLine
 10
-64.1500000000000057
 20
21.5750000000000064
 30
0.0
 11
-50.1500000000000057
 21
21.5750000000000064
 31
0.0
  0
LINE
  5
139
100
AcDbEntity
  8
0
 62
256
370
-1
 48
1.0
  6
BYLAYER
100
AcDbLine
 10
-50.1500000000000057
 20
21.5750000000000064
 30
0.0
 11
-50.1500000000000057
 21
35.5750000000000028
 31
0.0
  0
LINE
  5
13A
100
AcDbEntity
  8
0
 62
256
370
-1
 48
1.0
  6
BYLAYER
100
AcDbLine
 10
-50.1500000000000057
 20
35.5750000000000028
 30
0.0
 11
-64.1500000000000057
 21
35.5750000000000028
 31
0.0
  0
LINE
  5
13B
100
AcDbEntity
  8
0
 62
256
370
-1
 48
1.0
  6
BYLAYER
100
AcDbLine
 10
-64.1500000000000057
 20
35.5750000000000028
 30
0.0
 11
-64.1500000000000057
 21
21.5750000000000064
 31
0.0
  0
LINE
  5
13C
100
AcDbEntity
  8
0
 62
256
370
-1
 48
1.0
  6
BYLAYER
100
AcDbLine
 10
-68.9124999999999943
 20
2.5250000000000004
 30
0.0
 11
-54.9124999999999943
 21
2.5250000000000004
 31
0.0
  0
LINE
  5
13D
100
AcDbEntity
  8
0
 62
256
370
-1
 48
1.0
  6
BYLAYER
100
AcDbLine
 10
-54.9124999999999943
 20
2.5250000000000004
 30
0.0
 11
-54.9124999999999943
 21
16.5249999999999986
 31
0.0
  0
LINE
  5
13E
100
AcDbEntity
  8
0
 62
256
370
-1
 48
1.0
  6
BYLAYER
100
AcDbLine
 10
-54.9124999999999943
 20
16.5249999999999986
 30
0.0
 11
-68.9124999999999943
 21
16.5249999999999986
 31
0.0
  0
LINE
  5
13F
100
AcDbEntity
  8
0
 62
256
370
-1
 48
1.0
  6
BYLAYER
100
AcDbLine
 10
-68.9124999999999943
 20
16.5249999999999986
 30
0.0
 11
-68.9124999999999943
 21
2.5250000000000004
 31
0.0
  0
LINE
  5
140
100
AcDbEntity
  8
0
 62
256
370
-1
 48
1.0
  6
BYLAYER
100
AcDbLine
 10
-49.8624999999999972
 20
2.5250000000000004
 30
0.0
 11
-35.8624999999999972
 21
2.5250000000000004
 31
0.0
  0
LINE
  5
141
100
AcDbEntity
  8
0
 62
256
370
-1
 48
1.0
  6
BYLAYER
100
AcDbLine
 10
-35.8624999999999972
 20
2.5250000000000004
 30
0.0
 11
-35.8624999999999972
 21
16.5249999999999986
 31
0.0
  0
LINE
  5
142
100
AcDbEntity
  8
0
 62
256
370
-1
 48
1.0
  6
BYLAYER
100
AcDbLine
 10
-35.8624999999999972
 20
16.5249999999999986
 30
0.0
 11
-49.8624999999999972
 21
16.5249999999999986
 31
0.0
  0
LINE
  5
143
100
AcDbEntity
  8
0
 62
256
370
-1
 48
1.0
  6
BYLAYER
100
AcDbLine
 10
-49.8624999999999972
 20
16.5249999999999986
 30
0.0
 11
-49.8624999999999972
 21
2.5250000000000004
 31
0.0
  0
LINE
  5
144
100
AcDbEntity
  8
0
 62
256
370
-1
 48
1.0
  6
BYLAYER
100
AcDbLine
 10
-73.6749999999999972
 20
-16.5249999999999986
 30
0.0
 11
-59.6749999999999972
 21
-16.5249999999999986
 31
0.0
  0
LINE
  5
145
100
AcDbEntity
  8
0
 62
256
370
-1
 48
1.0
  6
BYLAYER
100
AcDbLine
 10
-59.6749999999999972
 20
-16.5249999999999986
 30
0.0
 11
-59.6749999999999972
 21
-2.5250000000000004
 31
0.0
  0
LINE
  5
146
100
AcDbEntity
  8
0
 62
256
370
-1
 48
1.0
  6
BYLAYER
100
AcDbLine
 10
-59.6749999999999972
 20
-2.5250000000000004
 30
0.0
 11
-73.6749999999999972
 21
-2.5250000000000004
 31
0.0
  0
LINE
  5
147
100
AcDbEntity
  8
0
 62
256
370
-1
 48
1.0
  6
BYLAYER
100
AcDbLine
 10
-73.6749999999999972
 20
-2.5250000000000004
 30
0.0
 11
-73.6749999999999972
 21
-16.5249999999999986
 31
0.0
  0
LINE
  5
148
100
AcDbEntity
  8
0
 62
256
370
-1
 48
1.0
  6
BYLAYER
100
AcDbLine
 10
-66.53125
 20
-35.5750000000000028
 30
0.0
 11
-52.53125
 21
-35.5750000000000028
 31
0.0
  0
LINE
  5
149
100
AcDbEntity
  8
0
 62
256
370
-1
 48
1.0
  6
BYLAYER
100
AcDbLine
 10
-52.53125
 20
-35.5750000000000028
 30
0.0
 11
-52.53125
 21
-21.5750000000000028
 31
0.0
  0
LINE
  5
14A
100
AcDbEntity
  8
0
 62
256
370
-1
 48
1.0
  6
BYLAYER
100
AcDbLine
 10
-52.53125
 20
-21.5750000000000028
 30
0.0
 11
-66.53125
 21
-21.5750000000000028
 31
0.0
  0
LINE
  5
14B
100
AcDbEntity
  8
0
 62
256
370
-1
 48
1.0
  6
BYLAYER
100
AcDbLine
 10
-66.53125
 20
-21.5750000000000028
 30
0.0
 11
-66.53125
 21
-35.5750000000000028
 31
0.0
  0
LINE
  5
14C
100
AcDbEntity
  8
0
 62
256
370
-1
 48
1.0
  6
BYLAYER
100
AcDbLine
 10
-87.9625000000000057
 20
-35.5750000000000028
 30
0.0
 11
-73.9625000000000057
 21
-35.5750000000000028
 31
0.0
  0
LINE
  5
14D
100
AcDbEntity
  8
0
 62
256
370
-1
 48
1.0
  6
BYLAYER
100
AcDbLine
 10
-73.9625000000000057
 20
-35.5750000000000028
 30
0.0
 11
-73.9625000000000057
 21
-21.5750000000000028
 31
0.0
  0
LINE
  5
14E
100
AcDbEntity
  8
0
 62
256
370
-1
 48
1.0
  6
BYLAYER
100
AcDbLine
 10
-73.9625000000000057
 20
-21.5750000000000028
 30
0.0
 11
-87.9625000000000057
 21
-21.5750000000000028
 31
0.0
  0
LINE
  5
14F
100
AcDbEntity
  8
0
 62
256
370
-1
 48
1.0
  6
BYLAYER
100
AcDbLine
 10
-87.9625000000000057
 20
-21.5750000000000028
 30
0.0
 11
-87.9625000000000057
 21
-35.5750000000000028
 31
0.0
  0
LINE
  5
150
100
AcDbEntity
  8
0
 62
256
370
-1
 48
1.0
  6
BYLAYER
100
AcDbLine
 10
-92.7249999999999943
 20
-16.5249999999999986
 30
0.0
 11
-78.7249999999999943
 21
-16.5249999999999986
 31
0.0
  0
LINE
  5
151
100
AcDbEntity
  8
0
 62
256
370
-1
 48
1.0
  6
BYLAYER
100
AcDbLine
 10
-78.7249999999999943
 20
-16.5249999999999986
 30
0.0
 11
-78.7249999999999943
 21
-2.5250000000000004
 31
0.0
  0
LINE
  5
152
100
AcDbEntity
  8
0
 62
256
370
-1
 48
1.0
  6
BYLAYER
100
AcDbLine
 10
-78.7249999999999943
 20
-2.5250000000000004
 30
0.0
 11
-92.7249999999999943
 21
-2.5250000000000004
 31
0.0
  0
LINE
  5
153
100
AcDbEntity
  8
0
 62
256
370
-1
 48
1.0
  6
BYLAYER
100
AcDbLine
 10
-92.7249999999999943
 20
-2.5250000000000004
 30
0.0
 11
-92.7249999999999943
 21
-16.5249999999999986
 31
0.0
  0
LINE
  5
154
100
AcDbEntity
  8
0
 62
256
370
-1
 48
1.0
  6
BYLAYER
100
AcDbLine
 10
-111.7749999999999915
 20
-16.5249999999999986
 30
0.0
 11
-97.7749999999999915
 21
-16.5249999999999986
 31
0.0
  0
LINE
  5
155
100
AcDbEntity
  8
0
 62
256
370
-1
 48
1.0
  6
BYLAYER
100
AcDbLine
 10
-97.7749999999999915
 20
-16.5249999999999986
 30
0.0
 11
-97.7749999999999915
 21
-2.5250000000000004
 31
0.0
  0
LINE
  5
156
100
AcDbEntity
  8
0
 62
256
370
-1
 48
1.0
  6
BYLAYER
100
AcDbLine
 10
-97.7749999999999915
 20
-2.5250000000000004
 30
0.0
 11
-111.7749999999999915
 21
-2.5250000000000004
 31
0.0
  0
LINE
  5
157
100
AcDbEntity
  8
0
 62
256
370
-1
 48
1.0
  6
BYLAYER
100
AcDbLine
 10
-111.7749999999999915
 20
-2.5250000000000004
 30
0.0
 11
-111.7749999999999915
 21
-16.5249999999999986
 31
0.0
  0
LINE
  5
158
100
AcDbEntity
  8
0
 62
256
370
-1
 48
1.0
  6
BYLAYER
100
AcDbLine
 10
-109.3937499999999829
 20
2.5250000000000004
 30
0.0
 11
-95.3937499999999829
 21
2.5250000000000004
 31
0.0
  0
LINE
  5
159
100
AcDbEntity
  8
0
 62
256
370
-1
 48
1.0
  6
BYLAYER
100
AcDbLine
 10
-95.3937499999999829
 20
2.5250000000000004
 30
0.0
 11
-95.3937499999999829
 21
16.5249999999999986
 31
0.0
  0
LINE
  5
15A
100
AcDbEntity
  8
0
 62
256
370
-1
 48
1.0
  6
BYLAYER
100
AcDbLine
 10
-95.3937499999999829
 20
16.5249999999999986
 30
0.0
 11
-109.3937499999999829
 21
16.5249999999999986
 31
0.0
  0
LINE
  5
15B
100
AcDbEntity
  8
0
 62
256
370
-1
 48
1.0
  6
BYLAYER
100
AcDbLine
 10
-109.3937499999999829
 20
16.5249999999999986
 30
0.0
 11
-109.3937499999999829
 21
2.5250000000000004
 31
0.0
  0
LINE
  5
15C
100
AcDbEntity
  8
0
 62
256
370
-1
 48
1.0
  6
BYLAYER
100
AcDbLine
 10
-107.0125000000000028
 20
21.5750000000000064
 30
0.0
 11
-93.0125000000000028
 21
21.5750000000000064
 31
0.0
  0
LINE
  5
15D
100
AcDbEntity
  8
0
 62
256
370
-1
 48
1.0
  6
BYLAYER
100
AcDbLine
 10
-93.0125000000000028
 20
21.5750000000000064
 30
0.0
 11
-93.0125000000000028
 21
35.5750000000000028
 31
0.0
  0
LINE
  5
15E
100
AcDbEntity
  8
0
 62
256
370
-1
 48
1.0
  6
BYLAYER
100
AcDbLine
 10
-93.0125000000000028
 20
35.5750000000000028
 30
0.0
 11
-107.0125000000000028
 21
35.5750000000000028
 31
0.0
  0
LINE
  5
15F
100
AcDbEntity
  8
0
 62
256
370
-1
 48
1.0
  6
BYLAYER
100
AcDbLine
 10
-107.0125000000000028
 20
35.5750000000000028
 30
0.0
 11
-107.0125000000000028
 21
21.5750000000000064
 31
0.0
  0
LINE
  5
160
100
AcDbEntity
  8
0
 62
256
370
-1
 48
1.0
  6
BYLAYER
100
AcDbLine
 10
-83.2000000000000028
 20
21.5750000000000064
 30
0.0
 11
-69.2000000000000028
 21
21.5750000000000064
 31
0.0
  0
LINE
  5
161
100
AcDbEntity
  8
0
 62
256
370
-1
 48
1.0
  6
BYLAYER
100
AcDbLine
 10
-69.2000000000000028
 20
21.5750000000000064
 30
0.0
 11
-69.2000000000000028
 21
35.5750000000000028
 31
0.0
  0
LINE
  5
162
100
AcDbEntity
  8
0
 62
256
370
-1
 48
1.0
  6
BYLAYER
100
AcDbLine
 10
-69.2000000000000028
 20
35.5750000000000028
 30
0.0
 11
-83.2000000000000028
 21
35.5750000000000028
 31
0.0
  0
LINE
  5
163
100
AcDbEntity
  8
0
 62
256
370
-1
 48
1.0
  6
BYLAYER
100
AcDbLine
 10
-83.2000000000000028
 20
35.5750000000000028
 30
0.0
 11
-83.2000000000000028
 21
21.5750000000000064
 31
0.0
  0
LINE
  5
164
100
AcDbEntity
  8
0
 62
256
370
-1
 48
1.0
  6
BYLAYER
100
AcDbLine
 10
-87.9624999999999915
 20
2.5250000000000004
 30
0.0
 11
-73.9624999999999915
 21
2.5250000000000004
 31
0.0
  0
LINE
  5
165
100
AcDbEntity
  8
0
 62
256
370
-1
 48
1.0
  6
BYLAYER
100
AcDbLine
 10
-73.9624999999999915
 20
2.5250000000000004
 30
0.0
 11
-73.9624999999999915
 21
16.5249999999999986
 31
0.0
  0
LINE
  5
166
100
AcDbEntity
  8
0
 62
256
370
-1
 48
1.0
  6
BYLAYER
100
AcDbLine
 10
-73.9624999999999915
 20
16.5249999999999986
 30
0.0
 11
-87.9624999999999915
 21
16.5249999999999986
 31
0.0
  0
LINE
  5
167
100
AcDbEntity
  8
0
 62
256
370
-1
 48
1.0
  6
BYLAYER
100
AcDbLine
 10
-87.9624999999999915
 20
16.5249999999999986
 30
0.0
 11
-87.9624999999999915
 21
2.5250000000000004
 31
0.0
  0
ENDSEC
  0
SECTION
  2
OBJECTS
  0
DICTIONARY
  5
C
100
AcDbDictionary
280
0
281
1
  3
ACAD_GROUP
350
D
  3
ACAD_LAYOUT
350
1A
  3
ACAD_MLINESTYLE
350
17
  3
ACAD_PLOTSETTINGS
350
19
  3
ACAD_PLOTSTYLENAME
350
E
  3
AcDbVariableDictionary
350
168
  3
QCAD_OBJECTS
350
169
  0
DICTIONARY
  5
D
100
AcDbDictionary
280
0
281
1
  0
ACDBDICTIONARYWDFLT
  5
E
100
AcDbDictionary
281
1
  3
Normal
350
F
100
AcDbDictionaryWithDefault
340
F
  0
ACDBPLACEHOLDER
  5
F
  0
DICTIONARY
  5
17
100
AcDbDictionary
280
0
281
1
  3
Standard
350
18
  0
MLINESTYLE
  5
18
100
AcDbMlineStyle
  2
STANDARD
 70
0
  3

 62
256
 51
90.0
 52
90.0
 71
2
 49
0.5
 62
256
  6
BYLAYER
 49
-0.5
 62
256
  6
BYLAYER
  0
DICTIONARY
  5
19
100
AcDbDictionary
280
0
281
1
  0
DICTIONARY
  5
1A
100
AcDbDictionary
281
1
  3
Layout1
350
1E
  3
Layout2
350
26
  3
Model
350
22
  0
LAYOUT
  5
1E
100
AcDbPlotSettings
  1

  2
none_device
  4

  6

 40
0.0
 41
0.0
 42
0.0
 43
0.0
 44
0.0
 45
0.0
 46
0.0
 47
0.0
 48
0.0
 49
0.0
140
0.0
141
0.0
142
1.0
143
1.0
 70
688
 72
0
 73
0
 74
5
  7

 75
16
147
1.0
148
0.0
149
0.0
100
AcDbLayout
  1
Layout1
 70
1
 71
1
 10
0.0
 20
0.0
 11
420.0
 21
297.0
 12
0.0
 22
0.0
 32
0.0
 14
100000000000000000000.0
 24
100000000000000000000.0
 34
100000000000000000000.0
 15
-100000000000000000000.0
 25
-100000000000000000000.0
 35
-100000000000000000000.0
146
0.0
 13
0.0
 23
0.0
 33
0.0
 16
1.0
 26
0.0
 36
0.0
 17
0.0
 27
1.0
 37
0.0
 76
0
330
1B
  0
LAYOUT
  5
22
100
AcDbPlotSettings
  1

  2
none_device
  4

  6

 40
0.0
 41
0.0
 42
0.0
 43
0.0
 44
0.0
 45
0.0
 46
0.0
 47
0.0
 48
0.0
 49
0.0
140
0.0
141
0.0
142
1.0
143
1.0
 70
1712
 72
0
 73
0
 74
0
  7

 75
0
147
1.0
148
0.0
149
0.0
100
AcDbLayout
  1
Model
 70
1
 71
0
 10
0.0
 20
0.0
 11
12.0
 21
9.0
 12
0.0
 22
0.0
 32
0.0
 14
0.0
 24
0.0
 34
0.0
 15
0.0
 25
0.0
 35
0.0
146
0.0
 13
0.0
 23
0.0
 33
0.0
 16
1.0
 26
0.0
 36
0.0
 17
0.0
 27
1.0
 37
0.0
 76
0
330
1F
  0
LAYOUT
  5
26
100
AcDbPlotSettings
  1

  2
none_device
  4

  6

 40
0.0
 41
0.0
 42
0.0
 43
0.0
 44
0.0
 45
0.0
 46
0.0
 47
0.0
 48
0.0
 49
0.0
140
0.0
141
0.0
142
1.0
143
1.0
 70
688
 72
0
 73
0
 74
5
  7

 75
16
147
1.0
148
0.0
149
0.0
100
AcDbLayout
  1
Layout2
 70
1
 71
2
 10
0.0
 20
0.0
 11
12.0
 21
9.0
 12
0.0
 22
0.0
 32
0.0
 14
0.0
 24
0.0
 34
0.0
 15
0.0
 25
0.0
 35
0.0
146
0.0
 13
0.0
 23
0.0
 33
0.0
 16
1.0
 26
0.0
 36
0.0
 17
0.0
 27
1.0
 37
0.0
 76
0
330
23
  0
DICTIONARY
  5
168
100
AcDbDictionary
281
1
  3
DIMASSOC
350
16B
  3
HIDETEXT
350
16A
  0
DICTIONARYVAR
  5
16A
100
DictionaryVariables
280
0
  1
2
  0
DICTIONARYVAR
  5
16B
100
DictionaryVariables
280
0
  1
1
  0
DICTIONARY
  5
169
100
AcDbDictionary
281
1
  3
ColorSettings/BackgroundColor
350
16C
  3
ColorSettings/ColorMode
350
16D
  3
Grid/DisplayGrid00
350
16E
  3
Grid/DisplayGrid01
350
16F
  3
Grid/DisplayGrid02
350
170
  3
Grid/DisplayGrid03
350
171
  3
Grid/GridSpacingX00
350
172
  3
Grid/GridSpacingX01
350
173
  3
Grid/GridSpacingX02
350
174
  3
Grid/GridSpacingX03
350
175
  3
Grid/GridSpacingY00
350
176
  3
Grid/GridSpacingY01
350
177
  3
Grid/GridSpacingY02
350
178
  3
Grid/GridSpacingY03
350
179
  3
Grid/IsometricGrid00
350
17A
  3
Grid/IsometricGrid01
350
17B
  3
Grid/IsometricGrid02
350
17C
  3
Grid/IsometricGrid03
350
17D
  3
Grid/IsometricProjection00
350
17E
  3
Grid/IsometricProjection01
350
17F
  3
Grid/IsometricProjection02
350
180
  3
Grid/IsometricProjection03
350
181
  3
Grid/MetaGridSpacingX00
350
182
  3
Grid/MetaGridSpacingX01
350
183
  3
Grid/MetaGridSpacingX02
350
184
  3
Grid/MetaGridSpacingX03
350
185
  3
Grid/MetaGridSpacingY00
350
186
  3
Grid/MetaGridSpacingY01
350
187
  3
Grid/MetaGridSpacingY02
350
188
  3
Grid/MetaGridSpacingY03
350
189
  3
MultiPageSettings/Columns
350
18A
  3
MultiPageSettings/GlueMarginsBottom
350
18B
  3
MultiPageSettings/GlueMarginsLeft
350
18C
  3
MultiPageSettings/GlueMarginsRight
350
18D
  3
MultiPageSettings/GlueMarginsTop
350
18E
  3
MultiPageSettings/PrintCropMarks
350
18F
  3
MultiPageSettings/Rows
350
190
  3
PageSettings/OffsetX
350
191
  3
PageSettings/OffsetY
350
192
  3
PageSettings/PageOrientation
350
193
  3
PageSettings/PaperHeight
350
194
  3
PageSettings/PaperWidth
350
195
  3
PageSettings/Scale
350
196
  3
PageSettings/ShowPaperBorders
350
197
  3
PageTagSettings/EnablePageTags
350
198
  3
PageTagSettings/TagAlignment
350
199
  3
PageTagSettings/TagFont
350
19A
  3
PageTagSettings/TagPosition
350
19B
  3
QCADVersion
350
19C
  3
UnitSettings/PaperUnit
350
19D
  3
ViewportCenter
350
19E
  3
ViewportHeight
350
19F
  3
ViewportWidth
350
1A0
  0
XRECORD
  5
16C
330
169
100
AcDbXrecord
280
1
1000
\U+0411\U+0435\U+043b\U+044b\U+0439
  0
XRECORD
  5
16D
330
169
100
AcDbXrecord
280
1
1000
FullColor
  0
XRECORD
  5
16E
330
169
100
AcDbXrecord
280
1
290
1
  0
XRECORD
  5
16F
330
169
100
AcDbXrecord
280
1
290
1
  0
XRECORD
  5
170
330
169
100
AcDbXrecord
280
1
290
1
  0
XRECORD
  5
171
330
169
100
AcDbXrecord
280
1
290
1
  0
XRECORD
  5
172
330
169
100
AcDbXrecord
280
1
1000
auto
  0
XRECORD
  5
173
330
169
100
AcDbXrecord
280
1
1000
auto
  0
XRECORD
  5
174
330
169
100
AcDbXrecord
280
1
1000
auto
  0
XRECORD
  5
175
330
169
100
AcDbXrecord
280
1
1000
auto
  0
XRECORD
  5
176
330
169
100
AcDbXrecord
280
1
1000
auto
  0
XRECORD
  5
177
330
169
100
AcDbXrecord
280
1
1000
auto
  0
XRECORD
  5
178
330
169
100
AcDbXrecord
280
1
1000
auto
  0
XRECORD
  5
179
330
169
100
AcDbXrecord
280
1
1000
auto
  0
XRECORD
  5
17A
330
169
100
AcDbXrecord
280
1
290
0
  0
XRECORD
  5
17B
330
169
100
AcDbXrecord
280
1
290
0
  0
XRECORD
  5
17C
330
169
100
AcDbXrecord
280
1
290
0
  0
XRECORD
  5
17D
330
169
100
AcDbXrecord
280
1
290
0
  0
XRECORD
  5
17E
330
169
100
AcDbXrecord
280
1
 90
65537
  0
XRECORD
  5
17F
330
169
100
AcDbXrecord
280
1
 90
65537
  0
XRECORD
  5
180
330
169
100
AcDbXrecord
280
1
 90
65537
  0
XRECORD
  5
181
330
169
100
AcDbXrecord
280
1
 90
65537
  0
XRECORD
  5
182
330
169
100
AcDbXrecord
280
1
1000
auto
  0
XRECORD
  5
183
330
169
100
AcDbXrecord
280
1
1000
auto
  0
XRECORD
  5
184
330
169
100
AcDbXrecord
280
1
1000
auto
  0
XRECORD
  5
185
330
169
100
AcDbXrecord
280
1
1000
auto
  0
XRECORD
  5
186
330
169
100
AcDbXrecord
280
1
1000
auto
  0
XRECORD
  5
187
330
169
100
AcDbXrecord
280
1
1000
auto
  0
XRECORD
  5
188
330
169
100
AcDbXrecord
280
1
1000
auto
  0
XRECORD
  5
189
330
169
100
AcDbXrecord
280
1
1000
auto
  0
XRECORD
  5
18A
330
169
100
AcDbXrecord
280
1
 90
1
  0
XRECORD
  5
18B
330
169
100
AcDbXrecord
280
1
 40
10.0
  0
XRECORD
  5
18C
330
169
100
AcDbXrecord
280
1
 40
10.0
  0
XRECORD
  5
18D
330
169
100
AcDbXrecord
280
1
 40
10.0
  0
XRECORD
  5
18E
330
169
100
AcDbXrecord
280
1
 40
10.0
  0
XRECORD
  5
18F
330
169
100
AcDbXrecord
280
1
290
0
  0
XRECORD
  5
190
330
169
100
AcDbXrecord
280
1
 90
1
  0
XRECORD
  5
191
330
169
100
AcDbXrecord
280
1
 40
0.0
  0
XRECORD
  5
192
330
169
100
AcDbXrecord
280
1
 40
0.0
  0
XRECORD
  5
193
330
169
100
AcDbXrecord
280
1
1000
Portrait
  0
XRECORD
  5
194
330
169
100
AcDbXrecord
280
1
 40
297.0
  0
XRECORD
  5
195
330
169
100
AcDbXrecord
280
1
 40
210.0
  0
XRECORD
  5
196
330
169
100
AcDbXrecord
280
1
1000
1:1
  0
XRECORD
  5
197
330
169
100
AcDbXrecord
280
1
290
1
  0
XRECORD
  5
198
330
169
100
AcDbXrecord
280
1
290
0
  0
XRECORD
  5
199
330
169
100
AcDbXrecord
280
1
1000
Inside
  0
XRECORD
  5
19A
330
169
100
AcDbXrecord
280
1
1000
Arial,10,-1,5,50,0,0,0,0,0
  0
XRECORD
  5
19B
330
169
100
AcDbXrecord
280
1
1000
TopLeft
  0
XRECORD
  5
19C
330
169
100
AcDbXrecord
280
1
1000
3.24.3
  0
XRECORD
  5
19D
330
169
100
AcDbXrecord
280
1
 90
4
  0
XRECORD
  5
19F
330
169
100
AcDbXrecord
280
1
 40
491.5667374640988783
  0
XRECORD
  5
1A0
330
169
100
AcDbXrecord
280
1
 40
202.098911670881904
  0
ENDSEC
  0
EOF
