%TF.GenerationSoftware,KiCad,Pcbnew,(6.0.6)*%
%TF.CreationDate,2022-10-05T22:20:27+02:00*%
%TF.ProjectId,Larva,4c617276-612e-46b6-9963-61645f706362,rev?*%
%TF.SameCoordinates,Original*%
%TF.FileFunction,Paste,Bot*%
%TF.FilePolarity,Positive*%
%FSLAX46Y46*%
G04 Gerber Fmt 4.6, Leading zero omitted, Abs format (unit mm)*
G04 Created by KiCad (PCBNEW (6.0.6)) date 2022-10-05 22:20:27*
%MOMM*%
%LPD*%
G01*
G04 APERTURE LIST*
G04 Aperture macros list*
%AMRoundRect*
0 Rectangle with rounded corners*
0 $1 Rounding radius*
0 $2 $3 $4 $5 $6 $7 $8 $9 X,Y pos of 4 corners*
0 Add a 4 corners polygon primitive as box body*
4,1,4,$2,$3,$4,$5,$6,$7,$8,$9,$2,$3,0*
0 Add four circle primitives for the rounded corners*
1,1,$1+$1,$2,$3*
1,1,$1+$1,$4,$5*
1,1,$1+$1,$6,$7*
1,1,$1+$1,$8,$9*
0 Add four rect primitives between the rounded corners*
20,1,$1+$1,$2,$3,$4,$5,0*
20,1,$1+$1,$4,$5,$6,$7,0*
20,1,$1+$1,$6,$7,$8,$9,0*
20,1,$1+$1,$8,$9,$2,$3,0*%
G04 Aperture macros list end*
%ADD10RoundRect,0.225000X-0.335876X-0.017678X-0.017678X-0.335876X0.335876X0.017678X0.017678X0.335876X0*%
%ADD11RoundRect,0.225000X0.335876X0.017678X0.017678X0.335876X-0.335876X-0.017678X-0.017678X-0.335876X0*%
%ADD12RoundRect,0.225000X0.250000X-0.225000X0.250000X0.225000X-0.250000X0.225000X-0.250000X-0.225000X0*%
%ADD13RoundRect,0.150000X-0.150000X0.587500X-0.150000X-0.587500X0.150000X-0.587500X0.150000X0.587500X0*%
%ADD14RoundRect,0.250000X-0.625000X0.375000X-0.625000X-0.375000X0.625000X-0.375000X0.625000X0.375000X0*%
%ADD15RoundRect,0.200000X-0.335876X-0.053033X-0.053033X-0.335876X0.335876X0.053033X0.053033X0.335876X0*%
%ADD16RoundRect,0.200000X0.275000X-0.200000X0.275000X0.200000X-0.275000X0.200000X-0.275000X-0.200000X0*%
%ADD17R,1.800000X1.100000*%
%ADD18RoundRect,0.150000X0.150000X-0.512500X0.150000X0.512500X-0.150000X0.512500X-0.150000X-0.512500X0*%
%ADD19R,1.400000X1.200000*%
%ADD20RoundRect,0.200000X-0.275000X0.200000X-0.275000X-0.200000X0.275000X-0.200000X0.275000X0.200000X0*%
%ADD21RoundRect,0.200000X0.335876X0.053033X0.053033X0.335876X-0.335876X-0.053033X-0.053033X-0.335876X0*%
%ADD22RoundRect,0.225000X-0.250000X0.225000X-0.250000X-0.225000X0.250000X-0.225000X0.250000X0.225000X0*%
%ADD23RoundRect,0.218750X0.218750X0.256250X-0.218750X0.256250X-0.218750X-0.256250X0.218750X-0.256250X0*%
%ADD24R,0.600000X1.450000*%
%ADD25R,0.300000X1.450000*%
%ADD26RoundRect,0.250000X0.388909X0.000000X0.000000X0.388909X-0.388909X0.000000X0.000000X-0.388909X0*%
%ADD27RoundRect,0.062500X0.380070X-0.291682X-0.291682X0.380070X-0.380070X0.291682X0.291682X-0.380070X0*%
%ADD28RoundRect,0.062500X0.380070X0.291682X0.291682X0.380070X-0.380070X-0.291682X-0.291682X-0.380070X0*%
G04 APERTURE END LIST*
D10*
%TO.C,C1*%
X260315029Y-125231585D03*
X261411045Y-126327601D03*
%TD*%
%TO.C,C2*%
X259237400Y-126309215D03*
X260333416Y-127405231D03*
%TD*%
D11*
%TO.C,C3*%
X244495192Y-117374914D03*
X243399176Y-116278898D03*
%TD*%
D12*
%TO.C,C6*%
X158143000Y-54389000D03*
X158143000Y-52839000D03*
%TD*%
D13*
%TO.C,D1*%
X62863750Y-63884375D03*
X64763750Y-63884375D03*
X63813750Y-65759375D03*
%TD*%
%TO.C,D2*%
X103345000Y-63884375D03*
X105245000Y-63884375D03*
X104295000Y-65759375D03*
%TD*%
%TO.C,D3*%
X141445000Y-63884375D03*
X143345000Y-63884375D03*
X142395000Y-65759375D03*
%TD*%
%TO.C,D4*%
X179545000Y-63884375D03*
X181445000Y-63884375D03*
X180495000Y-65759375D03*
%TD*%
%TO.C,D5*%
X217645000Y-63884375D03*
X219545000Y-63884375D03*
X218595000Y-65759375D03*
%TD*%
%TO.C,D6*%
X59291875Y-82934375D03*
X61191875Y-82934375D03*
X60241875Y-84809375D03*
%TD*%
%TO.C,D7*%
X98582500Y-82934375D03*
X100482500Y-82934375D03*
X99532500Y-84809375D03*
%TD*%
%TO.C,D8*%
X136682500Y-82934375D03*
X138582500Y-82934375D03*
X137632500Y-84809375D03*
%TD*%
%TO.C,D9*%
X184307500Y-82934375D03*
X186207500Y-82934375D03*
X185257500Y-84809375D03*
%TD*%
%TO.C,D10*%
X222407500Y-82934375D03*
X224307500Y-82934375D03*
X223357500Y-84809375D03*
%TD*%
%TO.C,D11*%
X246220000Y-71028125D03*
X248120000Y-71028125D03*
X247170000Y-72903125D03*
%TD*%
%TO.C,D12*%
X55720000Y-101984375D03*
X57620000Y-101984375D03*
X56670000Y-103859375D03*
%TD*%
%TO.C,D13*%
X93820000Y-101984375D03*
X95720000Y-101984375D03*
X94770000Y-103859375D03*
%TD*%
%TO.C,D14*%
X131920000Y-101984375D03*
X133820000Y-101984375D03*
X132870000Y-103859375D03*
%TD*%
%TO.C,D15*%
X170020000Y-101984375D03*
X171920000Y-101984375D03*
X170970000Y-103859375D03*
%TD*%
%TO.C,D16*%
X208120000Y-101984375D03*
X210020000Y-101984375D03*
X209070000Y-103859375D03*
%TD*%
%TO.C,D19*%
X80723125Y-121034375D03*
X82623125Y-121034375D03*
X81673125Y-122909375D03*
%TD*%
%TO.C,D20*%
X127157500Y-121034375D03*
X129057500Y-121034375D03*
X128107500Y-122909375D03*
%TD*%
%TO.C,D21*%
X174782500Y-121034375D03*
X176682500Y-121034375D03*
X175732500Y-122909375D03*
%TD*%
%TO.C,D22*%
X221216875Y-121034375D03*
X223116875Y-121034375D03*
X222166875Y-122909375D03*
%TD*%
D14*
%TO.C,F1*%
X163431915Y-64421875D03*
X163431915Y-67221875D03*
%TD*%
D15*
%TO.C,R1*%
X258120000Y-127350000D03*
X259286726Y-128516726D03*
%TD*%
D16*
%TO.C,R2*%
X161050665Y-70218750D03*
X161050665Y-68568750D03*
%TD*%
%TO.C,R5*%
X159667000Y-54439000D03*
X159667000Y-52789000D03*
%TD*%
D17*
%TO.C,SW1*%
X240778100Y-92682940D03*
X246978100Y-88982940D03*
X240778100Y-88982940D03*
X246978100Y-92682940D03*
%TD*%
D13*
%TO.C,D17*%
X246220000Y-101984375D03*
X248120000Y-101984375D03*
X247170000Y-103859375D03*
%TD*%
D18*
%TO.C,U2*%
X160810040Y-66959375D03*
X159860040Y-66959375D03*
X158910040Y-66959375D03*
X158910040Y-64684375D03*
X159860040Y-64684375D03*
X160810040Y-64684375D03*
%TD*%
D16*
%TO.C,R3*%
X158669415Y-70218750D03*
X158669415Y-68568750D03*
%TD*%
D19*
%TO.C,Y1*%
X246698858Y-125546777D03*
X248898858Y-125546777D03*
X248898858Y-127246777D03*
X246698858Y-127246777D03*
%TD*%
D11*
%TO.C,C4*%
X245572822Y-116297283D03*
X244476806Y-115201267D03*
%TD*%
D20*
%TO.C,R4*%
X144173000Y-52789000D03*
X144173000Y-54439000D03*
%TD*%
%TO.C,R10*%
X145697000Y-52789000D03*
X145697000Y-54439000D03*
%TD*%
D10*
%TO.C,C5*%
X261393938Y-124147491D03*
X262489954Y-125243507D03*
%TD*%
D15*
%TO.C,R7*%
X248766407Y-110835367D03*
X249933133Y-112002093D03*
%TD*%
%TO.C,R8*%
X247688777Y-111912997D03*
X248855503Y-113079723D03*
%TD*%
D21*
%TO.C,R11*%
X251810000Y-110210000D03*
X250643274Y-109043274D03*
%TD*%
D22*
%TO.C,C7*%
X244900000Y-125625000D03*
X244900000Y-127175000D03*
%TD*%
%TO.C,C8*%
X250690000Y-125625000D03*
X250690000Y-127175000D03*
%TD*%
D23*
%TO.C,D18*%
X143242500Y-103420000D03*
X141667500Y-103420000D03*
%TD*%
%TO.C,D23*%
X162282500Y-103470000D03*
X160707500Y-103470000D03*
%TD*%
D15*
%TO.C,R6*%
X245517394Y-114088380D03*
X246684120Y-115255106D03*
%TD*%
%TO.C,R9*%
X246606339Y-112999435D03*
X247773065Y-114166161D03*
%TD*%
D24*
%TO.C,J2*%
X148670000Y-53098125D03*
X149470000Y-53098125D03*
D25*
X150670000Y-53098125D03*
X151670000Y-53098125D03*
X152170000Y-53098125D03*
X153170000Y-53098125D03*
D24*
X154370000Y-53098125D03*
X155170000Y-53098125D03*
X155170000Y-53098125D03*
X154370000Y-53098125D03*
D25*
X153670000Y-53098125D03*
X152670000Y-53098125D03*
X151170000Y-53098125D03*
X150170000Y-53098125D03*
D24*
X149470000Y-53098125D03*
X148670000Y-53098125D03*
%TD*%
D26*
%TO.C,U1*%
X254595000Y-121557716D03*
X255514239Y-116961522D03*
X254595000Y-116042284D03*
X253675761Y-116961522D03*
X255514239Y-118800000D03*
X254595000Y-117880761D03*
X252756522Y-119719239D03*
X254595000Y-119719239D03*
X251837284Y-118800000D03*
X252756522Y-117880761D03*
X257352716Y-118800000D03*
X253675761Y-118800000D03*
X256433478Y-117880761D03*
X253675761Y-120638478D03*
X255514239Y-120638478D03*
X256433478Y-119719239D03*
D27*
X258722736Y-119392202D03*
X258369182Y-119745755D03*
X258015629Y-120099309D03*
X257662076Y-120452862D03*
X257308522Y-120806415D03*
X256954969Y-121159969D03*
X256601415Y-121513522D03*
X256247862Y-121867076D03*
X255894309Y-122220629D03*
X255540755Y-122574182D03*
X255187202Y-122927736D03*
D28*
X254002798Y-122927736D03*
X253649245Y-122574182D03*
X253295691Y-122220629D03*
X252942138Y-121867076D03*
X252588585Y-121513522D03*
X252235031Y-121159969D03*
X251881478Y-120806415D03*
X251527924Y-120452862D03*
X251174371Y-120099309D03*
X250820818Y-119745755D03*
X250467264Y-119392202D03*
D27*
X250467264Y-118207798D03*
X250820818Y-117854245D03*
X251174371Y-117500691D03*
X251527924Y-117147138D03*
X251881478Y-116793585D03*
X252235031Y-116440031D03*
X252588585Y-116086478D03*
X252942138Y-115732924D03*
X253295691Y-115379371D03*
X253649245Y-115025818D03*
X254002798Y-114672264D03*
D28*
X255187202Y-114672264D03*
X255540755Y-115025818D03*
X255894309Y-115379371D03*
X256247862Y-115732924D03*
X256601415Y-116086478D03*
X256954969Y-116440031D03*
X257308522Y-116793585D03*
X257662076Y-117147138D03*
X258015629Y-117500691D03*
X258369182Y-117854245D03*
X258722736Y-118207798D03*
%TD*%
M02*
